  0
SECTION
  2
HEADER
  9
$ACADVER
  1
AC1009
  9
$EXTMIN
 10
-478.00000000
 20
-249.23762376
 30
0.0
  9
$EXTMAX
 10
225.32920792
 20
253.76237624
 30
0.0
  0
ENDSEC
  0
SECTION
  2
TABLES
  0
TABLE
  2
LAYER
 70
1
 0
LAYER
 2
Default_Layer
 70
0
 62
18
 6
CONTINUOUS
 0
ENDTAB
 0
ENDSEC
  0
SECTION
  2
ENTITIES
  0
POLYLINE
  8
Default_Layer
 62
256
 66
   1
 39
0.000000
 70
    1
  0
VERTEX
  8
0
 10
-340.71782178
 20
204.75495050
  0
VERTEX
  8
0
 10
-340.71782178
 20
174.00495050
  0
VERTEX
  8
0
 10
-338.71782178
 20
174.00495050
  0
VERTEX
  8
0
 10
-338.71782178
 20
153.50495050
  0
VERTEX
  8
0
 10
-340.71782178
 20
153.50495050
  0
VERTEX
  8
0
 10
-340.71782178
 20
133.00495050
  0
VERTEX
  8
0
 10
-338.71782178
 20
133.00495050
  0
VERTEX
  8
0
 10
-338.71782178
 20
112.50495050
  0
VERTEX
  8
0
 10
-340.71782178
 20
112.50495050
  0
VERTEX
  8
0
 10
-340.71782178
 20
92.00495050
  0
VERTEX
  8
0
 10
-338.71782178
 20
92.00495050
  0
VERTEX
  8
0
 10
-338.71782178
 20
71.50495050
  0
VERTEX
  8
0
 10
-340.71782178
 20
71.50495050
  0
VERTEX
  8
0
 10
-340.71782178
 20
51.00495050
  0
VERTEX
  8
0
 10
-338.71782178
 20
51.00495050
  0
VERTEX
  8
0
 10
-338.71782178
 20
30.50495050
  0
VERTEX
  8
0
 10
-340.71782178
 20
30.50495050
  0
VERTEX
  8
0
 10
-340.71782178
 20
10.00495050
  0
VERTEX
  8
0
 10
-338.71782178
 20
10.00495050
  0
VERTEX
  8
0
 10
-338.71782178
 20
-10.49504950
  0
VERTEX
  8
0
 10
-340.71782178
 20
-10.49504950
  0
VERTEX
  8
0
 10
-340.71782178
 20
-30.99504950
  0
VERTEX
  8
0
 10
-340.71782178
 20
-41.24504950
  0
VERTEX
  8
0
 10
-321.46782178
 20
-41.24504950
  0
VERTEX
  8
0
 10
-321.46782178
 20
-43.24504950
  0
VERTEX
  8
0
 10
-300.96782178
 20
-43.24504950
  0
VERTEX
  8
0
 10
-300.96782178
 20
-41.24504950
  0
VERTEX
  8
0
 10
-280.46782178
 20
-41.24504950
  0
VERTEX
  8
0
 10
-280.46782178
 20
-43.24504950
  0
VERTEX
  8
0
 10
-259.96782178
 20
-43.24504950
  0
VERTEX
  8
0
 10
-259.96782178
 20
-41.24504950
  0
VERTEX
  8
0
 10
-240.71782178
 20
-41.24504950
  0
VERTEX
  8
0
 10
-240.71782178
 20
-10.49504950
  0
VERTEX
  8
0
 10
-242.71782178
 20
-10.49504950
  0
VERTEX
  8
0
 10
-242.71782178
 20
10.00495050
  0
VERTEX
  8
0
 10
-240.71782178
 20
10.00495050
  0
VERTEX
  8
0
 10
-240.71782178
 20
30.50495050
  0
VERTEX
  8
0
 10
-242.71782178
 20
30.50495050
  0
VERTEX
  8
0
 10
-242.71782178
 20
51.00495050
  0
VERTEX
  8
0
 10
-240.71782178
 20
51.00495050
  0
VERTEX
  8
0
 10
-240.71782178
 20
71.50495050
  0
VERTEX
  8
0
 10
-242.71782178
 20
71.50495050
  0
VERTEX
  8
0
 10
-242.71782178
 20
92.00495050
  0
VERTEX
  8
0
 10
-240.71782178
 20
92.00495050
  0
VERTEX
  8
0
 10
-240.71782178
 20
112.50495050
  0
VERTEX
  8
0
 10
-242.71782178
 20
112.50495050
  0
VERTEX
  8
0
 10
-242.71782178
 20
133.00495050
  0
VERTEX
  8
0
 10
-240.71782178
 20
133.00495050
  0
VERTEX
  8
0
 10
-240.71782178
 20
153.50495050
  0
VERTEX
  8
0
 10
-242.71782178
 20
153.50495050
  0
VERTEX
  8
0
 10
-242.71782178
 20
174.00495050
  0
VERTEX
  8
0
 10
-240.71782178
 20
174.00495050
  0
VERTEX
  8
0
 10
-240.71782178
 20
194.50495050
  0
VERTEX
  8
0
 10
-240.71782178
 20
204.75495050
  0
VERTEX
  8
0
 10
-259.96782178
 20
204.75495050
  0
VERTEX
  8
0
 10
-259.96782178
 20
206.75495050
  0
VERTEX
  8
0
 10
-280.46782178
 20
206.75495050
  0
VERTEX
  8
0
 10
-280.46782178
 20
204.75495050
  0
VERTEX
  8
0
 10
-300.96782178
 20
204.75495050
  0
VERTEX
  8
0
 10
-300.96782178
 20
206.75495050
  0
VERTEX
  8
0
 10
-321.46782178
 20
206.75495050
  0
VERTEX
  8
0
 10
-321.46782178
 20
204.75495050
  0
VERTEX
  8
0
 10
-340.71782178
 20
204.75495050
  0
SEQEND
  0
POLYLINE
  8
Default_Layer
 62
256
 66
   1
 39
0.000000
 70
    1
  0
VERTEX
  8
0
 10
-122.67079208
 20
-247.23762376
  0
VERTEX
  8
0
 10
-103.42079208
 20
-247.23762376
  0
VERTEX
  8
0
 10
-103.42079208
 20
-249.23762376
  0
VERTEX
  8
0
 10
-82.92079208
 20
-249.23762376
  0
VERTEX
  8
0
 10
-82.92079208
 20
-247.23762376
  0
VERTEX
  8
0
 10
-62.42079208
 20
-247.23762376
  0
VERTEX
  8
0
 10
-62.42079208
 20
-249.23762376
  0
VERTEX
  8
0
 10
-41.92079208
 20
-249.23762376
  0
VERTEX
  8
0
 10
-41.92079208
 20
-247.23762376
  0
VERTEX
  8
0
 10
-21.42079208
 20
-247.23762376
  0
VERTEX
  8
0
 10
-21.42079208
 20
-249.23762376
  0
VERTEX
  8
0
 10
-0.92079208
 20
-249.23762376
  0
VERTEX
  8
0
 10
-0.92079208
 20
-247.23762376
  0
VERTEX
  8
0
 10
19.57920792
 20
-247.23762376
  0
VERTEX
  8
0
 10
19.57920792
 20
-249.23762376
  0
VERTEX
  8
0
 10
40.07920792
 20
-249.23762376
  0
VERTEX
  8
0
 10
40.07920792
 20
-247.23762376
  0
VERTEX
  8
0
 10
60.57920792
 20
-247.23762376
  0
VERTEX
  8
0
 10
60.57920792
 20
-249.23762376
  0
VERTEX
  8
0
 10
81.07920792
 20
-249.23762376
  0
VERTEX
  8
0
 10
81.07920792
 20
-247.23762376
  0
VERTEX
  8
0
 10
101.57920792
 20
-247.23762376
  0
VERTEX
  8
0
 10
101.57920792
 20
-249.23762376
  0
VERTEX
  8
0
 10
122.07920792
 20
-249.23762376
  0
VERTEX
  8
0
 10
122.07920792
 20
-247.23762376
  0
VERTEX
  8
0
 10
142.57920792
 20
-247.23762376
  0
VERTEX
  8
0
 10
142.57920792
 20
-249.23762376
  0
VERTEX
  8
0
 10
163.07920792
 20
-249.23762376
  0
VERTEX
  8
0
 10
163.07920792
 20
-247.23762376
  0
VERTEX
  8
0
 10
183.57920792
 20
-247.23762376
  0
VERTEX
  8
0
 10
183.57920792
 20
-249.23762376
  0
VERTEX
  8
0
 10
204.07920792
 20
-249.23762376
  0
VERTEX
  8
0
 10
204.07920792
 20
-247.23762376
  0
VERTEX
  8
0
 10
223.32920792
 20
-247.23762376
  0
VERTEX
  8
0
 10
223.32920792
 20
-216.48762376
  0
VERTEX
  8
0
 10
225.32920792
 20
-216.48762376
  0
VERTEX
  8
0
 10
225.32920792
 20
-195.98762376
  0
VERTEX
  8
0
 10
223.32920792
 20
-195.98762376
  0
VERTEX
  8
0
 10
223.32920792
 20
-175.48762376
  0
VERTEX
  8
0
 10
225.32920792
 20
-175.48762376
  0
VERTEX
  8
0
 10
225.32920792
 20
-154.98762376
  0
VERTEX
  8
0
 10
223.32920792
 20
-154.98762376
  0
VERTEX
  8
0
 10
223.32920792
 20
-134.48762376
  0
VERTEX
  8
0
 10
225.32920792
 20
-134.48762376
  0
VERTEX
  8
0
 10
225.32920792
 20
-113.98762376
  0
VERTEX
  8
0
 10
223.32920792
 20
-113.98762376
  0
VERTEX
  8
0
 10
223.32920792
 20
-93.48762376
  0
VERTEX
  8
0
 10
225.32920792
 20
-93.48762376
  0
VERTEX
  8
0
 10
225.32920792
 20
-72.98762376
  0
VERTEX
  8
0
 10
223.32920792
 20
-72.98762376
  0
VERTEX
  8
0
 10
223.32920792
 20
-52.48762376
  0
VERTEX
  8
0
 10
225.32920792
 20
-52.48762376
  0
VERTEX
  8
0
 10
225.32920792
 20
-31.98762376
  0
VERTEX
  8
0
 10
223.32920792
 20
-31.98762376
  0
VERTEX
  8
0
 10
223.32920792
 20
-11.48762376
  0
VERTEX
  8
0
 10
223.32920792
 20
-1.23762376
  0
VERTEX
  8
0
 10
204.07920792
 20
-1.23762376
  0
VERTEX
  8
0
 10
204.07920792
 20
0.76237624
  0
VERTEX
  8
0
 10
183.57920792
 20
0.76237624
  0
VERTEX
  8
0
 10
183.57920792
 20
-1.23762376
  0
VERTEX
  8
0
 10
163.07920792
 20
-1.23762376
  0
VERTEX
  8
0
 10
163.07920792
 20
0.76237624
  0
VERTEX
  8
0
 10
142.57920792
 20
0.76237624
  0
VERTEX
  8
0
 10
142.57920792
 20
-1.23762376
  0
VERTEX
  8
0
 10
122.07920792
 20
-1.23762376
  0
VERTEX
  8
0
 10
122.07920792
 20
0.76237624
  0
VERTEX
  8
0
 10
101.57920792
 20
0.76237624
  0
VERTEX
  8
0
 10
101.57920792
 20
-1.23762376
  0
VERTEX
  8
0
 10
81.07920792
 20
-1.23762376
  0
VERTEX
  8
0
 10
81.07920792
 20
0.76237624
  0
VERTEX
  8
0
 10
60.57920792
 20
0.76237624
  0
VERTEX
  8
0
 10
60.57920792
 20
-1.23762376
  0
VERTEX
  8
0
 10
40.07920792
 20
-1.23762376
  0
VERTEX
  8
0
 10
40.07920792
 20
0.76237624
  0
VERTEX
  8
0
 10
19.57920792
 20
0.76237624
  0
VERTEX
  8
0
 10
19.57920792
 20
-1.23762376
  0
VERTEX
  8
0
 10
-0.92079208
 20
-1.23762376
  0
VERTEX
  8
0
 10
-0.92079208
 20
0.76237624
  0
VERTEX
  8
0
 10
-21.42079208
 20
0.76237624
  0
VERTEX
  8
0
 10
-21.42079208
 20
-1.23762376
  0
VERTEX
  8
0
 10
-41.92079208
 20
-1.23762376
  0
VERTEX
  8
0
 10
-41.92079208
 20
0.76237624
  0
VERTEX
  8
0
 10
-62.42079208
 20
0.76237624
  0
VERTEX
  8
0
 10
-62.42079208
 20
-1.23762376
  0
VERTEX
  8
0
 10
-82.92079208
 20
-1.23762376
  0
VERTEX
  8
0
 10
-82.92079208
 20
0.76237624
  0
VERTEX
  8
0
 10
-103.42079208
 20
0.76237624
  0
VERTEX
  8
0
 10
-103.42079208
 20
-1.23762376
  0
VERTEX
  8
0
 10
-122.67079208
 20
-1.23762376
  0
VERTEX
  8
0
 10
-122.67079208
 20
-31.98762376
  0
VERTEX
  8
0
 10
-124.67079208
 20
-31.98762376
  0
VERTEX
  8
0
 10
-124.67079208
 20
-52.48762376
  0
VERTEX
  8
0
 10
-122.67079208
 20
-52.48762376
  0
VERTEX
  8
0
 10
-122.67079208
 20
-72.98762376
  0
VERTEX
  8
0
 10
-124.67079208
 20
-72.98762376
  0
VERTEX
  8
0
 10
-124.67079208
 20
-93.48762376
  0
VERTEX
  8
0
 10
-122.67079208
 20
-93.48762376
  0
VERTEX
  8
0
 10
-122.67079208
 20
-113.98762376
  0
VERTEX
  8
0
 10
-124.67079208
 20
-113.98762376
  0
VERTEX
  8
0
 10
-124.67079208
 20
-134.48762376
  0
VERTEX
  8
0
 10
-122.67079208
 20
-134.48762376
  0
VERTEX
  8
0
 10
-122.67079208
 20
-154.98762376
  0
VERTEX
  8
0
 10
-124.67079208
 20
-154.98762376
  0
VERTEX
  8
0
 10
-124.67079208
 20
-175.48762376
  0
VERTEX
  8
0
 10
-122.67079208
 20
-175.48762376
  0
VERTEX
  8
0
 10
-122.67079208
 20
-195.98762376
  0
VERTEX
  8
0
 10
-124.67079208
 20
-195.98762376
  0
VERTEX
  8
0
 10
-124.67079208
 20
-216.48762376
  0
VERTEX
  8
0
 10
-122.67079208
 20
-216.48762376
  0
VERTEX
  8
0
 10
-122.67079208
 20
-236.98762376
  0
VERTEX
  8
0
 10
-122.67079208
 20
-247.23762376
  0
SEQEND
  0
POLYLINE
  8
Default_Layer
 62
256
 66
   1
 39
0.000000
 70
    1
  0
VERTEX
  8
0
 10
-122.67079208
 20
5.76237624
  0
VERTEX
  8
0
 10
-122.67079208
 20
16.01237624
  0
VERTEX
  8
0
 10
-122.67079208
 20
36.51237624
  0
VERTEX
  8
0
 10
-124.67079208
 20
36.51237624
  0
VERTEX
  8
0
 10
-124.67079208
 20
57.01237624
  0
VERTEX
  8
0
 10
-122.67079208
 20
57.01237624
  0
VERTEX
  8
0
 10
-122.67079208
 20
77.51237624
  0
VERTEX
  8
0
 10
-124.67079208
 20
77.51237624
  0
VERTEX
  8
0
 10
-124.67079208
 20
98.01237624
  0
VERTEX
  8
0
 10
-122.67079208
 20
98.01237624
  0
VERTEX
  8
0
 10
-122.67079208
 20
118.51237624
  0
VERTEX
  8
0
 10
-124.67079208
 20
118.51237624
  0
VERTEX
  8
0
 10
-124.67079208
 20
139.01237624
  0
VERTEX
  8
0
 10
-122.67079208
 20
139.01237624
  0
VERTEX
  8
0
 10
-122.67079208
 20
159.51237624
  0
VERTEX
  8
0
 10
-124.67079208
 20
159.51237624
  0
VERTEX
  8
0
 10
-124.67079208
 20
180.01237624
  0
VERTEX
  8
0
 10
-122.67079208
 20
180.01237624
  0
VERTEX
  8
0
 10
-122.67079208
 20
200.51237624
  0
VERTEX
  8
0
 10
-124.67079208
 20
200.51237624
  0
VERTEX
  8
0
 10
-124.67079208
 20
221.01237624
  0
VERTEX
  8
0
 10
-122.67079208
 20
221.01237624
  0
VERTEX
  8
0
 10
-122.67079208
 20
251.76237624
  0
VERTEX
  8
0
 10
-103.42079208
 20
251.76237624
  0
VERTEX
  8
0
 10
-103.42079208
 20
253.76237624
  0
VERTEX
  8
0
 10
-82.92079208
 20
253.76237624
  0
VERTEX
  8
0
 10
-82.92079208
 20
251.76237624
  0
VERTEX
  8
0
 10
-62.42079208
 20
251.76237624
  0
VERTEX
  8
0
 10
-62.42079208
 20
253.76237624
  0
VERTEX
  8
0
 10
-41.92079208
 20
253.76237624
  0
VERTEX
  8
0
 10
-41.92079208
 20
251.76237624
  0
VERTEX
  8
0
 10
-21.42079208
 20
251.76237624
  0
VERTEX
  8
0
 10
-21.42079208
 20
253.76237624
  0
VERTEX
  8
0
 10
-0.92079208
 20
253.76237624
  0
VERTEX
  8
0
 10
-0.92079208
 20
251.76237624
  0
VERTEX
  8
0
 10
19.57920792
 20
251.76237624
  0
VERTEX
  8
0
 10
19.57920792
 20
253.76237624
  0
VERTEX
  8
0
 10
40.07920792
 20
253.76237624
  0
VERTEX
  8
0
 10
40.07920792
 20
251.76237624
  0
VERTEX
  8
0
 10
60.57920792
 20
251.76237624
  0
VERTEX
  8
0
 10
60.57920792
 20
253.76237624
  0
VERTEX
  8
0
 10
81.07920792
 20
253.76237624
  0
VERTEX
  8
0
 10
81.07920792
 20
251.76237624
  0
VERTEX
  8
0
 10
101.57920792
 20
251.76237624
  0
VERTEX
  8
0
 10
101.57920792
 20
253.76237624
  0
VERTEX
  8
0
 10
122.07920792
 20
253.76237624
  0
VERTEX
  8
0
 10
122.07920792
 20
251.76237624
  0
VERTEX
  8
0
 10
142.57920792
 20
251.76237624
  0
VERTEX
  8
0
 10
142.57920792
 20
253.76237624
  0
VERTEX
  8
0
 10
163.07920792
 20
253.76237624
  0
VERTEX
  8
0
 10
163.07920792
 20
251.76237624
  0
VERTEX
  8
0
 10
183.57920792
 20
251.76237624
  0
VERTEX
  8
0
 10
183.57920792
 20
253.76237624
  0
VERTEX
  8
0
 10
204.07920792
 20
253.76237624
  0
VERTEX
  8
0
 10
204.07920792
 20
251.76237624
  0
VERTEX
  8
0
 10
223.32920792
 20
251.76237624
  0
VERTEX
  8
0
 10
223.32920792
 20
241.51237624
  0
VERTEX
  8
0
 10
223.32920792
 20
221.01237624
  0
VERTEX
  8
0
 10
225.32920792
 20
221.01237624
  0
VERTEX
  8
0
 10
225.32920792
 20
200.51237624
  0
VERTEX
  8
0
 10
223.32920792
 20
200.51237624
  0
VERTEX
  8
0
 10
223.32920792
 20
180.01237624
  0
VERTEX
  8
0
 10
225.32920792
 20
180.01237624
  0
VERTEX
  8
0
 10
225.32920792
 20
159.51237624
  0
VERTEX
  8
0
 10
223.32920792
 20
159.51237624
  0
VERTEX
  8
0
 10
223.32920792
 20
139.01237624
  0
VERTEX
  8
0
 10
225.32920792
 20
139.01237624
  0
VERTEX
  8
0
 10
225.32920792
 20
118.51237624
  0
VERTEX
  8
0
 10
223.32920792
 20
118.51237624
  0
VERTEX
  8
0
 10
223.32920792
 20
98.01237624
  0
VERTEX
  8
0
 10
225.32920792
 20
98.01237624
  0
VERTEX
  8
0
 10
225.32920792
 20
77.51237624
  0
VERTEX
  8
0
 10
223.32920792
 20
77.51237624
  0
VERTEX
  8
0
 10
223.32920792
 20
57.01237624
  0
VERTEX
  8
0
 10
225.32920792
 20
57.01237624
  0
VERTEX
  8
0
 10
225.32920792
 20
36.51237624
  0
VERTEX
  8
0
 10
223.32920792
 20
36.51237624
  0
VERTEX
  8
0
 10
223.32920792
 20
5.76237624
  0
VERTEX
  8
0
 10
204.07920792
 20
5.76237624
  0
VERTEX
  8
0
 10
204.07920792
 20
3.76237624
  0
VERTEX
  8
0
 10
183.57920792
 20
3.76237624
  0
VERTEX
  8
0
 10
183.57920792
 20
5.76237624
  0
VERTEX
  8
0
 10
163.07920792
 20
5.76237624
  0
VERTEX
  8
0
 10
163.07920792
 20
3.76237624
  0
VERTEX
  8
0
 10
142.57920792
 20
3.76237624
  0
VERTEX
  8
0
 10
142.57920792
 20
5.76237624
  0
VERTEX
  8
0
 10
122.07920792
 20
5.76237624
  0
VERTEX
  8
0
 10
122.07920792
 20
3.76237624
  0
VERTEX
  8
0
 10
101.57920792
 20
3.76237624
  0
VERTEX
  8
0
 10
101.57920792
 20
5.76237624
  0
VERTEX
  8
0
 10
81.07920792
 20
5.76237624
  0
VERTEX
  8
0
 10
81.07920792
 20
3.76237624
  0
VERTEX
  8
0
 10
60.57920792
 20
3.76237624
  0
VERTEX
  8
0
 10
60.57920792
 20
5.76237624
  0
VERTEX
  8
0
 10
40.07920792
 20
5.76237624
  0
VERTEX
  8
0
 10
40.07920792
 20
3.76237624
  0
VERTEX
  8
0
 10
19.57920792
 20
3.76237624
  0
VERTEX
  8
0
 10
19.57920792
 20
5.76237624
  0
VERTEX
  8
0
 10
-0.92079208
 20
5.76237624
  0
VERTEX
  8
0
 10
-0.92079208
 20
3.76237624
  0
VERTEX
  8
0
 10
-21.42079208
 20
3.76237624
  0
VERTEX
  8
0
 10
-21.42079208
 20
5.76237624
  0
VERTEX
  8
0
 10
-41.92079208
 20
5.76237624
  0
VERTEX
  8
0
 10
-41.92079208
 20
3.76237624
  0
VERTEX
  8
0
 10
-62.42079208
 20
3.76237624
  0
VERTEX
  8
0
 10
-62.42079208
 20
5.76237624
  0
VERTEX
  8
0
 10
-82.92079208
 20
5.76237624
  0
VERTEX
  8
0
 10
-82.92079208
 20
3.76237624
  0
VERTEX
  8
0
 10
-103.42079208
 20
3.76237624
  0
VERTEX
  8
0
 10
-103.42079208
 20
5.76237624
  0
VERTEX
  8
0
 10
-122.67079208
 20
5.76237624
  0
SEQEND
  0
CIRCLE
  8
Default_Layer
 62
256
 10
117.372525
 20
233.482673
 40
3.000000
  0
CIRCLE
  8
Default_Layer
 62
256
 10
193.102004
 20
233.482673
 40
3.000000
  0
CIRCLE
  8
Default_Layer
 62
256
 10
158.102004
 20
233.482673
 40
3.000000
  0
CIRCLE
  8
Default_Layer
 62
256
 10
32.372525
 20
233.482673
 40
3.000000
  0
CIRCLE
  8
Default_Layer
 62
256
 10
-85.572635
 20
231.482673
 40
5.000000
  0
CIRCLE
  8
Default_Layer
 62
256
 10
-85.572635
 20
206.482673
 40
4.000000
  0
CIRCLE
  8
Default_Layer
 62
256
 10
-85.572635
 20
181.482673
 40
2.500000
  0
CIRCLE
  8
Default_Layer
 62
256
 10
-65.572635
 20
231.482673
 40
5.000000
  0
CIRCLE
  8
Default_Layer
 62
256
 10
-65.572635
 20
206.482673
 40
4.000000
  0
CIRCLE
  8
Default_Layer
 62
256
 10
-65.572635
 20
181.482673
 40
2.500000
  0
CIRCLE
  8
Default_Layer
 62
256
 10
-35.572635
 20
231.482673
 40
10.000000
  0
CIRCLE
  8
Default_Layer
 62
256
 10
-35.572635
 20
206.482673
 40
4.000000
  0
CIRCLE
  8
Default_Layer
 62
256
 10
-35.572635
 20
181.482673
 40
2.500000
  0
POLYLINE
  8
Default_Layer
 62
256
 66
   1
 39
0.000000
 70
    1
  0
VERTEX
  8
0
 10
-41.82279208
 20
102.88137624
  0
VERTEX
  8
0
 10
-41.82279208
 20
152.88137624
  0
VERTEX
  8
0
 10
8.17720792
 20
152.88137624
  0
VERTEX
  8
0
 10
8.17720792
 20
102.88137624
  0
VERTEX
  8
0
 10
-41.82279208
 20
102.88137624
  0
SEQEND
  0
POLYLINE
  8
Default_Layer
 62
256
 66
   1
 39
0.000000
 70
    1
  0
VERTEX
  8
0
 10
-41.82279208
 20
47.88137624
  0
VERTEX
  8
0
 10
-41.82279208
 20
97.88137624
  0
VERTEX
  8
0
 10
8.17720792
 20
97.88137624
  0
VERTEX
  8
0
 10
8.17720792
 20
47.88137624
  0
VERTEX
  8
0
 10
-41.82279208
 20
47.88137624
  0
SEQEND
  0
POLYLINE
  8
Default_Layer
 62
256
 66
   1
 39
0.000000
 70
    1
  0
VERTEX
  8
0
 10
-96.82279208
 20
47.88137624
  0
VERTEX
  8
0
 10
-96.82279208
 20
97.88137624
  0
VERTEX
  8
0
 10
-46.82279208
 20
97.88137624
  0
VERTEX
  8
0
 10
-46.82279208
 20
47.88137624
  0
VERTEX
  8
0
 10
-96.82279208
 20
47.88137624
  0
SEQEND
  0
POLYLINE
  8
Default_Layer
 62
256
 66
   1
 39
0.000000
 70
    1
  0
VERTEX
  8
0
 10
-96.82279208
 20
102.88137624
  0
VERTEX
  8
0
 10
-96.82279208
 20
152.88137624
  0
VERTEX
  8
0
 10
-46.82279208
 20
152.88137624
  0
VERTEX
  8
0
 10
-46.82279208
 20
102.88137624
  0
VERTEX
  8
0
 10
-96.82279208
 20
102.88137624
  0
SEQEND
  0
POLYLINE
  8
Default_Layer
 62
256
 66
   1
 39
0.000000
 70
    1
  0
VERTEX
  8
0
 10
-478.00000000
 20
-249.23762376
  0
VERTEX
  8
0
 10
-478.00000000
 20
-229.98762376
  0
VERTEX
  8
0
 10
-476.00000000
 20
-229.98762376
  0
VERTEX
  8
0
 10
-476.00000000
 20
-209.48762376
  0
VERTEX
  8
0
 10
-478.00000000
 20
-209.48762376
  0
VERTEX
  8
0
 10
-478.00000000
 20
-188.98762376
  0
VERTEX
  8
0
 10
-476.00000000
 20
-188.98762376
  0
VERTEX
  8
0
 10
-476.00000000
 20
-168.48762376
  0
VERTEX
  8
0
 10
-478.00000000
 20
-168.48762376
  0
VERTEX
  8
0
 10
-478.00000000
 20
-149.23762376
  0
VERTEX
  8
0
 10
-456.75000000
 20
-149.23762376
  0
VERTEX
  8
0
 10
-456.75000000
 20
-151.23762376
  0
VERTEX
  8
0
 10
-436.25000000
 20
-151.23762376
  0
VERTEX
  8
0
 10
-436.25000000
 20
-149.23762376
  0
VERTEX
  8
0
 10
-415.75000000
 20
-149.23762376
  0
VERTEX
  8
0
 10
-415.75000000
 20
-151.23762376
  0
VERTEX
  8
0
 10
-395.25000000
 20
-151.23762376
  0
VERTEX
  8
0
 10
-395.25000000
 20
-149.23762376
  0
VERTEX
  8
0
 10
-374.75000000
 20
-149.23762376
  0
VERTEX
  8
0
 10
-374.75000000
 20
-151.23762376
  0
VERTEX
  8
0
 10
-354.25000000
 20
-151.23762376
  0
VERTEX
  8
0
 10
-354.25000000
 20
-149.23762376
  0
VERTEX
  8
0
 10
-333.75000000
 20
-149.23762376
  0
VERTEX
  8
0
 10
-333.75000000
 20
-151.23762376
  0
VERTEX
  8
0
 10
-313.25000000
 20
-151.23762376
  0
VERTEX
  8
0
 10
-313.25000000
 20
-149.23762376
  0
VERTEX
  8
0
 10
-292.75000000
 20
-149.23762376
  0
VERTEX
  8
0
 10
-292.75000000
 20
-151.23762376
  0
VERTEX
  8
0
 10
-272.25000000
 20
-151.23762376
  0
VERTEX
  8
0
 10
-272.25000000
 20
-149.23762376
  0
VERTEX
  8
0
 10
-251.75000000
 20
-149.23762376
  0
VERTEX
  8
0
 10
-251.75000000
 20
-151.23762376
  0
VERTEX
  8
0
 10
-231.25000000
 20
-151.23762376
  0
VERTEX
  8
0
 10
-231.25000000
 20
-149.23762376
  0
VERTEX
  8
0
 10
-210.75000000
 20
-149.23762376
  0
VERTEX
  8
0
 10
-210.75000000
 20
-151.23762376
  0
VERTEX
  8
0
 10
-190.25000000
 20
-151.23762376
  0
VERTEX
  8
0
 10
-190.25000000
 20
-149.23762376
  0
VERTEX
  8
0
 10
-169.75000000
 20
-149.23762376
  0
VERTEX
  8
0
 10
-169.75000000
 20
-151.23762376
  0
VERTEX
  8
0
 10
-149.25000000
 20
-151.23762376
  0
VERTEX
  8
0
 10
-149.25000000
 20
-149.23762376
  0
VERTEX
  8
0
 10
-128.00000000
 20
-149.23762376
  0
VERTEX
  8
0
 10
-128.00000000
 20
-168.48762376
  0
VERTEX
  8
0
 10
-130.00000000
 20
-168.48762376
  0
VERTEX
  8
0
 10
-130.00000000
 20
-188.98762376
  0
VERTEX
  8
0
 10
-128.00000000
 20
-188.98762376
  0
VERTEX
  8
0
 10
-128.00000000
 20
-209.48762376
  0
VERTEX
  8
0
 10
-130.00000000
 20
-209.48762376
  0
VERTEX
  8
0
 10
-130.00000000
 20
-229.98762376
  0
VERTEX
  8
0
 10
-128.00000000
 20
-229.98762376
  0
VERTEX
  8
0
 10
-128.00000000
 20
-249.23762376
  0
VERTEX
  8
0
 10
-149.25000000
 20
-249.23762376
  0
VERTEX
  8
0
 10
-149.25000000
 20
-247.23762376
  0
VERTEX
  8
0
 10
-169.75000000
 20
-247.23762376
  0
VERTEX
  8
0
 10
-169.75000000
 20
-249.23762376
  0
VERTEX
  8
0
 10
-190.25000000
 20
-249.23762376
  0
VERTEX
  8
0
 10
-190.25000000
 20
-247.23762376
  0
VERTEX
  8
0
 10
-210.75000000
 20
-247.23762376
  0
VERTEX
  8
0
 10
-210.75000000
 20
-249.23762376
  0
VERTEX
  8
0
 10
-231.25000000
 20
-249.23762376
  0
VERTEX
  8
0
 10
-231.25000000
 20
-247.23762376
  0
VERTEX
  8
0
 10
-251.75000000
 20
-247.23762376
  0
VERTEX
  8
0
 10
-251.75000000
 20
-249.23762376
  0
VERTEX
  8
0
 10
-272.25000000
 20
-249.23762376
  0
VERTEX
  8
0
 10
-272.25000000
 20
-247.23762376
  0
VERTEX
  8
0
 10
-292.75000000
 20
-247.23762376
  0
VERTEX
  8
0
 10
-292.75000000
 20
-249.23762376
  0
VERTEX
  8
0
 10
-313.25000000
 20
-249.23762376
  0
VERTEX
  8
0
 10
-313.25000000
 20
-247.23762376
  0
VERTEX
  8
0
 10
-333.75000000
 20
-247.23762376
  0
VERTEX
  8
0
 10
-333.75000000
 20
-249.23762376
  0
VERTEX
  8
0
 10
-354.25000000
 20
-249.23762376
  0
VERTEX
  8
0
 10
-354.25000000
 20
-247.23762376
  0
VERTEX
  8
0
 10
-374.75000000
 20
-247.23762376
  0
VERTEX
  8
0
 10
-374.75000000
 20
-249.23762376
  0
VERTEX
  8
0
 10
-395.25000000
 20
-249.23762376
  0
VERTEX
  8
0
 10
-395.25000000
 20
-247.23762376
  0
VERTEX
  8
0
 10
-415.75000000
 20
-247.23762376
  0
VERTEX
  8
0
 10
-415.75000000
 20
-249.23762376
  0
VERTEX
  8
0
 10
-436.25000000
 20
-249.23762376
  0
VERTEX
  8
0
 10
-436.25000000
 20
-247.23762376
  0
VERTEX
  8
0
 10
-456.75000000
 20
-247.23762376
  0
VERTEX
  8
0
 10
-456.75000000
 20
-249.23762376
  0
VERTEX
  8
0
 10
-478.00000000
 20
-249.23762376
  0
SEQEND
  0
POLYLINE
  8
Default_Layer
 62
256
 66
   1
 39
0.000000
 70
    1
  0
VERTEX
  8
0
 10
-435.94198639
 20
-227.23762376
  0
VERTEX
  8
0
 10
-435.94198639
 20
-182.23762376
  0
VERTEX
  8
0
 10
-365.94198639
 20
-182.23762376
  0
VERTEX
  8
0
 10
-365.94198639
 20
-227.23762376
  0
VERTEX
  8
0
 10
-435.94198639
 20
-227.23762376
  0
SEQEND
  0
POLYLINE
  8
Default_Layer
 62
256
 66
   1
 39
0.000000
 70
    1
  0
VERTEX
  8
0
 10
-384.32639646
 20
-165.24666469
 42
0.08677417
  0
VERTEX
  8
0
 10
-385.50268584
 20
-165.12784106
 42
-0.01065704
  0
VERTEX
  8
0
 10
-387.53592609
 20
-165.23310330
 42
-0.42665851
  0
VERTEX
  8
0
 10
-388.11906598
 20
-164.74514429
 42
-0.24224758
  0
VERTEX
  8
0
 10
-387.43704094
 20
-162.56194358
 42
-0.00644811
  0
VERTEX
  8
0
 10
-385.50548423
 20
-161.09612509
 42
0.32155919
  0
VERTEX
  8
0
 10
-384.96414518
 20
-159.66429494
 42
0.45538095
  0
VERTEX
  8
0
 10
-386.98744309
 20
-159.61649494
 42
-0.15098250
  0
VERTEX
  8
0
 10
-387.71680745
 20
-160.05654387
 42
-0.31930101
  0
VERTEX
  8
0
 10
-388.10225095
 20
-159.80796577
 42
-0.31930101
  0
VERTEX
  8
0
 10
-387.99399980
 20
-159.36227590
 42
-0.18658056
  0
VERTEX
  8
0
 10
-386.01789769
 20
-158.30068882
 42
-0.31942899
  0
VERTEX
  8
0
 10
-384.05690414
 20
-159.39750682
 42
-0.32633675
  0
VERTEX
  8
0
 10
-385.08131400
 20
-161.91468366
 42
0.04739870
  0
VERTEX
  8
0
 10
-386.84043383
 20
-163.20878289
 42
0.17803462
  0
VERTEX
  8
0
 10
-387.26017777
 20
-164.37873555
 42
-0.05486622
  0
VERTEX
  8
0
 10
-384.55694014
 20
-164.28687326
 42
-0.32584847
  0
VERTEX
  8
0
 10
-383.90147282
 20
-164.79461826
 42
-0.37858974
  0
VERTEX
  8
0
 10
-384.32639646
 20
-165.24666469
  0
SEQEND
  0
POLYLINE
  8
Default_Layer
 62
256
 66
   1
 39
0.000000
 70
    1
  0
VERTEX
  8
0
 10
-378.67581613
 20
-165.24666469
 42
0.08677417
  0
VERTEX
  8
0
 10
-379.85210551
 20
-165.12784106
 42
-0.01065704
  0
VERTEX
  8
0
 10
-381.88534576
 20
-165.23310330
 42
-0.42665851
  0
VERTEX
  8
0
 10
-382.46848565
 20
-164.74514429
 42
-0.24224758
  0
VERTEX
  8
0
 10
-381.78646061
 20
-162.56194358
 42
-0.00644811
  0
VERTEX
  8
0
 10
-379.85490390
 20
-161.09612509
 42
0.32155919
  0
VERTEX
  8
0
 10
-379.31356485
 20
-159.66429494
 42
0.45538095
  0
VERTEX
  8
0
 10
-381.33686276
 20
-159.61649494
 42
-0.15098250
  0
VERTEX
  8
0
 10
-382.06622712
 20
-160.05654387
 42
-0.31930101
  0
VERTEX
  8
0
 10
-382.45167062
 20
-159.80796577
 42
-0.31930101
  0
VERTEX
  8
0
 10
-382.34341947
 20
-159.36227590
 42
-0.18658056
  0
VERTEX
  8
0
 10
-380.36731736
 20
-158.30068882
 42
-0.31942899
  0
VERTEX
  8
0
 10
-378.40632381
 20
-159.39750682
 42
-0.32633675
  0
VERTEX
  8
0
 10
-379.43073367
 20
-161.91468366
 42
0.04739870
  0
VERTEX
  8
0
 10
-381.18985350
 20
-163.20878289
 42
0.17803462
  0
VERTEX
  8
0
 10
-381.60959744
 20
-164.37873555
 42
-0.05486622
  0
VERTEX
  8
0
 10
-378.90635981
 20
-164.28687326
 42
-0.32584847
  0
VERTEX
  8
0
 10
-378.25089249
 20
-164.79461826
 42
-0.37858974
  0
VERTEX
  8
0
 10
-378.67581613
 20
-165.24666469
  0
SEQEND
  0
POLYLINE
  8
Default_Layer
 62
256
 66
   1
 39
0.000000
 70
    1
  0
VERTEX
  8
0
 10
-374.81986012
 20
-165.41392187
 42
-0.33301337
  0
VERTEX
  8
0
 10
-376.97278036
 20
-163.79539912
 42
-0.18148576
  0
VERTEX
  8
0
 10
-376.94384263
 20
-159.83988336
 42
-0.24509132
  0
VERTEX
  8
0
 10
-375.18356537
 20
-158.26834490
 42
-0.29085578
  0
VERTEX
  8
0
 10
-372.96917222
 20
-159.04753585
 42
-0.19046031
  0
VERTEX
  8
0
 10
-372.27486771
 20
-161.89472595
 42
-0.14236224
  0
VERTEX
  8
0
 10
-372.97263627
 20
-164.49764342
 42
-0.23858224
  0
VERTEX
  8
0
 10
-374.77171717
 20
-165.40885895
  0
VERTEX
  8
0
 10
-374.81986012
 20
-165.41392187
  0
SEQEND
  0
POLYLINE
  8
Default_Layer
 62
256
 66
   1
 39
0.000000
 70
    1
  0
VERTEX
  8
0
 10
-374.68424619
 20
-159.08075143
 42
0.28969670
  0
VERTEX
  8
0
 10
-376.11306190
 20
-160.13091179
 42
0.14937473
  0
VERTEX
  8
0
 10
-376.34666953
 20
-162.72379359
 42
0.18858501
  0
VERTEX
  8
0
 10
-375.63456079
 20
-164.26628900
 42
0.51804322
  0
VERTEX
  8
0
 10
-373.47861782
 20
-163.51730458
 42
0.16235140
  0
VERTEX
  8
0
 10
-373.37246397
 20
-160.03456939
 42
0.31110272
  0
VERTEX
  8
0
 10
-374.63651762
 20
-159.08583696
  0
VERTEX
  8
0
 10
-374.68424619
 20
-159.08075143
  0
SEQEND
  0
POLYLINE
  8
Default_Layer
 62
256
 66
   1
 39
0.000000
 70
    1
  0
VERTEX
  8
0
 10
-366.02755712
 20
-159.04006726
 42
0.05501585
  0
VERTEX
  8
0
 10
-366.93979322
 20
-161.21453881
 42
-0.02570875
  0
VERTEX
  8
0
 10
-368.55675688
 20
-165.34652586
 42
-0.31336676
  0
VERTEX
  8
0
 10
-369.08015020
 20
-165.56621409
 42
-0.31336676
  0
VERTEX
  8
0
 10
-369.46852179
 20
-165.15224429
 42
-0.01719304
  0
VERTEX
  8
0
 10
-370.90609432
 20
-160.40672531
 42
-0.07627296
  0
VERTEX
  8
0
 10
-371.25773428
 20
-158.72589499
 42
-0.38838216
  0
VERTEX
  8
0
 10
-370.73101295
 20
-158.38164487
 42
-0.38838216
  0
VERTEX
  8
0
 10
-370.34131289
 20
-158.87568674
 42
0.02008788
  0
VERTEX
  8
0
 10
-368.92517472
 20
-163.95381191
 42
-0.00644411
  0
VERTEX
  8
0
 10
-367.12868137
 20
-159.10787422
 42
-0.19027181
  0
VERTEX
  8
0
 10
-366.52141785
 20
-158.32696402
 42
-0.31615015
  0
VERTEX
  8
0
 10
-366.02400371
 20
-158.51004272
 42
-0.31615015
  0
VERTEX
  8
0
 10
-366.02755712
 20
-159.04006726
  0
SEQEND
  0
POLYLINE
  8
Default_Layer
 62
256
 66
   1
 39
0.000000
 70
    1
  0
VERTEX
  8
0
 10
-402.54421861
 20
-165.20598051
 42
-0.24183595
  0
VERTEX
  8
0
 10
-405.88664989
 20
-165.37052541
 42
0.02575269
  0
VERTEX
  8
0
 10
-406.35807781
 20
-165.19270165
 42
-0.29096929
  0
VERTEX
  8
0
 10
-406.57100060
 20
-164.45050784
 42
0.01421340
  0
VERTEX
  8
0
 10
-406.53578856
 20
-158.79596219
 42
-0.41202593
  0
VERTEX
  8
0
 10
-405.89569082
 20
-158.22649670
 42
-0.02089759
  0
VERTEX
  8
0
 10
-403.44696402
 20
-159.33146334
 42
-0.18590765
  0
VERTEX
  8
0
 10
-401.36172602
 20
-161.63129300
 42
-0.33216945
  0
VERTEX
  8
0
 10
-402.54421861
 20
-165.20598051
  0
SEQEND
  0
POLYLINE
  8
Default_Layer
 62
256
 66
   1
 39
0.000000
 70
    1
  0
VERTEX
  8
0
 10
-403.49351611
 20
-160.42332932
 42
0.02090262
  0
VERTEX
  8
0
 10
-405.62265478
 20
-159.38362254
 42
-0.01575231
  0
VERTEX
  8
0
 10
-405.65881849
 20
-164.45106298
 42
0.19087734
  0
VERTEX
  8
0
 10
-403.81460203
 20
-164.71836867
 42
0.29714091
  0
VERTEX
  8
0
 10
-402.21805729
 20
-163.27824818
 42
0.34334241
  0
VERTEX
  8
0
 10
-403.29702174
 20
-160.57726207
  0
VERTEX
  8
0
 10
-403.49351611
 20
-160.42332932
  0
SEQEND
  0
POLYLINE
  8
Default_Layer
 62
256
 66
   1
 39
0.000000
 70
    1
  0
VERTEX
  8
0
 10
-395.73639943
 20
-160.16566286
 42
-0.28511586
  0
VERTEX
  8
0
 10
-396.27022517
 20
-159.63615211
 42
0.30249609
  0
VERTEX
  8
0
 10
-396.78166986
 20
-159.42813173
 42
0.22248663
  0
VERTEX
  8
0
 10
-398.08675832
 20
-160.15344348
 42
0.15415068
  0
VERTEX
  8
0
 10
-399.37808544
 20
-162.63905748
 42
0.45697274
  0
VERTEX
  8
0
 10
-398.16167988
 20
-164.41448832
 42
0.16297724
  0
VERTEX
  8
0
 10
-396.55947166
 20
-163.76951606
 42
-0.17449061
  0
VERTEX
  8
0
 10
-395.91806559
 20
-163.47054603
 42
-0.32747264
  0
VERTEX
  8
0
 10
-395.54676283
 20
-163.93043731
 42
-0.32747264
  0
VERTEX
  8
0
 10
-395.87396372
 20
-164.42268249
 42
-0.22334523
  0
VERTEX
  8
0
 10
-398.58692886
 20
-165.29370577
 42
-0.38809989
  0
VERTEX
  8
0
 10
-400.28504597
 20
-162.50092410
 42
-0.16054066
  0
VERTEX
  8
0
 10
-398.48028088
 20
-159.23782748
 42
-0.24519248
  0
VERTEX
  8
0
 10
-396.35778941
 20
-158.54455483
 42
0.35352839
  0
VERTEX
  8
0
 10
-396.06659880
 20
-158.48918704
 42
-0.31288726
  0
VERTEX
  8
0
 10
-395.58871506
 20
-158.41476822
 42
-0.31288726
  0
VERTEX
  8
0
 10
-395.35162815
 20
-158.83631398
 42
-0.13618140
  0
VERTEX
  8
0
 10
-395.36701292
 20
-159.94609745
 42
-0.24794622
  0
VERTEX
  8
0
 10
-395.73639943
 20
-160.16566286
  0
SEQEND
  0
CIRCLE
  8
Default_Layer
 62
256
 10
-177.870337
 20
-225.881474
 40
3.200000
  0
CIRCLE
  8
Default_Layer
 62
256
 10
-177.870337
 20
-225.881474
 40
3.200000
  0
CIRCLE
  8
Default_Layer
 62
256
 10
-157.870337
 20
-225.881474
 40
3.200000
  0
CIRCLE
  8
Default_Layer
 62
256
 10
-230.361839
 20
-225.815352
 40
3.200000
  0
CIRCLE
  8
Default_Layer
 62
256
 10
-230.361839
 20
-225.815352
 40
3.200000
  0
CIRCLE
  8
Default_Layer
 62
256
 10
-210.361839
 20
-225.815352
 40
3.200000
  0
CIRCLE
  8
Default_Layer
 62
256
 10
-230.361839
 20
-225.815352
 40
3.200000
  0
CIRCLE
  8
Default_Layer
 62
256
 10
-230.361839
 20
-225.815352
 40
3.200000
  0
CIRCLE
  8
Default_Layer
 62
256
 10
-210.361839
 20
-225.815352
 40
3.200000
  0
POLYLINE
  8
Default_Layer
 62
256
 66
   1
 39
0.000000
 70
    1
  0
VERTEX
  8
0
 10
-225.44284068
 20
-212.75510049
  0
VERTEX
  8
0
 10
-226.34241307
 20
-212.75510049
  0
VERTEX
  8
0
 10
-227.23746500
 20
-212.75058003
  0
VERTEX
  8
0
 10
-227.50643262
 20
-212.74040898
  0
VERTEX
  8
0
 10
-227.68047049
 20
-212.70989585
  0
VERTEX
  8
0
 10
-227.78133335
 20
-212.65791051
  0
VERTEX
  8
0
 10
-227.85337825
 20
-212.58332285
  0
VERTEX
  8
0
 10
-227.89660519
 20
-212.48613287
  0
VERTEX
  8
0
 10
-227.91101417
 20
-212.36634057
  0
VERTEX
  8
0
 10
-227.89992491
 20
-212.25933270
  0
VERTEX
  8
0
 10
-227.86665712
 20
-212.16659255
  0
VERTEX
  8
0
 10
-227.81121080
 20
-212.08812012
  0
VERTEX
  8
0
 10
-227.73358595
 20
-212.02391540
  0
VERTEX
  8
0
 10
-227.63378257
 20
-211.97397839
  0
VERTEX
  8
0
 10
-227.51180067
 20
-211.93830911
  0
VERTEX
  8
0
 10
-227.36764024
 20
-211.91690753
  0
VERTEX
  8
0
 10
-227.20130128
 20
-211.90977367
  0
VERTEX
  8
0
 10
-226.98431900
 20
-211.91429414
  0
VERTEX
  8
0
 10
-226.79897996
 20
-211.92333507
  0
VERTEX
  8
0
 10
-226.83966414
 20
-211.28142914
  0
VERTEX
  8
0
 10
-226.87582785
 20
-210.64404368
  0
VERTEX
  8
0
 10
-226.84983519
 20
-209.92076940
  0
VERTEX
  8
0
 10
-226.77185718
 20
-208.89914447
  0
VERTEX
  8
0
 10
-226.69839963
 20
-207.88543036
  0
VERTEX
  8
0
 10
-226.67692743
 20
-207.14972480
  0
VERTEX
  8
0
 10
-226.95239322
 20
-207.35540593
  0
VERTEX
  8
0
 10
-227.17304838
 20
-207.50232102
  0
VERTEX
  8
0
 10
-227.33889291
 20
-207.59047007
  0
VERTEX
  8
0
 10
-227.44992682
 20
-207.61985309
  0
VERTEX
  8
0
 10
-227.53751081
 20
-207.61137722
  0
VERTEX
  8
0
 10
-227.61944423
 20
-207.58594961
  0
VERTEX
  8
0
 10
-227.69572706
 20
-207.54357025
  0
VERTEX
  8
0
 10
-227.76635931
 20
-207.48423916
  0
VERTEX
  8
0
 10
-227.82371270
 20
-207.41388943
  0
VERTEX
  8
0
 10
-227.86467941
 20
-207.33845419
  0
VERTEX
  8
0
 10
-227.88925944
 20
-207.25793342
  0
VERTEX
  8
0
 10
-227.89745278
 20
-207.17232713
  0
VERTEX
  8
0
 10
-227.87315528
 20
-207.06044564
  0
VERTEX
  8
0
 10
-227.80026280
 20
-206.93726298
  0
VERTEX
  8
0
 10
-227.67877532
 20
-206.80277917
  0
VERTEX
  8
0
 10
-227.50869285
 20
-206.65699420
  0
VERTEX
  8
0
 10
-227.21373256
 20
-206.43323122
  0
VERTEX
  8
0
 10
-226.81706182
 20
-206.10549756
  0
VERTEX
  8
0
 10
-226.62042162
 20
-205.92948198
  0
VERTEX
  8
0
 10
-226.42830189
 20
-205.80375657
  0
VERTEX
  8
0
 10
-226.24070263
 20
-205.72832132
  0
VERTEX
  8
0
 10
-226.05762382
 20
-205.70317624
  0
VERTEX
  8
0
 10
-225.92511771
 20
-205.72493097
  0
VERTEX
  8
0
 10
-225.83047049
 20
-205.79019518
  0
VERTEX
  8
0
 10
-225.77368216
 20
-205.89896885
  0
VERTEX
  8
0
 10
-225.75475272
 20
-206.05125199
  0
VERTEX
  8
0
 10
-225.78187550
 20
-206.36316402
  0
VERTEX
  8
0
 10
-225.80899829
 20
-206.67055559
  0
VERTEX
  8
0
 10
-225.79543690
 20
-207.12260202
  0
VERTEX
  8
0
 10
-225.77735504
 20
-207.57464845
  0
VERTEX
  8
0
 10
-225.80447782
 20
-208.21655437
  0
VERTEX
  8
0
 10
-225.88584618
 20
-209.11160630
  0
VERTEX
  8
0
 10
-225.96721454
 20
-210.00552810
  0
VERTEX
  8
0
 10
-225.99433732
 20
-210.64404368
  0
VERTEX
  8
0
 10
-225.95817361
 20
-211.28142914
  0
VERTEX
  8
0
 10
-225.91748943
 20
-211.89621228
  0
VERTEX
  8
0
 10
-225.44284068
 20
-211.88717135
  0
VERTEX
  8
0
 10
-225.35214887
 20
-211.89508217
  0
VERTEX
  8
0
 10
-225.26993292
 20
-211.91881460
  0
VERTEX
  8
0
 10
-225.19619285
 20
-211.95836867
  0
VERTEX
  8
0
 10
-225.13092865
 20
-212.01374435
  0
VERTEX
  8
0
 10
-225.07555296
 20
-212.07872603
  0
VERTEX
  8
0
 10
-225.03599890
 20
-212.15161851
  0
VERTEX
  8
0
 10
-225.01226646
 20
-212.23242181
  0
VERTEX
  8
0
 10
-225.00435565
 20
-212.32113592
  0
VERTEX
  8
0
 10
-225.01226646
 20
-212.41182774
  0
VERTEX
  8
0
 10
-225.03599890
 20
-212.49404368
  0
VERTEX
  8
0
 10
-225.07555296
 20
-212.56778375
  0
VERTEX
  8
0
 10
-225.13092865
 20
-212.63304796
  0
VERTEX
  8
0
 10
-225.19619285
 20
-212.68644594
  0
VERTEX
  8
0
 10
-225.26993292
 20
-212.72458736
  0
VERTEX
  8
0
 10
-225.35214887
 20
-212.74747221
  0
VERTEX
  8
0
 10
-225.44284068
 20
-212.75510049
  0
SEQEND
  0
POLYLINE
  8
Default_Layer
 62
256
 66
   1
 39
0.000000
 70
    1
  0
VERTEX
  8
0
 10
-219.90075150
 20
-212.75962096
  0
VERTEX
  8
0
 10
-220.03749554
 20
-212.74266921
  0
VERTEX
  8
0
 10
-220.22170446
 20
-212.69181399
  0
VERTEX
  8
0
 10
-220.40139291
 20
-212.63756842
  0
VERTEX
  8
0
 10
-220.53361649
 20
-212.61948656
  0
VERTEX
  8
0
 10
-221.22524752
 20
-212.64660935
  0
VERTEX
  8
0
 10
-221.92139902
 20
-212.67373213
  0
VERTEX
  8
0
 10
-222.14064154
 20
-212.68503330
  0
VERTEX
  8
0
 10
-222.44577288
 20
-212.71893678
  0
VERTEX
  8
0
 10
-222.74751387
 20
-212.75284026
  0
VERTEX
  8
0
 10
-222.96562627
 20
-212.76414142
  0
VERTEX
  8
0
 10
-223.11028112
 20
-212.74605956
  0
VERTEX
  8
0
 10
-223.25493598
 20
-212.72797771
  0
VERTEX
  8
0
 10
-223.39733060
 20
-212.70904826
  0
VERTEX
  8
0
 10
-223.51260244
 20
-212.65225993
  0
VERTEX
  8
0
 10
-223.60075150
 20
-212.55761271
  0
VERTEX
  8
0
 10
-223.66177776
 20
-212.42510660
  0
VERTEX
  8
0
 10
-223.70246194
 20
-212.21038455
  0
VERTEX
  8
0
 10
-223.71602333
 20
-211.88265089
  0
VERTEX
  8
0
 10
-223.70705304
 20
-211.62576138
  0
VERTEX
  8
0
 10
-223.68014215
 20
-211.38172694
  0
VERTEX
  8
0
 10
-223.63529067
 20
-211.15054757
  0
VERTEX
  8
0
 10
-223.57249859
 20
-210.93222328
  0
VERTEX
  8
0
 10
-223.49176593
 20
-210.72675405
  0
VERTEX
  8
0
 10
-223.39309267
 20
-210.53413989
  0
VERTEX
  8
0
 10
-223.27647882
 20
-210.35438081
  0
VERTEX
  8
0
 10
-223.14192437
 20
-210.18747679
  0
VERTEX
  8
0
 10
-222.95517269
 20
-210.00948351
  0
VERTEX
  8
0
 10
-222.65710458
 20
-209.76933385
  0
VERTEX
  8
0
 10
-221.72701906
 20
-209.10256537
  0
VERTEX
  8
0
 10
-221.18795369
 20
-208.70815486
  0
VERTEX
  8
0
 10
-220.99894178
 20
-208.54739585
  0
VERTEX
  8
0
 10
-220.86361038
 20
-208.41093433
  0
VERTEX
  8
0
 10
-220.69352792
 20
-208.18462859
  0
VERTEX
  8
0
 10
-220.57204044
 20
-207.93967593
  0
VERTEX
  8
0
 10
-220.49914795
 20
-207.67607636
  0
VERTEX
  8
0
 10
-220.47485046
 20
-207.39382987
  0
VERTEX
  8
0
 10
-220.49830037
 20
-207.25313042
  0
VERTEX
  8
0
 10
-220.56865009
 20
-207.12034179
  0
VERTEX
  8
0
 10
-220.68589963
 20
-206.99546396
  0
VERTEX
  8
0
 10
-220.85004899
 20
-206.87849695
  0
VERTEX
  8
0
 10
-221.01419835
 20
-206.78950031
  0
VERTEX
  8
0
 10
-221.17665253
 20
-206.72593128
  0
VERTEX
  8
0
 10
-221.33741154
 20
-206.68778986
  0
VERTEX
  8
0
 10
-221.49647538
 20
-206.67507606
  0
VERTEX
  8
0
 10
-221.70187398
 20
-206.69005009
  0
VERTEX
  8
0
 10
-221.90218705
 20
-206.73497221
  0
VERTEX
  8
0
 10
-222.09741460
 20
-206.80984240
  0
VERTEX
  8
0
 10
-222.28755663
 20
-206.91466066
  0
VERTEX
  8
0
 10
-222.93398302
 20
-207.42095266
  0
VERTEX
  8
0
 10
-223.10915101
 20
-207.53622450
  0
VERTEX
  8
0
 10
-223.18232602
 20
-207.56504246
  0
VERTEX
  8
0
 10
-223.24589505
 20
-207.57464845
  0
VERTEX
  8
0
 10
-223.44959847
 20
-207.55148107
  0
VERTEX
  8
0
 10
-223.52962482
 20
-207.52252184
  0
VERTEX
  8
0
 10
-223.59510092
 20
-207.48197893
  0
VERTEX
  8
0
 10
-223.64602677
 20
-207.42985232
  0
VERTEX
  8
0
 10
-223.68240238
 20
-207.36614203
  0
VERTEX
  8
0
 10
-223.70422775
 20
-207.29084805
  0
VERTEX
  8
0
 10
-223.71150287
 20
-207.20397038
  0
VERTEX
  8
0
 10
-223.70076677
 20
-207.10141234
  0
VERTEX
  8
0
 10
-223.66855846
 20
-207.00620006
  0
VERTEX
  8
0
 10
-223.61487795
 20
-206.91833354
  0
VERTEX
  8
0
 10
-223.53972523
 20
-206.83781277
  0
VERTEX
  8
0
 10
-223.04586451
 20
-206.40949878
  0
VERTEX
  8
0
 10
-222.82520935
 20
-206.24704460
  0
VERTEX
  8
0
 10
-222.62207098
 20
-206.11905895
  0
VERTEX
  8
0
 10
-222.34660519
 20
-205.98259744
  0
VERTEX
  8
0
 10
-222.06718399
 20
-205.88512493
  0
VERTEX
  8
0
 10
-221.78380739
 20
-205.82664142
  0
VERTEX
  8
0
 10
-221.49647538
 20
-205.80714692
  0
VERTEX
  8
0
 10
-221.14020629
 20
-205.83200947
  0
VERTEX
  8
0
 10
-220.80371423
 20
-205.90659713
  0
VERTEX
  8
0
 10
-220.48699920
 20
-206.03090990
  0
VERTEX
  8
0
 10
-220.19006121
 20
-206.20494777
  0
VERTEX
  8
0
 10
-220.03961451
 20
-206.32078467
  0
VERTEX
  8
0
 10
-219.90922737
 20
-206.44453238
  0
VERTEX
  8
0
 10
-219.79889978
 20
-206.57619090
  0
VERTEX
  8
0
 10
-219.70863176
 20
-206.71576024
  0
VERTEX
  8
0
 10
-219.63842330
 20
-206.86324038
  0
VERTEX
  8
0
 10
-219.58827440
 20
-207.01863134
  0
VERTEX
  8
0
 10
-219.55818506
 20
-207.18193311
  0
VERTEX
  8
0
 10
-219.54815528
 20
-207.35314570
  0
VERTEX
  8
0
 10
-219.55634862
 20
-207.57916891
  0
VERTEX
  8
0
 10
-219.58092865
 20
-207.79615119
  0
VERTEX
  8
0
 10
-219.62189536
 20
-208.00409255
  0
VERTEX
  8
0
 10
-219.67924875
 20
-208.20299298
  0
VERTEX
  8
0
 10
-219.75327135
 20
-208.39313501
  0
VERTEX
  8
0
 10
-219.84424569
 20
-208.57480116
  0
VERTEX
  8
0
 10
-219.95217178
 20
-208.74799145
  0
VERTEX
  8
0
 10
-220.07704960
 20
-208.91270587
  0
VERTEX
  8
0
 10
-220.27595003
 20
-209.12205987
  0
VERTEX
  8
0
 10
-220.53361649
 20
-209.34328009
  0
VERTEX
  8
0
 10
-220.85004899
 20
-209.57636653
  0
VERTEX
  8
0
 10
-221.22524752
 20
-209.82131918
  0
VERTEX
  8
0
 10
-221.92930983
 20
-210.29031735
  0
VERTEX
  8
0
 10
-222.17200226
 20
-210.47650397
  0
VERTEX
  8
0
 10
-222.34180220
 20
-210.63048229
  0
VERTEX
  8
0
 10
-222.45926364
 20
-210.76390662
  0
VERTEX
  8
0
 10
-222.56076219
 20
-210.90425290
  0
VERTEX
  8
0
 10
-222.64629785
 20
-211.05152115
  0
VERTEX
  8
0
 10
-222.71587062
 20
-211.20571137
  0
VERTEX
  8
0
 10
-222.76948050
 20
-211.36682354
  0
VERTEX
  8
0
 10
-222.80712749
 20
-211.53485767
  0
VERTEX
  8
0
 10
-222.82881159
 20
-211.70981376
  0
VERTEX
  8
0
 10
-222.83453280
 20
-211.89169182
  0
VERTEX
  8
0
 10
-221.90331716
 20
-211.80580300
  0
VERTEX
  8
0
 10
-221.08172278
 20
-211.76511882
  0
VERTEX
  8
0
 10
-220.53361649
 20
-211.75155743
  0
VERTEX
  8
0
 10
-220.36409908
 20
-211.75890318
  0
VERTEX
  8
0
 10
-220.19910214
 20
-211.78094044
  0
VERTEX
  8
0
 10
-220.03862566
 20
-211.81766921
  0
VERTEX
  8
0
 10
-219.88266964
 20
-211.86908950
  0
VERTEX
  8
0
 10
-219.70467636
 20
-211.95582590
  0
VERTEX
  8
0
 10
-219.57753830
 20
-212.05781888
  0
VERTEX
  8
0
 10
-219.50125547
 20
-212.17506842
  0
VERTEX
  8
0
 10
-219.47582785
 20
-212.30757453
  0
VERTEX
  8
0
 10
-219.48345614
 20
-212.39346335
  0
VERTEX
  8
0
 10
-219.50634099
 20
-212.47483171
  0
VERTEX
  8
0
 10
-219.54448241
 20
-212.55167960
  0
VERTEX
  8
0
 10
-219.59788039
 20
-212.62400703
  0
VERTEX
  8
0
 10
-219.66257953
 20
-212.68333812
  0
VERTEX
  8
0
 10
-219.73462443
 20
-212.72571747
  0
VERTEX
  8
0
 10
-219.81401509
 20
-212.75114509
  0
VERTEX
  8
0
 10
-219.90075150
 20
-212.75962096
  0
SEQEND
  0
POLYLINE
  8
Default_Layer
 62
256
 66
   1
 39
0.000000
 70
    1
  0
VERTEX
  8
0
 10
-212.90307281
 20
-206.55302352
  0
VERTEX
  8
0
 10
-213.15734893
 20
-206.98359774
  0
VERTEX
  8
0
 10
-213.35963971
 20
-207.43451405
  0
VERTEX
  8
0
 10
-213.70319499
 20
-208.42449573
  0
VERTEX
  8
0
 10
-214.91919988
 20
-211.71087325
  0
VERTEX
  8
0
 10
-215.14974355
 20
-212.28271198
  0
VERTEX
  8
0
 10
-215.41645095
 20
-212.84098931
  0
VERTEX
  8
0
 10
-215.49612413
 20
-212.95965150
  0
VERTEX
  8
0
 10
-215.59048882
 20
-213.04441020
  0
VERTEX
  8
0
 10
-215.69954502
 20
-213.09526543
  0
VERTEX
  8
0
 10
-215.82329273
 20
-213.11221717
  0
VERTEX
  8
0
 10
-215.98433427
 20
-213.09017991
  0
VERTEX
  8
0
 10
-216.11938314
 20
-213.02406812
  0
VERTEX
  8
0
 10
-216.22843934
 20
-212.91388180
  0
VERTEX
  8
0
 10
-216.31150287
 20
-212.75962096
  0
VERTEX
  8
0
 10
-216.59261924
 20
-211.99707514
  0
VERTEX
  8
0
 10
-216.88899218
 20
-211.08365883
  0
VERTEX
  8
0
 10
-217.20062168
 20
-210.01937203
  0
VERTEX
  8
0
 10
-217.52750776
 20
-208.80421473
  0
VERTEX
  8
0
 10
-217.88462443
 20
-207.56108705
  0
VERTEX
  8
0
 10
-218.08465498
 20
-206.78356720
  0
VERTEX
  8
0
 10
-218.13466261
 20
-206.51685981
  0
VERTEX
  8
0
 10
-218.15133183
 20
-206.33152077
  0
VERTEX
  8
0
 10
-218.14229090
 20
-206.23433079
  0
VERTEX
  8
0
 10
-218.11516811
 20
-206.14618174
  0
VERTEX
  8
0
 10
-218.06996347
 20
-206.06707361
  0
VERTEX
  8
0
 10
-218.00667697
 20
-205.99700642
  0
VERTEX
  8
0
 10
-217.93773989
 20
-205.94360843
  0
VERTEX
  8
0
 10
-217.86202211
 20
-205.90546702
  0
VERTEX
  8
0
 10
-217.77952364
 20
-205.88258217
  0
VERTEX
  8
0
 10
-217.69024447
 20
-205.87495388
  0
VERTEX
  8
0
 10
-217.53372340
 20
-205.89812126
  0
VERTEX
  8
0
 10
-217.40771545
 20
-205.96762340
  0
VERTEX
  8
0
 10
-217.31222065
 20
-206.08346030
  0
VERTEX
  8
0
 10
-217.24723897
 20
-206.24563195
  0
VERTEX
  8
0
 10
-217.07998179
 20
-207.03219273
  0
VERTEX
  8
0
 10
-216.64601723
 20
-208.56915058
  0
VERTEX
  8
0
 10
-216.21770324
 20
-210.13436133
  0
VERTEX
  8
0
 10
-215.80069041
 20
-211.46676818
  0
VERTEX
  8
0
 10
-215.77356762
 20
-211.39444075
  0
VERTEX
  8
0
 10
-214.56208320
 20
-208.11258369
  0
VERTEX
  8
0
 10
-214.17784374
 20
-207.00506995
  0
VERTEX
  8
0
 10
-214.04703280
 20
-206.69089768
  0
VERTEX
  8
0
 10
-213.91226646
 20
-206.41740959
  0
VERTEX
  8
0
 10
-213.77354471
 20
-206.18460568
  0
VERTEX
  8
0
 10
-213.63086756
 20
-205.99248595
  0
VERTEX
  8
0
 10
-213.55288955
 20
-205.91337783
  0
VERTEX
  8
0
 10
-213.46813085
 20
-205.85687203
  0
VERTEX
  8
0
 10
-213.37659145
 20
-205.82296854
  0
VERTEX
  8
0
 10
-213.27827135
 20
-205.81166738
  0
VERTEX
  8
0
 10
-213.19040482
 20
-205.82042578
  0
VERTEX
  8
0
 10
-213.10762382
 20
-205.84670098
  0
VERTEX
  8
0
 10
-213.02992834
 20
-205.89049298
  0
VERTEX
  8
0
 10
-212.95731839
 20
-205.95180177
  0
VERTEX
  8
0
 10
-212.89403189
 20
-206.02328162
  0
VERTEX
  8
0
 10
-212.84882724
 20
-206.10210721
  0
VERTEX
  8
0
 10
-212.82170446
 20
-206.18827856
  0
VERTEX
  8
0
 10
-212.81266353
 20
-206.28179567
  0
VERTEX
  8
0
 10
-212.83526585
 20
-206.41740959
  0
VERTEX
  8
0
 10
-212.90307281
 20
-206.55302352
  0
SEQEND
  0
POLYLINE
  8
Default_Layer
 62
256
 66
   1
 39
0.000000
 70
    1
  0
VERTEX
  8
0
 10
-171.43698295
 20
-212.96756231
  0
VERTEX
  8
0
 10
-171.74734107
 20
-212.95272954
  0
VERTEX
  8
0
 10
-172.03650952
 20
-212.90823122
  0
VERTEX
  8
0
 10
-172.30448830
 20
-212.83406735
  0
VERTEX
  8
0
 10
-172.55127739
 20
-212.73023794
  0
VERTEX
  8
0
 10
-172.77687681
 20
-212.59674298
  0
VERTEX
  8
0
 10
-172.98128655
 20
-212.43358247
  0
VERTEX
  8
0
 10
-173.16450662
 20
-212.24075642
  0
VERTEX
  8
0
 10
-173.32653701
 20
-212.01826482
  0
VERTEX
  8
0
 10
-173.38756328
 20
-211.88943159
  0
VERTEX
  8
0
 10
-173.40790537
 20
-211.76511882
  0
VERTEX
  8
0
 10
-173.39914697
 20
-211.68007758
  0
VERTEX
  8
0
 10
-173.37287177
 20
-211.60125199
  0
VERTEX
  8
0
 10
-173.32907977
 20
-211.52864203
  0
VERTEX
  8
0
 10
-173.26777098
 20
-211.46224771
  0
VERTEX
  8
0
 10
-173.19544355
 20
-211.40489432
  0
VERTEX
  8
0
 10
-173.11859566
 20
-211.36392761
  0
VERTEX
  8
0
 10
-173.03722730
 20
-211.33934759
  0
VERTEX
  8
0
 10
-172.95133848
 20
-211.33115425
  0
VERTEX
  8
0
 10
-172.85979908
 20
-211.34358553
  0
VERTEX
  8
0
 10
-172.77051991
 20
-211.38087936
  0
VERTEX
  8
0
 10
-172.68350097
 20
-211.44303574
  0
VERTEX
  8
0
 10
-172.59874227
 20
-211.53005468
  0
VERTEX
  8
0
 10
-172.38854068
 20
-211.76737905
  0
VERTEX
  8
0
 10
-172.23710512
 20
-211.90073275
  0
VERTEX
  8
0
 10
-172.07691117
 20
-211.98775168
  0
VERTEX
  8
0
 10
-171.89015949
 20
-212.04990807
  0
VERTEX
  8
0
 10
-171.67685008
 20
-212.08720190
  0
VERTEX
  8
0
 10
-171.43698295
 20
-212.09963317
  0
VERTEX
  8
0
 10
-171.24564017
 20
-212.09030972
  0
VERTEX
  8
0
 10
-171.06263200
 20
-212.06233934
  0
VERTEX
  8
0
 10
-170.88795844
 20
-212.01572206
  0
VERTEX
  8
0
 10
-170.72161948
 20
-211.95045785
  0
VERTEX
  8
0
 10
-170.56361513
 20
-211.86654673
  0
VERTEX
  8
0
 10
-170.41394538
 20
-211.76398870
  0
VERTEX
  8
0
 10
-170.27261024
 20
-211.64278375
  0
VERTEX
  8
0
 10
-170.13960971
 20
-211.50293189
  0
VERTEX
  8
0
 10
-170.02412597
 20
-211.35693502
  0
VERTEX
  8
0
 10
-169.92404007
 20
-211.20373366
  0
VERTEX
  8
0
 10
-169.83935199
 20
-211.04332781
  0
VERTEX
  8
0
 10
-169.77006175
 20
-210.87571747
  0
VERTEX
  8
0
 10
-169.71616934
 20
-210.70090265
  0
VERTEX
  8
0
 10
-169.67767476
 20
-210.51888333
  0
VERTEX
  8
0
 10
-169.65457802
 20
-210.32965952
  0
VERTEX
  8
0
 10
-169.64687910
 20
-210.13323122
  0
VERTEX
  8
0
 10
-169.66044049
 20
-209.81877642
  0
VERTEX
  8
0
 10
-169.70112467
 20
-209.53539982
  0
VERTEX
  8
0
 10
-169.76893164
 20
-209.28310141
  0
VERTEX
  8
0
 10
-169.86386139
 20
-209.06188119
  0
VERTEX
  8
0
 10
-169.93866094
 20
-208.94004055
  0
VERTEX
  8
0
 10
-170.02292522
 20
-208.83444533
  0
VERTEX
  8
0
 10
-170.11665422
 20
-208.74509553
  0
VERTEX
  8
0
 10
-170.21984795
 20
-208.67199115
  0
VERTEX
  8
0
 10
-170.33250639
 20
-208.61513218
  0
VERTEX
  8
0
 10
-170.45462956
 20
-208.57451863
  0
VERTEX
  8
0
 10
-170.58621745
 20
-208.55015051
  0
VERTEX
  8
0
 10
-170.72727006
 20
-208.54202780
  0
VERTEX
  8
0
 10
-170.95809627
 20
-208.55022114
  0
VERTEX
  8
0
 10
-171.16688521
 20
-208.57480116
  0
VERTEX
  8
0
 10
-171.35363689
 20
-208.61576787
  0
VERTEX
  8
0
 10
-171.51835131
 20
-208.67312126
  0
VERTEX
  8
0
 10
-171.64068637
 20
-208.73443006
  0
VERTEX
  8
0
 10
-171.76358649
 20
-208.81438577
  0
VERTEX
  8
0
 10
-172.01108191
 20
-209.03023794
  0
VERTEX
  8
0
 10
-172.50381252
 20
-209.56817319
  0
VERTEX
  8
0
 10
-172.60382779
 20
-209.65716983
  0
VERTEX
  8
0
 10
-172.70497318
 20
-209.72073885
  0
VERTEX
  8
0
 10
-172.80724868
 20
-209.75888027
  0
VERTEX
  8
0
 10
-172.91065430
 20
-209.77159408
  0
VERTEX
  8
0
 10
-172.99767324
 20
-209.76368327
  0
VERTEX
  8
0
 10
-173.07791148
 20
-209.73995083
  0
VERTEX
  8
0
 10
-173.15136902
 20
-209.70039677
  0
VERTEX
  8
0
 10
-173.21804587
 20
-209.64502108
  0
VERTEX
  8
0
 10
-173.27342156
 20
-209.57636653
  0
VERTEX
  8
0
 10
-173.31297562
 20
-209.50149634
  0
VERTEX
  8
0
 10
-173.33670806
 20
-209.42041051
  0
VERTEX
  8
0
 10
-173.34461887
 20
-209.33310904
  0
VERTEX
  8
0
 10
-173.27229144
 20
-208.52846640
  0
VERTEX
  8
0
 10
-173.15701960
 20
-207.34862523
  0
VERTEX
  8
0
 10
-173.11859566
 20
-206.65699420
  0
VERTEX
  8
0
 10
-173.13893775
 20
-206.49199725
  0
VERTEX
  8
0
 10
-173.19996401
 20
-206.31343892
  0
VERTEX
  8
0
 10
-173.25759993
 20
-206.14844197
  0
VERTEX
  8
0
 10
-173.27681191
 20
-206.03317013
  0
VERTEX
  8
0
 10
-173.26939552
 20
-205.96854162
  0
VERTEX
  8
0
 10
-173.24714636
 20
-205.91253024
  0
VERTEX
  8
0
 10
-173.21006443
 20
-205.86513600
  0
VERTEX
  8
0
 10
-173.15814972
 20
-205.82635889
  0
VERTEX
  8
0
 10
-173.00982198
 20
-205.77465608
  0
VERTEX
  8
0
 10
-172.80216316
 20
-205.75742181
  0
VERTEX
  8
0
 10
-172.53093530
 20
-205.77550367
  0
VERTEX
  8
0
 10
-172.25518698
 20
-205.78906506
  0
VERTEX
  8
0
 10
-171.46862620
 20
-205.77098320
  0
VERTEX
  8
0
 10
-170.68206542
 20
-205.75290135
  0
VERTEX
  8
0
 10
-170.31138735
 20
-205.76194228
  0
VERTEX
  8
0
 10
-169.94070928
 20
-205.77098320
  0
VERTEX
  8
0
 10
-169.69208374
 20
-205.73933995
  0
VERTEX
  8
0
 10
-169.44797867
 20
-205.70317624
  0
VERTEX
  8
0
 10
-169.36237238
 20
-205.71136958
  0
VERTEX
  8
0
 10
-169.28185161
 20
-205.73594961
  0
VERTEX
  8
0
 10
-169.20641636
 20
-205.77691631
  0
VERTEX
  8
0
 10
-169.13606664
 20
-205.83426970
  0
VERTEX
  8
0
 10
-169.07673555
 20
-205.90235920
  0
VERTEX
  8
0
 10
-169.03435619
 20
-205.97553421
  0
VERTEX
  8
0
 10
-169.00892858
 20
-206.05379475
  0
VERTEX
  8
0
 10
-169.00045271
 20
-206.13714081
  0
VERTEX
  8
0
 10
-169.01719256
 20
-206.25580300
  0
VERTEX
  8
0
 10
-169.06741209
 20
-206.35864356
  0
VERTEX
  8
0
 10
-169.15111131
 20
-206.44566250
  0
VERTEX
  8
0
 10
-169.26829022
 20
-206.51685981
  0
VERTEX
  8
0
 10
-169.41894882
 20
-206.57223549
  0
VERTEX
  8
0
 10
-169.60308710
 20
-206.61178956
  0
VERTEX
  8
0
 10
-169.82070508
 20
-206.63552199
  0
VERTEX
  8
0
 10
-170.07180274
 20
-206.64343281
  0
VERTEX
  8
0
 10
-170.42439895
 20
-206.63439188
  0
VERTEX
  8
0
 10
-170.68206542
 20
-206.62535095
  0
VERTEX
  8
0
 10
-171.44602388
 20
-206.63891234
  0
VERTEX
  8
0
 10
-172.20998234
 20
-206.66151466
  0
VERTEX
  8
0
 10
-172.25179663
 20
-207.13955376
  0
VERTEX
  8
0
 10
-172.37723952
 20
-208.16682926
  0
VERTEX
  8
0
 10
-172.21598608
 20
-208.05134553
  0
VERTEX
  8
0
 10
-172.04187757
 20
-207.95125962
  0
VERTEX
  8
0
 10
-171.85491400
 20
-207.86657155
  0
VERTEX
  8
0
 10
-171.65509535
 20
-207.79728131
  0
VERTEX
  8
0
 10
-171.44242163
 20
-207.74338890
  0
VERTEX
  8
0
 10
-171.21689285
 20
-207.70489432
  0
VERTEX
  8
0
 10
-170.97850899
 20
-207.68179757
  0
VERTEX
  8
0
 10
-170.72727006
 20
-207.67409866
  0
VERTEX
  8
0
 10
-170.48599028
 20
-207.68624741
  0
VERTEX
  8
0
 10
-170.25940201
 20
-207.72269365
  0
VERTEX
  8
0
 10
-170.04750525
 20
-207.78343739
  0
VERTEX
  8
0
 10
-169.85029999
 20
-207.86847862
  0
VERTEX
  8
0
 10
-169.66778625
 20
-207.97781735
  0
VERTEX
  8
0
 10
-169.49996401
 20
-208.11145358
  0
VERTEX
  8
0
 10
-169.34683329
 20
-208.26938730
  0
VERTEX
  8
0
 10
-169.20839407
 20
-208.45161851
  0
VERTEX
  8
0
 10
-169.10456465
 20
-208.62226604
  0
VERTEX
  8
0
 10
-169.01457916
 20
-208.80421473
  0
VERTEX
  8
0
 10
-168.93843759
 20
-208.99746457
  0
VERTEX
  8
0
 10
-168.87613994
 20
-209.20201558
  0
VERTEX
  8
0
 10
-168.82768622
 20
-209.41786775
  0
VERTEX
  8
0
 10
-168.79307641
 20
-209.64502108
  0
VERTEX
  8
0
 10
-168.76538857
 20
-210.13323122
  0
VERTEX
  8
0
 10
-168.77654847
 20
-210.43165249
  0
VERTEX
  8
0
 10
-168.81002815
 20
-210.71665364
  0
VERTEX
  8
0
 10
-168.86582764
 20
-210.98823465
  0
VERTEX
  8
0
 10
-168.94394691
 20
-211.24639554
  0
VERTEX
  8
0
 10
-169.04438597
 20
-211.49113630
  0
VERTEX
  8
0
 10
-169.16714483
 20
-211.72245694
  0
VERTEX
  8
0
 10
-169.31222348
 20
-211.94035744
  0
VERTEX
  8
0
 10
-169.47962192
 20
-212.14483782
  0
VERTEX
  8
0
 10
-169.67237735
 20
-212.33766387
  0
VERTEX
  8
0
 10
-169.87996554
 20
-212.50477978
  0
VERTEX
  8
0
 10
-170.10238651
 20
-212.64618556
  0
VERTEX
  8
0
 10
-170.33964025
 20
-212.76188119
  0
VERTEX
  8
0
 10
-170.59172676
 20
-212.85186668
  0
VERTEX
  8
0
 10
-170.85864605
 20
-212.91614203
  0
VERTEX
  8
0
 10
-171.14039811
 20
-212.95470724
  0
VERTEX
  8
0
 10
-171.43698295
 20
-212.96756231
  0
SEQEND
  0
POLYLINE
  8
Default_Layer
 62
256
 66
   1
 39
0.000000
 70
    1
  0
VERTEX
  8
0
 10
-162.42317721
 20
-206.48521656
  0
VERTEX
  8
0
 10
-162.67745332
 20
-206.91579078
  0
VERTEX
  8
0
 10
-162.87974410
 20
-207.36670709
  0
VERTEX
  8
0
 10
-163.22329938
 20
-208.35668876
  0
VERTEX
  8
0
 10
-164.43930427
 20
-211.64306628
  0
VERTEX
  8
0
 10
-164.66984795
 20
-212.21490501
  0
VERTEX
  8
0
 10
-164.93655534
 20
-212.77318235
  0
VERTEX
  8
0
 10
-165.01622852
 20
-212.89184454
  0
VERTEX
  8
0
 10
-165.11059321
 20
-212.97660324
  0
VERTEX
  8
0
 10
-165.21964941
 20
-213.02745846
  0
VERTEX
  8
0
 10
-165.34339712
 20
-213.04441020
  0
VERTEX
  8
0
 10
-165.50443866
 20
-213.02237294
  0
VERTEX
  8
0
 10
-165.63948753
 20
-212.95626115
  0
VERTEX
  8
0
 10
-165.74854373
 20
-212.84607484
  0
VERTEX
  8
0
 10
-165.83160726
 20
-212.69181399
  0
VERTEX
  8
0
 10
-166.11272363
 20
-211.92926818
  0
VERTEX
  8
0
 10
-166.40909657
 20
-211.01585187
  0
VERTEX
  8
0
 10
-166.72072608
 20
-209.95156506
  0
VERTEX
  8
0
 10
-167.04761215
 20
-208.73640776
  0
VERTEX
  8
0
 10
-167.40472883
 20
-207.49328009
  0
VERTEX
  8
0
 10
-167.60475937
 20
-206.71576024
  0
VERTEX
  8
0
 10
-167.65476701
 20
-206.44905284
  0
VERTEX
  8
0
 10
-167.67143622
 20
-206.26371381
  0
VERTEX
  8
0
 10
-167.66239529
 20
-206.16652383
  0
VERTEX
  8
0
 10
-167.63527250
 20
-206.07837477
  0
VERTEX
  8
0
 10
-167.59006786
 20
-205.99926665
  0
VERTEX
  8
0
 10
-167.52678136
 20
-205.92919945
  0
VERTEX
  8
0
 10
-167.45784428
 20
-205.87580147
  0
VERTEX
  8
0
 10
-167.38212651
 20
-205.83766005
  0
VERTEX
  8
0
 10
-167.29962803
 20
-205.81477520
  0
VERTEX
  8
0
 10
-167.21034886
 20
-205.80714692
  0
VERTEX
  8
0
 10
-167.05382779
 20
-205.83031430
  0
VERTEX
  8
0
 10
-166.92781985
 20
-205.89981644
  0
VERTEX
  8
0
 10
-166.83232504
 20
-206.01565333
  0
VERTEX
  8
0
 10
-166.76734337
 20
-206.17782499
  0
VERTEX
  8
0
 10
-166.60008619
 20
-206.96438577
  0
VERTEX
  8
0
 10
-166.16612162
 20
-208.50134362
  0
VERTEX
  8
0
 10
-165.73780763
 20
-210.06655437
  0
VERTEX
  8
0
 10
-165.32079480
 20
-211.39896121
  0
VERTEX
  8
0
 10
-165.29367202
 20
-211.32663378
  0
VERTEX
  8
0
 10
-164.08218759
 20
-208.04477673
  0
VERTEX
  8
0
 10
-163.69794813
 20
-206.93726298
  0
VERTEX
  8
0
 10
-163.56713720
 20
-206.62309072
  0
VERTEX
  8
0
 10
-163.43237085
 20
-206.34960263
  0
VERTEX
  8
0
 10
-163.29364911
 20
-206.11679872
  0
VERTEX
  8
0
 10
-163.15097195
 20
-205.92467899
  0
VERTEX
  8
0
 10
-163.07299395
 20
-205.84557086
  0
VERTEX
  8
0
 10
-162.98823524
 20
-205.78906506
  0
VERTEX
  8
0
 10
-162.89669584
 20
-205.75516158
  0
VERTEX
  8
0
 10
-162.79837574
 20
-205.74386042
  0
VERTEX
  8
0
 10
-162.71050922
 20
-205.75261882
  0
VERTEX
  8
0
 10
-162.62772822
 20
-205.77889402
  0
VERTEX
  8
0
 10
-162.55003274
 20
-205.82268601
  0
VERTEX
  8
0
 10
-162.47742278
 20
-205.88399481
  0
VERTEX
  8
0
 10
-162.41413628
 20
-205.95547465
  0
VERTEX
  8
0
 10
-162.36893164
 20
-206.03430025
  0
VERTEX
  8
0
 10
-162.34180885
 20
-206.12047160
  0
VERTEX
  8
0
 10
-162.33276792
 20
-206.21398870
  0
VERTEX
  8
0
 10
-162.35537024
 20
-206.34960263
  0
VERTEX
  8
0
 10
-162.42317721
 20
-206.48521656
  0
SEQEND
  0
POLYLINE
  8
Default_Layer
 62
256
 66
   1
 39
0.000000
 70
    1
  0
VERTEX
  8
0
 10
-435.94198639
 20
-227.23762376
  0
VERTEX
  8
0
 10
-435.94198639
 20
-182.23762376
  0
VERTEX
  8
0
 10
-365.94198639
 20
-182.23762376
  0
VERTEX
  8
0
 10
-365.94198639
 20
-227.23762376
  0
VERTEX
  8
0
 10
-435.94198639
 20
-227.23762376
  0
SEQEND
  0
POLYLINE
  8
Default_Layer
 62
256
 66
   1
 39
0.000000
 70
    1
  0
VERTEX
  8
0
 10
-435.94198639
 20
-227.23762376
  0
VERTEX
  8
0
 10
-435.94198639
 20
-182.23762376
  0
VERTEX
  8
0
 10
-365.94198639
 20
-182.23762376
  0
VERTEX
  8
0
 10
-365.94198639
 20
-227.23762376
  0
VERTEX
  8
0
 10
-435.94198639
 20
-227.23762376
  0
SEQEND
  0
POLYLINE
  8
Default_Layer
 62
256
 66
   1
 39
0.000000
 70
    1
  0
VERTEX
  8
0
 10
-311.94142547
 20
-196.45989588
  0
VERTEX
  8
0
 10
-311.94142547
 20
-169.45989588
  0
VERTEX
  8
0
 10
-265.94142547
 20
-169.45989588
  0
VERTEX
  8
0
 10
-265.94142547
 20
-196.45989588
  0
VERTEX
  8
0
 10
-311.94142547
 20
-196.45989588
  0
SEQEND
  0
CIRCLE
  8
Default_Layer
 62
256
 10
-278.941425
 20
-225.815352
 40
3.200000
  0
CIRCLE
  8
Default_Layer
 62
256
 10
-298.941425
 20
-225.815352
 40
3.200000
  0
POLYLINE
  8
Default_Layer
 62
256
 66
   1
 39
0.000000
 70
    1
  0
VERTEX
  8
0
 10
-296.77651247
 20
-207.50583304
 42
0.03002111
  0
VERTEX
  8
0
 10
-297.58250467
 20
-209.55043433
 42
-0.10563429
  0
VERTEX
  8
0
 10
-298.03266396
 20
-210.49459297
 42
-0.47710013
  0
VERTEX
  8
0
 10
-298.41491142
 20
-210.14750295
 42
-0.04350240
  0
VERTEX
  8
0
 10
-299.17837999
 20
-207.38210497
 42
-0.39842814
  0
VERTEX
  8
0
 10
-298.92783234
 20
-207.21959350
 42
-0.39842814
  0
VERTEX
  8
0
 10
-298.75198793
 20
-207.46097049
 42
0.01454102
  0
VERTEX
  8
0
 10
-298.10785028
 20
-209.76349950
 42
-0.03040220
  0
VERTEX
  8
0
 10
-297.16262120
 20
-207.32638283
 42
-0.41421356
  0
VERTEX
  8
0
 10
-296.90061143
 20
-207.18151416
 42
-0.41421356
  0
VERTEX
  8
0
 10
-296.75574277
 20
-207.44352394
  0
VERTEX
  8
0
 10
-296.77651247
 20
-207.50583304
  0
SEQEND
  0
POLYLINE
  8
Default_Layer
 62
256
 66
   1
 39
0.000000
 70
    1
  0
VERTEX
  8
0
 10
-294.81377575
 20
-210.49043903
 42
0.04150716
  0
VERTEX
  8
0
 10
-295.11818168
 20
-210.25768857
 42
-0.39955931
  0
VERTEX
  8
0
 10
-296.44822138
 20
-210.12882370
 42
-0.38574121
  0
VERTEX
  8
0
 10
-296.07231576
 20
-208.37478539
 42
-0.36517764
  0
VERTEX
  8
0
 10
-294.81021523
 20
-208.45018682
 42
-0.19056869
  0
VERTEX
  8
0
 10
-294.81641917
 20
-208.77656109
 42
0.14454174
  0
VERTEX
  8
0
 10
-294.62061754
 20
-210.29935778
 42
-0.29252290
  0
VERTEX
  8
0
 10
-294.81377575
 20
-210.49043903
  0
SEQEND
  0
POLYLINE
  8
Default_Layer
 62
256
 66
   1
 39
0.000000
 70
    1
  0
VERTEX
  8
0
 10
-295.24578553
 20
-209.04694483
 42
0.09056203
  0
VERTEX
  8
0
 10
-295.22224653
 20
-208.61978132
 42
0.40829271
  0
VERTEX
  8
0
 10
-296.08903537
 20
-208.99765388
 42
0.36632853
  0
VERTEX
  8
0
 10
-295.95727759
 20
-210.04350103
 42
0.37147283
  0
VERTEX
  8
0
 10
-295.18127728
 20
-209.84725027
  0
VERTEX
  8
0
 10
-295.24578553
 20
-209.04694483
  0
SEQEND
  0
POLYLINE
  8
Default_Layer
 62
256
 66
   1
 39
0.000000
 70
    1
  0
VERTEX
  8
0
 10
-292.64334203
 20
-208.81847812
 42
-0.32561013
  0
VERTEX
  8
0
 10
-292.74954882
 20
-209.03833644
 42
-0.32561013
  0
VERTEX
  8
0
 10
-292.99138287
 20
-209.00466365
 42
-0.07732061
  0
VERTEX
  8
0
 10
-293.04212029
 20
-208.55262595
 42
0.33528135
  0
VERTEX
  8
0
 10
-293.87471437
 20
-209.21879153
 42
-0.05189212
  0
VERTEX
  8
0
 10
-293.90754921
 20
-210.39512094
 42
-0.38497921
  0
VERTEX
  8
0
 10
-294.17885479
 20
-210.44845145
 42
-0.38497921
  0
VERTEX
  8
0
 10
-294.25922474
 20
-210.18389233
 42
-0.04214622
  0
VERTEX
  8
0
 10
-294.20967417
 20
-208.27861426
 42
-0.34215718
  0
VERTEX
  8
0
 10
-293.96496428
 20
-208.24848995
 42
-0.34215718
  0
VERTEX
  8
0
 10
-293.87474926
 20
-208.47794944
 42
0.36182605
  0
VERTEX
  8
0
 10
-293.88128519
 20
-208.51927718
 42
0.36182605
  0
VERTEX
  8
0
 10
-293.84182457
 20
-208.53318976
 42
-0.30869373
  0
VERTEX
  8
0
 10
-292.79392236
 20
-208.22758014
 42
-0.22590990
  0
VERTEX
  8
0
 10
-292.64334203
 20
-208.81847812
  0
SEQEND
  0
POLYLINE
  8
Default_Layer
 62
256
 66
   1
 39
0.000000
 70
    1
  0
VERTEX
  8
0
 10
-291.81878492
 20
-207.72391490
 42
-0.40874575
  0
VERTEX
  8
0
 10
-292.05524867
 20
-207.48298637
 42
-0.40874575
  0
VERTEX
  8
0
 10
-291.81878492
 20
-207.24205784
 42
-0.40689550
  0
VERTEX
  8
0
 10
-291.58381728
 20
-207.48298637
 42
-0.40689550
  0
VERTEX
  8
0
 10
-291.81878492
 20
-207.72391490
  0
SEQEND
  0
POLYLINE
  8
Default_Layer
 62
256
 66
   1
 39
0.000000
 70
    1
  0
VERTEX
  8
0
 10
-291.72532126
 20
-209.41041459
 42
-0.08163603
  0
VERTEX
  8
0
 10
-291.75884949
 20
-210.28422557
 42
-0.35334371
  0
VERTEX
  8
0
 10
-292.05181570
 20
-210.29207745
 42
-0.35334371
  0
VERTEX
  8
0
 10
-292.12119176
 20
-210.00733579
 42
-0.05930812
  0
VERTEX
  8
0
 10
-292.05081214
 20
-208.32801648
 42
-0.38619403
  0
VERTEX
  8
0
 10
-291.76535280
 20
-208.27894253
 42
-0.38619403
  0
VERTEX
  8
0
 10
-291.68897429
 20
-208.55833762
  0
VERTEX
  8
0
 10
-291.72532126
 20
-209.41041459
  0
SEQEND
  0
POLYLINE
  8
Default_Layer
 62
256
 66
   1
 39
0.000000
 70
    1
  0
VERTEX
  8
0
 10
-289.40119176
 20
-210.49043903
 42
0.04150716
  0
VERTEX
  8
0
 10
-289.70559768
 20
-210.25768857
 42
-0.39955931
  0
VERTEX
  8
0
 10
-291.03563739
 20
-210.12882370
 42
-0.38574121
  0
VERTEX
  8
0
 10
-290.65973177
 20
-208.37478539
 42
-0.36517764
  0
VERTEX
  8
0
 10
-289.39763124
 20
-208.45018682
 42
-0.19056869
  0
VERTEX
  8
0
 10
-289.40383517
 20
-208.77656109
 42
0.14454174
  0
VERTEX
  8
0
 10
-289.20803354
 20
-210.29935778
 42
-0.29252290
  0
VERTEX
  8
0
 10
-289.40119176
 20
-210.49043903
  0
SEQEND
  0
POLYLINE
  8
Default_Layer
 62
256
 66
   1
 39
0.000000
 70
    1
  0
VERTEX
  8
0
 10
-289.83320153
 20
-209.04694483
 42
0.09056203
  0
VERTEX
  8
0
 10
-289.80966254
 20
-208.61978132
 42
0.40829271
  0
VERTEX
  8
0
 10
-290.67645138
 20
-208.99765388
 42
0.36632853
  0
VERTEX
  8
0
 10
-290.54469359
 20
-210.04350103
 42
0.37147283
  0
VERTEX
  8
0
 10
-289.76869328
 20
-209.84725027
  0
VERTEX
  8
0
 10
-289.83320153
 20
-209.04694483
  0
SEQEND
  0
POLYLINE
  8
Default_Layer
 62
256
 66
   1
 39
0.000000
 70
    1
  0
VERTEX
  8
0
 10
-287.87669573
 20
-210.44059174
  0
VERTEX
  8
0
 10
-288.46883989
 20
-210.33092772
 42
-0.36804635
  0
VERTEX
  8
0
 10
-288.73970189
 20
-210.34981377
 42
-0.36804635
  0
VERTEX
  8
0
 10
-288.80154083
 20
-210.08542986
 42
-0.02296179
  0
VERTEX
  8
0
 10
-288.78225468
 20
-207.29855143
 42
-0.37100503
  0
VERTEX
  8
0
 10
-288.65373874
 20
-207.09791944
 42
-0.37100503
  0
VERTEX
  8
0
 10
-288.43617954
 20
-207.19506639
 42
-0.01503701
  0
VERTEX
  8
0
 10
-288.44786250
 20
-208.41762290
 42
-0.58705037
  0
VERTEX
  8
0
 10
-286.85482646
 20
-209.01821341
 42
-0.48649100
  0
VERTEX
  8
0
 10
-287.87669573
 20
-210.44059174
  0
SEQEND
  0
POLYLINE
  8
Default_Layer
 62
256
 66
   1
 39
0.000000
 70
    1
  0
VERTEX
  8
0
 10
-287.79777087
 20
-208.56508777
 42
0.20707135
  0
VERTEX
  8
0
 10
-288.44606246
 20
-208.89020282
 42
0.06178608
  0
VERTEX
  8
0
 10
-288.42421699
 20
-209.89914162
 42
0.30216865
  0
VERTEX
  8
0
 10
-287.44242017
 20
-209.87744963
 42
0.53170997
  0
VERTEX
  8
0
 10
-287.58875215
 20
-208.61096993
  0
VERTEX
  8
0
 10
-287.79777087
 20
-208.56508777
  0
SEQEND
  0
POLYLINE
  8
Default_Layer
 62
256
 66
   1
 39
0.000000
 70
    1
  0
VERTEX
  8
0
 10
-285.79557172
 20
-208.72086053
 42
-0.03936906
  0
VERTEX
  8
0
 10
-285.87835381
 20
-210.32398471
 42
-0.40173254
  0
VERTEX
  8
0
 10
-286.15415094
 20
-210.40558816
 42
-0.40173254
  0
VERTEX
  8
0
 10
-286.24748021
 20
-210.13353517
 42
-0.01499515
  0
VERTEX
  8
0
 10
-286.15488754
 20
-207.13019817
 42
-0.39967115
  0
VERTEX
  8
0
 10
-285.87703073
 20
-207.04306162
 42
-0.39967115
  0
VERTEX
  8
0
 10
-285.77614200
 20
-207.31622577
  0
VERTEX
  8
0
 10
-285.79557172
 20
-208.72086053
  0
SEQEND
  0
POLYLINE
  8
Default_Layer
 62
256
 66
   1
 39
0.000000
 70
    1
  0
VERTEX
  8
0
 10
-284.18799689
 20
-210.44889962
 42
-0.33911349
  0
VERTEX
  8
0
 10
-285.23284264
 20
-209.75121076
 42
-0.27674634
  0
VERTEX
  8
0
 10
-284.79066437
 20
-208.36569865
 42
-0.40108500
  0
VERTEX
  8
0
 10
-283.47418004
 20
-208.50447801
 42
-0.43567875
  0
VERTEX
  8
0
 10
-283.80209585
 20
-209.19897904
 42
-0.01269391
  0
VERTEX
  8
0
 10
-284.88170489
 20
-209.72611404
 42
0.46389300
  0
VERTEX
  8
0
 10
-283.44301369
 20
-209.74922033
 42
-0.40000888
  0
VERTEX
  8
0
 10
-283.19875303
 20
-209.91253841
 42
-0.40000888
  0
VERTEX
  8
0
 10
-283.34997656
 20
-210.16446599
 42
-0.14585744
  0
VERTEX
  8
0
 10
-284.18799689
 20
-210.44889962
  0
SEQEND
  0
POLYLINE
  8
Default_Layer
 62
256
 66
   1
 39
0.000000
 70
    1
  0
VERTEX
  8
0
 10
-284.24407508
 20
-208.55677989
 42
0.33156068
  0
VERTEX
  8
0
 10
-284.87526628
 20
-209.20604074
  0
VERTEX
  8
0
 10
-284.91701338
 20
-209.34395155
 42
0.03174525
  0
VERTEX
  8
0
 10
-283.74352529
 20
-208.72293750
 42
0.13484259
  0
VERTEX
  8
0
 10
-284.24407508
 20
-208.55677989
  0
SEQEND
  0
POLYLINE
  8
Default_Layer
 62
256
 66
   1
 39
0.000000
 70
    1
  0
VERTEX
  8
0
 10
-281.56686066
 20
-209.83619345
 42
-0.32842659
  0
VERTEX
  8
0
 10
-281.37360750
 20
-209.65894209
 42
-0.32842659
  0
VERTEX
  8
0
 10
-281.14696655
 20
-209.79084627
 42
0.28723181
  0
VERTEX
  8
0
 10
-280.33314044
 20
-210.06937329
 42
0.34593141
  0
VERTEX
  8
0
 10
-279.53465672
 20
-209.51424455
 42
0.38922479
  0
VERTEX
  8
0
 10
-280.07970683
 20
-208.94422135
 42
-0.12807233
  0
VERTEX
  8
0
 10
-281.13095657
 20
-208.65881105
 42
-0.46681781
  0
VERTEX
  8
0
 10
-280.91401705
 20
-207.62647904
 42
-0.32747533
  0
VERTEX
  8
0
 10
-279.27829927
 20
-207.53698759
 42
-0.30683352
  0
VERTEX
  8
0
 10
-279.35690699
 20
-207.75614146
 42
-0.30683352
  0
VERTEX
  8
0
 10
-279.58958516
 20
-207.76441581
 42
0.26627203
  0
VERTEX
  8
0
 10
-280.71197978
 20
-207.96515497
 42
0.65373077
  0
VERTEX
  8
0
 10
-280.62474704
 20
-208.45189290
 42
-0.03906781
  0
VERTEX
  8
0
 10
-279.55836570
 20
-208.68824561
 42
-0.30379925
  0
VERTEX
  8
0
 10
-279.12596158
 20
-209.57816438
 42
-0.30379925
  0
VERTEX
  8
0
 10
-279.78389118
 20
-210.31712134
 42
-0.30052449
  0
VERTEX
  8
0
 10
-281.46560837
 20
-210.11450744
 42
-0.12048158
  0
VERTEX
  8
0
 10
-281.56686066
 20
-209.83619345
  0
SEQEND
  0
POLYLINE
  8
Default_Layer
 62
256
 66
   1
 39
0.000000
 70
    1
  0
VERTEX
  8
0
 10
-276.91237074
 20
-209.14040848
 42
-0.03236730
  0
VERTEX
  8
0
 10
-276.91949178
 20
-210.37917277
 42
-0.34948221
  0
VERTEX
  8
0
 10
-277.13488437
 20
-210.50412914
 42
-0.34948221
  0
VERTEX
  8
0
 10
-277.30491809
 20
-210.32220445
 42
-0.30526281
  0
VERTEX
  8
0
 10
-278.43245321
 20
-210.25496254
 42
-0.17657803
  0
VERTEX
  8
0
 10
-278.62696146
 20
-209.48269315
 42
-0.12107314
  0
VERTEX
  8
0
 10
-278.54331149
 20
-208.18448301
 42
-0.31861033
  0
VERTEX
  8
0
 10
-278.27276323
 20
-208.21751550
 42
-0.31861033
  0
VERTEX
  8
0
 10
-278.21447121
 20
-208.48376641
 42
0.11966604
  0
VERTEX
  8
0
 10
-278.14643713
 20
-209.96842722
 42
0.17037432
  0
VERTEX
  8
0
 10
-277.31530294
 20
-209.94627287
 42
-0.05637791
  0
VERTEX
  8
0
 10
-277.24676292
 20
-208.26096001
 42
-0.39561366
  0
VERTEX
  8
0
 10
-276.96200584
 20
-208.19784102
 42
-0.39561366
  0
VERTEX
  8
0
 10
-276.88082676
 20
-208.47798484
  0
VERTEX
  8
0
 10
-276.91237074
 20
-209.14040848
  0
SEQEND
  0
POLYLINE
  8
Default_Layer
 62
256
 66
   1
 39
0.000000
 70
    1
  0
VERTEX
  8
0
 10
-275.51249292
 20
-210.42605295
 42
0.15224592
  0
VERTEX
  8
0
 10
-275.96953018
 20
-210.38440970
 42
-0.06238444
  0
VERTEX
  8
0
 10
-276.01511967
 20
-211.45919721
 42
-0.38121461
  0
VERTEX
  8
0
 10
-276.29957244
 20
-211.50733975
 42
-0.38121461
  0
VERTEX
  8
0
 10
-276.37975010
 20
-211.23020689
  0
VERTEX
  8
0
 10
-276.41710779
 20
-208.35191512
 42
-0.40041824
  0
VERTEX
  8
0
 10
-276.28098687
 20
-208.10407884
 42
-0.40041824
  0
VERTEX
  8
0
 10
-276.02698807
 20
-208.22832191
 42
-0.12921622
  0
VERTEX
  8
0
 10
-276.03173543
 20
-208.45500836
 42
-0.32780756
  0
VERTEX
  8
0
 10
-274.92977300
 20
-208.36349187
 42
-0.25485854
  0
VERTEX
  8
0
 10
-274.64700727
 20
-209.76435473
 42
-0.32843696
  0
VERTEX
  8
0
 10
-275.51249292
 20
-210.42605295
  0
SEQEND
  0
POLYLINE
  8
Default_Layer
 62
256
 66
   1
 39
0.000000
 70
    1
  0
VERTEX
  8
0
 10
-275.36918198
 20
-208.62531991
 42
0.24146643
  0
VERTEX
  8
0
 10
-275.99159799
 20
-208.95540237
 42
0.06212023
  0
VERTEX
  8
0
 10
-275.94263342
 20
-209.92789168
 42
0.27373810
  0
VERTEX
  8
0
 10
-275.19033178
 20
-209.87980983
 42
0.28554080
  0
VERTEX
  8
0
 10
-275.09086799
 20
-208.81432418
 42
0.21913511
  0
VERTEX
  8
0
 10
-275.36918198
 20
-208.62531991
  0
SEQEND
  0
POLYLINE
  8
Default_Layer
 62
256
 66
   1
 39
0.000000
 70
    1
  0
VERTEX
  8
0
 10
-273.23821069
 20
-210.42605295
 42
0.15224592
  0
VERTEX
  8
0
 10
-273.69524796
 20
-210.38440970
 42
-0.06238444
  0
VERTEX
  8
0
 10
-273.74083745
 20
-211.45919721
 42
-0.38121461
  0
VERTEX
  8
0
 10
-274.02529021
 20
-211.50733975
 42
-0.38121461
  0
VERTEX
  8
0
 10
-274.10546787
 20
-211.23020689
  0
VERTEX
  8
0
 10
-274.14282557
 20
-208.35191512
 42
-0.40041824
  0
VERTEX
  8
0
 10
-274.00670464
 20
-208.10407884
 42
-0.40041824
  0
VERTEX
  8
0
 10
-273.75270585
 20
-208.22832191
 42
-0.12921622
  0
VERTEX
  8
0
 10
-273.75745321
 20
-208.45500836
 42
-0.32780756
  0
VERTEX
  8
0
 10
-272.65549078
 20
-208.36349187
 42
-0.25485854
  0
VERTEX
  8
0
 10
-272.37272505
 20
-209.76435473
 42
-0.32843696
  0
VERTEX
  8
0
 10
-273.23821069
 20
-210.42605295
  0
SEQEND
  0
POLYLINE
  8
Default_Layer
 62
256
 66
   1
 39
0.000000
 70
    1
  0
VERTEX
  8
0
 10
-273.09489976
 20
-208.62531991
 42
0.24146643
  0
VERTEX
  8
0
 10
-273.71731576
 20
-208.95540237
 42
0.06212023
  0
VERTEX
  8
0
 10
-273.66835120
 20
-209.92789168
 42
0.27373810
  0
VERTEX
  8
0
 10
-272.91604956
 20
-209.87980983
 42
0.28554080
  0
VERTEX
  8
0
 10
-272.81658577
 20
-208.81432418
 42
0.21913511
  0
VERTEX
  8
0
 10
-273.09489976
 20
-208.62531991
  0
SEQEND
  0
POLYLINE
  8
Default_Layer
 62
256
 66
   1
 39
0.000000
 70
    1
  0
VERTEX
  8
0
 10
-271.31909035
 20
-208.72086053
 42
-0.03936906
  0
VERTEX
  8
0
 10
-271.40187245
 20
-210.32398471
 42
-0.40173254
  0
VERTEX
  8
0
 10
-271.67766958
 20
-210.40558816
 42
-0.40173254
  0
VERTEX
  8
0
 10
-271.77099884
 20
-210.13353517
 42
-0.01499515
  0
VERTEX
  8
0
 10
-271.67840617
 20
-207.13019817
 42
-0.39967115
  0
VERTEX
  8
0
 10
-271.40054936
 20
-207.04306162
 42
-0.39967115
  0
VERTEX
  8
0
 10
-271.29966063
 20
-207.31622577
  0
VERTEX
  8
0
 10
-271.31909035
 20
-208.72086053
  0
SEQEND
  0
POLYLINE
  8
Default_Layer
 62
256
 66
   1
 39
0.000000
 70
    1
  0
VERTEX
  8
0
 10
-268.86203476
 20
-208.50070170
 42
0.00559572
  0
VERTEX
  8
0
 10
-270.19856500
 20
-211.51853921
 42
-0.34317257
  0
VERTEX
  8
0
 10
-270.46683864
 20
-211.46354092
 42
-0.34317257
  0
VERTEX
  8
0
 10
-270.47950575
 20
-211.18998087
  0
VERTEX
  8
0
 10
-270.08850156
 20
-210.13195399
 42
-0.01482775
  0
VERTEX
  8
0
 10
-270.97015938
 20
-208.41139199
 42
-0.36159034
  0
VERTEX
  8
0
 10
-270.75708109
 20
-208.22232115
 42
-0.36159034
  0
VERTEX
  8
0
 10
-270.53240085
 20
-208.39744662
 42
-0.03253242
  0
VERTEX
  8
0
 10
-269.85274949
 20
-209.66588191
 42
-0.05366161
  0
VERTEX
  8
0
 10
-269.14865663
 20
-208.22238771
 42
-0.31230643
  0
VERTEX
  8
0
 10
-268.90903251
 20
-208.26235650
 42
-0.31230643
  0
VERTEX
  8
0
 10
-268.86203476
 20
-208.50070170
  0
SEQEND
  0
CIRCLE
  8
Default_Layer
 62
256
 10
-305.438568
 20
-208.835864
 40
3.600000
  0
POLYLINE
  8
Default_Layer
 62
256
 66
   1
 39
0.000000
 70
    1
  0
VERTEX
  8
0
 10
-439.93292942
 20
190.04646644
 42
0.41421356
  0
VERTEX
  8
0
 10
-436.93292942
 20
187.04646644
  0
VERTEX
  8
0
 10
-392.93292942
 20
187.04646644
 42
0.41421356
  0
VERTEX
  8
0
 10
-389.93292942
 20
190.04646644
  0
VERTEX
  8
0
 10
-389.93292942
 20
204.04646644
 42
0.41421356
  0
VERTEX
  8
0
 10
-392.93292942
 20
207.04646644
  0
VERTEX
  8
0
 10
-436.93292942
 20
207.04646644
 42
0.41421356
  0
VERTEX
  8
0
 10
-439.93292942
 20
204.04646644
  0
VERTEX
  8
0
 10
-439.93292942
 20
190.04646644
  0
SEQEND
  0
CIRCLE
  8
Default_Layer
 62
256
 10
-435.432929
 20
197.046466
 40
1.500000
  0
POLYLINE
  8
Default_Layer
 62
256
 66
   1
 39
0.000000
 70
    1
  0
VERTEX
  8
0
 10
-432.00932535
 20
201.24769084
 42
-0.30534506
  0
VERTEX
  8
0
 10
-432.26015658
 20
201.59104085
 42
-0.01699200
  0
VERTEX
  8
0
 10
-432.60418604
 20
203.35376718
 42
-0.03525282
  0
VERTEX
  8
0
 10
-433.28272909
 20
201.42985489
 42
-0.31791393
  0
VERTEX
  8
0
 10
-433.53457651
 20
201.35539511
 42
-0.31791393
  0
VERTEX
  8
0
 10
-433.68866776
 20
201.56806214
 42
-0.02588826
  0
VERTEX
  8
0
 10
-434.11925193
 20
203.32296534
 42
-0.01801248
  0
VERTEX
  8
0
 10
-434.56594748
 20
201.38423653
 42
-0.39038271
  0
VERTEX
  8
0
 10
-434.83273245
 20
201.32534823
 42
-0.39038271
  0
VERTEX
  8
0
 10
-434.91328608
 20
201.58640984
 42
-0.03297854
  0
VERTEX
  8
0
 10
-434.55649378
 20
203.17100153
 42
-0.10617240
  0
VERTEX
  8
0
 10
-434.24981601
 20
204.25595881
 42
-0.30744553
  0
VERTEX
  8
0
 10
-433.99327566
 20
204.28633647
 42
-0.30744553
  0
VERTEX
  8
0
 10
-433.87043075
 20
204.05908137
 42
0.00990461
  0
VERTEX
  8
0
 10
-433.43006058
 20
202.11976815
 42
0.01843091
  0
VERTEX
  8
0
 10
-432.78899713
 20
204.21814404
 42
-0.33056132
  0
VERTEX
  8
0
 10
-432.56524458
 20
204.33980735
 42
-0.33056132
  0
VERTEX
  8
0
 10
-432.38400096
 20
204.16087185
 42
-0.04506374
  0
VERTEX
  8
0
 10
-432.15249436
 20
202.93372532
 42
-0.01068280
  0
VERTEX
  8
0
 10
-431.81320421
 20
201.40410647
 42
-0.28939039
  0
VERTEX
  8
0
 10
-432.00932535
 20
201.24769084
  0
SEQEND
  0
POLYLINE
  8
Default_Layer
 62
256
 66
   1
 39
0.000000
 70
    1
  0
VERTEX
  8
0
 10
-429.77811650
 20
201.28811826
 42
-0.36180443
  0
VERTEX
  8
0
 10
-429.98410386
 20
201.58394434
 42
-0.02079514
  0
VERTEX
  8
0
 10
-430.09130873
 20
202.86021570
 42
0.50146595
  0
VERTEX
  8
0
 10
-430.42206763
 20
202.96467173
 42
0.16846636
  0
VERTEX
  8
0
 10
-430.95051183
 20
202.35270713
 42
-0.08562589
  0
VERTEX
  8
0
 10
-431.03505649
 20
201.45464075
 42
-0.39248686
  0
VERTEX
  8
0
 10
-431.29729588
 20
201.41366717
 42
-0.39248686
  0
VERTEX
  8
0
 10
-431.35773793
 20
201.67211463
 42
0.01449563
  0
VERTEX
  8
0
 10
-431.33697877
 20
204.37840990
 42
-0.37259984
  0
VERTEX
  8
0
 10
-431.07721117
 20
204.45576460
 42
-0.37259984
  0
VERTEX
  8
0
 10
-430.96334594
 20
204.20980187
 42
-0.01928598
  0
VERTEX
  8
0
 10
-430.96398764
 20
202.97259432
 42
-0.40347271
  0
VERTEX
  8
0
 10
-429.89346300
 20
203.28807262
 42
-0.19127278
  0
VERTEX
  8
0
 10
-429.70394889
 20
202.57733771
  0
VERTEX
  8
0
 10
-429.59258350
 20
201.41842452
 42
-0.26340404
  0
VERTEX
  8
0
 10
-429.77811650
 20
201.28811826
  0
SEQEND
  0
POLYLINE
  8
Default_Layer
 62
256
 66
   1
 39
0.000000
 70
    1
  0
VERTEX
  8
0
 10
-428.39010823
 20
201.29389361
 42
-0.43570129
  0
VERTEX
  8
0
 10
-429.21471395
 20
202.36193893
 42
-0.45135033
  0
VERTEX
  8
0
 10
-428.14107048
 20
203.39060908
 42
-0.31923864
  0
VERTEX
  8
0
 10
-427.54746492
 20
202.71817511
 42
-0.29885769
  0
VERTEX
  8
0
 10
-427.99322161
 20
201.40097816
 42
-0.12442572
  0
VERTEX
  8
0
 10
-428.39010823
 20
201.29389361
  0
SEQEND
  0
POLYLINE
  8
Default_Layer
 62
256
 66
   1
 39
0.000000
 70
    1
  0
VERTEX
  8
0
 10
-428.27460130
 20
203.01302174
 42
0.39066700
  0
VERTEX
  8
0
 10
-428.82717820
 20
202.35985756
 42
0.44401798
  0
VERTEX
  8
0
 10
-428.39010823
 20
201.68276694
 42
0.43125839
  0
VERTEX
  8
0
 10
-427.87844509
 20
202.40033958
 42
0.31420984
  0
VERTEX
  8
0
 10
-428.14430708
 20
202.97983756
  0
VERTEX
  8
0
 10
-428.27460130
 20
203.01302174
  0
SEQEND
  0
POLYLINE
  8
Default_Layer
 62
256
 66
   1
 39
0.000000
 70
    1
  0
VERTEX
  8
0
 10
-425.42735550
 20
201.28811826
 42
-0.36180443
  0
VERTEX
  8
0
 10
-425.63334285
 20
201.58394434
 42
-0.02079514
  0
VERTEX
  8
0
 10
-425.74054772
 20
202.86021570
 42
0.50146595
  0
VERTEX
  8
0
 10
-426.07130663
 20
202.96467173
 42
0.16846636
  0
VERTEX
  8
0
 10
-426.59975083
 20
202.35270713
 42
-0.08562589
  0
VERTEX
  8
0
 10
-426.68429548
 20
201.45464075
 42
-0.39248686
  0
VERTEX
  8
0
 10
-426.94653488
 20
201.41366717
 42
-0.39248686
  0
VERTEX
  8
0
 10
-427.00697693
 20
201.67211463
 42
0.01449563
  0
VERTEX
  8
0
 10
-426.98621776
 20
204.37840990
 42
-0.37259984
  0
VERTEX
  8
0
 10
-426.72645016
 20
204.45576460
 42
-0.37259984
  0
VERTEX
  8
0
 10
-426.61258493
 20
204.20980187
 42
-0.01928598
  0
VERTEX
  8
0
 10
-426.61322664
 20
202.97259432
 42
-0.40347271
  0
VERTEX
  8
0
 10
-425.54270200
 20
203.28807262
 42
-0.19127278
  0
VERTEX
  8
0
 10
-425.35318789
 20
202.57733771
  0
VERTEX
  8
0
 10
-425.24182249
 20
201.41842452
 42
-0.26340404
  0
VERTEX
  8
0
 10
-425.42735550
 20
201.28811826
  0
SEQEND
  0
POLYLINE
  8
Default_Layer
 62
256
 66
   1
 39
0.000000
 70
    1
  0
VERTEX
  8
0
 10
-423.25775034
 20
201.28041780
  0
VERTEX
  8
0
 10
-423.53668944
 20
201.49765189
 42
-0.35524165
  0
VERTEX
  8
0
 10
-424.73623904
 20
201.55763443
 42
-0.33692228
  0
VERTEX
  8
0
 10
-424.61110653
 20
203.08617613
 42
-0.43351075
  0
VERTEX
  8
0
 10
-423.22406082
 20
203.14404991
 42
-0.05365535
  0
VERTEX
  8
0
 10
-423.27700150
 20
202.73773023
 42
0.11295237
  0
VERTEX
  8
0
 10
-423.16007606
 20
201.66361711
 42
-0.30770920
  0
VERTEX
  8
0
 10
-423.13261783
 20
201.33047080
  0
VERTEX
  8
0
 10
-423.25775034
 20
201.28041780
  0
SEQEND
  0
POLYLINE
  8
Default_Layer
 62
256
 66
   1
 39
0.000000
 70
    1
  0
VERTEX
  8
0
 10
-423.65817436
 20
202.61837307
 42
0.07302039
  0
VERTEX
  8
0
 10
-423.63342288
 20
203.01302174
 42
0.42167162
  0
VERTEX
  8
0
 10
-424.43688358
 20
202.66872687
 42
0.33633850
  0
VERTEX
  8
0
 10
-424.36998581
 20
201.73907657
 42
0.42683749
  0
VERTEX
  8
0
 10
-423.59815025
 20
201.87369891
  0
VERTEX
  8
0
 10
-423.65817436
 20
202.61837307
  0
SEQEND
  0
POLYLINE
  8
Default_Layer
 62
256
 66
   1
 39
0.000000
 70
    1
  0
VERTEX
  8
0
 10
-420.29884783
 20
201.24769084
 42
-0.38271173
  0
VERTEX
  8
0
 10
-420.49483701
 20
201.51143166
 42
0.05945829
  0
VERTEX
  8
0
 10
-420.71804173
 20
202.93361073
 42
0.54232738
  0
VERTEX
  8
0
 10
-421.02654149
 20
202.95700088
 42
0.11644511
  0
VERTEX
  8
0
 10
-421.33405336
 20
202.72253195
 42
-0.00994278
  0
VERTEX
  8
0
 10
-421.24071059
 20
201.30508334
 42
-0.39871173
  0
VERTEX
  8
0
 10
-421.48185889
 20
201.18755092
 42
-0.39871173
  0
VERTEX
  8
0
 10
-421.61205161
 20
201.42210630
 42
0.03362585
  0
VERTEX
  8
0
 10
-421.75459610
 20
203.04027416
 42
0.22655560
  0
VERTEX
  8
0
 10
-422.03337689
 20
202.85708739
 42
0.09242734
  0
VERTEX
  8
0
 10
-422.36107433
 20
202.44382926
 42
0.01941411
  0
VERTEX
  8
0
 10
-422.37941640
 20
201.42335763
 42
-0.34180600
  0
VERTEX
  8
0
 10
-422.60892758
 20
201.33581713
 42
-0.34180600
  0
VERTEX
  8
0
 10
-422.75120433
 20
201.53605710
 42
-0.02686005
  0
VERTEX
  8
0
 10
-422.74687282
 20
202.66541808
 42
-0.14401577
  0
VERTEX
  8
0
 10
-422.69284926
 20
203.47607218
 42
-0.36589993
  0
VERTEX
  8
0
 10
-422.43228884
 20
203.47923544
 42
-0.36589993
  0
VERTEX
  8
0
 10
-422.38567302
 20
203.22285933
 42
0.03357181
  0
VERTEX
  8
0
 10
-422.39144837
 20
202.90329016
 42
-0.26809109
  0
VERTEX
  8
0
 10
-421.71353700
 20
203.43528379
 42
-0.29195598
  0
VERTEX
  8
0
 10
-421.34996089
 20
203.14200448
 42
-0.44683969
  0
VERTEX
  8
0
 10
-420.44383310
 20
203.28229727
 42
-0.13650658
  0
VERTEX
  8
0
 10
-420.24008115
 20
202.49688815
 42
-0.03115806
  0
VERTEX
  8
0
 10
-420.11644314
 20
201.36127265
 42
-0.26165051
  0
VERTEX
  8
0
 10
-420.29884783
 20
201.24769084
  0
SEQEND
  0
POLYLINE
  8
Default_Layer
 62
256
 66
   1
 39
0.000000
 70
    1
  0
VERTEX
  8
0
 10
-418.78185683
 20
201.31892011
 42
-0.42193904
  0
VERTEX
  8
0
 10
-419.77597115
 20
202.15446399
 42
-0.33693284
  0
VERTEX
  8
0
 10
-419.09425057
 20
203.37721859
 42
-0.29752590
  0
VERTEX
  8
0
 10
-418.12587373
 20
203.14296704
 42
-0.45984835
  0
VERTEX
  8
0
 10
-418.43437348
 20
202.47206429
 42
-0.01256064
  0
VERTEX
  8
0
 10
-419.42484540
 20
201.98886030
 42
0.37868175
  0
VERTEX
  8
0
 10
-418.27001675
 20
201.80212410
 42
-0.24992911
  0
VERTEX
  8
0
 10
-418.00273509
 20
201.97208430
 42
-0.65657735
  0
VERTEX
  8
0
 10
-418.00356873
 20
201.57465967
 42
-0.14712219
  0
VERTEX
  8
0
 10
-418.78185683
 20
201.31892011
  0
SEQEND
  0
POLYLINE
  8
Default_Layer
 62
256
 66
   1
 39
0.000000
 70
    1
  0
VERTEX
  8
0
 10
-418.83383495
 20
203.07270032
 42
0.32485739
  0
VERTEX
  8
0
 10
-419.40066822
 20
202.53106342
  0
VERTEX
  8
0
 10
-419.45757237
 20
202.34308155
 42
0.04366203
  0
VERTEX
  8
0
 10
-418.36988212
 20
202.91869108
 42
0.13461359
  0
VERTEX
  8
0
 10
-418.83383495
 20
203.07270032
  0
SEQEND
  0
POLYLINE
  8
Default_Layer
 62
256
 66
   1
 39
0.000000
 70
    1
  0
VERTEX
  8
0
 10
-415.74787482
 20
203.10735240
 42
0.01953659
  0
VERTEX
  8
0
 10
-415.72092320
 20
201.45849098
 42
-0.31380669
  0
VERTEX
  8
0
 10
-415.91441445
 20
201.37309114
 42
-0.31380669
  0
VERTEX
  8
0
 10
-416.06166864
 20
201.52490747
 42
-0.61099727
  0
VERTEX
  8
0
 10
-417.58561632
 20
202.22608703
 42
-0.42889892
  0
VERTEX
  8
0
 10
-416.66689870
 20
203.41008775
 42
-0.21164292
  0
VERTEX
  8
0
 10
-416.08477003
 20
203.21323375
 42
-0.04051486
  0
VERTEX
  8
0
 10
-415.99308640
 20
204.36902496
 42
-0.40709750
  0
VERTEX
  8
0
 10
-415.75781347
 20
204.44521143
 42
-0.40709750
  0
VERTEX
  8
0
 10
-415.67591968
 20
204.21186374
  0
VERTEX
  8
0
 10
-415.74787482
 20
203.10735240
  0
SEQEND
  0
POLYLINE
  8
Default_Layer
 62
256
 66
   1
 39
0.000000
 70
    1
  0
VERTEX
  8
0
 10
-416.60262610
 20
203.05729940
 42
0.40764278
  0
VERTEX
  8
0
 10
-417.22700522
 20
202.47607495
 42
0.37552702
  0
VERTEX
  8
0
 10
-416.88863850
 20
201.74388306
 42
0.37552702
  0
VERTEX
  8
0
 10
-416.11783672
 20
201.98149957
 42
0.03977428
  0
VERTEX
  8
0
 10
-416.13642730
 20
202.77569778
 42
0.27606361
  0
VERTEX
  8
0
 10
-416.60262610
 20
203.05729940
  0
SEQEND
  0
POLYLINE
  8
Default_Layer
 62
256
 66
   1
 39
0.000000
 70
    1
  0
VERTEX
  8
0
 10
-411.88801826
 20
201.34972196
 42
-0.25183127
  0
VERTEX
  8
0
 10
-412.15854765
 20
201.71437936
 42
-0.03797461
  0
VERTEX
  8
0
 10
-412.32116925
 20
202.41046059
 42
0.04520589
  0
VERTEX
  8
0
 10
-413.35528495
 20
202.19034007
 42
-0.05830344
  0
VERTEX
  8
0
 10
-413.74912366
 20
201.39014938
 42
-0.34254176
  0
VERTEX
  8
0
 10
-413.99799451
 20
201.46450023
 42
-0.34254176
  0
VERTEX
  8
0
 10
-413.98771766
 20
201.72403660
 42
0.05708729
  0
VERTEX
  8
0
 10
-413.76088062
 20
202.29330357
 42
-0.39717943
  0
VERTEX
  8
0
 10
-413.58569511
 20
202.59293404
 42
-0.05180538
  0
VERTEX
  8
0
 10
-412.53514584
 20
204.21631518
 42
-0.52414118
  0
VERTEX
  8
0
 10
-412.28131936
 20
204.07279782
 42
0.01764520
  0
VERTEX
  8
0
 10
-411.78621363
 20
201.85942460
 42
-0.26796622
  0
VERTEX
  8
0
 10
-411.75133506
 20
201.40555031
  0
VERTEX
  8
0
 10
-411.88801826
 20
201.34972196
  0
SEQEND
  0
POLYLINE
  8
Default_Layer
 62
256
 66
   1
 39
0.000000
 70
    1
  0
VERTEX
  8
0
 10
-412.56758403
 20
203.55012896
  0
VERTEX
  8
0
 10
-413.11816706
 20
202.66265072
  0
VERTEX
  8
0
 10
-412.41164968
 20
202.80703438
  0
VERTEX
  8
0
 10
-412.56758403
 20
203.55012896
  0
SEQEND
  0
POLYLINE
  8
Default_Layer
 62
256
 66
   1
 39
0.000000
 70
    1
  0
VERTEX
  8
0
 10
-410.24396964
 20
201.32662057
 42
-0.07939462
  0
VERTEX
  8
0
 10
-410.77915174
 20
201.44212750
 42
-0.37123714
  0
VERTEX
  8
0
 10
-411.01781329
 20
201.39271560
 42
-0.37123714
  0
VERTEX
  8
0
 10
-411.10208987
 20
201.62140388
 42
-0.01797418
  0
VERTEX
  8
0
 10
-411.09032041
 20
204.20869347
 42
-0.34551076
  0
VERTEX
  8
0
 10
-410.99036132
 20
204.41079882
 42
-0.34551076
  0
VERTEX
  8
0
 10
-410.77028246
 20
204.36177140
 42
-0.03885635
  0
VERTEX
  8
0
 10
-410.77045022
 20
203.57477044
  0
VERTEX
  8
0
 10
-410.77337640
 20
203.20168306
 42
-0.38251076
  0
VERTEX
  8
0
 10
-409.54056853
 20
203.15289341
 42
-0.56302118
  0
VERTEX
  8
0
 10
-410.04183251
 20
201.34575141
  0
VERTEX
  8
0
 10
-410.24396964
 20
201.32662057
  0
SEQEND
  0
POLYLINE
  8
Default_Layer
 62
256
 66
   1
 39
0.000000
 70
    1
  0
VERTEX
  8
0
 10
-410.17081525
 20
203.06499986
 42
0.20057182
  0
VERTEX
  8
0
 10
-410.77167777
 20
202.76626723
 42
0.05580642
  0
VERTEX
  8
0
 10
-410.75412524
 20
201.82958908
 42
0.26951384
  0
VERTEX
  8
0
 10
-409.91136891
 20
201.79812578
 42
0.54739495
  0
VERTEX
  8
0
 10
-409.95224060
 20
203.01702006
  0
VERTEX
  8
0
 10
-410.17081525
 20
203.06499986
  0
SEQEND
  0
POLYLINE
  8
Default_Layer
 62
256
 66
   1
 39
0.000000
 70
    1
  0
VERTEX
  8
0
 10
-407.03095189
 20
203.10735240
 42
0.01953659
  0
VERTEX
  8
0
 10
-407.00400027
 20
201.45849098
 42
-0.31380669
  0
VERTEX
  8
0
 10
-407.19749152
 20
201.37309114
 42
-0.31380669
  0
VERTEX
  8
0
 10
-407.34474571
 20
201.52490747
 42
-0.61099727
  0
VERTEX
  8
0
 10
-408.86869338
 20
202.22608703
 42
-0.42889892
  0
VERTEX
  8
0
 10
-407.94997577
 20
203.41008775
 42
-0.21164292
  0
VERTEX
  8
0
 10
-407.36784710
 20
203.21323375
 42
-0.04051486
  0
VERTEX
  8
0
 10
-407.27616347
 20
204.36902496
 42
-0.40709750
  0
VERTEX
  8
0
 10
-407.04089053
 20
204.44521143
 42
-0.40709750
  0
VERTEX
  8
0
 10
-406.95899675
 20
204.21186374
  0
VERTEX
  8
0
 10
-407.03095189
 20
203.10735240
  0
SEQEND
  0
POLYLINE
  8
Default_Layer
 62
256
 66
   1
 39
0.000000
 70
    1
  0
VERTEX
  8
0
 10
-407.88570316
 20
203.05729940
 42
0.40764278
  0
VERTEX
  8
0
 10
-408.51008229
 20
202.47607495
 42
0.37552702
  0
VERTEX
  8
0
 10
-408.17171557
 20
201.74388306
 42
0.37552702
  0
VERTEX
  8
0
 10
-407.40091379
 20
201.98149957
 42
0.03977428
  0
VERTEX
  8
0
 10
-407.41950436
 20
202.77569778
 42
0.27606361
  0
VERTEX
  8
0
 10
-407.88570316
 20
203.05729940
  0
SEQEND
  0
POLYLINE
  8
Default_Layer
 62
256
 66
   1
 39
0.000000
 70
    1
  0
VERTEX
  8
0
 10
-405.58904039
 20
201.31892011
 42
-0.42193904
  0
VERTEX
  8
0
 10
-406.58315471
 20
202.15446399
 42
-0.33693284
  0
VERTEX
  8
0
 10
-405.90143413
 20
203.37721859
 42
-0.29752590
  0
VERTEX
  8
0
 10
-404.93305728
 20
203.14296704
 42
-0.45984835
  0
VERTEX
  8
0
 10
-405.24155704
 20
202.47206429
 42
-0.01256064
  0
VERTEX
  8
0
 10
-406.23202896
 20
201.98886030
 42
0.37868175
  0
VERTEX
  8
0
 10
-405.07720030
 20
201.80212410
 42
-0.24992911
  0
VERTEX
  8
0
 10
-404.80991865
 20
201.97208430
 42
-0.65657735
  0
VERTEX
  8
0
 10
-404.81075229
 20
201.57465967
 42
-0.14712219
  0
VERTEX
  8
0
 10
-405.58904039
 20
201.31892011
  0
SEQEND
  0
POLYLINE
  8
Default_Layer
 62
256
 66
   1
 39
0.000000
 70
    1
  0
VERTEX
  8
0
 10
-405.64101850
 20
203.07270032
 42
0.32485739
  0
VERTEX
  8
0
 10
-406.20785177
 20
202.53106342
  0
VERTEX
  8
0
 10
-406.26475592
 20
202.34308155
 42
0.04366203
  0
VERTEX
  8
0
 10
-405.17706567
 20
202.91869108
 42
0.13461359
  0
VERTEX
  8
0
 10
-405.64101850
 20
203.07270032
  0
SEQEND
  0
POLYLINE
  8
Default_Layer
 62
256
 66
   1
 39
0.000000
 70
    1
  0
VERTEX
  8
0
 10
-403.83911041
 20
202.92061620
 42
-0.02913380
  0
VERTEX
  8
0
 10
-403.90468465
 20
201.46306313
 42
-0.41421356
  0
VERTEX
  8
0
 10
-404.13051808
 20
201.33404697
 42
-0.41421356
  0
VERTEX
  8
0
 10
-404.25953424
 20
201.55988040
 42
-0.01117770
  0
VERTEX
  8
0
 10
-404.17847217
 20
204.41173846
 42
-0.38757900
  0
VERTEX
  8
0
 10
-403.90171997
 20
204.46686105
 42
-0.38757900
  0
VERTEX
  8
0
 10
-403.82146351
 20
204.19632606
  0
VERTEX
  8
0
 10
-403.83911041
 20
202.92061620
  0
SEQEND
  0
POLYLINE
  8
Default_Layer
 62
256
 66
   1
 39
0.000000
 70
    1
  0
VERTEX
  8
0
 10
-401.63677829
 20
201.28811826
 42
-0.36180443
  0
VERTEX
  8
0
 10
-401.84276564
 20
201.58394434
 42
-0.02079514
  0
VERTEX
  8
0
 10
-401.94997051
 20
202.86021570
 42
0.50146595
  0
VERTEX
  8
0
 10
-402.28072942
 20
202.96467173
 42
0.16846636
  0
VERTEX
  8
0
 10
-402.80917362
 20
202.35270713
 42
-0.08562589
  0
VERTEX
  8
0
 10
-402.89371827
 20
201.45464075
 42
-0.39248686
  0
VERTEX
  8
0
 10
-403.15595767
 20
201.41366717
 42
-0.39248686
  0
VERTEX
  8
0
 10
-403.21639972
 20
201.67211463
 42
0.01449563
  0
VERTEX
  8
0
 10
-403.19564055
 20
204.37840990
 42
-0.37259984
  0
VERTEX
  8
0
 10
-402.93587295
 20
204.45576460
 42
-0.37259984
  0
VERTEX
  8
0
 10
-402.82200772
 20
204.20980187
 42
-0.01928598
  0
VERTEX
  8
0
 10
-402.82264943
 20
202.97259432
 42
-0.40347271
  0
VERTEX
  8
0
 10
-401.75212479
 20
203.28807262
 42
-0.19127278
  0
VERTEX
  8
0
 10
-401.56261068
 20
202.57733771
  0
VERTEX
  8
0
 10
-401.45124528
 20
201.41842452
 42
-0.26340404
  0
VERTEX
  8
0
 10
-401.63677829
 20
201.28811826
  0
SEQEND
  0
POLYLINE
  8
Default_Layer
 62
256
 66
   1
 39
0.000000
 70
    1
  0
VERTEX
  8
0
 10
-399.46717313
 20
201.28041780
  0
VERTEX
  8
0
 10
-399.74611223
 20
201.49765189
 42
-0.35524165
  0
VERTEX
  8
0
 10
-400.94566183
 20
201.55763443
 42
-0.33692228
  0
VERTEX
  8
0
 10
-400.82052932
 20
203.08617613
 42
-0.43351075
  0
VERTEX
  8
0
 10
-399.43348361
 20
203.14404991
 42
-0.05365535
  0
VERTEX
  8
0
 10
-399.48642429
 20
202.73773023
 42
0.11295237
  0
VERTEX
  8
0
 10
-399.36949885
 20
201.66361711
 42
-0.30770920
  0
VERTEX
  8
0
 10
-399.34204062
 20
201.33047080
  0
VERTEX
  8
0
 10
-399.46717313
 20
201.28041780
  0
SEQEND
  0
POLYLINE
  8
Default_Layer
 62
256
 66
   1
 39
0.000000
 70
    1
  0
VERTEX
  8
0
 10
-399.86759715
 20
202.61837307
 42
0.07302039
  0
VERTEX
  8
0
 10
-399.84284567
 20
203.01302174
 42
0.42167162
  0
VERTEX
  8
0
 10
-400.64630637
 20
202.66872687
 42
0.33633850
  0
VERTEX
  8
0
 10
-400.57940860
 20
201.73907657
 42
0.42683749
  0
VERTEX
  8
0
 10
-399.80757304
 20
201.87369891
  0
VERTEX
  8
0
 10
-399.86759715
 20
202.61837307
  0
SEQEND
  0
POLYLINE
  8
Default_Layer
 62
256
 66
   1
 39
0.000000
 70
    1
  0
VERTEX
  8
0
 10
-397.18013593
 20
203.10735240
 42
0.01953659
  0
VERTEX
  8
0
 10
-397.15318431
 20
201.45849098
 42
-0.31380669
  0
VERTEX
  8
0
 10
-397.34667556
 20
201.37309114
 42
-0.31380669
  0
VERTEX
  8
0
 10
-397.49392975
 20
201.52490747
 42
-0.61099727
  0
VERTEX
  8
0
 10
-399.01787743
 20
202.22608703
 42
-0.42889892
  0
VERTEX
  8
0
 10
-398.09915981
 20
203.41008775
 42
-0.21164292
  0
VERTEX
  8
0
 10
-397.51703114
 20
203.21323375
 42
-0.04051486
  0
VERTEX
  8
0
 10
-397.42534752
 20
204.36902496
 42
-0.40709750
  0
VERTEX
  8
0
 10
-397.19007458
 20
204.44521143
 42
-0.40709750
  0
VERTEX
  8
0
 10
-397.10818079
 20
204.21186374
  0
VERTEX
  8
0
 10
-397.18013593
 20
203.10735240
  0
SEQEND
  0
POLYLINE
  8
Default_Layer
 62
256
 66
   1
 39
0.000000
 70
    1
  0
VERTEX
  8
0
 10
-398.03488721
 20
203.05729940
 42
0.40764278
  0
VERTEX
  8
0
 10
-398.65926633
 20
202.47607495
 42
0.37552702
  0
VERTEX
  8
0
 10
-398.32089961
 20
201.74388306
 42
0.37552702
  0
VERTEX
  8
0
 10
-397.55009783
 20
201.98149957
 42
0.03977428
  0
VERTEX
  8
0
 10
-397.56868841
 20
202.77569778
 42
0.27606361
  0
VERTEX
  8
0
 10
-398.03488721
 20
203.05729940
  0
SEQEND
  0
POLYLINE
  8
Default_Layer
 62
256
 66
   1
 39
0.000000
 70
    1
  0
VERTEX
  8
0
 10
-394.95085219
 20
203.12467844
 42
0.00763530
  0
VERTEX
  8
0
 10
-396.17990093
 20
200.34233653
 42
-0.37443272
  0
VERTEX
  8
0
 10
-396.43982776
 20
200.36678834
 42
-0.37443272
  0
VERTEX
  8
0
 10
-396.45128721
 20
200.62761114
 42
-0.03438424
  0
VERTEX
  8
0
 10
-396.07704476
 20
201.59228651
 42
-0.01450079
  0
VERTEX
  8
0
 10
-396.90484442
 20
203.20745841
 42
-0.37721724
  0
VERTEX
  8
0
 10
-396.69606558
 20
203.38882275
 42
-0.37721724
  0
VERTEX
  8
0
 10
-396.48954450
 20
203.20489159
 42
-0.03232068
  0
VERTEX
  8
0
 10
-395.86913228
 20
202.04468865
 42
-0.05400629
  0
VERTEX
  8
0
 10
-395.21651813
 20
203.38264392
 42
-0.31774633
  0
VERTEX
  8
0
 10
-394.99251254
 20
203.34755537
 42
-0.31774633
  0
VERTEX
  8
0
 10
-394.95085219
 20
203.12467844
  0
SEQEND
  0
POLYLINE
  8
Default_Layer
 62
256
 66
   1
 39
0.000000
 70
    1
  0
VERTEX
  8
0
 10
-429.75573541
 20
190.78870762
 42
-0.32574320
  0
VERTEX
  8
0
 10
-430.93653048
 20
191.70589901
 42
-0.17458426
  0
VERTEX
  8
0
 10
-430.89863283
 20
193.81140392
 42
-0.55577136
  0
VERTEX
  8
0
 10
-428.81475519
 20
194.30207635
 42
-0.21216195
  0
VERTEX
  8
0
 10
-428.39674539
 20
192.41777163
 42
-0.22159115
  0
VERTEX
  8
0
 10
-429.06901173
 20
190.98255816
 42
-0.13926170
  0
VERTEX
  8
0
 10
-429.75573541
 20
190.78870762
  0
SEQEND
  0
POLYLINE
  8
Default_Layer
 62
256
 66
   1
 39
0.000000
 70
    1
  0
VERTEX
  8
0
 10
-429.68243058
 20
194.21204299
 42
0.32614072
  0
VERTEX
  8
0
 10
-430.54223510
 20
193.40558809
 42
0.17413280
  0
VERTEX
  8
0
 10
-430.39455642
 20
191.64143619
 42
0.31854031
  0
VERTEX
  8
0
 10
-429.58535288
 20
191.29373376
 42
0.31854031
  0
VERTEX
  8
0
 10
-428.98945563
 20
191.94228123
 42
0.18987087
  0
VERTEX
  8
0
 10
-429.07867753
 20
193.90021113
 42
0.24679329
  0
VERTEX
  8
0
 10
-429.68243058
 20
194.21204299
  0
SEQEND
  0
POLYLINE
  8
Default_Layer
 62
256
 66
   1
 39
0.000000
 70
    1
  0
VERTEX
  8
0
 10
-426.47412270
 20
190.88156040
 42
-0.06629350
  0
VERTEX
  8
0
 10
-427.72103779
 20
190.93336248
 42
-0.34586418
  0
VERTEX
  8
0
 10
-427.75424471
 20
191.23132736
 42
-0.34586418
  0
VERTEX
  8
0
 10
-427.47259552
 20
191.33408680
 42
0.20152461
  0
VERTEX
  8
0
 10
-427.20874178
 20
191.35594734
 42
-0.03312553
  0
VERTEX
  8
0
 10
-427.14254697
 20
193.88660814
  0
VERTEX
  8
0
 10
-427.14119662
 20
193.91149320
 42
-0.18865774
  0
VERTEX
  8
0
 10
-427.62775740
 20
193.67111446
 42
-0.65502796
  0
VERTEX
  8
0
 10
-427.60831126
 20
194.16100111
 42
-0.08662125
  0
VERTEX
  8
0
 10
-426.89548970
 20
194.66924790
 42
-0.30351905
  0
VERTEX
  8
0
 10
-426.67925786
 20
194.60804351
 42
-0.30351905
  0
VERTEX
  8
0
 10
-426.65319592
 20
194.38483294
 42
-0.00731874
  0
VERTEX
  8
0
 10
-426.76943643
 20
191.97345324
 42
0.10687680
  0
VERTEX
  8
0
 10
-426.70736533
 20
191.34626857
 42
-0.44907455
  0
VERTEX
  8
0
 10
-426.23710377
 20
191.11613584
 42
-0.34814175
  0
VERTEX
  8
0
 10
-426.47412270
 20
190.88156040
  0
SEQEND
  0
POLYLINE
  8
Default_Layer
 62
256
 66
   1
 39
0.000000
 70
    1
  0
VERTEX
  8
0
 10
-423.47839882
 20
190.87911691
 42
0.08403875
  0
VERTEX
  8
0
 10
-424.73598383
 20
190.91128958
 42
-0.20375922
  0
VERTEX
  8
0
 10
-425.45762912
 20
190.97807842
 42
-0.36981879
  0
VERTEX
  8
0
 10
-424.88787958
 20
192.55315478
 42
0.07335768
  0
VERTEX
  8
0
 10
-423.93319417
 20
193.33589760
 42
0.40694630
  0
VERTEX
  8
0
 10
-423.92392926
 20
194.00000199
 42
0.39876018
  0
VERTEX
  8
0
 10
-425.02092240
 20
193.84090337
 42
-0.54241678
  0
VERTEX
  8
0
 10
-425.52646693
 20
193.81642601
 42
-0.30394716
  0
VERTEX
  8
0
 10
-425.19739698
 20
194.27435209
 42
-0.50196381
  0
VERTEX
  8
0
 10
-423.34202130
 20
194.06421159
 42
-0.35938946
  0
VERTEX
  8
0
 10
-424.11563638
 20
192.52178803
 42
0.07341862
  0
VERTEX
  8
0
 10
-424.86528540
 20
191.92635779
 42
0.26998747
  0
VERTEX
  8
0
 10
-425.04025704
 20
191.35047857
 42
-0.10208524
  0
VERTEX
  8
0
 10
-423.42739088
 20
191.33498129
 42
-0.35833997
  0
VERTEX
  8
0
 10
-423.26547419
 20
191.08607808
 42
-0.35833997
  0
VERTEX
  8
0
 10
-423.47839882
 20
190.87911691
  0
SEQEND
  0
POLYLINE
  8
Default_Layer
 62
256
 66
   1
 39
0.000000
 70
    1
  0
VERTEX
  8
0
 10
-421.38676779
 20
190.75205521
 42
-0.28729620
  0
VERTEX
  8
0
 10
-422.50863706
 20
191.33493039
 42
-0.36428978
  0
VERTEX
  8
0
 10
-422.03429375
 20
192.79725985
 42
-0.59950811
  0
VERTEX
  8
0
 10
-421.86270615
 20
194.49467382
 42
-0.31137283
  0
VERTEX
  8
0
 10
-420.55968318
 20
194.32842395
 42
-0.28706046
  0
VERTEX
  8
0
 10
-420.44846601
 20
193.14667952
 42
-0.07717950
  0
VERTEX
  8
0
 10
-420.81743364
 20
192.87545166
 42
-0.28819916
  0
VERTEX
  8
0
 10
-420.14906162
 20
191.91496755
 42
-0.46105857
  0
VERTEX
  8
0
 10
-421.26413492
 20
190.76824336
  0
VERTEX
  8
0
 10
-421.38676779
 20
190.75205521
  0
SEQEND
  0
POLYLINE
  8
Default_Layer
 62
256
 66
   1
 39
0.000000
 70
    1
  0
VERTEX
  8
0
 10
-421.36477634
 20
194.17539058
 42
0.31277317
  0
VERTEX
  8
0
 10
-421.92152714
 20
193.87085676
 42
0.31277317
  0
VERTEX
  8
0
 10
-421.83155160
 20
193.24267151
 42
0.22076117
  0
VERTEX
  8
0
 10
-421.36439052
 20
193.08816426
 42
0.25598250
  0
VERTEX
  8
0
 10
-420.83582772
 20
193.48401747
 42
0.48538714
  0
VERTEX
  8
0
 10
-421.21926626
 20
194.15889699
  0
VERTEX
  8
0
 10
-421.36477634
 20
194.17539058
  0
SEQEND
  0
POLYLINE
  8
Default_Layer
 62
256
 66
   1
 39
0.000000
 70
    1
  0
VERTEX
  8
0
 10
-421.40875923
 20
192.62865875
 42
0.26492593
  0
VERTEX
  8
0
 10
-422.09066865
 20
191.95460342
 42
0.48308410
  0
VERTEX
  8
0
 10
-421.50588813
 20
191.19310591
 42
0.27649289
  0
VERTEX
  8
0
 10
-420.76514286
 20
191.42303871
 42
0.49664339
  0
VERTEX
  8
0
 10
-421.22418144
 20
192.55836130
  0
VERTEX
  8
0
 10
-421.40875923
 20
192.62865875
  0
SEQEND
  0
POLYLINE
  8
Default_Layer
 62
256
 66
   1
 39
0.000000
 70
    1
  0
VERTEX
  8
0
 10
-418.35439149
 20
190.77160316
 42
-0.27635136
  0
VERTEX
  8
0
 10
-419.41312262
 20
191.34460255
 42
-0.40690662
  0
VERTEX
  8
0
 10
-419.39956308
 20
191.66785012
 42
-0.40690662
  0
VERTEX
  8
0
 10
-419.07607750
 20
191.66237897
 42
0.65110138
  0
VERTEX
  8
0
 10
-417.70698770
 20
191.69622137
 42
0.46061288
  0
VERTEX
  8
0
 10
-418.48650307
 20
192.63696663
 42
-0.35215056
  0
VERTEX
  8
0
 10
-418.85286430
 20
192.87789516
 42
-0.29328369
  0
VERTEX
  8
0
 10
-418.43004207
 20
193.14970945
 42
0.24057090
  0
VERTEX
  8
0
 10
-417.73740920
 20
193.52175588
 42
0.50638546
  0
VERTEX
  8
0
 10
-418.28577003
 20
194.13222218
 42
0.15561689
  0
VERTEX
  8
0
 10
-419.06626280
 20
193.85529284
 42
-0.40703683
  0
VERTEX
  8
0
 10
-419.34085549
 20
194.07013889
 42
-0.40703683
  0
VERTEX
  8
0
 10
-419.13281892
 20
194.34992588
 42
-0.44027271
  0
VERTEX
  8
0
 10
-417.35683498
 20
194.07826168
 42
-0.44408204
  0
VERTEX
  8
0
 10
-417.81486797
 20
192.88473694
 42
0.41421356
  0
VERTEX
  8
0
 10
-417.81231170
 20
192.84080104
 42
0.41421356
  0
VERTEX
  8
0
 10
-417.76837579
 20
192.84335731
 42
-0.45670539
  0
VERTEX
  8
0
 10
-417.35386546
 20
191.32744718
 42
-0.25837172
  0
VERTEX
  8
0
 10
-418.35439149
 20
190.77160316
  0
SEQEND
  0
POLYLINE
  8
Default_Layer
 62
256
 66
   1
 39
0.000000
 70
    1
  0
VERTEX
  8
0
 10
-414.86263828
 20
191.17966669
 42
-0.11543772
  0
VERTEX
  8
0
 10
-416.08866149
 20
190.66103505
 42
-0.37201879
  0
VERTEX
  8
0
 10
-416.24500077
 20
190.96165848
 42
-0.37201879
  0
VERTEX
  8
0
 10
-415.97035565
 20
191.16011874
 42
0.23345959
  0
VERTEX
  8
0
 10
-414.62537499
 20
192.32371067
  0
VERTEX
  8
0
 10
-414.59385392
 20
192.38675283
 42
-0.40136192
  0
VERTEX
  8
0
 10
-416.36355459
 20
192.75016150
 42
-0.41339980
  0
VERTEX
  8
0
 10
-415.86090710
 20
194.48254572
 42
-0.41339980
  0
VERTEX
  8
0
 10
-414.12713264
 20
193.98471473
 42
-0.20359302
  0
VERTEX
  8
0
 10
-414.13027420
 20
192.31755307
 42
-0.15803935
  0
VERTEX
  8
0
 10
-414.86263828
 20
191.17966669
  0
SEQEND
  0
POLYLINE
  8
Default_Layer
 62
256
 66
   1
 39
0.000000
 70
    1
  0
VERTEX
  8
0
 10
-415.20961446
 20
194.21937347
 42
0.27100022
  0
VERTEX
  8
0
 10
-415.91103826
 20
193.86337516
 42
0.42022111
  0
VERTEX
  8
0
 10
-415.67922350
 20
192.75526229
 42
0.35767011
  0
VERTEX
  8
0
 10
-414.46207977
 20
193.01926875
 42
0.41687006
  0
VERTEX
  8
0
 10
-415.20961446
 20
194.21937347
  0
SEQEND
  0
POLYLINE
  8
Default_Layer
 62
256
 66
   1
 39
0.000000
 70
    1
  0
VERTEX
  8
0
 10
-411.36844158
 20
191.95181086
 42
-0.06701780
  0
VERTEX
  8
0
 10
-411.41708239
 20
190.89858850
 42
-0.33669891
  0
VERTEX
  8
0
 10
-411.74730572
 20
190.88518894
 42
-0.33669891
  0
VERTEX
  8
0
 10
-411.84883254
 20
191.19970334
 42
0.10377494
  0
VERTEX
  8
0
 10
-411.86696993
 20
191.96463920
 42
-0.04575496
  0
VERTEX
  8
0
 10
-413.48855459
 20
192.05145961
 42
-0.55163162
  0
VERTEX
  8
0
 10
-413.48488935
 20
192.44570212
  0
VERTEX
  8
0
 10
-412.00930347
 20
194.51509180
 42
-0.49588410
  0
VERTEX
  8
0
 10
-411.38569876
 20
194.56115722
 42
0.01830029
  0
VERTEX
  8
0
 10
-411.34840493
 20
192.42633743
 42
-0.34302313
  0
VERTEX
  8
0
 10
-410.82989546
 20
192.22871984
 42
-0.52888945
  0
VERTEX
  8
0
 10
-411.22280932
 20
191.95669785
  0
VERTEX
  8
0
 10
-411.36844158
 20
191.95181086
  0
SEQEND
  0
POLYLINE
  8
Default_Layer
 62
256
 66
   1
 39
0.000000
 70
    1
  0
VERTEX
  8
0
 10
-411.84247945
 20
194.01900695
  0
VERTEX
  8
0
 10
-412.86141653
 20
192.46005765
  0
VERTEX
  8
0
 10
-411.84247945
 20
192.43562271
  0
VERTEX
  8
0
 10
-411.84247945
 20
194.01900695
  0
SEQEND
  0
POLYLINE
  8
Default_Layer
 62
256
 66
   1
 39
0.000000
 70
    1
  0
VERTEX
  8
0
 10
-409.29635850
 20
190.73006376
 42
-0.32070864
  0
VERTEX
  8
0
 10
-410.36172197
 20
191.38003322
 42
-0.32953838
  0
VERTEX
  8
0
 10
-410.11841358
 20
191.59362638
 42
-0.32953838
  0
VERTEX
  8
0
 10
-409.84288670
 20
191.42360886
 42
0.52955715
  0
VERTEX
  8
0
 10
-408.45774366
 20
191.75484232
 42
0.33898592
  0
VERTEX
  8
0
 10
-408.62070690
 20
193.03735861
 42
0.37324890
  0
VERTEX
  8
0
 10
-409.82308422
 20
192.62209186
 42
-0.65555474
  0
VERTEX
  8
0
 10
-410.30185636
 20
192.63140768
 42
-0.04065681
  0
VERTEX
  8
0
 10
-410.20533834
 20
194.14118166
 42
-0.16422669
  0
VERTEX
  8
0
 10
-410.25878978
 20
194.53427879
 42
-0.27806635
  0
VERTEX
  8
0
 10
-409.86284190
 20
194.61644128
  0
VERTEX
  8
0
 10
-408.17907078
 20
194.63904360
 42
-0.39329697
  0
VERTEX
  8
0
 10
-408.00514509
 20
194.37117416
 42
-0.39329697
  0
VERTEX
  8
0
 10
-408.25982063
 20
194.17844494
 42
-0.01985686
  0
VERTEX
  8
0
 10
-409.71419601
 20
194.13873816
  0
VERTEX
  8
0
 10
-409.80460529
 20
193.32505460
 42
-0.29149970
  0
VERTEX
  8
0
 10
-408.36294372
 20
193.43379009
 42
-0.27082148
  0
VERTEX
  8
0
 10
-407.87081459
 20
192.01954734
 42
-0.38995179
  0
VERTEX
  8
0
 10
-409.29635850
 20
190.73006376
  0
SEQEND
  0
POLYLINE
  8
Default_Layer
 62
256
 66
   1
 39
0.000000
 70
    1
  0
VERTEX
  8
0
 10
-406.11492906
 20
190.75205521
 42
-0.28729620
  0
VERTEX
  8
0
 10
-407.23679833
 20
191.33493039
 42
-0.36428978
  0
VERTEX
  8
0
 10
-406.76245502
 20
192.79725985
 42
-0.59950811
  0
VERTEX
  8
0
 10
-406.59086743
 20
194.49467382
 42
-0.31137283
  0
VERTEX
  8
0
 10
-405.28784445
 20
194.32842395
 42
-0.28706046
  0
VERTEX
  8
0
 10
-405.17662728
 20
193.14667952
 42
-0.07717950
  0
VERTEX
  8
0
 10
-405.54559491
 20
192.87545166
 42
-0.28819916
  0
VERTEX
  8
0
 10
-404.87722289
 20
191.91496755
 42
-0.46105857
  0
VERTEX
  8
0
 10
-405.99229619
 20
190.76824336
  0
VERTEX
  8
0
 10
-406.11492906
 20
190.75205521
  0
SEQEND
  0
POLYLINE
  8
Default_Layer
 62
256
 66
   1
 39
0.000000
 70
    1
  0
VERTEX
  8
0
 10
-406.09293761
 20
194.17539058
 42
0.31277317
  0
VERTEX
  8
0
 10
-406.64968841
 20
193.87085676
 42
0.31277317
  0
VERTEX
  8
0
 10
-406.55971287
 20
193.24267151
 42
0.22076117
  0
VERTEX
  8
0
 10
-406.09255179
 20
193.08816426
 42
0.25598250
  0
VERTEX
  8
0
 10
-405.56398899
 20
193.48401747
 42
0.48538714
  0
VERTEX
  8
0
 10
-405.94742753
 20
194.15889699
  0
VERTEX
  8
0
 10
-406.09293761
 20
194.17539058
  0
SEQEND
  0
POLYLINE
  8
Default_Layer
 62
256
 66
   1
 39
0.000000
 70
    1
  0
VERTEX
  8
0
 10
-406.13692050
 20
192.62865875
 42
0.26492593
  0
VERTEX
  8
0
 10
-406.81882992
 20
191.95460342
 42
0.48308410
  0
VERTEX
  8
0
 10
-406.23404940
 20
191.19310591
 42
0.27649289
  0
VERTEX
  8
0
 10
-405.49330413
 20
191.42303871
 42
0.49664339
  0
VERTEX
  8
0
 10
-405.95234271
 20
192.55836130
  0
VERTEX
  8
0
 10
-406.13692050
 20
192.62865875
  0
SEQEND
  0
POLYLINE
  8
Default_Layer
 62
256
 66
   1
 39
0.000000
 70
    1
  0
VERTEX
  8
0
 10
-401.74107444
 20
194.07520732
 42
0.09889196
  0
VERTEX
  8
0
 10
-403.19739698
 20
191.37758972
 42
-0.12522721
  0
VERTEX
  8
0
 10
-403.53997487
 20
190.74570212
 42
-0.33112165
  0
VERTEX
  8
0
 10
-403.83326646
 20
190.86620345
 42
-0.33112165
  0
VERTEX
  8
0
 10
-403.80221998
 20
191.18176112
 42
-0.07004077
  0
VERTEX
  8
0
 10
-402.58304616
 20
193.78748587
  0
VERTEX
  8
0
 10
-402.37638293
 20
194.06054635
 42
-0.03644843
  0
VERTEX
  8
0
 10
-404.24168532
 20
194.13446205
 42
-0.39743070
  0
VERTEX
  8
0
 10
-404.36282539
 20
194.42928555
 42
-0.39743070
  0
VERTEX
  8
0
 10
-404.07546993
 20
194.56720817
 42
-0.02130936
  0
VERTEX
  8
0
 10
-401.65921739
 20
194.49121220
 42
-0.39438471
  0
VERTEX
  8
0
 10
-401.74107444
 20
194.07520732
  0
SEQEND
  0
POLYLINE
  8
Default_Layer
 62
256
 66
   1
 39
0.000000
 70
    1
  0
VERTEX
  8
0
 10
-400.00619356
 20
190.75205521
 42
-0.28729620
  0
VERTEX
  8
0
 10
-401.12806284
 20
191.33493039
 42
-0.36428978
  0
VERTEX
  8
0
 10
-400.65371953
 20
192.79725985
 42
-0.59950811
  0
VERTEX
  8
0
 10
-400.48213193
 20
194.49467382
 42
-0.31137283
  0
VERTEX
  8
0
 10
-399.17910896
 20
194.32842395
 42
-0.28706046
  0
VERTEX
  8
0
 10
-399.06789179
 20
193.14667952
 42
-0.07717950
  0
VERTEX
  8
0
 10
-399.43685942
 20
192.87545166
 42
-0.28819916
  0
VERTEX
  8
0
 10
-398.76848739
 20
191.91496755
 42
-0.46105857
  0
VERTEX
  8
0
 10
-399.88356070
 20
190.76824336
  0
VERTEX
  8
0
 10
-400.00619356
 20
190.75205521
  0
SEQEND
  0
POLYLINE
  8
Default_Layer
 62
256
 66
   1
 39
0.000000
 70
    1
  0
VERTEX
  8
0
 10
-399.98420212
 20
194.17539058
 42
0.31277317
  0
VERTEX
  8
0
 10
-400.54095292
 20
193.87085676
 42
0.31277317
  0
VERTEX
  8
0
 10
-400.45097738
 20
193.24267151
 42
0.22076117
  0
VERTEX
  8
0
 10
-399.98381630
 20
193.08816426
 42
0.25598250
  0
VERTEX
  8
0
 10
-399.45525350
 20
193.48401747
 42
0.48538714
  0
VERTEX
  8
0
 10
-399.83869204
 20
194.15889699
  0
VERTEX
  8
0
 10
-399.98420212
 20
194.17539058
  0
SEQEND
  0
POLYLINE
  8
Default_Layer
 62
256
 66
   1
 39
0.000000
 70
    1
  0
VERTEX
  8
0
 10
-400.02818501
 20
192.62865875
 42
0.26492593
  0
VERTEX
  8
0
 10
-400.71009443
 20
191.95460342
 42
0.48308410
  0
VERTEX
  8
0
 10
-400.12531391
 20
191.19310591
 42
0.27649289
  0
VERTEX
  8
0
 10
-399.38456864
 20
191.42303871
 42
0.49664339
  0
VERTEX
  8
0
 10
-399.84360722
 20
192.55836130
  0
VERTEX
  8
0
 10
-400.02818501
 20
192.62865875
  0
SEQEND
  0
POLYLINE
  8
Default_Layer
 62
256
 66
   1
 39
0.000000
 70
    1
  0
VERTEX
  8
0
 10
-439.93292942
 20
215.04646644
 42
0.41421356
  0
VERTEX
  8
0
 10
-436.93292942
 20
212.04646644
  0
VERTEX
  8
0
 10
-392.93292942
 20
212.04646644
 42
0.41421356
  0
VERTEX
  8
0
 10
-389.93292942
 20
215.04646644
  0
VERTEX
  8
0
 10
-389.93292942
 20
229.04646644
 42
0.41421356
  0
VERTEX
  8
0
 10
-392.93292942
 20
232.04646644
  0
VERTEX
  8
0
 10
-436.93292942
 20
232.04646644
 42
0.41421356
  0
VERTEX
  8
0
 10
-439.93292942
 20
229.04646644
  0
VERTEX
  8
0
 10
-439.93292942
 20
215.04646644
  0
SEQEND
  0
CIRCLE
  8
Default_Layer
 62
256
 10
-435.432929
 20
222.046466
 40
1.500000
  0
POLYLINE
  8
Default_Layer
 62
256
 66
   1
 39
0.000000
 70
    1
  0
VERTEX
  8
0
 10
-432.00932535
 20
226.24769084
 42
-0.30534506
  0
VERTEX
  8
0
 10
-432.26015658
 20
226.59104085
 42
-0.01699200
  0
VERTEX
  8
0
 10
-432.60418604
 20
228.35376718
 42
-0.03525282
  0
VERTEX
  8
0
 10
-433.28272909
 20
226.42985489
 42
-0.31791393
  0
VERTEX
  8
0
 10
-433.53457651
 20
226.35539511
 42
-0.31791393
  0
VERTEX
  8
0
 10
-433.68866776
 20
226.56806214
 42
-0.02588826
  0
VERTEX
  8
0
 10
-434.11925193
 20
228.32296534
 42
-0.01801248
  0
VERTEX
  8
0
 10
-434.56594748
 20
226.38423653
 42
-0.39038271
  0
VERTEX
  8
0
 10
-434.83273245
 20
226.32534823
 42
-0.39038271
  0
VERTEX
  8
0
 10
-434.91328608
 20
226.58640984
 42
-0.03297854
  0
VERTEX
  8
0
 10
-434.55649378
 20
228.17100153
 42
-0.10617240
  0
VERTEX
  8
0
 10
-434.24981601
 20
229.25595881
 42
-0.30744553
  0
VERTEX
  8
0
 10
-433.99327566
 20
229.28633647
 42
-0.30744553
  0
VERTEX
  8
0
 10
-433.87043075
 20
229.05908137
 42
0.00990461
  0
VERTEX
  8
0
 10
-433.43006058
 20
227.11976815
 42
0.01843091
  0
VERTEX
  8
0
 10
-432.78899713
 20
229.21814404
 42
-0.33056132
  0
VERTEX
  8
0
 10
-432.56524458
 20
229.33980735
 42
-0.33056132
  0
VERTEX
  8
0
 10
-432.38400096
 20
229.16087185
 42
-0.04506374
  0
VERTEX
  8
0
 10
-432.15249436
 20
227.93372532
 42
-0.01068280
  0
VERTEX
  8
0
 10
-431.81320421
 20
226.40410647
 42
-0.28939039
  0
VERTEX
  8
0
 10
-432.00932535
 20
226.24769084
  0
SEQEND
  0
POLYLINE
  8
Default_Layer
 62
256
 66
   1
 39
0.000000
 70
    1
  0
VERTEX
  8
0
 10
-429.77811650
 20
226.28811826
 42
-0.36180443
  0
VERTEX
  8
0
 10
-429.98410386
 20
226.58394434
 42
-0.02079514
  0
VERTEX
  8
0
 10
-430.09130873
 20
227.86021570
 42
0.50146595
  0
VERTEX
  8
0
 10
-430.42206763
 20
227.96467173
 42
0.16846636
  0
VERTEX
  8
0
 10
-430.95051183
 20
227.35270713
 42
-0.08562589
  0
VERTEX
  8
0
 10
-431.03505649
 20
226.45464075
 42
-0.39248686
  0
VERTEX
  8
0
 10
-431.29729588
 20
226.41366717
 42
-0.39248686
  0
VERTEX
  8
0
 10
-431.35773793
 20
226.67211463
 42
0.01449563
  0
VERTEX
  8
0
 10
-431.33697877
 20
229.37840990
 42
-0.37259984
  0
VERTEX
  8
0
 10
-431.07721117
 20
229.45576460
 42
-0.37259984
  0
VERTEX
  8
0
 10
-430.96334594
 20
229.20980187
 42
-0.01928598
  0
VERTEX
  8
0
 10
-430.96398764
 20
227.97259432
 42
-0.40347271
  0
VERTEX
  8
0
 10
-429.89346300
 20
228.28807262
 42
-0.19127278
  0
VERTEX
  8
0
 10
-429.70394889
 20
227.57733771
  0
VERTEX
  8
0
 10
-429.59258350
 20
226.41842452
 42
-0.26340404
  0
VERTEX
  8
0
 10
-429.77811650
 20
226.28811826
  0
SEQEND
  0
POLYLINE
  8
Default_Layer
 62
256
 66
   1
 39
0.000000
 70
    1
  0
VERTEX
  8
0
 10
-428.39010823
 20
226.29389361
 42
-0.43570129
  0
VERTEX
  8
0
 10
-429.21471395
 20
227.36193893
 42
-0.45135033
  0
VERTEX
  8
0
 10
-428.14107048
 20
228.39060908
 42
-0.31923864
  0
VERTEX
  8
0
 10
-427.54746492
 20
227.71817511
 42
-0.29885769
  0
VERTEX
  8
0
 10
-427.99322161
 20
226.40097816
 42
-0.12442572
  0
VERTEX
  8
0
 10
-428.39010823
 20
226.29389361
  0
SEQEND
  0
POLYLINE
  8
Default_Layer
 62
256
 66
   1
 39
0.000000
 70
    1
  0
VERTEX
  8
0
 10
-428.27460130
 20
228.01302174
 42
0.39066700
  0
VERTEX
  8
0
 10
-428.82717820
 20
227.35985756
 42
0.44401798
  0
VERTEX
  8
0
 10
-428.39010823
 20
226.68276694
 42
0.43125839
  0
VERTEX
  8
0
 10
-427.87844509
 20
227.40033958
 42
0.31420984
  0
VERTEX
  8
0
 10
-428.14430708
 20
227.97983756
  0
VERTEX
  8
0
 10
-428.27460130
 20
228.01302174
  0
SEQEND
  0
POLYLINE
  8
Default_Layer
 62
256
 66
   1
 39
0.000000
 70
    1
  0
VERTEX
  8
0
 10
-425.42735550
 20
226.28811826
 42
-0.36180443
  0
VERTEX
  8
0
 10
-425.63334285
 20
226.58394434
 42
-0.02079514
  0
VERTEX
  8
0
 10
-425.74054772
 20
227.86021570
 42
0.50146595
  0
VERTEX
  8
0
 10
-426.07130663
 20
227.96467173
 42
0.16846636
  0
VERTEX
  8
0
 10
-426.59975083
 20
227.35270713
 42
-0.08562589
  0
VERTEX
  8
0
 10
-426.68429548
 20
226.45464075
 42
-0.39248686
  0
VERTEX
  8
0
 10
-426.94653488
 20
226.41366717
 42
-0.39248686
  0
VERTEX
  8
0
 10
-427.00697693
 20
226.67211463
 42
0.01449563
  0
VERTEX
  8
0
 10
-426.98621776
 20
229.37840990
 42
-0.37259984
  0
VERTEX
  8
0
 10
-426.72645016
 20
229.45576460
 42
-0.37259984
  0
VERTEX
  8
0
 10
-426.61258493
 20
229.20980187
 42
-0.01928598
  0
VERTEX
  8
0
 10
-426.61322664
 20
227.97259432
 42
-0.40347271
  0
VERTEX
  8
0
 10
-425.54270200
 20
228.28807262
 42
-0.19127278
  0
VERTEX
  8
0
 10
-425.35318789
 20
227.57733771
  0
VERTEX
  8
0
 10
-425.24182249
 20
226.41842452
 42
-0.26340404
  0
VERTEX
  8
0
 10
-425.42735550
 20
226.28811826
  0
SEQEND
  0
POLYLINE
  8
Default_Layer
 62
256
 66
   1
 39
0.000000
 70
    1
  0
VERTEX
  8
0
 10
-423.25775034
 20
226.28041780
  0
VERTEX
  8
0
 10
-423.53668944
 20
226.49765189
 42
-0.35524165
  0
VERTEX
  8
0
 10
-424.73623904
 20
226.55763443
 42
-0.33692228
  0
VERTEX
  8
0
 10
-424.61110653
 20
228.08617613
 42
-0.43351075
  0
VERTEX
  8
0
 10
-423.22406082
 20
228.14404991
 42
-0.05365535
  0
VERTEX
  8
0
 10
-423.27700150
 20
227.73773023
 42
0.11295237
  0
VERTEX
  8
0
 10
-423.16007606
 20
226.66361711
 42
-0.30770920
  0
VERTEX
  8
0
 10
-423.13261783
 20
226.33047080
  0
VERTEX
  8
0
 10
-423.25775034
 20
226.28041780
  0
SEQEND
  0
POLYLINE
  8
Default_Layer
 62
256
 66
   1
 39
0.000000
 70
    1
  0
VERTEX
  8
0
 10
-423.65817436
 20
227.61837307
 42
0.07302039
  0
VERTEX
  8
0
 10
-423.63342288
 20
228.01302174
 42
0.42167162
  0
VERTEX
  8
0
 10
-424.43688358
 20
227.66872687
 42
0.33633850
  0
VERTEX
  8
0
 10
-424.36998581
 20
226.73907657
 42
0.42683749
  0
VERTEX
  8
0
 10
-423.59815025
 20
226.87369891
  0
VERTEX
  8
0
 10
-423.65817436
 20
227.61837307
  0
SEQEND
  0
POLYLINE
  8
Default_Layer
 62
256
 66
   1
 39
0.000000
 70
    1
  0
VERTEX
  8
0
 10
-420.29884783
 20
226.24769084
 42
-0.38271173
  0
VERTEX
  8
0
 10
-420.49483701
 20
226.51143166
 42
0.05945829
  0
VERTEX
  8
0
 10
-420.71804173
 20
227.93361073
 42
0.54232738
  0
VERTEX
  8
0
 10
-421.02654149
 20
227.95700088
 42
0.11644511
  0
VERTEX
  8
0
 10
-421.33405336
 20
227.72253195
 42
-0.00994278
  0
VERTEX
  8
0
 10
-421.24071059
 20
226.30508334
 42
-0.39871173
  0
VERTEX
  8
0
 10
-421.48185889
 20
226.18755092
 42
-0.39871173
  0
VERTEX
  8
0
 10
-421.61205161
 20
226.42210630
 42
0.03362585
  0
VERTEX
  8
0
 10
-421.75459610
 20
228.04027416
 42
0.22655560
  0
VERTEX
  8
0
 10
-422.03337689
 20
227.85708739
 42
0.09242734
  0
VERTEX
  8
0
 10
-422.36107433
 20
227.44382926
 42
0.01941411
  0
VERTEX
  8
0
 10
-422.37941640
 20
226.42335763
 42
-0.34180600
  0
VERTEX
  8
0
 10
-422.60892758
 20
226.33581713
 42
-0.34180600
  0
VERTEX
  8
0
 10
-422.75120433
 20
226.53605710
 42
-0.02686005
  0
VERTEX
  8
0
 10
-422.74687282
 20
227.66541808
 42
-0.14401577
  0
VERTEX
  8
0
 10
-422.69284926
 20
228.47607218
 42
-0.36589993
  0
VERTEX
  8
0
 10
-422.43228884
 20
228.47923544
 42
-0.36589993
  0
VERTEX
  8
0
 10
-422.38567302
 20
228.22285933
 42
0.03357181
  0
VERTEX
  8
0
 10
-422.39144837
 20
227.90329016
 42
-0.26809109
  0
VERTEX
  8
0
 10
-421.71353700
 20
228.43528379
 42
-0.29195598
  0
VERTEX
  8
0
 10
-421.34996089
 20
228.14200448
 42
-0.44683969
  0
VERTEX
  8
0
 10
-420.44383310
 20
228.28229727
 42
-0.13650658
  0
VERTEX
  8
0
 10
-420.24008115
 20
227.49688815
 42
-0.03115806
  0
VERTEX
  8
0
 10
-420.11644314
 20
226.36127265
 42
-0.26165051
  0
VERTEX
  8
0
 10
-420.29884783
 20
226.24769084
  0
SEQEND
  0
POLYLINE
  8
Default_Layer
 62
256
 66
   1
 39
0.000000
 70
    1
  0
VERTEX
  8
0
 10
-418.78185683
 20
226.31892011
 42
-0.42193904
  0
VERTEX
  8
0
 10
-419.77597115
 20
227.15446399
 42
-0.33693284
  0
VERTEX
  8
0
 10
-419.09425057
 20
228.37721859
 42
-0.29752590
  0
VERTEX
  8
0
 10
-418.12587373
 20
228.14296704
 42
-0.45984835
  0
VERTEX
  8
0
 10
-418.43437348
 20
227.47206429
 42
-0.01256064
  0
VERTEX
  8
0
 10
-419.42484540
 20
226.98886030
 42
0.37868175
  0
VERTEX
  8
0
 10
-418.27001675
 20
226.80212410
 42
-0.24992911
  0
VERTEX
  8
0
 10
-418.00273509
 20
226.97208430
 42
-0.65657735
  0
VERTEX
  8
0
 10
-418.00356873
 20
226.57465967
 42
-0.14712219
  0
VERTEX
  8
0
 10
-418.78185683
 20
226.31892011
  0
SEQEND
  0
POLYLINE
  8
Default_Layer
 62
256
 66
   1
 39
0.000000
 70
    1
  0
VERTEX
  8
0
 10
-418.83383495
 20
228.07270032
 42
0.32485739
  0
VERTEX
  8
0
 10
-419.40066822
 20
227.53106342
  0
VERTEX
  8
0
 10
-419.45757237
 20
227.34308155
 42
0.04366203
  0
VERTEX
  8
0
 10
-418.36988212
 20
227.91869108
 42
0.13461359
  0
VERTEX
  8
0
 10
-418.83383495
 20
228.07270032
  0
SEQEND
  0
POLYLINE
  8
Default_Layer
 62
256
 66
   1
 39
0.000000
 70
    1
  0
VERTEX
  8
0
 10
-415.74787482
 20
228.10735240
 42
0.01953659
  0
VERTEX
  8
0
 10
-415.72092320
 20
226.45849098
 42
-0.31380669
  0
VERTEX
  8
0
 10
-415.91441445
 20
226.37309114
 42
-0.31380669
  0
VERTEX
  8
0
 10
-416.06166864
 20
226.52490747
 42
-0.61099727
  0
VERTEX
  8
0
 10
-417.58561632
 20
227.22608703
 42
-0.42889892
  0
VERTEX
  8
0
 10
-416.66689870
 20
228.41008775
 42
-0.21164292
  0
VERTEX
  8
0
 10
-416.08477003
 20
228.21323375
 42
-0.04051486
  0
VERTEX
  8
0
 10
-415.99308640
 20
229.36902496
 42
-0.40709750
  0
VERTEX
  8
0
 10
-415.75781347
 20
229.44521143
 42
-0.40709750
  0
VERTEX
  8
0
 10
-415.67591968
 20
229.21186374
  0
VERTEX
  8
0
 10
-415.74787482
 20
228.10735240
  0
SEQEND
  0
POLYLINE
  8
Default_Layer
 62
256
 66
   1
 39
0.000000
 70
    1
  0
VERTEX
  8
0
 10
-416.60262610
 20
228.05729940
 42
0.40764278
  0
VERTEX
  8
0
 10
-417.22700522
 20
227.47607495
 42
0.37552702
  0
VERTEX
  8
0
 10
-416.88863850
 20
226.74388306
 42
0.37552702
  0
VERTEX
  8
0
 10
-416.11783672
 20
226.98149957
 42
0.03977428
  0
VERTEX
  8
0
 10
-416.13642730
 20
227.77569778
 42
0.27606361
  0
VERTEX
  8
0
 10
-416.60262610
 20
228.05729940
  0
SEQEND
  0
POLYLINE
  8
Default_Layer
 62
256
 66
   1
 39
0.000000
 70
    1
  0
VERTEX
  8
0
 10
-411.88801826
 20
226.34972196
 42
-0.25183127
  0
VERTEX
  8
0
 10
-412.15854765
 20
226.71437936
 42
-0.03797461
  0
VERTEX
  8
0
 10
-412.32116925
 20
227.41046059
 42
0.04520589
  0
VERTEX
  8
0
 10
-413.35528495
 20
227.19034007
 42
-0.05830344
  0
VERTEX
  8
0
 10
-413.74912366
 20
226.39014938
 42
-0.34254176
  0
VERTEX
  8
0
 10
-413.99799451
 20
226.46450023
 42
-0.34254176
  0
VERTEX
  8
0
 10
-413.98771766
 20
226.72403660
 42
0.05708729
  0
VERTEX
  8
0
 10
-413.76088062
 20
227.29330357
 42
-0.39717943
  0
VERTEX
  8
0
 10
-413.58569511
 20
227.59293404
 42
-0.05180538
  0
VERTEX
  8
0
 10
-412.53514584
 20
229.21631518
 42
-0.52414118
  0
VERTEX
  8
0
 10
-412.28131936
 20
229.07279782
 42
0.01764520
  0
VERTEX
  8
0
 10
-411.78621363
 20
226.85942460
 42
-0.26796622
  0
VERTEX
  8
0
 10
-411.75133506
 20
226.40555031
  0
VERTEX
  8
0
 10
-411.88801826
 20
226.34972196
  0
SEQEND
  0
POLYLINE
  8
Default_Layer
 62
256
 66
   1
 39
0.000000
 70
    1
  0
VERTEX
  8
0
 10
-412.56758403
 20
228.55012896
  0
VERTEX
  8
0
 10
-413.11816706
 20
227.66265072
  0
VERTEX
  8
0
 10
-412.41164968
 20
227.80703438
  0
VERTEX
  8
0
 10
-412.56758403
 20
228.55012896
  0
SEQEND
  0
POLYLINE
  8
Default_Layer
 62
256
 66
   1
 39
0.000000
 70
    1
  0
VERTEX
  8
0
 10
-410.24396964
 20
226.32662057
 42
-0.07939462
  0
VERTEX
  8
0
 10
-410.77915174
 20
226.44212750
 42
-0.37123714
  0
VERTEX
  8
0
 10
-411.01781329
 20
226.39271560
 42
-0.37123714
  0
VERTEX
  8
0
 10
-411.10208987
 20
226.62140388
 42
-0.01797418
  0
VERTEX
  8
0
 10
-411.09032041
 20
229.20869347
 42
-0.34551076
  0
VERTEX
  8
0
 10
-410.99036132
 20
229.41079882
 42
-0.34551076
  0
VERTEX
  8
0
 10
-410.77028246
 20
229.36177140
 42
-0.03885635
  0
VERTEX
  8
0
 10
-410.77045022
 20
228.57477044
  0
VERTEX
  8
0
 10
-410.77337640
 20
228.20168306
 42
-0.38251076
  0
VERTEX
  8
0
 10
-409.54056853
 20
228.15289341
 42
-0.56302118
  0
VERTEX
  8
0
 10
-410.04183251
 20
226.34575141
  0
VERTEX
  8
0
 10
-410.24396964
 20
226.32662057
  0
SEQEND
  0
POLYLINE
  8
Default_Layer
 62
256
 66
   1
 39
0.000000
 70
    1
  0
VERTEX
  8
0
 10
-410.17081525
 20
228.06499986
 42
0.20057182
  0
VERTEX
  8
0
 10
-410.77167777
 20
227.76626723
 42
0.05580642
  0
VERTEX
  8
0
 10
-410.75412524
 20
226.82958908
 42
0.26951384
  0
VERTEX
  8
0
 10
-409.91136891
 20
226.79812578
 42
0.54739495
  0
VERTEX
  8
0
 10
-409.95224060
 20
228.01702006
  0
VERTEX
  8
0
 10
-410.17081525
 20
228.06499986
  0
SEQEND
  0
POLYLINE
  8
Default_Layer
 62
256
 66
   1
 39
0.000000
 70
    1
  0
VERTEX
  8
0
 10
-407.03095189
 20
228.10735240
 42
0.01953659
  0
VERTEX
  8
0
 10
-407.00400027
 20
226.45849098
 42
-0.31380669
  0
VERTEX
  8
0
 10
-407.19749152
 20
226.37309114
 42
-0.31380669
  0
VERTEX
  8
0
 10
-407.34474571
 20
226.52490747
 42
-0.61099727
  0
VERTEX
  8
0
 10
-408.86869338
 20
227.22608703
 42
-0.42889892
  0
VERTEX
  8
0
 10
-407.94997577
 20
228.41008775
 42
-0.21164292
  0
VERTEX
  8
0
 10
-407.36784710
 20
228.21323375
 42
-0.04051486
  0
VERTEX
  8
0
 10
-407.27616347
 20
229.36902496
 42
-0.40709750
  0
VERTEX
  8
0
 10
-407.04089053
 20
229.44521143
 42
-0.40709750
  0
VERTEX
  8
0
 10
-406.95899675
 20
229.21186374
  0
VERTEX
  8
0
 10
-407.03095189
 20
228.10735240
  0
SEQEND
  0
POLYLINE
  8
Default_Layer
 62
256
 66
   1
 39
0.000000
 70
    1
  0
VERTEX
  8
0
 10
-407.88570316
 20
228.05729940
 42
0.40764278
  0
VERTEX
  8
0
 10
-408.51008229
 20
227.47607495
 42
0.37552702
  0
VERTEX
  8
0
 10
-408.17171557
 20
226.74388306
 42
0.37552702
  0
VERTEX
  8
0
 10
-407.40091379
 20
226.98149957
 42
0.03977428
  0
VERTEX
  8
0
 10
-407.41950436
 20
227.77569778
 42
0.27606361
  0
VERTEX
  8
0
 10
-407.88570316
 20
228.05729940
  0
SEQEND
  0
POLYLINE
  8
Default_Layer
 62
256
 66
   1
 39
0.000000
 70
    1
  0
VERTEX
  8
0
 10
-405.58904039
 20
226.31892011
 42
-0.42193904
  0
VERTEX
  8
0
 10
-406.58315471
 20
227.15446399
 42
-0.33693284
  0
VERTEX
  8
0
 10
-405.90143413
 20
228.37721859
 42
-0.29752590
  0
VERTEX
  8
0
 10
-404.93305728
 20
228.14296704
 42
-0.45984835
  0
VERTEX
  8
0
 10
-405.24155704
 20
227.47206429
 42
-0.01256064
  0
VERTEX
  8
0
 10
-406.23202896
 20
226.98886030
 42
0.37868175
  0
VERTEX
  8
0
 10
-405.07720030
 20
226.80212410
 42
-0.24992911
  0
VERTEX
  8
0
 10
-404.80991865
 20
226.97208430
 42
-0.65657735
  0
VERTEX
  8
0
 10
-404.81075229
 20
226.57465967
 42
-0.14712219
  0
VERTEX
  8
0
 10
-405.58904039
 20
226.31892011
  0
SEQEND
  0
POLYLINE
  8
Default_Layer
 62
256
 66
   1
 39
0.000000
 70
    1
  0
VERTEX
  8
0
 10
-405.64101850
 20
228.07270032
 42
0.32485739
  0
VERTEX
  8
0
 10
-406.20785177
 20
227.53106342
  0
VERTEX
  8
0
 10
-406.26475592
 20
227.34308155
 42
0.04366203
  0
VERTEX
  8
0
 10
-405.17706567
 20
227.91869108
 42
0.13461359
  0
VERTEX
  8
0
 10
-405.64101850
 20
228.07270032
  0
SEQEND
  0
POLYLINE
  8
Default_Layer
 62
256
 66
   1
 39
0.000000
 70
    1
  0
VERTEX
  8
0
 10
-403.83911041
 20
227.92061620
 42
-0.02913380
  0
VERTEX
  8
0
 10
-403.90468465
 20
226.46306313
 42
-0.41421356
  0
VERTEX
  8
0
 10
-404.13051808
 20
226.33404697
 42
-0.41421356
  0
VERTEX
  8
0
 10
-404.25953424
 20
226.55988040
 42
-0.01117770
  0
VERTEX
  8
0
 10
-404.17847217
 20
229.41173846
 42
-0.38757900
  0
VERTEX
  8
0
 10
-403.90171997
 20
229.46686105
 42
-0.38757900
  0
VERTEX
  8
0
 10
-403.82146351
 20
229.19632606
  0
VERTEX
  8
0
 10
-403.83911041
 20
227.92061620
  0
SEQEND
  0
POLYLINE
  8
Default_Layer
 62
256
 66
   1
 39
0.000000
 70
    1
  0
VERTEX
  8
0
 10
-401.63677829
 20
226.28811826
 42
-0.36180443
  0
VERTEX
  8
0
 10
-401.84276564
 20
226.58394434
 42
-0.02079514
  0
VERTEX
  8
0
 10
-401.94997051
 20
227.86021570
 42
0.50146595
  0
VERTEX
  8
0
 10
-402.28072942
 20
227.96467173
 42
0.16846636
  0
VERTEX
  8
0
 10
-402.80917362
 20
227.35270713
 42
-0.08562589
  0
VERTEX
  8
0
 10
-402.89371827
 20
226.45464075
 42
-0.39248686
  0
VERTEX
  8
0
 10
-403.15595767
 20
226.41366717
 42
-0.39248686
  0
VERTEX
  8
0
 10
-403.21639972
 20
226.67211463
 42
0.01449563
  0
VERTEX
  8
0
 10
-403.19564055
 20
229.37840990
 42
-0.37259984
  0
VERTEX
  8
0
 10
-402.93587295
 20
229.45576460
 42
-0.37259984
  0
VERTEX
  8
0
 10
-402.82200772
 20
229.20980187
 42
-0.01928598
  0
VERTEX
  8
0
 10
-402.82264943
 20
227.97259432
 42
-0.40347271
  0
VERTEX
  8
0
 10
-401.75212479
 20
228.28807262
 42
-0.19127278
  0
VERTEX
  8
0
 10
-401.56261068
 20
227.57733771
  0
VERTEX
  8
0
 10
-401.45124528
 20
226.41842452
 42
-0.26340404
  0
VERTEX
  8
0
 10
-401.63677829
 20
226.28811826
  0
SEQEND
  0
POLYLINE
  8
Default_Layer
 62
256
 66
   1
 39
0.000000
 70
    1
  0
VERTEX
  8
0
 10
-399.46717313
 20
226.28041780
  0
VERTEX
  8
0
 10
-399.74611223
 20
226.49765189
 42
-0.35524165
  0
VERTEX
  8
0
 10
-400.94566183
 20
226.55763443
 42
-0.33692228
  0
VERTEX
  8
0
 10
-400.82052932
 20
228.08617613
 42
-0.43351075
  0
VERTEX
  8
0
 10
-399.43348361
 20
228.14404991
 42
-0.05365535
  0
VERTEX
  8
0
 10
-399.48642429
 20
227.73773023
 42
0.11295237
  0
VERTEX
  8
0
 10
-399.36949885
 20
226.66361711
 42
-0.30770920
  0
VERTEX
  8
0
 10
-399.34204062
 20
226.33047080
  0
VERTEX
  8
0
 10
-399.46717313
 20
226.28041780
  0
SEQEND
  0
POLYLINE
  8
Default_Layer
 62
256
 66
   1
 39
0.000000
 70
    1
  0
VERTEX
  8
0
 10
-399.86759715
 20
227.61837307
 42
0.07302039
  0
VERTEX
  8
0
 10
-399.84284567
 20
228.01302174
 42
0.42167162
  0
VERTEX
  8
0
 10
-400.64630637
 20
227.66872687
 42
0.33633850
  0
VERTEX
  8
0
 10
-400.57940860
 20
226.73907657
 42
0.42683749
  0
VERTEX
  8
0
 10
-399.80757304
 20
226.87369891
  0
VERTEX
  8
0
 10
-399.86759715
 20
227.61837307
  0
SEQEND
  0
POLYLINE
  8
Default_Layer
 62
256
 66
   1
 39
0.000000
 70
    1
  0
VERTEX
  8
0
 10
-397.18013593
 20
228.10735240
 42
0.01953659
  0
VERTEX
  8
0
 10
-397.15318431
 20
226.45849098
 42
-0.31380669
  0
VERTEX
  8
0
 10
-397.34667556
 20
226.37309114
 42
-0.31380669
  0
VERTEX
  8
0
 10
-397.49392975
 20
226.52490747
 42
-0.61099727
  0
VERTEX
  8
0
 10
-399.01787743
 20
227.22608703
 42
-0.42889892
  0
VERTEX
  8
0
 10
-398.09915981
 20
228.41008775
 42
-0.21164292
  0
VERTEX
  8
0
 10
-397.51703114
 20
228.21323375
 42
-0.04051486
  0
VERTEX
  8
0
 10
-397.42534752
 20
229.36902496
 42
-0.40709750
  0
VERTEX
  8
0
 10
-397.19007458
 20
229.44521143
 42
-0.40709750
  0
VERTEX
  8
0
 10
-397.10818079
 20
229.21186374
  0
VERTEX
  8
0
 10
-397.18013593
 20
228.10735240
  0
SEQEND
  0
POLYLINE
  8
Default_Layer
 62
256
 66
   1
 39
0.000000
 70
    1
  0
VERTEX
  8
0
 10
-398.03488721
 20
228.05729940
 42
0.40764278
  0
VERTEX
  8
0
 10
-398.65926633
 20
227.47607495
 42
0.37552702
  0
VERTEX
  8
0
 10
-398.32089961
 20
226.74388306
 42
0.37552702
  0
VERTEX
  8
0
 10
-397.55009783
 20
226.98149957
 42
0.03977428
  0
VERTEX
  8
0
 10
-397.56868841
 20
227.77569778
 42
0.27606361
  0
VERTEX
  8
0
 10
-398.03488721
 20
228.05729940
  0
SEQEND
  0
POLYLINE
  8
Default_Layer
 62
256
 66
   1
 39
0.000000
 70
    1
  0
VERTEX
  8
0
 10
-394.95085219
 20
228.12467844
 42
0.00763530
  0
VERTEX
  8
0
 10
-396.17990093
 20
225.34233653
 42
-0.37443272
  0
VERTEX
  8
0
 10
-396.43982776
 20
225.36678834
 42
-0.37443272
  0
VERTEX
  8
0
 10
-396.45128721
 20
225.62761114
 42
-0.03438424
  0
VERTEX
  8
0
 10
-396.07704476
 20
226.59228651
 42
-0.01450079
  0
VERTEX
  8
0
 10
-396.90484442
 20
228.20745841
 42
-0.37721724
  0
VERTEX
  8
0
 10
-396.69606558
 20
228.38882275
 42
-0.37721724
  0
VERTEX
  8
0
 10
-396.48954450
 20
228.20489159
 42
-0.03232068
  0
VERTEX
  8
0
 10
-395.86913228
 20
227.04468865
 42
-0.05400629
  0
VERTEX
  8
0
 10
-395.21651813
 20
228.38264392
 42
-0.31774633
  0
VERTEX
  8
0
 10
-394.99251254
 20
228.34755537
 42
-0.31774633
  0
VERTEX
  8
0
 10
-394.95085219
 20
228.12467844
  0
SEQEND
  0
POLYLINE
  8
Default_Layer
 62
256
 66
   1
 39
0.000000
 70
    1
  0
VERTEX
  8
0
 10
-429.75573541
 20
215.78870762
 42
-0.32574320
  0
VERTEX
  8
0
 10
-430.93653048
 20
216.70589901
 42
-0.17458426
  0
VERTEX
  8
0
 10
-430.89863283
 20
218.81140392
 42
-0.55577136
  0
VERTEX
  8
0
 10
-428.81475519
 20
219.30207635
 42
-0.21216195
  0
VERTEX
  8
0
 10
-428.39674539
 20
217.41777163
 42
-0.22159115
  0
VERTEX
  8
0
 10
-429.06901173
 20
215.98255816
 42
-0.13926170
  0
VERTEX
  8
0
 10
-429.75573541
 20
215.78870762
  0
SEQEND
  0
POLYLINE
  8
Default_Layer
 62
256
 66
   1
 39
0.000000
 70
    1
  0
VERTEX
  8
0
 10
-429.68243058
 20
219.21204299
 42
0.32614072
  0
VERTEX
  8
0
 10
-430.54223510
 20
218.40558809
 42
0.17413280
  0
VERTEX
  8
0
 10
-430.39455642
 20
216.64143619
 42
0.31854031
  0
VERTEX
  8
0
 10
-429.58535288
 20
216.29373376
 42
0.31854031
  0
VERTEX
  8
0
 10
-428.98945563
 20
216.94228123
 42
0.18987087
  0
VERTEX
  8
0
 10
-429.07867753
 20
218.90021113
 42
0.24679329
  0
VERTEX
  8
0
 10
-429.68243058
 20
219.21204299
  0
SEQEND
  0
POLYLINE
  8
Default_Layer
 62
256
 66
   1
 39
0.000000
 70
    1
  0
VERTEX
  8
0
 10
-426.47412270
 20
215.88156040
 42
-0.06629350
  0
VERTEX
  8
0
 10
-427.72103779
 20
215.93336248
 42
-0.34586418
  0
VERTEX
  8
0
 10
-427.75424471
 20
216.23132736
 42
-0.34586418
  0
VERTEX
  8
0
 10
-427.47259552
 20
216.33408680
 42
0.20152461
  0
VERTEX
  8
0
 10
-427.20874178
 20
216.35594734
 42
-0.03312553
  0
VERTEX
  8
0
 10
-427.14254697
 20
218.88660814
  0
VERTEX
  8
0
 10
-427.14119662
 20
218.91149320
 42
-0.18865774
  0
VERTEX
  8
0
 10
-427.62775740
 20
218.67111446
 42
-0.65502796
  0
VERTEX
  8
0
 10
-427.60831126
 20
219.16100111
 42
-0.08662125
  0
VERTEX
  8
0
 10
-426.89548970
 20
219.66924790
 42
-0.30351905
  0
VERTEX
  8
0
 10
-426.67925786
 20
219.60804351
 42
-0.30351905
  0
VERTEX
  8
0
 10
-426.65319592
 20
219.38483294
 42
-0.00731874
  0
VERTEX
  8
0
 10
-426.76943643
 20
216.97345324
 42
0.10687680
  0
VERTEX
  8
0
 10
-426.70736533
 20
216.34626857
 42
-0.44907455
  0
VERTEX
  8
0
 10
-426.23710377
 20
216.11613584
 42
-0.34814175
  0
VERTEX
  8
0
 10
-426.47412270
 20
215.88156040
  0
SEQEND
  0
POLYLINE
  8
Default_Layer
 62
256
 66
   1
 39
0.000000
 70
    1
  0
VERTEX
  8
0
 10
-423.47839882
 20
215.87911691
 42
0.08403875
  0
VERTEX
  8
0
 10
-424.73598383
 20
215.91128958
 42
-0.20375922
  0
VERTEX
  8
0
 10
-425.45762912
 20
215.97807842
 42
-0.36981879
  0
VERTEX
  8
0
 10
-424.88787958
 20
217.55315478
 42
0.07335768
  0
VERTEX
  8
0
 10
-423.93319417
 20
218.33589760
 42
0.40694630
  0
VERTEX
  8
0
 10
-423.92392926
 20
219.00000199
 42
0.39876018
  0
VERTEX
  8
0
 10
-425.02092240
 20
218.84090337
 42
-0.54241678
  0
VERTEX
  8
0
 10
-425.52646693
 20
218.81642601
 42
-0.30394716
  0
VERTEX
  8
0
 10
-425.19739698
 20
219.27435209
 42
-0.50196381
  0
VERTEX
  8
0
 10
-423.34202130
 20
219.06421159
 42
-0.35938946
  0
VERTEX
  8
0
 10
-424.11563638
 20
217.52178803
 42
0.07341862
  0
VERTEX
  8
0
 10
-424.86528540
 20
216.92635779
 42
0.26998747
  0
VERTEX
  8
0
 10
-425.04025704
 20
216.35047857
 42
-0.10208524
  0
VERTEX
  8
0
 10
-423.42739088
 20
216.33498129
 42
-0.35833997
  0
VERTEX
  8
0
 10
-423.26547419
 20
216.08607808
 42
-0.35833997
  0
VERTEX
  8
0
 10
-423.47839882
 20
215.87911691
  0
SEQEND
  0
POLYLINE
  8
Default_Layer
 62
256
 66
   1
 39
0.000000
 70
    1
  0
VERTEX
  8
0
 10
-421.38676779
 20
215.75205521
 42
-0.28729620
  0
VERTEX
  8
0
 10
-422.50863706
 20
216.33493039
 42
-0.36428978
  0
VERTEX
  8
0
 10
-422.03429375
 20
217.79725985
 42
-0.59950811
  0
VERTEX
  8
0
 10
-421.86270615
 20
219.49467382
 42
-0.31137283
  0
VERTEX
  8
0
 10
-420.55968318
 20
219.32842395
 42
-0.28706046
  0
VERTEX
  8
0
 10
-420.44846601
 20
218.14667952
 42
-0.07717950
  0
VERTEX
  8
0
 10
-420.81743364
 20
217.87545166
 42
-0.28819916
  0
VERTEX
  8
0
 10
-420.14906162
 20
216.91496755
 42
-0.46105857
  0
VERTEX
  8
0
 10
-421.26413492
 20
215.76824336
  0
VERTEX
  8
0
 10
-421.38676779
 20
215.75205521
  0
SEQEND
  0
POLYLINE
  8
Default_Layer
 62
256
 66
   1
 39
0.000000
 70
    1
  0
VERTEX
  8
0
 10
-421.36477634
 20
219.17539058
 42
0.31277317
  0
VERTEX
  8
0
 10
-421.92152714
 20
218.87085676
 42
0.31277317
  0
VERTEX
  8
0
 10
-421.83155160
 20
218.24267151
 42
0.22076117
  0
VERTEX
  8
0
 10
-421.36439052
 20
218.08816426
 42
0.25598250
  0
VERTEX
  8
0
 10
-420.83582772
 20
218.48401747
 42
0.48538714
  0
VERTEX
  8
0
 10
-421.21926626
 20
219.15889699
  0
VERTEX
  8
0
 10
-421.36477634
 20
219.17539058
  0
SEQEND
  0
POLYLINE
  8
Default_Layer
 62
256
 66
   1
 39
0.000000
 70
    1
  0
VERTEX
  8
0
 10
-421.40875923
 20
217.62865875
 42
0.26492593
  0
VERTEX
  8
0
 10
-422.09066865
 20
216.95460342
 42
0.48308410
  0
VERTEX
  8
0
 10
-421.50588813
 20
216.19310591
 42
0.27649289
  0
VERTEX
  8
0
 10
-420.76514286
 20
216.42303871
 42
0.49664339
  0
VERTEX
  8
0
 10
-421.22418144
 20
217.55836130
  0
VERTEX
  8
0
 10
-421.40875923
 20
217.62865875
  0
SEQEND
  0
POLYLINE
  8
Default_Layer
 62
256
 66
   1
 39
0.000000
 70
    1
  0
VERTEX
  8
0
 10
-418.35439149
 20
215.77160316
 42
-0.27635136
  0
VERTEX
  8
0
 10
-419.41312262
 20
216.34460255
 42
-0.40690662
  0
VERTEX
  8
0
 10
-419.39956308
 20
216.66785012
 42
-0.40690662
  0
VERTEX
  8
0
 10
-419.07607750
 20
216.66237897
 42
0.65110138
  0
VERTEX
  8
0
 10
-417.70698770
 20
216.69622137
 42
0.46061288
  0
VERTEX
  8
0
 10
-418.48650307
 20
217.63696663
 42
-0.35215056
  0
VERTEX
  8
0
 10
-418.85286430
 20
217.87789516
 42
-0.29328369
  0
VERTEX
  8
0
 10
-418.43004207
 20
218.14970945
 42
0.24057090
  0
VERTEX
  8
0
 10
-417.73740920
 20
218.52175588
 42
0.50638546
  0
VERTEX
  8
0
 10
-418.28577003
 20
219.13222218
 42
0.15561689
  0
VERTEX
  8
0
 10
-419.06626280
 20
218.85529284
 42
-0.40703683
  0
VERTEX
  8
0
 10
-419.34085549
 20
219.07013889
 42
-0.40703683
  0
VERTEX
  8
0
 10
-419.13281892
 20
219.34992588
 42
-0.44027271
  0
VERTEX
  8
0
 10
-417.35683498
 20
219.07826168
 42
-0.44408204
  0
VERTEX
  8
0
 10
-417.81486797
 20
217.88473694
 42
0.41421356
  0
VERTEX
  8
0
 10
-417.81231170
 20
217.84080104
 42
0.41421356
  0
VERTEX
  8
0
 10
-417.76837579
 20
217.84335731
 42
-0.45670539
  0
VERTEX
  8
0
 10
-417.35386546
 20
216.32744718
 42
-0.25837172
  0
VERTEX
  8
0
 10
-418.35439149
 20
215.77160316
  0
SEQEND
  0
POLYLINE
  8
Default_Layer
 62
256
 66
   1
 39
0.000000
 70
    1
  0
VERTEX
  8
0
 10
-414.86263828
 20
216.17966669
 42
-0.11543772
  0
VERTEX
  8
0
 10
-416.08866149
 20
215.66103505
 42
-0.37201879
  0
VERTEX
  8
0
 10
-416.24500077
 20
215.96165848
 42
-0.37201879
  0
VERTEX
  8
0
 10
-415.97035565
 20
216.16011874
 42
0.23345959
  0
VERTEX
  8
0
 10
-414.62537499
 20
217.32371067
  0
VERTEX
  8
0
 10
-414.59385392
 20
217.38675283
 42
-0.40136192
  0
VERTEX
  8
0
 10
-416.36355459
 20
217.75016150
 42
-0.41339980
  0
VERTEX
  8
0
 10
-415.86090710
 20
219.48254572
 42
-0.41339980
  0
VERTEX
  8
0
 10
-414.12713264
 20
218.98471473
 42
-0.20359302
  0
VERTEX
  8
0
 10
-414.13027420
 20
217.31755307
 42
-0.15803935
  0
VERTEX
  8
0
 10
-414.86263828
 20
216.17966669
  0
SEQEND
  0
POLYLINE
  8
Default_Layer
 62
256
 66
   1
 39
0.000000
 70
    1
  0
VERTEX
  8
0
 10
-415.20961446
 20
219.21937347
 42
0.27100022
  0
VERTEX
  8
0
 10
-415.91103826
 20
218.86337516
 42
0.42022111
  0
VERTEX
  8
0
 10
-415.67922350
 20
217.75526229
 42
0.35767011
  0
VERTEX
  8
0
 10
-414.46207977
 20
218.01926875
 42
0.41687006
  0
VERTEX
  8
0
 10
-415.20961446
 20
219.21937347
  0
SEQEND
  0
POLYLINE
  8
Default_Layer
 62
256
 66
   1
 39
0.000000
 70
    1
  0
VERTEX
  8
0
 10
-411.36844158
 20
216.95181086
 42
-0.06701780
  0
VERTEX
  8
0
 10
-411.41708239
 20
215.89858850
 42
-0.33669891
  0
VERTEX
  8
0
 10
-411.74730572
 20
215.88518894
 42
-0.33669891
  0
VERTEX
  8
0
 10
-411.84883254
 20
216.19970334
 42
0.10377494
  0
VERTEX
  8
0
 10
-411.86696993
 20
216.96463920
 42
-0.04575496
  0
VERTEX
  8
0
 10
-413.48855459
 20
217.05145961
 42
-0.55163162
  0
VERTEX
  8
0
 10
-413.48488935
 20
217.44570212
  0
VERTEX
  8
0
 10
-412.00930347
 20
219.51509180
 42
-0.49588410
  0
VERTEX
  8
0
 10
-411.38569876
 20
219.56115722
 42
0.01830029
  0
VERTEX
  8
0
 10
-411.34840493
 20
217.42633743
 42
-0.34302313
  0
VERTEX
  8
0
 10
-410.82989546
 20
217.22871984
 42
-0.52888945
  0
VERTEX
  8
0
 10
-411.22280932
 20
216.95669785
  0
VERTEX
  8
0
 10
-411.36844158
 20
216.95181086
  0
SEQEND
  0
POLYLINE
  8
Default_Layer
 62
256
 66
   1
 39
0.000000
 70
    1
  0
VERTEX
  8
0
 10
-411.84247945
 20
219.01900695
  0
VERTEX
  8
0
 10
-412.86141653
 20
217.46005765
  0
VERTEX
  8
0
 10
-411.84247945
 20
217.43562271
  0
VERTEX
  8
0
 10
-411.84247945
 20
219.01900695
  0
SEQEND
  0
POLYLINE
  8
Default_Layer
 62
256
 66
   1
 39
0.000000
 70
    1
  0
VERTEX
  8
0
 10
-409.29635850
 20
215.73006376
 42
-0.32070864
  0
VERTEX
  8
0
 10
-410.36172197
 20
216.38003322
 42
-0.32953838
  0
VERTEX
  8
0
 10
-410.11841358
 20
216.59362638
 42
-0.32953838
  0
VERTEX
  8
0
 10
-409.84288670
 20
216.42360886
 42
0.52955715
  0
VERTEX
  8
0
 10
-408.45774366
 20
216.75484232
 42
0.33898592
  0
VERTEX
  8
0
 10
-408.62070690
 20
218.03735861
 42
0.37324890
  0
VERTEX
  8
0
 10
-409.82308422
 20
217.62209186
 42
-0.65555474
  0
VERTEX
  8
0
 10
-410.30185636
 20
217.63140768
 42
-0.04065681
  0
VERTEX
  8
0
 10
-410.20533834
 20
219.14118166
 42
-0.16422669
  0
VERTEX
  8
0
 10
-410.25878978
 20
219.53427879
 42
-0.27806635
  0
VERTEX
  8
0
 10
-409.86284190
 20
219.61644128
  0
VERTEX
  8
0
 10
-408.17907078
 20
219.63904360
 42
-0.39329697
  0
VERTEX
  8
0
 10
-408.00514509
 20
219.37117416
 42
-0.39329697
  0
VERTEX
  8
0
 10
-408.25982063
 20
219.17844494
 42
-0.01985686
  0
VERTEX
  8
0
 10
-409.71419601
 20
219.13873816
  0
VERTEX
  8
0
 10
-409.80460529
 20
218.32505460
 42
-0.29149970
  0
VERTEX
  8
0
 10
-408.36294372
 20
218.43379009
 42
-0.27082148
  0
VERTEX
  8
0
 10
-407.87081459
 20
217.01954734
 42
-0.38995179
  0
VERTEX
  8
0
 10
-409.29635850
 20
215.73006376
  0
SEQEND
  0
POLYLINE
  8
Default_Layer
 62
256
 66
   1
 39
0.000000
 70
    1
  0
VERTEX
  8
0
 10
-406.11492906
 20
215.75205521
 42
-0.28729620
  0
VERTEX
  8
0
 10
-407.23679833
 20
216.33493039
 42
-0.36428978
  0
VERTEX
  8
0
 10
-406.76245502
 20
217.79725985
 42
-0.59950811
  0
VERTEX
  8
0
 10
-406.59086743
 20
219.49467382
 42
-0.31137283
  0
VERTEX
  8
0
 10
-405.28784445
 20
219.32842395
 42
-0.28706046
  0
VERTEX
  8
0
 10
-405.17662728
 20
218.14667952
 42
-0.07717950
  0
VERTEX
  8
0
 10
-405.54559491
 20
217.87545166
 42
-0.28819916
  0
VERTEX
  8
0
 10
-404.87722289
 20
216.91496755
 42
-0.46105857
  0
VERTEX
  8
0
 10
-405.99229619
 20
215.76824336
  0
VERTEX
  8
0
 10
-406.11492906
 20
215.75205521
  0
SEQEND
  0
POLYLINE
  8
Default_Layer
 62
256
 66
   1
 39
0.000000
 70
    1
  0
VERTEX
  8
0
 10
-406.09293761
 20
219.17539058
 42
0.31277317
  0
VERTEX
  8
0
 10
-406.64968841
 20
218.87085676
 42
0.31277317
  0
VERTEX
  8
0
 10
-406.55971287
 20
218.24267151
 42
0.22076117
  0
VERTEX
  8
0
 10
-406.09255179
 20
218.08816426
 42
0.25598250
  0
VERTEX
  8
0
 10
-405.56398899
 20
218.48401747
 42
0.48538714
  0
VERTEX
  8
0
 10
-405.94742753
 20
219.15889699
  0
VERTEX
  8
0
 10
-406.09293761
 20
219.17539058
  0
SEQEND
  0
POLYLINE
  8
Default_Layer
 62
256
 66
   1
 39
0.000000
 70
    1
  0
VERTEX
  8
0
 10
-406.13692050
 20
217.62865875
 42
0.26492593
  0
VERTEX
  8
0
 10
-406.81882992
 20
216.95460342
 42
0.48308410
  0
VERTEX
  8
0
 10
-406.23404940
 20
216.19310591
 42
0.27649289
  0
VERTEX
  8
0
 10
-405.49330413
 20
216.42303871
 42
0.49664339
  0
VERTEX
  8
0
 10
-405.95234271
 20
217.55836130
  0
VERTEX
  8
0
 10
-406.13692050
 20
217.62865875
  0
SEQEND
  0
POLYLINE
  8
Default_Layer
 62
256
 66
   1
 39
0.000000
 70
    1
  0
VERTEX
  8
0
 10
-401.74107444
 20
219.07520732
 42
0.09889196
  0
VERTEX
  8
0
 10
-403.19739698
 20
216.37758972
 42
-0.12522721
  0
VERTEX
  8
0
 10
-403.53997487
 20
215.74570212
 42
-0.33112165
  0
VERTEX
  8
0
 10
-403.83326646
 20
215.86620345
 42
-0.33112165
  0
VERTEX
  8
0
 10
-403.80221998
 20
216.18176112
 42
-0.07004077
  0
VERTEX
  8
0
 10
-402.58304616
 20
218.78748587
  0
VERTEX
  8
0
 10
-402.37638293
 20
219.06054635
 42
-0.03644843
  0
VERTEX
  8
0
 10
-404.24168532
 20
219.13446205
 42
-0.39743070
  0
VERTEX
  8
0
 10
-404.36282539
 20
219.42928555
 42
-0.39743070
  0
VERTEX
  8
0
 10
-404.07546993
 20
219.56720817
 42
-0.02130936
  0
VERTEX
  8
0
 10
-401.65921739
 20
219.49121220
 42
-0.39438471
  0
VERTEX
  8
0
 10
-401.74107444
 20
219.07520732
  0
SEQEND
  0
POLYLINE
  8
Default_Layer
 62
256
 66
   1
 39
0.000000
 70
    1
  0
VERTEX
  8
0
 10
-400.00619356
 20
215.75205521
 42
-0.28729620
  0
VERTEX
  8
0
 10
-401.12806284
 20
216.33493039
 42
-0.36428978
  0
VERTEX
  8
0
 10
-400.65371953
 20
217.79725985
 42
-0.59950811
  0
VERTEX
  8
0
 10
-400.48213193
 20
219.49467382
 42
-0.31137283
  0
VERTEX
  8
0
 10
-399.17910896
 20
219.32842395
 42
-0.28706046
  0
VERTEX
  8
0
 10
-399.06789179
 20
218.14667952
 42
-0.07717950
  0
VERTEX
  8
0
 10
-399.43685942
 20
217.87545166
 42
-0.28819916
  0
VERTEX
  8
0
 10
-398.76848739
 20
216.91496755
 42
-0.46105857
  0
VERTEX
  8
0
 10
-399.88356070
 20
215.76824336
  0
VERTEX
  8
0
 10
-400.00619356
 20
215.75205521
  0
SEQEND
  0
POLYLINE
  8
Default_Layer
 62
256
 66
   1
 39
0.000000
 70
    1
  0
VERTEX
  8
0
 10
-399.98420212
 20
219.17539058
 42
0.31277317
  0
VERTEX
  8
0
 10
-400.54095292
 20
218.87085676
 42
0.31277317
  0
VERTEX
  8
0
 10
-400.45097738
 20
218.24267151
 42
0.22076117
  0
VERTEX
  8
0
 10
-399.98381630
 20
218.08816426
 42
0.25598250
  0
VERTEX
  8
0
 10
-399.45525350
 20
218.48401747
 42
0.48538714
  0
VERTEX
  8
0
 10
-399.83869204
 20
219.15889699
  0
VERTEX
  8
0
 10
-399.98420212
 20
219.17539058
  0
SEQEND
  0
POLYLINE
  8
Default_Layer
 62
256
 66
   1
 39
0.000000
 70
    1
  0
VERTEX
  8
0
 10
-400.02818501
 20
217.62865875
 42
0.26492593
  0
VERTEX
  8
0
 10
-400.71009443
 20
216.95460342
 42
0.48308410
  0
VERTEX
  8
0
 10
-400.12531391
 20
216.19310591
 42
0.27649289
  0
VERTEX
  8
0
 10
-399.38456864
 20
216.42303871
 42
0.49664339
  0
VERTEX
  8
0
 10
-399.84360722
 20
217.55836130
  0
VERTEX
  8
0
 10
-400.02818501
 20
217.62865875
  0
SEQEND
  0
POLYLINE
  8
Default_Layer
 62
256
 66
   1
 39
0.000000
 70
    1
  0
VERTEX
  8
0
 10
-478.00000000
 20
-146.23762376
  0
VERTEX
  8
0
 10
-478.00000000
 20
-126.98762376
  0
VERTEX
  8
0
 10
-476.00000000
 20
-126.98762376
  0
VERTEX
  8
0
 10
-476.00000000
 20
-106.48762376
  0
VERTEX
  8
0
 10
-478.00000000
 20
-106.48762376
  0
VERTEX
  8
0
 10
-478.00000000
 20
-85.98762376
  0
VERTEX
  8
0
 10
-476.00000000
 20
-85.98762376
  0
VERTEX
  8
0
 10
-476.00000000
 20
-65.48762376
  0
VERTEX
  8
0
 10
-478.00000000
 20
-65.48762376
  0
VERTEX
  8
0
 10
-478.00000000
 20
-46.23762376
  0
VERTEX
  8
0
 10
-456.75000000
 20
-46.23762376
  0
VERTEX
  8
0
 10
-456.75000000
 20
-48.23762376
  0
VERTEX
  8
0
 10
-436.25000000
 20
-48.23762376
  0
VERTEX
  8
0
 10
-436.25000000
 20
-46.23762376
  0
VERTEX
  8
0
 10
-415.75000000
 20
-46.23762376
  0
VERTEX
  8
0
 10
-415.75000000
 20
-48.23762376
  0
VERTEX
  8
0
 10
-395.25000000
 20
-48.23762376
  0
VERTEX
  8
0
 10
-395.25000000
 20
-46.23762376
  0
VERTEX
  8
0
 10
-374.75000000
 20
-46.23762376
  0
VERTEX
  8
0
 10
-374.75000000
 20
-48.23762376
  0
VERTEX
  8
0
 10
-354.25000000
 20
-48.23762376
  0
VERTEX
  8
0
 10
-354.25000000
 20
-46.23762376
  0
VERTEX
  8
0
 10
-333.75000000
 20
-46.23762376
  0
VERTEX
  8
0
 10
-333.75000000
 20
-48.23762376
  0
VERTEX
  8
0
 10
-313.25000000
 20
-48.23762376
  0
VERTEX
  8
0
 10
-313.25000000
 20
-46.23762376
  0
VERTEX
  8
0
 10
-292.75000000
 20
-46.23762376
  0
VERTEX
  8
0
 10
-292.75000000
 20
-48.23762376
  0
VERTEX
  8
0
 10
-272.25000000
 20
-48.23762376
  0
VERTEX
  8
0
 10
-272.25000000
 20
-46.23762376
  0
VERTEX
  8
0
 10
-251.75000000
 20
-46.23762376
  0
VERTEX
  8
0
 10
-251.75000000
 20
-48.23762376
  0
VERTEX
  8
0
 10
-231.25000000
 20
-48.23762376
  0
VERTEX
  8
0
 10
-231.25000000
 20
-46.23762376
  0
VERTEX
  8
0
 10
-210.75000000
 20
-46.23762376
  0
VERTEX
  8
0
 10
-210.75000000
 20
-48.23762376
  0
VERTEX
  8
0
 10
-190.25000000
 20
-48.23762376
  0
VERTEX
  8
0
 10
-190.25000000
 20
-46.23762376
  0
VERTEX
  8
0
 10
-169.75000000
 20
-46.23762376
  0
VERTEX
  8
0
 10
-169.75000000
 20
-48.23762376
  0
VERTEX
  8
0
 10
-149.25000000
 20
-48.23762376
  0
VERTEX
  8
0
 10
-149.25000000
 20
-46.23762376
  0
VERTEX
  8
0
 10
-128.00000000
 20
-46.23762376
  0
VERTEX
  8
0
 10
-128.00000000
 20
-65.48762376
  0
VERTEX
  8
0
 10
-130.00000000
 20
-65.48762376
  0
VERTEX
  8
0
 10
-130.00000000
 20
-85.98762376
  0
VERTEX
  8
0
 10
-128.00000000
 20
-85.98762376
  0
VERTEX
  8
0
 10
-128.00000000
 20
-106.48762376
  0
VERTEX
  8
0
 10
-130.00000000
 20
-106.48762376
  0
VERTEX
  8
0
 10
-130.00000000
 20
-126.98762376
  0
VERTEX
  8
0
 10
-128.00000000
 20
-126.98762376
  0
VERTEX
  8
0
 10
-128.00000000
 20
-146.23762376
  0
VERTEX
  8
0
 10
-149.25000000
 20
-146.23762376
  0
VERTEX
  8
0
 10
-149.25000000
 20
-144.23762376
  0
VERTEX
  8
0
 10
-169.75000000
 20
-144.23762376
  0
VERTEX
  8
0
 10
-169.75000000
 20
-146.23762376
  0
VERTEX
  8
0
 10
-190.25000000
 20
-146.23762376
  0
VERTEX
  8
0
 10
-190.25000000
 20
-144.23762376
  0
VERTEX
  8
0
 10
-210.75000000
 20
-144.23762376
  0
VERTEX
  8
0
 10
-210.75000000
 20
-146.23762376
  0
VERTEX
  8
0
 10
-231.25000000
 20
-146.23762376
  0
VERTEX
  8
0
 10
-231.25000000
 20
-144.23762376
  0
VERTEX
  8
0
 10
-251.75000000
 20
-144.23762376
  0
VERTEX
  8
0
 10
-251.75000000
 20
-146.23762376
  0
VERTEX
  8
0
 10
-272.25000000
 20
-146.23762376
  0
VERTEX
  8
0
 10
-272.25000000
 20
-144.23762376
  0
VERTEX
  8
0
 10
-292.75000000
 20
-144.23762376
  0
VERTEX
  8
0
 10
-292.75000000
 20
-146.23762376
  0
VERTEX
  8
0
 10
-313.25000000
 20
-146.23762376
  0
VERTEX
  8
0
 10
-313.25000000
 20
-144.23762376
  0
VERTEX
  8
0
 10
-333.75000000
 20
-144.23762376
  0
VERTEX
  8
0
 10
-333.75000000
 20
-146.23762376
  0
VERTEX
  8
0
 10
-354.25000000
 20
-146.23762376
  0
VERTEX
  8
0
 10
-354.25000000
 20
-144.23762376
  0
VERTEX
  8
0
 10
-374.75000000
 20
-144.23762376
  0
VERTEX
  8
0
 10
-374.75000000
 20
-146.23762376
  0
VERTEX
  8
0
 10
-395.25000000
 20
-146.23762376
  0
VERTEX
  8
0
 10
-395.25000000
 20
-144.23762376
  0
VERTEX
  8
0
 10
-415.75000000
 20
-144.23762376
  0
VERTEX
  8
0
 10
-415.75000000
 20
-146.23762376
  0
VERTEX
  8
0
 10
-436.25000000
 20
-146.23762376
  0
VERTEX
  8
0
 10
-436.25000000
 20
-144.23762376
  0
VERTEX
  8
0
 10
-456.75000000
 20
-144.23762376
  0
VERTEX
  8
0
 10
-456.75000000
 20
-146.23762376
  0
VERTEX
  8
0
 10
-478.00000000
 20
-146.23762376
  0
SEQEND
  0
POLYLINE
  8
Default_Layer
 62
256
 66
   1
 39
0.000000
 70
    0
  0
VERTEX
  8
0
 10
-302.00000000
 20
-97.73762376
  0
VERTEX
  8
0
 10
-304.00000000
 20
-97.73762376
  0
SEQEND
  0
POLYLINE
  8
Default_Layer
 62
256
 66
   1
 39
0.000000
 70
    0
  0
VERTEX
  8
0
 10
-304.00000000
 20
-94.73762376
  0
VERTEX
  8
0
 10
-302.00000000
 20
-94.73762376
  0
SEQEND
  0
POLYLINE
  8
Default_Layer
 62
256
 66
   1
 39
0.000000
 70
    0
  0
VERTEX
  8
0
 10
-302.00000000
 20
-94.73762376
  0
VERTEX
  8
0
 10
-301.84663371
 20
-94.74536809
  0
VERTEX
  8
0
 10
-301.69769768
 20
-94.76809843
  0
VERTEX
  8
0
 10
-301.41613231
 20
-94.85550120
  0
VERTEX
  8
0
 10
-301.16133574
 20
-94.99380020
  0
VERTEX
  8
0
 10
-300.93933983
 20
-95.17696359
  0
VERTEX
  8
0
 10
-300.75617644
 20
-95.39895950
  0
VERTEX
  8
0
 10
-300.61787744
 20
-95.65375607
  0
VERTEX
  8
0
 10
-300.53047467
 20
-95.93532144
  0
VERTEX
  8
0
 10
-300.50774433
 20
-96.08425748
  0
VERTEX
  8
0
 10
-300.50000000
 20
-96.23762376
  0
VERTEX
  8
0
 10
-300.50774433
 20
-96.39099005
  0
VERTEX
  8
0
 10
-300.53047467
 20
-96.53992608
  0
VERTEX
  8
0
 10
-300.61787744
 20
-96.82149146
  0
VERTEX
  8
0
 10
-300.75617644
 20
-97.07628803
  0
VERTEX
  8
0
 10
-300.93933983
 20
-97.29828393
  0
VERTEX
  8
0
 10
-301.16133574
 20
-97.48144732
  0
VERTEX
  8
0
 10
-301.41613231
 20
-97.61974633
  0
VERTEX
  8
0
 10
-301.69769768
 20
-97.70714909
  0
VERTEX
  8
0
 10
-301.84663371
 20
-97.72987943
  0
VERTEX
  8
0
 10
-302.00000000
 20
-97.73762376
  0
SEQEND
  0
POLYLINE
  8
Default_Layer
 62
256
 66
   1
 39
0.000000
 70
    0
  0
VERTEX
  8
0
 10
-304.00000000
 20
-97.73762376
  0
VERTEX
  8
0
 10
-304.15336629
 20
-97.72987943
  0
VERTEX
  8
0
 10
-304.30230232
 20
-97.70714909
  0
VERTEX
  8
0
 10
-304.58386769
 20
-97.61974633
  0
VERTEX
  8
0
 10
-304.83866426
 20
-97.48144732
  0
VERTEX
  8
0
 10
-305.06066017
 20
-97.29828393
  0
VERTEX
  8
0
 10
-305.24382356
 20
-97.07628803
  0
VERTEX
  8
0
 10
-305.38212256
 20
-96.82149146
  0
VERTEX
  8
0
 10
-305.46952533
 20
-96.53992608
  0
VERTEX
  8
0
 10
-305.49225567
 20
-96.39099005
  0
VERTEX
  8
0
 10
-305.50000000
 20
-96.23762376
  0
VERTEX
  8
0
 10
-305.49225567
 20
-96.08425748
  0
VERTEX
  8
0
 10
-305.46952533
 20
-95.93532144
  0
VERTEX
  8
0
 10
-305.38212256
 20
-95.65375607
  0
VERTEX
  8
0
 10
-305.24382356
 20
-95.39895950
  0
VERTEX
  8
0
 10
-305.06066017
 20
-95.17696359
  0
VERTEX
  8
0
 10
-304.83866426
 20
-94.99380020
  0
VERTEX
  8
0
 10
-304.58386769
 20
-94.85550120
  0
VERTEX
  8
0
 10
-304.30230232
 20
-94.76809843
  0
VERTEX
  8
0
 10
-304.15336629
 20
-94.74536809
  0
VERTEX
  8
0
 10
-304.00000000
 20
-94.73762376
  0
SEQEND
  0
POLYLINE
  8
Default_Layer
 62
256
 66
   1
 39
0.000000
 70
    1
  0
VERTEX
  8
0
 10
-178.54308911
 20
-110.73762376
  0
VERTEX
  8
0
 10
-178.54308911
 20
-81.73762376
  0
VERTEX
  8
0
 10
-156.54308911
 20
-81.73762376
  0
VERTEX
  8
0
 10
-156.54308911
 20
-110.73762376
  0
VERTEX
  8
0
 10
-178.54308911
 20
-110.73762376
  0
SEQEND
  0
POLYLINE
  8
Default_Layer
 62
256
 66
   1
 39
0.000000
 70
    1
  0
VERTEX
  8
0
 10
-222.04735949
 20
-29.22816870
 42
-0.11678427
  0
VERTEX
  8
0
 10
-221.76147067
 20
-31.48962258
 42
-0.30077082
  0
VERTEX
  8
0
 10
-222.52656848
 20
-31.77551140
 42
-0.02188485
  0
VERTEX
  8
0
 10
-227.37164608
 20
-31.55782224
 42
-0.28041189
  0
VERTEX
  8
0
 10
-227.57837521
 20
-31.12884621
 42
-0.29169244
  0
VERTEX
  8
0
 10
-226.87187079
 20
-28.73924078
 42
-0.41177852
  0
VERTEX
  8
0
 10
-224.51765576
 20
-29.10823386
 42
0.41421356
  0
VERTEX
  8
0
 10
-224.50248227
 20
-29.13721680
 42
0.41421356
  0
VERTEX
  8
0
 10
-224.47349932
 20
-29.12204330
 42
-0.20949390
  0
VERTEX
  8
0
 10
-223.57288528
 20
-28.09704905
 42
-0.30173992
  0
VERTEX
  8
0
 10
-222.50093310
 20
-28.51060226
 42
-0.06986308
  0
VERTEX
  8
0
 10
-222.04735949
 20
-29.22816870
  0
SEQEND
  0
POLYLINE
  8
Default_Layer
 62
256
 66
   1
 39
0.000000
 70
    1
  0
VERTEX
  8
0
 10
-226.91113469
 20
-30.33507157
 42
0.11579588
  0
VERTEX
  8
0
 10
-226.86080811
 20
-30.89613543
 42
-0.01237031
  0
VERTEX
  8
0
 10
-224.82561239
 20
-30.97648879
 42
0.28164544
  0
VERTEX
  8
0
 10
-225.34424403
 20
-29.32529759
 42
0.48137144
  0
VERTEX
  8
0
 10
-226.70800316
 20
-29.68806002
 42
0.13934206
  0
VERTEX
  8
0
 10
-226.91113469
 20
-30.33507157
  0
SEQEND
  0
POLYLINE
  8
Default_Layer
 62
256
 66
   1
 39
0.000000
 70
    1
  0
VERTEX
  8
0
 10
-223.97527641
 20
-29.92456454
 42
0.02531040
  0
VERTEX
  8
0
 10
-224.05957696
 20
-31.02780217
 42
0.00927232
  0
VERTEX
  8
0
 10
-222.47619272
 20
-31.04979362
 42
0.11482681
  0
VERTEX
  8
0
 10
-222.90178362
 20
-29.19673220
 42
0.20108818
  0
VERTEX
  8
0
 10
-223.36341019
 20
-28.77734402
 42
0.19256587
  0
VERTEX
  8
0
 10
-223.86886224
 20
-29.62755782
  0
VERTEX
  8
0
 10
-223.97527641
 20
-29.92456454
  0
SEQEND
  0
POLYLINE
  8
Default_Layer
 62
256
 66
   1
 39
0.000000
 70
    1
  0
VERTEX
  8
0
 10
-225.17014507
 20
-24.02352606
 42
0.02251805
  0
VERTEX
  8
0
 10
-220.22597103
 20
-26.18956543
 42
-0.26543604
  0
VERTEX
  8
0
 10
-219.80789706
 20
-26.49308419
 42
-0.66768055
  0
VERTEX
  8
0
 10
-220.37596781
 20
-26.91440183
 42
-0.02557430
  0
VERTEX
  8
0
 10
-222.25261300
 20
-26.16769221
 42
-0.01279740
  0
VERTEX
  8
0
 10
-225.28529474
 20
-27.73549918
 42
-0.39019992
  0
VERTEX
  8
0
 10
-225.68276330
 20
-27.40861532
 42
-0.39019992
  0
VERTEX
  8
0
 10
-225.38982051
 20
-26.98550914
 42
-0.03537071
  0
VERTEX
  8
0
 10
-223.11394471
 20
-25.77184615
 42
-0.04251155
  0
VERTEX
  8
0
 10
-225.59286957
 20
-24.58960221
 42
-0.37662007
  0
VERTEX
  8
0
 10
-225.62994153
 20
-24.12104276
 42
-0.37662007
  0
VERTEX
  8
0
 10
-225.17014507
 20
-24.02352606
  0
SEQEND
  0
POLYLINE
  8
Default_Layer
 62
256
 66
   1
 39
0.000000
 70
    1
  0
VERTEX
  8
0
 10
-222.72909437
 20
-22.31918885
 42
-0.41006532
  0
VERTEX
  8
0
 10
-222.35869835
 20
-22.69487609
 42
-0.41006532
  0
VERTEX
  8
0
 10
-222.72909437
 20
-23.07056332
 42
-0.21412562
  0
VERTEX
  8
0
 10
-223.36959529
 20
-23.01879179
 42
-0.30812316
  0
VERTEX
  8
0
 10
-223.42297865
 20
-22.55926014
 42
-0.30812316
  0
VERTEX
  8
0
 10
-223.01498319
 20
-22.34118030
  0
VERTEX
  8
0
 10
-222.72909437
 20
-22.31918885
  0
SEQEND
  0
POLYLINE
  8
Default_Layer
 62
256
 66
   1
 39
0.000000
 70
    1
  0
VERTEX
  8
0
 10
-225.40472052
 20
-22.38149796
 42
-0.41006532
  0
VERTEX
  8
0
 10
-225.03432449
 20
-22.75718519
 42
-0.41006532
  0
VERTEX
  8
0
 10
-225.40472052
 20
-23.13287242
 42
-0.48462559
  0
VERTEX
  8
0
 10
-226.03147678
 20
-22.82708658
 42
-0.46395877
  0
VERTEX
  8
0
 10
-225.49719150
 20
-22.38989747
  0
VERTEX
  8
0
 10
-225.40472052
 20
-22.38149796
  0
SEQEND
  0
POLYLINE
  8
Default_Layer
 62
256
 66
   1
 39
0.000000
 70
    1
  0
VERTEX
  8
0
 10
-221.59653481
 20
-13.39432630
 42
-0.30693901
  0
VERTEX
  8
0
 10
-222.10673640
 20
-13.84368488
 42
-0.02008851
  0
VERTEX
  8
0
 10
-225.60630879
 20
-14.52688586
 42
-0.02026406
  0
VERTEX
  8
0
 10
-222.00429290
 20
-15.76611922
 42
-0.57841078
  0
VERTEX
  8
0
 10
-221.94253359
 20
-16.47661097
 42
-0.04645490
  0
VERTEX
  8
0
 10
-225.32933458
 20
-17.36502508
  0
VERTEX
  8
0
 10
-225.54766493
 20
-17.41143076
 42
0.00791005
  0
VERTEX
  8
0
 10
-221.94839797
 20
-18.19945764
 42
-0.40433900
  0
VERTEX
  8
0
 10
-221.70039780
 20
-18.66712713
 42
-0.40433900
  0
VERTEX
  8
0
 10
-222.15941115
 20
-18.93080418
 42
-0.05048739
  0
VERTEX
  8
0
 10
-224.56538026
 20
-18.41381514
  0
VERTEX
  8
0
 10
-226.88787059
 20
-17.89559895
 42
-0.23274471
  0
VERTEX
  8
0
 10
-227.43872581
 20
-17.47791417
 42
-0.46329587
  0
VERTEX
  8
0
 10
-227.00817631
 20
-16.95537002
  0
VERTEX
  8
0
 10
-224.01720163
 20
-16.29938369
  0
VERTEX
  8
0
 10
-223.25688912
 20
-16.09927438
 42
0.02347867
  0
VERTEX
  8
0
 10
-227.11455558
 20
-14.93647658
 42
-0.48190256
  0
VERTEX
  8
0
 10
-227.46890587
 20
-14.31986518
 42
-0.18340219
  0
VERTEX
  8
0
 10
-226.43424607
 20
-13.92700804
 42
0.02872601
  0
VERTEX
  8
0
 10
-222.25430465
 20
-13.07009342
 42
-0.53751987
  0
VERTEX
  8
0
 10
-221.59653481
 20
-13.39432630
  0
SEQEND
  0
POLYLINE
  8
Default_Layer
 62
256
 66
   1
 39
0.000000
 70
    1
  0
VERTEX
  8
0
 10
-221.67717012
 20
-9.78406363
 42
-0.32407399
  0
VERTEX
  8
0
 10
-223.26431605
 20
-12.17553712
 42
-0.32887597
  0
VERTEX
  8
0
 10
-227.17635880
 20
-10.58182153
 42
-0.28065758
  0
VERTEX
  8
0
 10
-226.91113469
 20
-7.66188892
 42
-0.18946943
  0
VERTEX
  8
0
 10
-225.22854990
 20
-7.05644683
 42
-0.26103365
  0
VERTEX
  8
0
 10
-221.96855680
 20
-8.64600620
 42
-0.12014223
  0
VERTEX
  8
0
 10
-221.67717012
 20
-9.78406363
  0
SEQEND
  0
POLYLINE
  8
Default_Layer
 62
256
 66
   1
 39
0.000000
 70
    1
  0
VERTEX
  8
0
 10
-226.70221593
 20
-9.45419191
 42
0.26438825
  0
VERTEX
  8
0
 10
-225.57632253
 20
-11.11373299
 42
0.23214709
  0
VERTEX
  8
0
 10
-223.33498695
 20
-11.40707829
 42
0.61792865
  0
VERTEX
  8
0
 10
-223.52249854
 20
-8.20720207
 42
0.23665759
  0
VERTEX
  8
0
 10
-226.15105527
 20
-8.01810455
 42
0.24309200
  0
VERTEX
  8
0
 10
-226.69219042
 20
-9.25982632
  0
VERTEX
  8
0
 10
-226.70221593
 20
-9.45419191
  0
SEQEND
  0
POLYLINE
  8
Default_Layer
 62
256
 66
   1
 39
0.000000
 70
    1
  0
VERTEX
  8
0
 10
-221.79079260
 20
0.09376166
 42
-0.25144432
  0
VERTEX
  8
0
 10
-222.32187528
 20
-0.37786865
 42
-0.03474683
  0
VERTEX
  8
0
 10
-223.81034055
 20
-0.73091763
 42
0.03426894
  0
VERTEX
  8
0
 10
-223.40284848
 20
-2.69460021
 42
-0.03991009
  0
VERTEX
  8
0
 10
-221.93618050
 20
-3.38811575
 42
-0.39342480
  0
VERTEX
  8
0
 10
-221.92615549
 20
-3.88526236
 42
-0.39342480
  0
VERTEX
  8
0
 10
-222.42131591
 20
-3.93077509
  0
VERTEX
  8
0
 10
-223.54644318
 20
-3.46042282
 42
-0.51181179
  0
VERTEX
  8
0
 10
-224.12555130
 20
-3.15730736
 42
-0.04019823
  0
VERTEX
  8
0
 10
-227.19394732
 20
-1.20052667
 42
-0.57025443
  0
VERTEX
  8
0
 10
-227.10918862
 20
-0.70172660
 42
-0.02545371
  0
VERTEX
  8
0
 10
-225.00398747
 20
-0.24808317
 42
0.03184039
  0
VERTEX
  8
0
 10
-222.74214263
 20
0.29447028
 42
-0.13802107
  0
VERTEX
  8
0
 10
-222.01620494
 20
0.43921066
 42
-0.25046690
  0
VERTEX
  8
0
 10
-221.79079260
 20
0.09376166
  0
SEQEND
  0
POLYLINE
  8
Default_Layer
 62
256
 66
   1
 39
0.000000
 70
    1
  0
VERTEX
  8
0
 10
-225.98016340
 20
-1.20006851
  0
VERTEX
  8
0
 10
-224.29048716
 20
-2.24832752
  0
VERTEX
  8
0
 10
-224.56538026
 20
-0.90318397
  0
VERTEX
  8
0
 10
-225.98016340
 20
-1.20006851
  0
SEQEND
  0
POLYLINE
  8
Default_Layer
 62
256
 66
   1
 39
0.000000
 70
    1
  0
VERTEX
  8
0
 10
-221.74680970
 20
3.22387773
 42
-0.07912676
  0
VERTEX
  8
0
 10
-221.96672418
 20
2.20494065
 42
-0.36952580
  0
VERTEX
  8
0
 10
-221.84420392
 20
1.77584270
 42
-0.36952580
  0
VERTEX
  8
0
 10
-222.24925320
 20
1.58856924
 42
-0.01338528
  0
VERTEX
  8
0
 10
-227.28636377
 20
1.60235207
 42
-0.56612172
  0
VERTEX
  8
0
 10
-227.59378588
 20
2.20219172
 42
-0.12798998
  0
VERTEX
  8
0
 10
-226.88381198
 20
2.23193015
  0
VERTEX
  8
0
 10
-225.31675472
 20
2.21593637
 42
-0.32239398
  0
VERTEX
  8
0
 10
-225.45947006
 20
4.29786979
 42
-0.43921611
  0
VERTEX
  8
0
 10
-222.31364786
 20
4.54748799
 42
-0.19591784
  0
VERTEX
  8
0
 10
-221.74680970
 20
3.22387773
  0
SEQEND
  0
POLYLINE
  8
Default_Layer
 62
256
 66
   1
 39
0.000000
 70
    1
  0
VERTEX
  8
0
 10
-225.05652259
 20
3.36315690
 42
0.18481057
  0
VERTEX
  8
0
 10
-224.50067465
 20
2.21931967
 42
0.04192711
  0
VERTEX
  8
0
 10
-222.70876894
 20
2.24209287
 42
0.26110393
  0
VERTEX
  8
0
 10
-222.63013286
 20
3.87262544
 42
0.33145268
  0
VERTEX
  8
0
 10
-224.29264049
 20
4.35116851
 42
0.32482316
  0
VERTEX
  8
0
 10
-225.05652259
 20
3.36315690
  0
SEQEND
  0
POLYLINE
  8
Default_Layer
 62
256
 66
   1
 39
0.000000
 70
    1
  0
VERTEX
  8
0
 10
-225.13715790
 20
9.34116545
 42
0.03024763
  0
VERTEX
  8
0
 10
-222.06476939
 20
9.40530717
 42
-0.36190272
  0
VERTEX
  8
0
 10
-221.81346829
 20
9.06399017
 42
-0.36190272
  0
VERTEX
  8
0
 10
-222.10371257
 20
8.75510864
 42
0.10196024
  0
VERTEX
  8
0
 10
-221.90667061
 20
8.36649321
 42
-0.60229921
  0
VERTEX
  8
0
 10
-223.80952070
 20
5.85052950
 42
-0.38803586
  0
VERTEX
  8
0
 10
-225.70746086
 20
7.52635559
 42
-0.22012279
  0
VERTEX
  8
0
 10
-225.33874617
 20
8.69974823
 42
-0.03545512
  0
VERTEX
  8
0
 10
-227.55965332
 20
8.85941530
 42
-0.39481502
  0
VERTEX
  8
0
 10
-227.68882093
 20
9.31862937
 42
-0.39481502
  0
VERTEX
  8
0
 10
-227.23923420
 20
9.47810853
  0
VERTEX
  8
0
 10
-225.13715790
 20
9.34116545
  0
SEQEND
  0
POLYLINE
  8
Default_Layer
 62
256
 66
   1
 39
0.000000
 70
    1
  0
VERTEX
  8
0
 10
-225.04186163
 20
7.71379832
 42
0.40046516
  0
VERTEX
  8
0
 10
-223.99138233
 20
6.51484150
 42
0.48898288
  0
VERTEX
  8
0
 10
-222.42724648
 20
7.62751243
 42
0.24324829
  0
VERTEX
  8
0
 10
-222.98072728
 20
8.63701621
 42
0.02673960
  0
VERTEX
  8
0
 10
-224.48798728
 20
8.61248729
 42
0.27800058
  0
VERTEX
  8
0
 10
-225.04186163
 20
7.71379832
  0
SEQEND
  0
POLYLINE
  8
Default_Layer
 62
256
 66
   1
 39
0.000000
 70
    1
  0
VERTEX
  8
0
 10
-221.73214874
 20
12.08643118
 42
-0.28486514
  0
VERTEX
  8
0
 10
-222.65356422
 20
10.34940134
 42
-0.30963251
  0
VERTEX
  8
0
 10
-225.36257024
 20
10.95742232
 42
-0.32752297
  0
VERTEX
  8
0
 10
-225.38227091
 20
13.18760711
 42
-0.55523338
  0
VERTEX
  8
0
 10
-223.97894165
 20
12.84513613
 42
-0.01333509
  0
VERTEX
  8
0
 10
-223.00765271
 20
10.86224059
 42
0.31973981
  0
VERTEX
  8
0
 10
-222.47553821
 20
12.61186970
 42
0.15090424
  0
VERTEX
  8
0
 10
-222.96275350
 20
13.38957718
 42
-0.36292631
  0
VERTEX
  8
0
 10
-222.79789105
 20
13.80104327
 42
-0.36292631
  0
VERTEX
  8
0
 10
-222.36371563
 20
13.71173662
 42
-0.19376630
  0
VERTEX
  8
0
 10
-221.73214874
 20
12.08643118
  0
SEQEND
  0
POLYLINE
  8
Default_Layer
 62
256
 66
   1
 39
0.000000
 70
    1
  0
VERTEX
  8
0
 10
-225.07118356
 20
11.98746967
 42
0.34464366
  0
VERTEX
  8
0
 10
-224.05647560
 20
10.91327203
  0
VERTEX
  8
0
 10
-223.68205711
 20
10.79993149
 42
0.04356306
  0
VERTEX
  8
0
 10
-224.77796425
 20
12.87079282
 42
0.17454525
  0
VERTEX
  8
0
 10
-225.07118356
 20
11.98746967
  0
SEQEND
  0
POLYLINE
  8
Default_Layer
 62
256
 66
   1
 39
0.000000
 70
    1
  0
VERTEX
  8
0
 10
-224.78162950
 20
15.41813552
 42
-0.02227777
  0
VERTEX
  8
0
 10
-221.94931428
 20
15.29764071
 42
-0.39389573
  0
VERTEX
  8
0
 10
-221.79109962
 20
14.81167979
 42
-0.39389573
  0
VERTEX
  8
0
 10
-222.26483047
 20
14.61992741
 42
-0.00285373
  0
VERTEX
  8
0
 10
-227.59195326
 20
14.75518500
 42
-0.39341182
  0
VERTEX
  8
0
 10
-227.75030383
 20
15.25849090
 42
-0.39341182
  0
VERTEX
  8
0
 10
-227.25960411
 20
15.45241231
  0
VERTEX
  8
0
 10
-224.78162950
 20
15.41813552
  0
SEQEND
  0
POLYLINE
  8
Default_Layer
 62
256
 66
   1
 39
0.000000
 70
    1
  0
VERTEX
  8
0
 10
-221.67350488
 20
19.61117156
 42
-0.38732780
  0
VERTEX
  8
0
 10
-222.17166353
 20
19.23071951
 42
-0.04569765
  0
VERTEX
  8
0
 10
-224.55896609
 20
19.04718256
 42
0.46874724
  0
VERTEX
  8
0
 10
-224.93075900
 20
18.58824853
 42
0.24238791
  0
VERTEX
  8
0
 10
-223.97684177
 20
17.53687407
 42
0.17491534
  0
VERTEX
  8
0
 10
-223.35458816
 20
17.36991723
 42
-0.08264288
  0
VERTEX
  8
0
 10
-222.00948533
 20
17.23263358
 42
-0.40053909
  0
VERTEX
  8
0
 10
-221.89483372
 20
16.73965229
 42
-0.40053909
  0
VERTEX
  8
0
 10
-222.38189606
 20
16.60200846
 42
0.02027662
  0
VERTEX
  8
0
 10
-226.97490989
 20
16.65943057
 42
-0.19520416
  0
VERTEX
  8
0
 10
-227.65105527
 20
16.70967492
 42
-0.33204924
  0
VERTEX
  8
0
 10
-227.70342830
 20
17.16976833
 42
-0.33204924
  0
VERTEX
  8
0
 10
-227.27723590
 20
17.35084545
 42
-0.02445007
  0
VERTEX
  8
0
 10
-225.05426706
 20
17.35140933
  0
VERTEX
  8
0
 10
-224.88059101
 20
17.35338292
 42
-0.32778496
  0
VERTEX
  8
0
 10
-225.60658368
 20
19.16749410
 42
-0.30923805
  0
VERTEX
  8
0
 10
-224.64362519
 20
19.71347960
 42
0.01862114
  0
VERTEX
  8
0
 10
-222.00230757
 20
19.98044462
 42
-0.37923896
  0
VERTEX
  8
0
 10
-221.67350488
 20
19.61117156
  0
SEQEND
  0
POLYLINE
  8
Default_Layer
 62
256
 66
   1
 39
0.000000
 70
    1
  0
VERTEX
  8
0
 10
-221.65884391
 20
23.74189850
 42
-0.09099035
  0
VERTEX
  8
0
 10
-222.08767714
 20
23.24342568
 42
-0.14256290
  0
VERTEX
  8
0
 10
-221.71883529
 20
21.96521321
 42
-0.38574698
  0
VERTEX
  8
0
 10
-223.02225640
 20
20.60163143
 42
-0.43977964
  0
VERTEX
  8
0
 10
-225.70408449
 20
22.38360320
 42
-0.26329882
  0
VERTEX
  8
0
 10
-225.20702656
 20
23.80604022
 42
-0.13742224
  0
VERTEX
  8
0
 10
-224.77101959
 20
23.74845735
 42
0.10691601
  0
VERTEX
  8
0
 10
-222.71338619
 20
23.81153808
 42
-0.04849222
  0
VERTEX
  8
0
 10
-221.95145234
 20
24.07421371
 42
-0.36496745
  0
VERTEX
  8
0
 10
-221.65884391
 20
23.74189850
  0
SEQEND
  0
POLYLINE
  8
Default_Layer
 62
256
 66
   1
 39
0.000000
 70
    1
  0
VERTEX
  8
0
 10
-224.20618661
 20
22.97952831
 42
0.04328635
  0
VERTEX
  8
0
 10
-224.95222982
 20
23.03883858
 42
0.34201231
  0
VERTEX
  8
0
 10
-224.68091172
 20
21.76159917
 42
0.33557252
  0
VERTEX
  8
0
 10
-222.64479382
 20
21.49144034
 42
0.41464313
  0
VERTEX
  8
0
 10
-222.61913713
 20
22.92146317
 42
0.30821449
  0
VERTEX
  8
0
 10
-222.82389322
 20
23.08927611
 42
-0.01888153
  0
VERTEX
  8
0
 10
-224.20618661
 20
22.97952831
  0
SEQEND
  0
POLYLINE
  8
Default_Layer
 62
256
 66
   1
 39
0.000000
 70
    1
  0
VERTEX
  8
0
 10
-225.13715790
 20
28.09620516
 42
0.03024763
  0
VERTEX
  8
0
 10
-222.06476939
 20
28.16034688
 42
-0.36190272
  0
VERTEX
  8
0
 10
-221.81346829
 20
27.81902987
 42
-0.36190272
  0
VERTEX
  8
0
 10
-222.10371257
 20
27.51014835
 42
0.10196024
  0
VERTEX
  8
0
 10
-221.90667061
 20
27.12153292
 42
-0.60229921
  0
VERTEX
  8
0
 10
-223.80952070
 20
24.60556921
 42
-0.38803586
  0
VERTEX
  8
0
 10
-225.70746086
 20
26.28139529
 42
-0.22012279
  0
VERTEX
  8
0
 10
-225.33874617
 20
27.45478793
 42
-0.03545512
  0
VERTEX
  8
0
 10
-227.55965332
 20
27.61445501
 42
-0.39481502
  0
VERTEX
  8
0
 10
-227.68882093
 20
28.07366908
 42
-0.39481502
  0
VERTEX
  8
0
 10
-227.23923420
 20
28.23314824
  0
VERTEX
  8
0
 10
-225.13715790
 20
28.09620516
  0
SEQEND
  0
POLYLINE
  8
Default_Layer
 62
256
 66
   1
 39
0.000000
 70
    1
  0
VERTEX
  8
0
 10
-225.04186163
 20
26.46883802
 42
0.40046516
  0
VERTEX
  8
0
 10
-223.99138233
 20
25.26988121
 42
0.48898288
  0
VERTEX
  8
0
 10
-222.42724648
 20
26.38255213
 42
0.24324829
  0
VERTEX
  8
0
 10
-222.98072728
 20
27.39205592
 42
0.02673960
  0
VERTEX
  8
0
 10
-224.48798728
 20
27.36752699
 42
0.27800058
  0
VERTEX
  8
0
 10
-225.04186163
 20
26.46883802
  0
SEQEND
  0
POLYLINE
  8
Default_Layer
 62
256
 66
   1
 39
0.000000
 70
    1
  0
VERTEX
  8
0
 10
-225.17014507
 20
32.34055458
 42
0.02251805
  0
VERTEX
  8
0
 10
-220.22597103
 20
30.17451521
 42
-0.26543604
  0
VERTEX
  8
0
 10
-219.80789706
 20
29.87099644
 42
-0.66768055
  0
VERTEX
  8
0
 10
-220.37596781
 20
29.44967881
 42
-0.02557430
  0
VERTEX
  8
0
 10
-222.25261300
 20
30.19638842
 42
-0.01279740
  0
VERTEX
  8
0
 10
-225.28529474
 20
28.62858146
 42
-0.39019992
  0
VERTEX
  8
0
 10
-225.68276330
 20
28.95546532
 42
-0.39019992
  0
VERTEX
  8
0
 10
-225.38982051
 20
29.37857150
 42
-0.03537071
  0
VERTEX
  8
0
 10
-223.11394471
 20
30.59223448
 42
-0.04251155
  0
VERTEX
  8
0
 10
-225.59286957
 20
31.77447842
 42
-0.37662007
  0
VERTEX
  8
0
 10
-225.62994153
 20
32.24303788
 42
-0.37662007
  0
VERTEX
  8
0
 10
-225.17014507
 20
32.34055458
  0
SEQEND
  0
POLYLINE
  8
Default_Layer
 62
256
 66
   1
 39
0.000000
 70
    1
  0
VERTEX
  8
0
 10
-165.21782178
 20
46.75495050
  0
VERTEX
  8
0
 10
-210.21782178
 20
46.75495050
  0
VERTEX
  8
0
 10
-210.21782178
 20
116.75495050
  0
VERTEX
  8
0
 10
-165.21782178
 20
116.75495050
  0
VERTEX
  8
0
 10
-165.21782178
 20
46.75495050
  0
SEQEND
  0
POLYLINE
  8
Default_Layer
 62
256
 66
   1
 39
0.000000
 70
    1
  0
VERTEX
  8
0
 10
-237.71782178
 20
204.75495050
  0
VERTEX
  8
0
 10
-218.46782178
 20
204.75495050
  0
VERTEX
  8
0
 10
-218.46782178
 20
206.75495050
  0
VERTEX
  8
0
 10
-197.96782178
 20
206.75495050
  0
VERTEX
  8
0
 10
-197.96782178
 20
204.75495050
  0
VERTEX
  8
0
 10
-177.46782178
 20
204.75495050
  0
VERTEX
  8
0
 10
-177.46782178
 20
206.75495050
  0
VERTEX
  8
0
 10
-156.96782178
 20
206.75495050
  0
VERTEX
  8
0
 10
-156.96782178
 20
204.75495050
  0
VERTEX
  8
0
 10
-137.71782178
 20
204.75495050
  0
VERTEX
  8
0
 10
-137.71782178
 20
194.50495050
  0
VERTEX
  8
0
 10
-137.71782178
 20
174.00495050
  0
VERTEX
  8
0
 10
-139.71782178
 20
174.00495050
  0
VERTEX
  8
0
 10
-139.71782178
 20
153.50495050
  0
VERTEX
  8
0
 10
-137.71782178
 20
153.50495050
  0
VERTEX
  8
0
 10
-137.71782178
 20
133.00495050
  0
VERTEX
  8
0
 10
-139.71782178
 20
133.00495050
  0
VERTEX
  8
0
 10
-139.71782178
 20
112.50495050
  0
VERTEX
  8
0
 10
-137.71782178
 20
112.50495050
  0
VERTEX
  8
0
 10
-137.71782178
 20
92.00495050
  0
VERTEX
  8
0
 10
-139.71782178
 20
92.00495050
  0
VERTEX
  8
0
 10
-139.71782178
 20
71.50495050
  0
VERTEX
  8
0
 10
-137.71782178
 20
71.50495050
  0
VERTEX
  8
0
 10
-137.71782178
 20
51.00495050
  0
VERTEX
  8
0
 10
-139.71782178
 20
51.00495050
  0
VERTEX
  8
0
 10
-139.71782178
 20
30.50495050
  0
VERTEX
  8
0
 10
-137.71782178
 20
30.50495050
  0
VERTEX
  8
0
 10
-137.71782178
 20
10.00495050
  0
VERTEX
  8
0
 10
-139.71782178
 20
10.00495050
  0
VERTEX
  8
0
 10
-139.71782178
 20
-10.49504950
  0
VERTEX
  8
0
 10
-137.71782178
 20
-10.49504950
  0
VERTEX
  8
0
 10
-137.71782178
 20
-41.24504950
  0
VERTEX
  8
0
 10
-156.96782178
 20
-41.24504950
  0
VERTEX
  8
0
 10
-156.96782178
 20
-43.24504950
  0
VERTEX
  8
0
 10
-177.46782178
 20
-43.24504950
  0
VERTEX
  8
0
 10
-177.46782178
 20
-41.24504950
  0
VERTEX
  8
0
 10
-197.96782178
 20
-41.24504950
  0
VERTEX
  8
0
 10
-197.96782178
 20
-43.24504950
  0
VERTEX
  8
0
 10
-218.46782178
 20
-43.24504950
  0
VERTEX
  8
0
 10
-218.46782178
 20
-41.24504950
  0
VERTEX
  8
0
 10
-237.71782178
 20
-41.24504950
  0
VERTEX
  8
0
 10
-237.71782178
 20
-30.99504950
  0
VERTEX
  8
0
 10
-237.71782178
 20
-10.49504950
  0
VERTEX
  8
0
 10
-235.71782178
 20
-10.49504950
  0
VERTEX
  8
0
 10
-235.71782178
 20
10.00495050
  0
VERTEX
  8
0
 10
-237.71782178
 20
10.00495050
  0
VERTEX
  8
0
 10
-237.71782178
 20
30.50495050
  0
VERTEX
  8
0
 10
-235.71782178
 20
30.50495050
  0
VERTEX
  8
0
 10
-235.71782178
 20
51.00495050
  0
VERTEX
  8
0
 10
-237.71782178
 20
51.00495050
  0
VERTEX
  8
0
 10
-237.71782178
 20
71.50495050
  0
VERTEX
  8
0
 10
-235.71782178
 20
71.50495050
  0
VERTEX
  8
0
 10
-235.71782178
 20
92.00495050
  0
VERTEX
  8
0
 10
-237.71782178
 20
92.00495050
  0
VERTEX
  8
0
 10
-237.71782178
 20
112.50495050
  0
VERTEX
  8
0
 10
-235.71782178
 20
112.50495050
  0
VERTEX
  8
0
 10
-235.71782178
 20
133.00495050
  0
VERTEX
  8
0
 10
-237.71782178
 20
133.00495050
  0
VERTEX
  8
0
 10
-237.71782178
 20
153.50495050
  0
VERTEX
  8
0
 10
-235.71782178
 20
153.50495050
  0
VERTEX
  8
0
 10
-235.71782178
 20
174.00495050
  0
VERTEX
  8
0
 10
-237.71782178
 20
174.00495050
  0
VERTEX
  8
0
 10
-237.71782178
 20
204.75495050
  0
SEQEND
  0
POLYLINE
  8
Default_Layer
 62
256
 66
   1
 39
0.000000
 70
    1
  0
VERTEX
  8
0
 10
-478.00000000
 20
-41.46039604
  0
VERTEX
  8
0
 10
-478.00000000
 20
173.53960396
  0
VERTEX
  8
0
 10
-348.00000000
 20
173.53960396
  0
VERTEX
  8
0
 10
-348.00000000
 20
-41.46039604
  0
VERTEX
  8
0
 10
-478.00000000
 20
-41.46039604
  0
SEQEND
  0
CIRCLE
  8
Default_Layer
 62
256
 10
-454.249843
 20
152.840252
 40
5.000000
  0
CIRCLE
  8
Default_Layer
 62
256
 10
-454.249843
 20
127.840252
 40
4.000000
  0
CIRCLE
  8
Default_Layer
 62
256
 10
-454.249843
 20
102.840252
 40
2.500000
  0
CIRCLE
  8
Default_Layer
 62
256
 10
-434.249843
 20
152.840252
 40
5.000000
  0
CIRCLE
  8
Default_Layer
 62
256
 10
-434.249843
 20
127.840252
 40
4.000000
  0
CIRCLE
  8
Default_Layer
 62
256
 10
-434.249843
 20
102.840252
 40
2.500000
  0
CIRCLE
  8
Default_Layer
 62
256
 10
-404.249843
 20
152.840252
 40
10.000000
  0
CIRCLE
  8
Default_Layer
 62
256
 10
-404.249843
 20
127.840252
 40
4.000000
  0
CIRCLE
  8
Default_Layer
 62
256
 10
-404.249843
 20
102.840252
 40
2.500000
  0
ENDSEC
  0
EOF
