0
SECTION
2
HEADER
9
$INSUNITS
70
4
0
ENDSEC
0
SECTION
2
TABLES
0
TABLE
2
LTYPE
0
LTYPE
72
65
70
64
2
CONTINUOUS
3
______
73
0
40
0
0
ENDTAB
0
TABLE
2
LAYER
0
ENDTAB
0
ENDSEC
0
SECTION
2
ENTITIES
0
LINE
8
front_outsideCutPath
10
0
20
103
11
0
21
83.75
0
LINE
8
front_outsideCutPath
10
0
20
83.75
11
2
21
83.75
0
LINE
8
front_outsideCutPath
10
2
20
83.75
11
2
21
63.25
0
LINE
8
front_outsideCutPath
10
2
20
63.25
11
0
21
63.25
0
LINE
8
front_outsideCutPath
10
0
20
63.25
11
0
21
42.75
0
LINE
8
front_outsideCutPath
10
0
20
42.75
11
2
21
42.75
0
LINE
8
front_outsideCutPath
10
2
20
42.75
11
2
21
22.25
0
LINE
8
front_outsideCutPath
10
2
20
22.25
11
0
21
22.25
0
LINE
8
front_outsideCutPath
10
0
20
22.25
11
0
21
3
0
LINE
8
front_outsideCutPath
10
0
20
3
11
21.25
21
3
0
LINE
8
front_outsideCutPath
10
21.25
20
3
11
21.25
21
5
0
LINE
8
front_outsideCutPath
10
21.25
20
5
11
41.75
21
5
0
LINE
8
front_outsideCutPath
10
41.75
20
5
11
41.75
21
3
0
LINE
8
front_outsideCutPath
10
41.75
20
3
11
62.25
21
3
0
LINE
8
front_outsideCutPath
10
62.25
20
3
11
62.25
21
5
0
LINE
8
front_outsideCutPath
10
62.25
20
5
11
82.75
21
5
0
LINE
8
front_outsideCutPath
10
82.75
20
5
11
82.75
21
3
0
LINE
8
front_outsideCutPath
10
82.75
20
3
11
103.25
21
3
0
LINE
8
front_outsideCutPath
10
103.25
20
3
11
103.25
21
5
0
LINE
8
front_outsideCutPath
10
103.25
20
5
11
123.75
21
5
0
LINE
8
front_outsideCutPath
10
123.75
20
5
11
123.75
21
3
0
LINE
8
front_outsideCutPath
10
123.75
20
3
11
144.25
21
3
0
LINE
8
front_outsideCutPath
10
144.25
20
3
11
144.25
21
5
0
LINE
8
front_outsideCutPath
10
144.25
20
5
11
164.75
21
5
0
LINE
8
front_outsideCutPath
10
164.75
20
5
11
164.75
21
3
0
LINE
8
front_outsideCutPath
10
164.75
20
3
11
185.25
21
3
0
LINE
8
front_outsideCutPath
10
185.25
20
3
11
185.25
21
5
0
LINE
8
front_outsideCutPath
10
185.25
20
5
11
205.75
21
5
0
LINE
8
front_outsideCutPath
10
205.75
20
5
11
205.75
21
3
0
LINE
8
front_outsideCutPath
10
205.75
20
3
11
226.25
21
3
0
LINE
8
front_outsideCutPath
10
226.25
20
3
11
226.25
21
5
0
LINE
8
front_outsideCutPath
10
226.25
20
5
11
246.75
21
5
0
LINE
8
front_outsideCutPath
10
246.75
20
5
11
246.75
21
3
0
LINE
8
front_outsideCutPath
10
246.75
20
3
11
267.25
21
3
0
LINE
8
front_outsideCutPath
10
267.25
20
3
11
267.25
21
5
0
LINE
8
front_outsideCutPath
10
267.25
20
5
11
287.75
21
5
0
LINE
8
front_outsideCutPath
10
287.75
20
5
11
287.75
21
3
0
LINE
8
front_outsideCutPath
10
287.75
20
3
11
308.25
21
3
0
LINE
8
front_outsideCutPath
10
308.25
20
3
11
308.25
21
5
0
LINE
8
front_outsideCutPath
10
308.25
20
5
11
328.75
21
5
0
LINE
8
front_outsideCutPath
10
328.75
20
5
11
328.75
21
3
0
LINE
8
front_outsideCutPath
10
328.75
20
3
11
350
21
3
0
LINE
8
front_outsideCutPath
10
350
20
3
11
350
21
22.25
0
LINE
8
front_outsideCutPath
10
350
20
22.25
11
348
21
22.25
0
LINE
8
front_outsideCutPath
10
348
20
22.25
11
348
21
42.75
0
LINE
8
front_outsideCutPath
10
348
20
42.75
11
350
21
42.75
0
LINE
8
front_outsideCutPath
10
350
20
42.75
11
350
21
63.25
0
LINE
8
front_outsideCutPath
10
350
20
63.25
11
348
21
63.25
0
LINE
8
front_outsideCutPath
10
348
20
63.25
11
348
21
83.75
0
LINE
8
front_outsideCutPath
10
348
20
83.75
11
350
21
83.75
0
LINE
8
front_outsideCutPath
10
350
20
83.75
11
350
21
103
0
LINE
8
front_outsideCutPath
10
350
20
103
11
328.75
21
103
0
LINE
8
front_outsideCutPath
10
328.75
20
103
11
328.75
21
101
0
LINE
8
front_outsideCutPath
10
328.75
20
101
11
308.25
21
101
0
LINE
8
front_outsideCutPath
10
308.25
20
101
11
308.25
21
103
0
LINE
8
front_outsideCutPath
10
308.25
20
103
11
287.75
21
103
0
LINE
8
front_outsideCutPath
10
287.75
20
103
11
287.75
21
101
0
LINE
8
front_outsideCutPath
10
287.75
20
101
11
267.25
21
101
0
LINE
8
front_outsideCutPath
10
267.25
20
101
11
267.25
21
103
0
LINE
8
front_outsideCutPath
10
267.25
20
103
11
246.75
21
103
0
LINE
8
front_outsideCutPath
10
246.75
20
103
11
246.75
21
101
0
LINE
8
front_outsideCutPath
10
246.75
20
101
11
226.25
21
101
0
LINE
8
front_outsideCutPath
10
226.25
20
101
11
226.25
21
103
0
LINE
8
front_outsideCutPath
10
226.25
20
103
11
205.75
21
103
0
LINE
8
front_outsideCutPath
10
205.75
20
103
11
205.75
21
101
0
LINE
8
front_outsideCutPath
10
205.75
20
101
11
185.25
21
101
0
LINE
8
front_outsideCutPath
10
185.25
20
101
11
185.25
21
103
0
LINE
8
front_outsideCutPath
10
185.25
20
103
11
164.75
21
103
0
LINE
8
front_outsideCutPath
10
164.75
20
103
11
164.75
21
101
0
LINE
8
front_outsideCutPath
10
164.75
20
101
11
144.25
21
101
0
LINE
8
front_outsideCutPath
10
144.25
20
101
11
144.25
21
103
0
LINE
8
front_outsideCutPath
10
144.25
20
103
11
123.75
21
103
0
LINE
8
front_outsideCutPath
10
123.75
20
103
11
123.75
21
101
0
LINE
8
front_outsideCutPath
10
123.75
20
101
11
103.25
21
101
0
LINE
8
front_outsideCutPath
10
103.25
20
101
11
103.25
21
103
0
LINE
8
front_outsideCutPath
10
103.25
20
103
11
82.75
21
103
0
LINE
8
front_outsideCutPath
10
82.75
20
103
11
82.75
21
101
0
LINE
8
front_outsideCutPath
10
82.75
20
101
11
62.25
21
101
0
LINE
8
front_outsideCutPath
10
62.25
20
101
11
62.25
21
103
0
LINE
8
front_outsideCutPath
10
62.25
20
103
11
41.75
21
103
0
LINE
8
front_outsideCutPath
10
41.75
20
103
11
41.75
21
101
0
LINE
8
front_outsideCutPath
10
41.75
20
101
11
21.25
21
101
0
LINE
8
front_outsideCutPath
10
21.25
20
101
11
21.25
21
103
0
LINE
8
front_outsideCutPath
10
21.25
20
103
11
0
21
103
0
LINE
8
front_labelLayer
10
158.4326172
20
56.1496257
11
158.4326172
21
54.8898601
0
LINE
8
front_labelLayer
10
158.4326172
20
54.8898601
11
155.7080078
21
54.8898601
0
LINE
8
front_labelLayer
10
155.7080078
20
54.8898601
11
155.7080078
21
45.4465007
0
LINE
8
front_labelLayer
10
155.7080078
20
45.4465007
11
154.0869141
21
45.4465007
0
LINE
8
front_labelLayer
10
154.0869141
20
45.4465007
11
154.0869141
21
54.8898601
0
LINE
8
front_labelLayer
10
154.0869141
20
54.8898601
11
152.1728516
21
54.8898601
0
LINE
8
front_labelLayer
10
152.1728516
20
54.8898601
11
152.1728516
21
55.622282
0
LINE
8
front_labelLayer
10
152.1728516
20
55.622282
11
154.0869141
21
56.2082195
0
LINE
8
front_labelLayer
10
154.0869141
20
56.2082195
11
154.0869141
21
56.8039226
0
LINE
8
front_labelLayer
10
159.5263672
20
60.4074382
11
159.1064453
21
59.1086101
0
LINE
8
front_labelLayer
10
155.7080078
20
56.8429851
11
155.7080078
21
56.1496257
0
LINE
8
front_labelLayer
10
155.7080078
20
56.1496257
11
158.4326172
21
56.1496257
0
ARC
8
front_labelLayer
10
160.656643
20
56.8794516
40
6.5701631
50
167.5776019
51
180.6586728
0
ARC
8
front_labelLayer
10
157.5671365
20
57.5997452
40
3.3982616
50
141.7433952
51
168.2322111
0
ARC
8
front_labelLayer
10
157.0641015
20
57.8622911
40
2.8426424
50
98.25515
51
139.620332
0
ARC
8
front_labelLayer
10
157.5057745
20
55.821935
40
4.9273822
50
89.6697013
51
99.9314429
0
ARC
8
front_labelLayer
10
157.507007
20
55.5290279
40
5.2202779
50
81.5640782
51
89.7017613
0
ARC
8
front_labelLayer
10
157.1400146
20
52.9686645
40
7.8067887
50
75.9739836
51
81.6564925
0
ARC
8
front_labelLayer
10
156.5101857
20
50.3562892
40
10.4939481
50
73.2963798
51
76.0945964
0
ARC
8
front_labelLayer
10
156.6688282
20
51.6235867
40
7.8719472
50
71.9613356
51
76.5918517
0
ARC
8
front_labelLayer
10
157.2795384
20
54.2142902
40
5.2102479
50
76.5183435
51
83.0217048
0
ARC
8
front_labelLayer
10
157.4922705
20
55.9250858
40
3.4862815
50
83.076037
51
89.7927205
0
ARC
8
front_labelLayer
10
157.485268
20
57.2252028
40
2.1862297
50
89.4859359
51
103.4197073
0
ARC
8
front_labelLayer
10
157.2881641
20
57.9824617
40
1.4039934
50
102.7677419
51
144.3380185
0
ARC
8
front_labelLayer
10
157.6852455
20
57.7269769
40
1.875711
50
145.0688682
51
162.1801871
0
ARC
8
front_labelLayer
10
159.0467165
20
57.2689105
40
3.3121003
50
161.8437828
51
171.7846792
0
ARC
8
front_labelLayer
10
161.2672892
20
56.9353905
40
5.5575582
50
171.6528007
51
178.4383441
0
ARC
8
front_labelLayer
10
163.3619741
20
56.8460803
40
7.6539668
50
178.1973669
51
180.0231697
0
LINE
8
front_labelLayer
10
166.5478516
20
56.2277507
11
166.3232422
21
54.7238445
0
LINE
8
front_labelLayer
10
162.0068359
20
51.1886882
11
162.0068359
21
45.4465007
0
LINE
8
front_labelLayer
10
162.0068359
20
45.4465007
11
160.3857422
21
45.4465007
0
LINE
8
front_labelLayer
10
160.3857422
20
45.4465007
11
160.3857422
21
56.1496257
0
LINE
8
front_labelLayer
10
160.3857422
20
56.1496257
11
161.7236328
21
56.1496257
0
LINE
8
front_labelLayer
10
161.7236328
20
56.1496257
11
161.9091797
21
54.1672038
0
LINE
8
front_labelLayer
10
161.9091797
20
54.1672038
11
161.9873047
21
54.1672038
0
ARC
8
front_labelLayer
10
165.2851918
20
48.9027457
40
7.4422111
50
84.992291
51
90.1280853
0
ARC
8
front_labelLayer
10
165.4639204
20
50.9052003
40
5.4317999
50
78.4891881
51
85.0266001
0
ARC
8
front_labelLayer
10
164.7702105
20
47.7500366
40
7.1446416
50
77.4453847
51
81.6360114
0
ARC
8
front_labelLayer
10
165.081499
20
49.8956981
40
4.9765227
50
81.5884291
51
87.1916446
0
ARC
8
front_labelLayer
10
165.1491097
20
51.067975
40
3.8023544
50
87.3437351
51
89.9659832
0
ARC
8
front_labelLayer
10
165.1334016
20
52.0615111
40
2.8088752
50
89.6335332
51
137.0880824
0
ARC
8
front_labelLayer
10
165.8226335
20
51.2864292
40
3.8426618
50
135.6208614
51
138.8378137
0
ARC
8
front_labelLayer
10
165.7217405
20
51.3849151
40
3.7018901
50
138.9575794
51
174.5422254
0
ARC
8
front_labelLayer
10
166.9274083
20
51.1962675
40
4.9205781
50
173.6907914
51
180.0882543
0
ARC
8
front_labelLayer
10
166.7569048
20
51.4800333
40
5.4744836
50
139.4139283
51
150.6032915
0
ARC
8
front_labelLayer
10
165.7753331
20
52.3211361
40
4.1818363
50
124.2321574
51
139.4160923
0
ARC
8
front_labelLayer
10
165.2504874
20
53.1133863
40
3.2316024
50
89.6796684
51
124.4405593
0
ARC
8
front_labelLayer
10
169.4146558
20
50.7513789
40
8.3736204
50
349.1761945
51
0.3862568
0
ARC
8
front_labelLayer
10
172.233861
20
50.1893655
40
5.4990771
50
330.2507047
51
349.4116462
0
ARC
8
front_labelLayer
10
173.1014695
20
49.7384163
40
4.5222197
50
318.143971
51
329.7566252
0
ARC
8
front_labelLayer
10
173.2580578
20
49.6129266
40
4.3218687
50
278.8959183
51
317.9979086
0
ARC
8
front_labelLayer
10
172.8545846
20
51.5460018
40
6.2948732
50
269.7502763
51
279.8033236
0
ARC
8
front_labelLayer
10
172.7891484
20
50.4568395
40
5.2057899
50
253.5436962
51
270.418238
0
ARC
8
front_labelLayer
10
172.6158547
20
49.7865
40
4.5138811
50
238.8115441
51
253.242846
0
ARC
8
front_labelLayer
10
172.5599298
20
49.6740366
40
4.3887236
50
207.7946962
51
238.6757996
0
ARC
8
front_labelLayer
10
173.3624169
20
50.165521
40
5.328149
50
205.6559791
51
208.4461025
0
ARC
8
front_labelLayer
10
173.9805701
20
50.4230902
40
5.9969824
50
188.9102503
51
205.3171481
0
ARC
8
front_labelLayer
10
176.0637213
20
50.7759072
40
8.1096824
50
179.7744696
51
189.0932788
0
ARC
8
front_labelLayer
10
176.3710103
20
50.8648393
40
8.4171018
50
169.244298
51
180.388077
0
ARC
8
front_labelLayer
10
173.512632
20
51.4298361
40
5.5035418
50
150.7111564
51
169.4695354
0
ARC
8
front_labelLayer
10
172.6001567
20
51.8984219
40
4.4786339
50
138.175962
51
150.2287147
0
ARC
8
front_labelLayer
10
172.4483586
20
52.0149094
40
4.2878596
50
99.175935
51
137.9832793
0
ARC
8
front_labelLayer
10
172.8661284
20
50.0488414
40
6.2961655
50
89.7326434
51
100.0759878
0
ARC
8
front_labelLayer
10
172.9496243
20
50.8979214
40
5.4472856
50
73.5222665
51
90.5692191
0
ARC
8
front_labelLayer
10
173.2690752
20
52.0585698
40
4.2437569
50
41.1445735
51
73.2133783
0
ARC
8
front_labelLayer
10
172.6592716
20
51.5344521
40
5.047824
50
13.5014302
51
41.0703483
0
ARC
8
front_labelLayer
10
170.3032818
20
50.9179214
40
7.4828084
50
1.1277281
51
13.8799962
0
ARC
8
front_labelLayer
10
168.2740157
20
50.8091812
40
9.5140701
50
359.991856
51
1.5419431
0
ARC
8
front_labelLayer
10
177.8428699
20
50.7657001
40
8.2091889
50
179.7059623
51
187.9160759
0
ARC
8
front_labelLayer
10
174.8319964
20
50.3331922
40
5.1674586
50
187.7639332
51
200.097688
0
ARC
8
front_labelLayer
10
173.1733168
20
49.7254495
40
3.4009457
50
200.0845876
51
216.9131503
0
ARC
8
front_labelLayer
10
172.5676242
20
49.2929573
40
2.6569704
50
217.300954
51
261.7099073
0
ARC
8
front_labelLayer
10
172.8488056
20
50.6347234
40
4.0261509
50
260.5033133
51
270.2476938
0
ARC
8
front_labelLayer
10
172.9024761
20
50.3738215
40
3.765386
50
269.4481646
51
284.7255643
0
ARC
8
front_labelLayer
10
173.2005593
20
49.2683253
40
2.620441
50
284.566235
51
322.6333878
0
ARC
8
front_labelLayer
10
172.5036256
20
49.771829
40
3.4799996
50
323.0089266
51
342.6390508
0
ARC
8
front_labelLayer
10
170.5102406
20
50.4233247
40
5.5770392
50
342.3615704
51
353.7537499
0
ARC
8
front_labelLayer
10
167.5693152
20
50.7778121
40
8.539136
50
353.5363189
51
0.2014064
0
ARC
8
front_labelLayer
10
168.0199545
20
50.8491138
40
8.0885493
50
359.7075543
51
7.8972827
0
ARC
8
front_labelLayer
10
170.9821889
20
51.2737785
40
5.0960791
50
7.7440005
51
20.0690174
0
ARC
8
front_labelLayer
10
172.6328814
20
51.8795201
40
3.3377565
50
20.0257107
51
37.4350558
0
ARC
8
front_labelLayer
10
173.1805665
20
52.2681496
40
2.6667491
50
37.9577645
51
80.400615
0
ARC
8
front_labelLayer
10
172.8693358
20
50.8794661
40
4.0885816
50
79.345353
51
90.3174962
0
ARC
8
front_labelLayer
10
172.8117054
20
51.110135
40
3.8580087
50
89.4805853
51
103.8805168
0
ARC
8
front_labelLayer
10
172.4875331
20
52.3445778
40
2.5819124
50
103.4685218
51
142.3118841
0
ARC
8
front_labelLayer
10
173.1177462
20
51.9013664
40
3.3517727
50
142.9025565
51
162.3749748
0
ARC
8
front_labelLayer
10
175.103562
20
51.239596
40
5.4448258
50
162.0652994
51
173.1674849
0
ARC
8
front_labelLayer
10
178.1999835
20
50.844664
40
8.5662738
50
173.0086063
51
180.2463739
0
LINE
8
front_labelLayer
10
189.5751953
20
45.4465007
11
187.9541016
21
45.4465007
0
LINE
8
front_labelLayer
10
187.9541016
20
45.4465007
11
187.9541016
21
52.3703288
0
LINE
8
front_labelLayer
10
182.2509766
20
51.0617351
11
182.2509766
21
45.4465007
0
LINE
8
front_labelLayer
10
182.2509766
20
45.4465007
11
180.6298828
21
45.4465007
0
LINE
8
front_labelLayer
10
180.6298828
20
45.4465007
11
180.6298828
21
56.1496257
0
LINE
8
front_labelLayer
10
180.6298828
20
56.1496257
11
181.9482422
21
56.1496257
0
LINE
8
front_labelLayer
10
181.9482422
20
56.1496257
11
182.2119141
21
54.684782
0
LINE
8
front_labelLayer
10
182.2119141
20
54.684782
11
182.2900391
21
54.684782
0
LINE
8
front_labelLayer
10
189.5751953
20
52.4289226
11
189.5751953
21
45.4465007
0
ARC
8
front_labelLayer
10
183.3717418
20
52.3966075
40
4.5824351
50
359.6714273
51
8.6877183
0
ARC
8
front_labelLayer
10
185.0701359
20
52.6659621
40
2.8628588
50
8.4931172
51
22.6580015
0
ARC
8
front_labelLayer
10
185.9330198
20
53.02455
40
1.9284334
50
22.7024538
51
42.3419526
0
ARC
8
front_labelLayer
10
186.0300148
20
53.0681813
40
1.8276521
50
43.3791036
51
71.5386098
0
ARC
8
front_labelLayer
10
185.6673083
20
52.0546881
40
2.9039368
50
71.0827882
51
84.3690971
0
ARC
8
front_labelLayer
10
185.5044967
20
50.6704319
40
4.2975682
50
84.0197499
51
90.1510883
0
ARC
8
front_labelLayer
10
185.458338
20
50.0618099
40
4.9062988
50
89.5932978
51
100.3717905
0
ARC
8
front_labelLayer
10
185.1116138
20
51.8809551
40
3.0544855
50
100.1176335
51
118.1602552
0
ARC
8
front_labelLayer
10
184.7622031
20
52.5661214
40
2.2855721
50
118.5439463
51
139.1926966
0
ARC
8
front_labelLayer
10
185.0668693
20
52.3616865
40
2.6501508
50
140.1519123
51
160.3146543
0
ARC
8
front_labelLayer
10
186.9066472
20
51.6725826
40
4.6146256
50
159.9534297
51
171.3801135
0
ARC
8
front_labelLayer
10
189.9119838
20
51.1894866
40
7.6584691
50
171.1765914
51
178.3217568
0
ARC
8
front_labelLayer
10
192.6360595
20
51.066023
40
10.3850839
50
178.081036
51
180.023657
0
ARC
8
front_labelLayer
10
185.0631665
20
52.9284684
40
3.2825102
50
116.9442851
51
147.6525642
0
ARC
8
front_labelLayer
10
185.404898
20
52.3568868
40
3.9471559
50
115.8072486
51
117.6067736
0
ARC
8
front_labelLayer
10
185.5795056
20
51.9497359
40
4.3897594
50
94.3226737
51
115.5454453
0
ARC
8
front_labelLayer
10
185.6845747
20
51.0369154
40
5.3080244
50
89.957883
51
94.7109208
0
ARC
8
front_labelLayer
10
185.7280003
20
49.9446895
40
6.4003708
50
80.5585506
51
90.3538166
0
ARC
8
front_labelLayer
10
186.1279828
20
52.2615523
40
4.0493058
50
65.1094299
51
80.7638171
0
ARC
8
front_labelLayer
10
186.5955424
20
53.2971868
40
2.9131021
50
46.5584519
51
64.8782266
0
ARC
8
front_labelLayer
10
186.6329642
20
53.405067
40
2.8094344
50
19.3848834
51
45.5997059
0
ARC
8
front_labelLayer
10
185.0076147
20
52.7952087
40
4.5452039
50
6.9633634
51
19.8363272
0
ARC
8
front_labelLayer
10
182.5008422
20
52.4581685
40
7.0744135
50
359.763136
51
7.21157
0
LINE
8
front_labelLayer
10
197.8271484
20
46.7843913
11
197.8271484
21
45.544157
0
LINE
8
front_labelLayer
10
193.0224609
20
48.5226726
11
193.0224609
21
54.8898601
0
LINE
8
front_labelLayer
10
193.0224609
20
54.8898601
11
191.4892578
21
54.8898601
0
LINE
8
front_labelLayer
10
191.4892578
20
54.8898601
11
191.4892578
21
55.6711101
0
LINE
8
front_labelLayer
10
191.4892578
20
55.6711101
11
193.0224609
21
56.3449382
0
LINE
8
front_labelLayer
10
193.0224609
20
56.3449382
11
193.7060547
21
58.6300945
0
LINE
8
front_labelLayer
10
193.7060547
20
58.6300945
11
194.6435547
21
58.6300945
0
LINE
8
front_labelLayer
10
194.6435547
20
58.6300945
11
194.6435547
21
56.1496257
0
LINE
8
front_labelLayer
10
194.6435547
20
56.1496257
11
197.7490234
21
56.1496257
0
LINE
8
front_labelLayer
10
197.7490234
20
56.1496257
11
197.7490234
21
54.8898601
0
LINE
8
front_labelLayer
10
197.7490234
20
54.8898601
11
194.6435547
21
54.8898601
0
LINE
8
front_labelLayer
10
194.6435547
20
54.8898601
11
194.6435547
21
48.591032
0
ARC
8
front_labelLayer
10
196.3734233
20
51.9129617
40
5.3238944
50
269.8803417
51
278.3028182
0
ARC
8
front_labelLayer
10
196.4230699
20
51.5056089
40
4.9136514
50
278.4158959
51
279.0076561
0
ARC
8
front_labelLayer
10
195.8267197
20
55.3151576
40
8.7695902
50
278.9589695
51
280.5103918
0
ARC
8
front_labelLayer
10
196.3960558
20
52.2602916
40
5.6621249
50
280.4847522
51
282.6268451
0
ARC
8
front_labelLayer
10
196.8953454
20
50.0421168
40
3.3884538
50
282.5876165
51
285.5795336
0
ARC
8
front_labelLayer
10
197.1470048
20
49.1168484
40
2.429599
50
285.7231888
51
286.2566654
0
ARC
8
front_labelLayer
10
197.145595
20
46.9856817
40
1.5945246
50
287.9888406
51
295.3048016
0
ARC
8
front_labelLayer
10
196.7610004
20
48.1492631
40
2.8200086
50
283.3069861
51
288.1197567
0
ARC
8
front_labelLayer
10
196.3547466
20
49.8438763
40
4.5626327
50
280.0069961
51
283.3735389
0
ARC
8
front_labelLayer
10
196.0829387
20
51.3189605
40
6.0625179
50
279.1862135
51
280.1142603
0
ARC
8
front_labelLayer
10
195.9160585
20
52.2681084
40
7.0261467
50
275.5260122
51
279.2939725
0
ARC
8
front_labelLayer
10
196.1040783
20
50.304196
40
5.0532558
50
270.8932457
51
275.5483966
0
ARC
8
front_labelLayer
10
196.1276861
20
49.4070606
40
4.1558726
50
270.0033586
51
270.7606301
0
ARC
8
front_labelLayer
10
196.0625135
20
49.4847407
40
4.2340578
50
253.784789
51
270.8852547
0
ARC
8
front_labelLayer
10
195.5608903
20
47.7740159
40
2.4513133
50
190.3817699
51
253.8772374
0
ARC
8
front_labelLayer
10
198.1176617
20
48.465321
40
5.0955236
50
179.3551054
51
192.8477577
0
ARC
8
front_labelLayer
10
197.9078539
20
48.5706171
40
3.2643631
50
179.6416773
51
189.7505556
0
ARC
8
front_labelLayer
10
196.7554639
20
48.3650768
40
2.093823
50
189.5479676
51
205.7873396
0
ARC
8
front_labelLayer
10
196.2818781
20
48.1466914
40
1.5724225
50
206.1294051
51
221.408398
0
ARC
8
front_labelLayer
10
196.2287796
20
48.1064012
40
1.505957
50
221.5949091
51
262.3505289
0
ARC
8
front_labelLayer
10
196.355071
20
48.7558396
40
2.1667729
50
261.3266216
51
270.1912791
0
LINE
8
left_outsideCutPath
10
355
20
103
11
355
21
83.75
0
LINE
8
left_outsideCutPath
10
355
20
83.75
11
353
21
83.75
0
LINE
8
left_outsideCutPath
10
353
20
83.75
11
353
21
63.25
0
LINE
8
left_outsideCutPath
10
353
20
63.25
11
355
21
63.25
0
LINE
8
left_outsideCutPath
10
355
20
63.25
11
355
21
42.75
0
LINE
8
left_outsideCutPath
10
355
20
42.75
11
353
21
42.75
0
LINE
8
left_outsideCutPath
10
353
20
42.75
11
353
21
22.25
0
LINE
8
left_outsideCutPath
10
353
20
22.25
11
355
21
22.25
0
LINE
8
left_outsideCutPath
10
355
20
22.25
11
355
21
3
0
LINE
8
left_outsideCutPath
10
355
20
3
11
385.75
21
3
0
LINE
8
left_outsideCutPath
10
385.75
20
3
11
385.75
21
5
0
LINE
8
left_outsideCutPath
10
385.75
20
5
11
406.25
21
5
0
LINE
8
left_outsideCutPath
10
406.25
20
5
11
406.25
21
3
0
LINE
8
left_outsideCutPath
10
406.25
20
3
11
426.75
21
3
0
LINE
8
left_outsideCutPath
10
426.75
20
3
11
426.75
21
5
0
LINE
8
left_outsideCutPath
10
426.75
20
5
11
447.25
21
5
0
LINE
8
left_outsideCutPath
10
447.25
20
5
11
447.25
21
3
0
LINE
8
left_outsideCutPath
10
447.25
20
3
11
467.75
21
3
0
LINE
8
left_outsideCutPath
10
467.75
20
3
11
467.75
21
5
0
LINE
8
left_outsideCutPath
10
467.75
20
5
11
488.25
21
5
0
LINE
8
left_outsideCutPath
10
488.25
20
5
11
488.25
21
3
0
LINE
8
left_outsideCutPath
10
488.25
20
3
11
508.75
21
3
0
LINE
8
left_outsideCutPath
10
508.75
20
3
11
508.75
21
5
0
LINE
8
left_outsideCutPath
10
508.75
20
5
11
529.25
21
5
0
LINE
8
left_outsideCutPath
10
529.25
20
5
11
529.25
21
3
0
LINE
8
left_outsideCutPath
10
529.25
20
3
11
549.75
21
3
0
LINE
8
left_outsideCutPath
10
549.75
20
3
11
549.75
21
5
0
LINE
8
left_outsideCutPath
10
549.75
20
5
11
570.25
21
5
0
LINE
8
left_outsideCutPath
10
570.25
20
5
11
570.25
21
3
0
LINE
8
left_outsideCutPath
10
570.25
20
3
11
590.75
21
3
0
LINE
8
left_outsideCutPath
10
590.75
20
3
11
601
21
3
0
LINE
8
left_outsideCutPath
10
601
20
3
11
601
21
22.25
0
LINE
8
left_outsideCutPath
10
601
20
22.25
11
603
21
22.25
0
LINE
8
left_outsideCutPath
10
603
20
22.25
11
603
21
42.75
0
LINE
8
left_outsideCutPath
10
603
20
42.75
11
601
21
42.75
0
LINE
8
left_outsideCutPath
10
601
20
42.75
11
601
21
63.25
0
LINE
8
left_outsideCutPath
10
601
20
63.25
11
603
21
63.25
0
LINE
8
left_outsideCutPath
10
603
20
63.25
11
603
21
83.75
0
LINE
8
left_outsideCutPath
10
603
20
83.75
11
601
21
83.75
0
LINE
8
left_outsideCutPath
10
601
20
83.75
11
601
21
103
0
LINE
8
left_outsideCutPath
10
601
20
103
11
570.25
21
103
0
LINE
8
left_outsideCutPath
10
570.25
20
103
11
570.25
21
101
0
LINE
8
left_outsideCutPath
10
570.25
20
101
11
549.75
21
101
0
LINE
8
left_outsideCutPath
10
549.75
20
101
11
549.75
21
103
0
LINE
8
left_outsideCutPath
10
549.75
20
103
11
529.25
21
103
0
LINE
8
left_outsideCutPath
10
529.25
20
103
11
529.25
21
101
0
LINE
8
left_outsideCutPath
10
529.25
20
101
11
508.75
21
101
0
LINE
8
left_outsideCutPath
10
508.75
20
101
11
508.75
21
103
0
LINE
8
left_outsideCutPath
10
508.75
20
103
11
488.25
21
103
0
LINE
8
left_outsideCutPath
10
488.25
20
103
11
488.25
21
101
0
LINE
8
left_outsideCutPath
10
488.25
20
101
11
467.75
21
101
0
LINE
8
left_outsideCutPath
10
467.75
20
101
11
467.75
21
103
0
LINE
8
left_outsideCutPath
10
467.75
20
103
11
447.25
21
103
0
LINE
8
left_outsideCutPath
10
447.25
20
103
11
447.25
21
101
0
LINE
8
left_outsideCutPath
10
447.25
20
101
11
426.75
21
101
0
LINE
8
left_outsideCutPath
10
426.75
20
101
11
426.75
21
103
0
LINE
8
left_outsideCutPath
10
426.75
20
103
11
406.25
21
103
0
LINE
8
left_outsideCutPath
10
406.25
20
103
11
406.25
21
101
0
LINE
8
left_outsideCutPath
10
406.25
20
101
11
385.75
21
101
0
LINE
8
left_outsideCutPath
10
385.75
20
101
11
385.75
21
103
0
LINE
8
left_outsideCutPath
10
385.75
20
103
11
365.25
21
103
0
LINE
8
left_outsideCutPath
10
365.25
20
103
11
355
21
103
0
LINE
8
left_labelLayer
10
465.6318359
20
60.6418132
11
465.6318359
21
45.4465007
0
LINE
8
left_labelLayer
10
465.6318359
20
45.4465007
11
464.0107422
21
45.4465007
0
LINE
8
left_labelLayer
10
464.0107422
20
45.4465007
11
464.0107422
21
60.6418132
0
LINE
8
left_labelLayer
10
464.0107422
20
60.6418132
11
465.6318359
21
60.6418132
0
LINE
8
left_labelLayer
10
477.5263672
20
51.5304851
11
477.5263672
21
50.5050945
0
LINE
8
left_labelLayer
10
477.5263672
20
50.5050945
11
470.1533203
21
50.5050945
0
LINE
8
left_labelLayer
10
477.0673828
20
47.3898601
11
477.0673828
21
45.9445476
0
LINE
8
left_labelLayer
10
470.1923828
20
51.8234538
11
475.7880859
21
51.8234538
0
ARC
8
left_labelLayer
10
473.5375163
20
51.5504518
40
6.2994891
50
256.0087864
51
270.4848217
0
ARC
8
left_labelLayer
10
473.0787904
20
49.7695846
40
4.4605713
50
223.5465745
51
256.1956946
0
ARC
8
left_labelLayer
10
473.331848
20
49.9535108
40
4.7708826
50
194.0877272
51
223.0538182
0
ARC
8
left_labelLayer
10
475.6505483
20
50.5875915
40
7.1743644
50
181.3574552
51
194.4920046
0
ARC
8
left_labelLayer
10
477.7337444
20
50.7083549
40
9.2601118
50
179.988753
51
181.7991074
0
ARC
8
left_labelLayer
10
476.9857631
20
50.7672736
40
8.5123218
50
168.9539202
51
180.3843452
0
ARC
8
left_labelLayer
10
474.2056782
20
51.3333483
40
5.6753298
50
149.4070939
51
169.185387
0
ARC
8
left_labelLayer
10
473.4311046
20
51.7425996
40
4.8004737
50
140.1056143
51
148.906731
0
ARC
8
left_labelLayer
10
472.9552283
20
52.1813347
40
4.1540931
50
92.4762693
51
140.5386367
0
ARC
8
left_labelLayer
10
473.1672793
20
50.6142695
40
5.7306699
50
89.9638154
51
93.9176162
0
ARC
8
left_labelLayer
10
473.2178771
20
51.4063084
40
4.9388532
50
74.2125965
51
90.5450096
0
ARC
8
left_labelLayer
10
473.5272118
20
52.5460349
40
3.7579798
50
41.2064721
51
74.0232652
0
ARC
8
left_labelLayer
10
472.9413907
20
52.0390501
40
4.5327076
50
11.5994275
51
41.1496059
0
ARC
8
left_labelLayer
10
470.9285231
20
51.5748451
40
6.5979931
50
359.6147824
51
12.033632
0
ARC
8
left_labelLayer
10
476.6585018
20
50.6350784
40
6.50648
50
181.1447089
51
190.800699
0
ARC
8
left_labelLayer
10
474.3630811
20
50.182357
40
4.1669111
50
190.6005651
51
206.0275216
0
ARC
8
left_labelLayer
10
473.3475131
20
49.7022419
40
3.0436958
50
206.2950304
51
222.5557993
0
ARC
8
left_labelLayer
10
473.2575252
20
49.6551265
40
2.9456606
50
223.0645132
51
258.1401291
0
ARC
8
left_labelLayer
10
473.6157671
20
51.1302218
40
4.4631448
50
257.5311717
51
270.4319476
0
ARC
8
left_labelLayer
10
473.6197666
20
55.2290413
40
8.5618888
50
270.1983999
51
292.2090433
0
ARC
8
left_labelLayer
10
473.2083414
20
56.410503
40
9.8114322
50
291.8255178
51
293.1612948
0
ARC
8
left_labelLayer
10
473.1889046
20
54.8703356
40
9.7320237
50
287.9023108
51
293.4861519
0
ARC
8
left_labelLayer
10
473.8948818
20
52.6921442
40
7.4422823
50
281.9936008
51
287.8851423
0
ARC
8
left_labelLayer
10
474.0659954
20
52.0771114
40
6.8052323
50
275.9054125
51
281.6604196
0
ARC
8
left_labelLayer
10
473.7234705
20
55.2742317
40
10.0206339
50
271.9119633
51
275.9726911
0
ARC
8
left_labelLayer
10
473.5984511
20
58.4584667
40
13.2072806
50
269.9668962
51
271.9931374
0
ARC
8
left_labelLayer
10
473.1202599
20
51.7921135
40
3.1955542
50
89.4422423
51
106.2089652
0
ARC
8
left_labelLayer
10
472.928013
20
52.4930778
40
2.4688141
50
106.4657148
51
137.9176368
0
ARC
8
left_labelLayer
10
473.4791952
20
52.0090489
40
3.2023031
50
138.0994865
51
160.5866232
0
ARC
8
left_labelLayer
10
474.8960088
20
51.487829
40
4.7118531
50
160.335354
51
172.5315141
0
ARC
8
left_labelLayer
10
476.291158
20
51.2642972
40
6.1243541
50
172.1545568
51
174.7615716
0
ARC
8
left_labelLayer
10
470.2640618
20
51.8548335
40
5.5241133
50
359.6745303
51
8.922462
0
ARC
8
left_labelLayer
10
472.2379464
20
52.1764473
40
3.5242521
50
8.7342472
51
23.2771776
0
ARC
8
left_labelLayer
10
473.1750418
20
52.5698155
40
2.5079976
50
23.4821335
51
39.7072171
0
ARC
8
left_labelLayer
10
473.4052195
20
52.7420632
40
2.220922
50
40.0822985
51
80.624323
0
ARC
8
left_labelLayer
10
473.1682893
20
51.655985
40
3.3315743
50
79.646833
51
90.291024
0
LINE
8
left_labelLayer
10
485.1142578
20
56.1496257
11
485.1142578
21
54.8898601
0
LINE
8
left_labelLayer
10
485.1142578
20
54.8898601
11
482.3896484
21
54.8898601
0
LINE
8
left_labelLayer
10
482.3896484
20
54.8898601
11
482.3896484
21
45.4465007
0
LINE
8
left_labelLayer
10
482.3896484
20
45.4465007
11
480.7685547
21
45.4465007
0
LINE
8
left_labelLayer
10
480.7685547
20
45.4465007
11
480.7685547
21
54.8898601
0
LINE
8
left_labelLayer
10
480.7685547
20
54.8898601
11
478.8544922
21
54.8898601
0
LINE
8
left_labelLayer
10
478.8544922
20
54.8898601
11
478.8544922
21
55.622282
0
LINE
8
left_labelLayer
10
478.8544922
20
55.622282
11
480.7685547
21
56.2082195
0
LINE
8
left_labelLayer
10
480.7685547
20
56.2082195
11
480.7685547
21
56.8039226
0
LINE
8
left_labelLayer
10
486.2080078
20
60.4074382
11
485.7880859
21
59.1086101
0
LINE
8
left_labelLayer
10
482.3896484
20
56.8429851
11
482.3896484
21
56.1496257
0
LINE
8
left_labelLayer
10
482.3896484
20
56.1496257
11
485.1142578
21
56.1496257
0
ARC
8
left_labelLayer
10
487.3382836
20
56.8794516
40
6.5701631
50
167.5776019
51
180.6586728
0
ARC
8
left_labelLayer
10
484.2487771
20
57.5997452
40
3.3982616
50
141.7433952
51
168.2322111
0
ARC
8
left_labelLayer
10
483.7457421
20
57.8622911
40
2.8426424
50
98.25515
51
139.620332
0
ARC
8
left_labelLayer
10
484.1874151
20
55.821935
40
4.9273822
50
89.6697013
51
99.9314429
0
ARC
8
left_labelLayer
10
484.1886476
20
55.5290279
40
5.2202779
50
81.5640782
51
89.7017613
0
ARC
8
left_labelLayer
10
483.8216552
20
52.9686645
40
7.8067887
50
75.9739836
51
81.6564925
0
ARC
8
left_labelLayer
10
483.1918263
20
50.3562892
40
10.4939481
50
73.2963798
51
76.0945964
0
ARC
8
left_labelLayer
10
483.3504689
20
51.6235867
40
7.8719472
50
71.9613356
51
76.5918517
0
ARC
8
left_labelLayer
10
483.961179
20
54.2142902
40
5.2102479
50
76.5183435
51
83.0217048
0
ARC
8
left_labelLayer
10
484.1739111
20
55.9250858
40
3.4862815
50
83.076037
51
89.7927205
0
ARC
8
left_labelLayer
10
484.1669086
20
57.2252028
40
2.1862297
50
89.4859359
51
103.4197073
0
ARC
8
left_labelLayer
10
483.9698048
20
57.9824617
40
1.4039934
50
102.7677419
51
144.3380185
0
ARC
8
left_labelLayer
10
484.3668861
20
57.7269769
40
1.875711
50
145.0688682
51
162.1801871
0
ARC
8
left_labelLayer
10
485.7283572
20
57.2689105
40
3.3121003
50
161.8437828
51
171.7846792
0
ARC
8
left_labelLayer
10
487.9489299
20
56.9353905
40
5.5575582
50
171.6528007
51
178.4383441
0
ARC
8
left_labelLayer
10
490.0436147
20
56.8460803
40
7.6539668
50
178.1973669
51
180.0231697
0
LINE
8
left_labelLayer
10
491.9892578
20
46.7843913
11
491.9892578
21
45.544157
0
LINE
8
left_labelLayer
10
487.1845703
20
48.5226726
11
487.1845703
21
54.8898601
0
LINE
8
left_labelLayer
10
487.1845703
20
54.8898601
11
485.6513672
21
54.8898601
0
LINE
8
left_labelLayer
10
485.6513672
20
54.8898601
11
485.6513672
21
55.6711101
0
LINE
8
left_labelLayer
10
485.6513672
20
55.6711101
11
487.1845703
21
56.3449382
0
LINE
8
left_labelLayer
10
487.1845703
20
56.3449382
11
487.8681641
21
58.6300945
0
LINE
8
left_labelLayer
10
487.8681641
20
58.6300945
11
488.8056641
21
58.6300945
0
LINE
8
left_labelLayer
10
488.8056641
20
58.6300945
11
488.8056641
21
56.1496257
0
LINE
8
left_labelLayer
10
488.8056641
20
56.1496257
11
491.9111328
21
56.1496257
0
LINE
8
left_labelLayer
10
491.9111328
20
56.1496257
11
491.9111328
21
54.8898601
0
LINE
8
left_labelLayer
10
491.9111328
20
54.8898601
11
488.8056641
21
54.8898601
0
LINE
8
left_labelLayer
10
488.8056641
20
54.8898601
11
488.8056641
21
48.591032
0
ARC
8
left_labelLayer
10
490.5355326
20
51.9129617
40
5.3238944
50
269.8803417
51
278.3028182
0
ARC
8
left_labelLayer
10
490.5851793
20
51.5056089
40
4.9136514
50
278.4158959
51
279.0076561
0
ARC
8
left_labelLayer
10
489.9888291
20
55.3151576
40
8.7695902
50
278.9589695
51
280.5103918
0
ARC
8
left_labelLayer
10
490.5581652
20
52.2602916
40
5.6621249
50
280.4847522
51
282.6268451
0
ARC
8
left_labelLayer
10
491.0574548
20
50.0421168
40
3.3884538
50
282.5876165
51
285.5795336
0
ARC
8
left_labelLayer
10
491.3091142
20
49.1168484
40
2.429599
50
285.7231888
51
286.2566654
0
ARC
8
left_labelLayer
10
491.3077044
20
46.9856817
40
1.5945246
50
287.9888406
51
295.3048016
0
ARC
8
left_labelLayer
10
490.9231098
20
48.1492631
40
2.8200086
50
283.3069861
51
288.1197567
0
ARC
8
left_labelLayer
10
490.516856
20
49.8438763
40
4.5626327
50
280.0069961
51
283.3735389
0
ARC
8
left_labelLayer
10
490.2450481
20
51.3189605
40
6.0625179
50
279.1862135
51
280.1142603
0
ARC
8
left_labelLayer
10
490.0781679
20
52.2681084
40
7.0261467
50
275.5260122
51
279.2939725
0
ARC
8
left_labelLayer
10
490.2661877
20
50.304196
40
5.0532558
50
270.8932457
51
275.5483966
0
ARC
8
left_labelLayer
10
490.2897955
20
49.4070606
40
4.1558726
50
270.0033586
51
270.7606301
0
ARC
8
left_labelLayer
10
490.2246229
20
49.4847407
40
4.2340578
50
253.784789
51
270.8852547
0
ARC
8
left_labelLayer
10
489.7229997
20
47.7740159
40
2.4513133
50
190.3817699
51
253.8772374
0
ARC
8
left_labelLayer
10
492.2797711
20
48.465321
40
5.0955236
50
179.3551054
51
192.8477577
0
ARC
8
left_labelLayer
10
492.0699633
20
48.5706171
40
3.2643631
50
179.6416773
51
189.7505556
0
ARC
8
left_labelLayer
10
490.9175733
20
48.3650768
40
2.093823
50
189.5479676
51
205.7873396
0
ARC
8
left_labelLayer
10
490.4439874
20
48.1466914
40
1.5724225
50
206.1294051
51
221.408398
0
ARC
8
left_labelLayer
10
490.390889
20
48.1064012
40
1.505957
50
221.5949091
51
262.3505289
0
ARC
8
left_labelLayer
10
490.5171804
20
48.7558396
40
2.1667729
50
261.3266216
51
270.1912791
0
LINE
8
top_outsideCutPath
10
608
20
251
11
608
21
220.25
0
LINE
8
top_outsideCutPath
10
608
20
220.25
11
606
21
220.25
0
LINE
8
top_outsideCutPath
10
606
20
220.25
11
606
21
199.75
0
LINE
8
top_outsideCutPath
10
606
20
199.75
11
608
21
199.75
0
LINE
8
top_outsideCutPath
10
608
20
199.75
11
608
21
179.25
0
LINE
8
top_outsideCutPath
10
608
20
179.25
11
606
21
179.25
0
LINE
8
top_outsideCutPath
10
606
20
179.25
11
606
21
158.75
0
LINE
8
top_outsideCutPath
10
606
20
158.75
11
608
21
158.75
0
LINE
8
top_outsideCutPath
10
608
20
158.75
11
608
21
138.25
0
LINE
8
top_outsideCutPath
10
608
20
138.25
11
606
21
138.25
0
LINE
8
top_outsideCutPath
10
606
20
138.25
11
606
21
117.75
0
LINE
8
top_outsideCutPath
10
606
20
117.75
11
608
21
117.75
0
LINE
8
top_outsideCutPath
10
608
20
117.75
11
608
21
97.25
0
LINE
8
top_outsideCutPath
10
608
20
97.25
11
606
21
97.25
0
LINE
8
top_outsideCutPath
10
606
20
97.25
11
606
21
76.75
0
LINE
8
top_outsideCutPath
10
606
20
76.75
11
608
21
76.75
0
LINE
8
top_outsideCutPath
10
608
20
76.75
11
608
21
56.25
0
LINE
8
top_outsideCutPath
10
608
20
56.25
11
606
21
56.25
0
LINE
8
top_outsideCutPath
10
606
20
56.25
11
606
21
35.75
0
LINE
8
top_outsideCutPath
10
606
20
35.75
11
608
21
35.75
0
LINE
8
top_outsideCutPath
10
608
20
35.75
11
608
21
15.25
0
LINE
8
top_outsideCutPath
10
608
20
15.25
11
608
21
5
0
LINE
8
top_outsideCutPath
10
608
20
5
11
627.25
21
5
0
LINE
8
top_outsideCutPath
10
627.25
20
5
11
627.25
21
3
0
LINE
8
top_outsideCutPath
10
627.25
20
3
11
647.75
21
3
0
LINE
8
top_outsideCutPath
10
647.75
20
3
11
647.75
21
5
0
LINE
8
top_outsideCutPath
10
647.75
20
5
11
668.25
21
5
0
LINE
8
top_outsideCutPath
10
668.25
20
5
11
668.25
21
3
0
LINE
8
top_outsideCutPath
10
668.25
20
3
11
688.75
21
3
0
LINE
8
top_outsideCutPath
10
688.75
20
3
11
688.75
21
5
0
LINE
8
top_outsideCutPath
10
688.75
20
5
11
709.25
21
5
0
LINE
8
top_outsideCutPath
10
709.25
20
5
11
709.25
21
3
0
LINE
8
top_outsideCutPath
10
709.25
20
3
11
729.75
21
3
0
LINE
8
top_outsideCutPath
10
729.75
20
3
11
729.75
21
5
0
LINE
8
top_outsideCutPath
10
729.75
20
5
11
750.25
21
5
0
LINE
8
top_outsideCutPath
10
750.25
20
5
11
750.25
21
3
0
LINE
8
top_outsideCutPath
10
750.25
20
3
11
770.75
21
3
0
LINE
8
top_outsideCutPath
10
770.75
20
3
11
770.75
21
5
0
LINE
8
top_outsideCutPath
10
770.75
20
5
11
791.25
21
5
0
LINE
8
top_outsideCutPath
10
791.25
20
5
11
791.25
21
3
0
LINE
8
top_outsideCutPath
10
791.25
20
3
11
811.75
21
3
0
LINE
8
top_outsideCutPath
10
811.75
20
3
11
811.75
21
5
0
LINE
8
top_outsideCutPath
10
811.75
20
5
11
832.25
21
5
0
LINE
8
top_outsideCutPath
10
832.25
20
5
11
832.25
21
3
0
LINE
8
top_outsideCutPath
10
832.25
20
3
11
852.75
21
3
0
LINE
8
top_outsideCutPath
10
852.75
20
3
11
852.75
21
5
0
LINE
8
top_outsideCutPath
10
852.75
20
5
11
873.25
21
5
0
LINE
8
top_outsideCutPath
10
873.25
20
5
11
873.25
21
3
0
LINE
8
top_outsideCutPath
10
873.25
20
3
11
893.75
21
3
0
LINE
8
top_outsideCutPath
10
893.75
20
3
11
893.75
21
5
0
LINE
8
top_outsideCutPath
10
893.75
20
5
11
914.25
21
5
0
LINE
8
top_outsideCutPath
10
914.25
20
5
11
914.25
21
3
0
LINE
8
top_outsideCutPath
10
914.25
20
3
11
934.75
21
3
0
LINE
8
top_outsideCutPath
10
934.75
20
3
11
934.75
21
5
0
LINE
8
top_outsideCutPath
10
934.75
20
5
11
954
21
5
0
LINE
8
top_outsideCutPath
10
954
20
5
11
954
21
35.75
0
LINE
8
top_outsideCutPath
10
954
20
35.75
11
956
21
35.75
0
LINE
8
top_outsideCutPath
10
956
20
35.75
11
956
21
56.25
0
LINE
8
top_outsideCutPath
10
956
20
56.25
11
954
21
56.25
0
LINE
8
top_outsideCutPath
10
954
20
56.25
11
954
21
76.75
0
LINE
8
top_outsideCutPath
10
954
20
76.75
11
956
21
76.75
0
LINE
8
top_outsideCutPath
10
956
20
76.75
11
956
21
97.25
0
LINE
8
top_outsideCutPath
10
956
20
97.25
11
954
21
97.25
0
LINE
8
top_outsideCutPath
10
954
20
97.25
11
954
21
117.75
0
LINE
8
top_outsideCutPath
10
954
20
117.75
11
956
21
117.75
0
LINE
8
top_outsideCutPath
10
956
20
117.75
11
956
21
138.25
0
LINE
8
top_outsideCutPath
10
956
20
138.25
11
954
21
138.25
0
LINE
8
top_outsideCutPath
10
954
20
138.25
11
954
21
158.75
0
LINE
8
top_outsideCutPath
10
954
20
158.75
11
956
21
158.75
0
LINE
8
top_outsideCutPath
10
956
20
158.75
11
956
21
179.25
0
LINE
8
top_outsideCutPath
10
956
20
179.25
11
954
21
179.25
0
LINE
8
top_outsideCutPath
10
954
20
179.25
11
954
21
199.75
0
LINE
8
top_outsideCutPath
10
954
20
199.75
11
956
21
199.75
0
LINE
8
top_outsideCutPath
10
956
20
199.75
11
956
21
220.25
0
LINE
8
top_outsideCutPath
10
956
20
220.25
11
954
21
220.25
0
LINE
8
top_outsideCutPath
10
954
20
220.25
11
954
21
240.75
0
LINE
8
top_outsideCutPath
10
954
20
240.75
11
954
21
251
0
LINE
8
top_outsideCutPath
10
954
20
251
11
934.75
21
251
0
LINE
8
top_outsideCutPath
10
934.75
20
251
11
934.75
21
253
0
LINE
8
top_outsideCutPath
10
934.75
20
253
11
914.25
21
253
0
LINE
8
top_outsideCutPath
10
914.25
20
253
11
914.25
21
251
0
LINE
8
top_outsideCutPath
10
914.25
20
251
11
893.75
21
251
0
LINE
8
top_outsideCutPath
10
893.75
20
251
11
893.75
21
253
0
LINE
8
top_outsideCutPath
10
893.75
20
253
11
873.25
21
253
0
LINE
8
top_outsideCutPath
10
873.25
20
253
11
873.25
21
251
0
LINE
8
top_outsideCutPath
10
873.25
20
251
11
852.75
21
251
0
LINE
8
top_outsideCutPath
10
852.75
20
251
11
852.75
21
253
0
LINE
8
top_outsideCutPath
10
852.75
20
253
11
832.25
21
253
0
LINE
8
top_outsideCutPath
10
832.25
20
253
11
832.25
21
251
0
LINE
8
top_outsideCutPath
10
832.25
20
251
11
811.75
21
251
0
LINE
8
top_outsideCutPath
10
811.75
20
251
11
811.75
21
253
0
LINE
8
top_outsideCutPath
10
811.75
20
253
11
791.25
21
253
0
LINE
8
top_outsideCutPath
10
791.25
20
253
11
791.25
21
251
0
LINE
8
top_outsideCutPath
10
791.25
20
251
11
770.75
21
251
0
LINE
8
top_outsideCutPath
10
770.75
20
251
11
770.75
21
253
0
LINE
8
top_outsideCutPath
10
770.75
20
253
11
750.25
21
253
0
LINE
8
top_outsideCutPath
10
750.25
20
253
11
750.25
21
251
0
LINE
8
top_outsideCutPath
10
750.25
20
251
11
729.75
21
251
0
LINE
8
top_outsideCutPath
10
729.75
20
251
11
729.75
21
253
0
LINE
8
top_outsideCutPath
10
729.75
20
253
11
709.25
21
253
0
LINE
8
top_outsideCutPath
10
709.25
20
253
11
709.25
21
251
0
LINE
8
top_outsideCutPath
10
709.25
20
251
11
688.75
21
251
0
LINE
8
top_outsideCutPath
10
688.75
20
251
11
688.75
21
253
0
LINE
8
top_outsideCutPath
10
688.75
20
253
11
668.25
21
253
0
LINE
8
top_outsideCutPath
10
668.25
20
253
11
668.25
21
251
0
LINE
8
top_outsideCutPath
10
668.25
20
251
11
647.75
21
251
0
LINE
8
top_outsideCutPath
10
647.75
20
251
11
647.75
21
253
0
LINE
8
top_outsideCutPath
10
647.75
20
253
11
627.25
21
253
0
LINE
8
top_outsideCutPath
10
627.25
20
253
11
627.25
21
251
0
LINE
8
top_outsideCutPath
10
627.25
20
251
11
608
21
251
0
LINE
8
top_labelLayer
10
759.3689338
20
120.8710938
11
759.3689338
21
117.7705078
0
LINE
8
top_labelLayer
10
747.3572151
20
125.2167969
11
747.3572151
21
141.1347656
0
LINE
8
top_labelLayer
10
747.3572151
20
141.1347656
11
743.5242073
21
141.1347656
0
LINE
8
top_labelLayer
10
743.5242073
20
141.1347656
11
743.5242073
21
143.0878906
0
LINE
8
top_labelLayer
10
743.5242073
20
143.0878906
11
747.3572151
21
144.7724609
0
LINE
8
top_labelLayer
10
747.3572151
20
144.7724609
11
749.0661995
21
150.4853516
0
LINE
8
top_labelLayer
10
749.0661995
20
150.4853516
11
751.4099495
21
150.4853516
0
LINE
8
top_labelLayer
10
751.4099495
20
150.4853516
11
751.4099495
21
144.2841797
0
LINE
8
top_labelLayer
10
751.4099495
20
144.2841797
11
759.1736213
21
144.2841797
0
LINE
8
top_labelLayer
10
759.1736213
20
144.2841797
11
759.1736213
21
141.1347656
0
LINE
8
top_labelLayer
10
759.1736213
20
141.1347656
11
751.4099495
21
141.1347656
0
LINE
8
top_labelLayer
10
751.4099495
20
141.1347656
11
751.4099495
21
125.3876953
0
ARC
8
top_labelLayer
10
755.7346162
20
133.6925359
40
13.3097524
50
269.8803621
51
278.302828
0
ARC
8
top_labelLayer
10
755.8615495
20
132.6558691
40
12.2656452
50
278.4153916
51
279.0080435
0
ARC
8
top_labelLayer
10
754.36806
20
142.1968014
40
21.9227514
50
278.9589502
51
280.5104591
0
ARC
8
top_labelLayer
10
755.7912014
20
134.5608542
40
14.1553221
50
280.4847486
51
282.62684
0
ARC
8
top_labelLayer
10
757.0393656
20
129.0156404
40
8.471375
50
282.5876742
51
285.5795064
0
ARC
8
top_labelLayer
10
757.6640328
20
126.7180541
40
6.0904543
50
285.7239938
51
286.2560288
0
ARC
8
top_labelLayer
10
757.6650549
20
121.3743058
40
3.9862969
50
287.988839
51
295.3048269
0
ARC
8
top_labelLayer
10
756.7035885
20
124.2831976
40
7.0499421
50
283.3069314
51
288.1197563
0
ARC
8
top_labelLayer
10
755.6879105
20
128.5198937
40
11.4066711
50
280.0070122
51
283.3735287
0
ARC
8
top_labelLayer
10
755.0081137
20
132.2091888
40
15.1579929
50
279.186308
51
280.1142508
0
ARC
8
top_labelLayer
10
754.5911825
20
134.5805945
40
17.5655762
50
275.5260332
51
279.2939486
0
ARC
8
top_labelLayer
10
755.0612559
20
129.6706752
40
12.6332094
50
270.8932523
51
275.5483775
0
ARC
8
top_labelLayer
10
755.1203159
20
127.4254947
40
10.3874088
50
270.0031497
51
270.7605869
0
ARC
8
top_labelLayer
10
754.9573461
20
127.6219688
40
10.5851463
50
253.7847941
51
270.8852572
0
ARC
8
top_labelLayer
10
753.7032882
20
123.3451544
40
6.1282826
50
190.3817649
51
253.8772393
0
ARC
8
top_labelLayer
10
760.095209
20
125.0734166
40
12.7388009
50
179.3550995
51
192.8477604
0
ARC
8
top_labelLayer
10
759.5706533
20
125.3366552
40
8.1608634
50
179.6416551
51
189.7505883
0
ARC
8
top_labelLayer
10
756.6897149
20
124.8228054
40
5.2345495
50
189.5479593
51
205.7873558
0
ARC
8
top_labelLayer
10
755.5057604
20
124.276847
40
3.9310598
50
206.1294288
51
221.4084071
0
ARC
8
top_labelLayer
10
755.3730127
20
124.1761198
40
3.7648939
50
221.5949167
51
262.3505195
0
ARC
8
top_labelLayer
10
755.6887386
20
125.7997
40
5.4169178
50
261.3266174
51
270.1912984
0
ARC
8
top_labelLayer
10
766.8777728
20
130.7885594
40
20.9340196
50
349.1761872
51
0.3862663
0
ARC
8
top_labelLayer
10
773.9257519
20
129.3835297
40
13.7476953
50
330.2507078
51
349.4116456
0
ARC
8
top_labelLayer
10
776.0947647
20
128.2561635
40
11.3055623
50
318.1439797
51
329.7566206
0
ARC
8
top_labelLayer
10
776.4862474
20
127.9424293
40
10.804669
50
278.8959147
51
317.9979151
0
ARC
8
top_labelLayer
10
775.4775604
20
132.775134
40
15.7371975
50
269.7502869
51
279.803325
0
ARC
8
top_labelLayer
10
775.3139718
20
130.0522076
40
13.0144684
50
253.5436929
51
270.418243
0
ARC
8
top_labelLayer
10
774.8807468
20
128.3763843
40
11.2847235
50
238.8115579
51
253.2428333
0
ARC
8
top_labelLayer
10
774.740928
20
128.0952092
40
10.9718118
50
207.7947028
51
238.6757981
0
ARC
8
top_labelLayer
10
776.7472122
20
129.3239597
40
13.3204523
50
205.6560147
51
208.4461215
0
ARC
8
top_labelLayer
10
778.2925215
20
129.9678378
40
14.9924494
50
188.9102415
51
205.3171463
0
ARC
8
top_labelLayer
10
783.5004042
20
130.8498846
40
20.2742056
50
179.7744729
51
189.0932824
0
ARC
8
top_labelLayer
10
784.2686276
20
131.0722136
40
21.0427546
50
169.244298
51
180.388077
0
ARC
8
top_labelLayer
10
777.1226679
20
132.4847108
40
13.7588397
50
150.7111468
51
169.469546
0
ARC
8
top_labelLayer
10
774.8414626
20
133.6561926
40
11.1965465
50
138.1759418
51
150.2287358
0
ARC
8
top_labelLayer
10
774.4619984
20
133.9473876
40
10.71965
50
99.1759346
51
137.9832749
0
ARC
8
top_labelLayer
10
775.5064204
20
129.0322263
40
15.7404061
50
89.7326345
51
100.0759839
0
ARC
8
top_labelLayer
10
775.7151634
20
131.1549122
40
13.6182208
50
73.5222775
51
90.569222
0
ARC
8
top_labelLayer
10
776.513792
20
134.0565438
40
10.6093881
50
41.1445663
51
73.2133843
0
ARC
8
top_labelLayer
10
774.9892768
20
132.7462436
40
12.6195643
50
13.5014348
51
41.0703433
0
ARC
8
top_labelLayer
10
769.0993212
20
131.2049209
40
18.707006
50
1.1277227
51
13.8800009
0
ARC
8
top_labelLayer
10
764.026698
20
130.9330574
40
23.784619
50
359.9918821
51
1.5420054
0
ARC
8
top_labelLayer
10
787.9482819
20
130.8243659
40
20.5229776
50
179.7059631
51
187.9160745
0
ARC
8
top_labelLayer
10
780.4210992
20
129.7430961
40
12.9186528
50
187.7639309
51
200.0976797
0
ARC
8
top_labelLayer
10
776.2743882
20
128.2237376
40
8.5023584
50
200.084591
51
216.9131648
0
ARC
8
top_labelLayer
10
774.760162
20
127.1425087
40
6.6424257
50
217.3009569
51
261.7099105
0
ARC
8
top_labelLayer
10
775.4631174
20
130.4969346
40
10.0653879
50
260.5033149
51
270.2476852
0
ARC
8
top_labelLayer
10
775.5972914
20
129.8446679
40
9.4134639
50
269.4481687
51
284.7255702
0
ARC
8
top_labelLayer
10
776.3425007
20
127.0809292
40
6.5511027
50
284.5662283
51
322.6333807
0
ARC
8
top_labelLayer
10
774.6001666
20
128.3396877
40
8.6999982
50
323.0089253
51
342.6390512
0
ARC
8
top_labelLayer
10
769.6167076
20
129.9684251
40
13.9425934
50
342.3615728
51
353.753756
0
ARC
8
top_labelLayer
10
762.2644832
20
130.8546398
40
21.3477466
50
353.5363063
51
0.201423
0
ARC
8
top_labelLayer
10
763.390929
20
131.0328951
40
20.2214323
50
359.7075683
51
7.8972728
0
ARC
8
top_labelLayer
10
770.7965872
20
132.094566
40
12.7401843
50
7.7439892
51
20.0690193
0
ARC
8
top_labelLayer
10
774.9233037
20
133.6089156
40
8.3443927
50
20.0257079
51
37.43505
0
ARC
8
top_labelLayer
10
776.2925186
20
134.5804899
40
6.6668719
50
37.9577646
51
80.4006197
0
ARC
8
top_labelLayer
10
775.5144378
20
131.1087689
40
10.2214662
50
79.3453451
51
90.3174754
0
ARC
8
top_labelLayer
10
775.3703678
20
131.6854346
40
9.6450398
50
89.4806012
51
103.8805054
0
ARC
8
top_labelLayer
10
774.5599342
20
134.7715614
40
6.4547794
50
103.4685204
51
142.3118918
0
ARC
8
top_labelLayer
10
776.1354777
20
133.6635265
40
8.3794431
50
142.9025722
51
162.3749637
0
ARC
8
top_labelLayer
10
781.1000257
20
132.009103
40
13.6120832
50
162.0653142
51
173.1674842
0
ARC
8
top_labelLayer
10
788.8410832
20
131.021778
40
21.4157067
50
173.0086204
51
180.2463805
0
LINE
8
top_labelLayer
10
798.9685432
20
120.96875
11
798.6755745
21
120.96875
0
LINE
8
top_labelLayer
10
798.9685432
20
116.5253906
11
798.9685432
21
105.5146484
0
LINE
8
top_labelLayer
10
798.9685432
20
105.5146484
11
794.9158088
21
105.5146484
0
LINE
8
top_labelLayer
10
794.9158088
20
105.5146484
11
794.9158088
21
144.2841797
0
LINE
8
top_labelLayer
10
794.9158088
20
144.2841797
11
798.2117073
21
144.2841797
0
LINE
8
top_labelLayer
10
798.2117073
20
144.2841797
11
798.7732307
21
140.6220703
0
LINE
8
top_labelLayer
10
798.7732307
20
140.6220703
11
798.9685432
21
140.6220703
0
LINE
8
top_labelLayer
10
798.9685432
20
131.8330078
11
798.9685432
21
130.9296875
0
ARC
8
top_labelLayer
10
807.2986378
20
129.330723
40
12.292827
50
255.7755419
51
270.3185421
0
ARC
8
top_labelLayer
10
806.9478355
20
127.7721402
40
10.6959162
50
245.9801617
51
255.5455743
0
ARC
8
top_labelLayer
10
806.2683614
20
126.1920198
40
8.9760734
50
215.5850174
51
245.8361709
0
ARC
8
top_labelLayer
10
760.6243597
20
116.1603538
40
38.3538214
50
2.9503248
51
7.2020896
0
ARC
8
top_labelLayer
10
766.829853
20
116.5075436
40
32.138695
50
0.031817
51
2.901598
0
ARC
8
top_labelLayer
10
807.8959131
20
134.3523678
40
10.9090376
50
132.3565107
51
144.9195863
0
ARC
8
top_labelLayer
10
806.2247415
20
136.1755623
40
8.4358217
50
115.4006217
51
132.3118303
0
ARC
8
top_labelLayer
10
806.876607
20
134.5886666
40
10.1493431
50
97.7066321
51
114.8821485
0
ARC
8
top_labelLayer
10
807.3318633
20
131.636154
40
13.1363539
50
89.8468311
51
97.9474367
0
ARC
8
top_labelLayer
10
807.4924108
20
132.3504213
40
12.4226729
50
74.1923534
51
90.5785175
0
ARC
8
top_labelLayer
10
808.3519907
20
135.4751744
40
9.1819676
50
38.0523414
51
74.0417329
0
ARC
8
top_labelLayer
10
805.9811226
20
133.6580043
40
12.1690103
50
16.3355961
51
37.9090604
0
ARC
8
top_labelLayer
10
799.7527857
20
131.7396364
40
18.6856923
50
4.5766531
51
16.6088785
0
ARC
8
top_labelLayer
10
792.0849855
20
130.9755932
40
26.3904336
50
359.9003349
51
4.9018224
0
ARC
8
top_labelLayer
10
794.7136771
20
130.7894958
40
23.7621156
50
350.6562805
51
0.3380356
0
ARC
8
top_labelLayer
10
802.9975327
20
129.3805021
40
15.3594764
50
335.8305956
51
350.8254847
0
ARC
8
top_labelLayer
10
806.6414516
20
127.807736
40
11.3911834
50
321.3161495
51
335.5436143
0
ARC
8
top_labelLayer
10
808.0345517
20
126.6725715
40
9.5942291
50
274.0640049
51
321.4081036
0
ARC
8
top_labelLayer
10
807.3855532
20
130.783563
40
13.7454898
50
269.9225836
51
275.5481695
0
ARC
8
top_labelLayer
10
806.6975679
20
129.6528796
40
11.6774969
50
89.5904237
51
100.3501772
0
ARC
8
top_labelLayer
10
805.864877
20
134.0273434
40
7.2246858
50
100.0868132
51
118.1917889
0
ARC
8
top_labelLayer
10
805.0118539
20
135.6910206
40
5.3554884
50
118.5569515
51
141.0243419
0
ARC
8
top_labelLayer
10
806.3116946
20
134.7741336
40
6.9435057
50
141.8890456
51
160.5973139
0
ARC
8
top_labelLayer
10
810.8798545
20
133.0979415
40
11.8092369
50
160.2895685
51
171.2452988
0
ARC
8
top_labelLayer
10
818.3907592
20
131.8869406
40
19.4170262
50
171.086846
51
178.3247519
0
ARC
8
top_labelLayer
10
824.7607288
20
131.5842221
40
25.7933856
50
178.0662614
51
179.4473547
0
ARC
8
top_labelLayer
10
825.7647401
20
130.8250543
40
26.7964011
50
179.7762739
51
185.7075202
0
ARC
8
top_labelLayer
10
815.1998299
20
129.7364961
40
16.1756413
50
185.592481
51
194.205073
0
ARC
8
top_labelLayer
10
808.4321088
20
127.9800361
40
9.1839253
50
193.9430401
51
208.0218407
0
ARC
8
top_labelLayer
10
805.693858
20
126.5870118
40
6.1124928
50
208.5536508
51
217.5605424
0
ARC
8
top_labelLayer
10
805.4707716
20
126.4942254
40
5.8794191
50
218.1690477
51
253.8047164
0
ARC
8
top_labelLayer
10
806.5612905
20
129.8564062
40
9.412973
50
253.1382428
51
266.8483086
0
ARC
8
top_labelLayer
10
806.8670917
20
133.4627321
40
13.0310968
50
266.3775584
51
270.0510375
0
ARC
8
top_labelLayer
10
806.9709819
20
127.2597181
40
6.828701
50
269.2256866
51
292.0430384
0
ARC
8
top_labelLayer
10
807.0631191
20
126.7106279
40
6.286327
50
293.1429622
51
324.1353922
0
ARC
8
top_labelLayer
10
805.6943818
20
127.8695066
40
8.0756776
50
323.1615411
51
325.0153256
0
ARC
8
top_labelLayer
10
804.2283237
20
128.7785665
40
9.7985113
50
325.5753828
51
344.1504587
0
ARC
8
top_labelLayer
10
799.1578307
20
130.2774557
40
15.085708
50
343.9336236
51
355.1137475
0
ARC
8
top_labelLayer
10
792.6851484
20
130.9342479
40
21.5910573
50
354.8402154
51
0.1174725
0
ARC
8
top_labelLayer
10
793.8250807
20
131.0817281
40
20.4513402
50
359.7108422
51
7.8610387
0
ARC
8
top_labelLayer
10
801.2612017
20
132.1417253
40
12.9401639
50
7.7149642
51
19.8859682
0
ARC
8
top_labelLayer
10
805.3508561
20
133.6189262
40
8.5919012
50
19.8991413
51
35.8980142
0
ARC
8
top_labelLayer
10
807.1750308
20
135.0004159
40
6.3043723
50
35.4481598
51
85.2266593
0
ARC
8
top_labelLayer
10
806.7939528
20
132.6106796
40
8.719408
50
84.0378926
51
90.0848298
0
LINE
8
back_outsideCutPath
10
0
20
206
11
0
21
186.75
0
LINE
8
back_outsideCutPath
10
0
20
186.75
11
2
21
186.75
0
LINE
8
back_outsideCutPath
10
2
20
186.75
11
2
21
166.25
0
LINE
8
back_outsideCutPath
10
2
20
166.25
11
0
21
166.25
0
LINE
8
back_outsideCutPath
10
0
20
166.25
11
0
21
145.75
0
LINE
8
back_outsideCutPath
10
0
20
145.75
11
2
21
145.75
0
LINE
8
back_outsideCutPath
10
2
20
145.75
11
2
21
125.25
0
LINE
8
back_outsideCutPath
10
2
20
125.25
11
0
21
125.25
0
LINE
8
back_outsideCutPath
10
0
20
125.25
11
0
21
106
0
LINE
8
back_outsideCutPath
10
0
20
106
11
21.25
21
106
0
LINE
8
back_outsideCutPath
10
21.25
20
106
11
21.25
21
108
0
LINE
8
back_outsideCutPath
10
21.25
20
108
11
41.75
21
108
0
LINE
8
back_outsideCutPath
10
41.75
20
108
11
41.75
21
106
0
LINE
8
back_outsideCutPath
10
41.75
20
106
11
62.25
21
106
0
LINE
8
back_outsideCutPath
10
62.25
20
106
11
62.25
21
108
0
LINE
8
back_outsideCutPath
10
62.25
20
108
11
82.75
21
108
0
LINE
8
back_outsideCutPath
10
82.75
20
108
11
82.75
21
106
0
LINE
8
back_outsideCutPath
10
82.75
20
106
11
103.25
21
106
0
LINE
8
back_outsideCutPath
10
103.25
20
106
11
103.25
21
108
0
LINE
8
back_outsideCutPath
10
103.25
20
108
11
123.75
21
108
0
LINE
8
back_outsideCutPath
10
123.75
20
108
11
123.75
21
106
0
LINE
8
back_outsideCutPath
10
123.75
20
106
11
144.25
21
106
0
LINE
8
back_outsideCutPath
10
144.25
20
106
11
144.25
21
108
0
LINE
8
back_outsideCutPath
10
144.25
20
108
11
164.75
21
108
0
LINE
8
back_outsideCutPath
10
164.75
20
108
11
164.75
21
106
0
LINE
8
back_outsideCutPath
10
164.75
20
106
11
185.25
21
106
0
LINE
8
back_outsideCutPath
10
185.25
20
106
11
185.25
21
108
0
LINE
8
back_outsideCutPath
10
185.25
20
108
11
205.75
21
108
0
LINE
8
back_outsideCutPath
10
205.75
20
108
11
205.75
21
106
0
LINE
8
back_outsideCutPath
10
205.75
20
106
11
226.25
21
106
0
LINE
8
back_outsideCutPath
10
226.25
20
106
11
226.25
21
108
0
LINE
8
back_outsideCutPath
10
226.25
20
108
11
246.75
21
108
0
LINE
8
back_outsideCutPath
10
246.75
20
108
11
246.75
21
106
0
LINE
8
back_outsideCutPath
10
246.75
20
106
11
267.25
21
106
0
LINE
8
back_outsideCutPath
10
267.25
20
106
11
267.25
21
108
0
LINE
8
back_outsideCutPath
10
267.25
20
108
11
287.75
21
108
0
LINE
8
back_outsideCutPath
10
287.75
20
108
11
287.75
21
106
0
LINE
8
back_outsideCutPath
10
287.75
20
106
11
308.25
21
106
0
LINE
8
back_outsideCutPath
10
308.25
20
106
11
308.25
21
108
0
LINE
8
back_outsideCutPath
10
308.25
20
108
11
328.75
21
108
0
LINE
8
back_outsideCutPath
10
328.75
20
108
11
328.75
21
106
0
LINE
8
back_outsideCutPath
10
328.75
20
106
11
350
21
106
0
LINE
8
back_outsideCutPath
10
350
20
106
11
350
21
125.25
0
LINE
8
back_outsideCutPath
10
350
20
125.25
11
348
21
125.25
0
LINE
8
back_outsideCutPath
10
348
20
125.25
11
348
21
145.75
0
LINE
8
back_outsideCutPath
10
348
20
145.75
11
350
21
145.75
0
LINE
8
back_outsideCutPath
10
350
20
145.75
11
350
21
166.25
0
LINE
8
back_outsideCutPath
10
350
20
166.25
11
348
21
166.25
0
LINE
8
back_outsideCutPath
10
348
20
166.25
11
348
21
186.75
0
LINE
8
back_outsideCutPath
10
348
20
186.75
11
350
21
186.75
0
LINE
8
back_outsideCutPath
10
350
20
186.75
11
350
21
206
0
LINE
8
back_outsideCutPath
10
350
20
206
11
328.75
21
206
0
LINE
8
back_outsideCutPath
10
328.75
20
206
11
328.75
21
204
0
LINE
8
back_outsideCutPath
10
328.75
20
204
11
308.25
21
204
0
LINE
8
back_outsideCutPath
10
308.25
20
204
11
308.25
21
206
0
LINE
8
back_outsideCutPath
10
308.25
20
206
11
287.75
21
206
0
LINE
8
back_outsideCutPath
10
287.75
20
206
11
287.75
21
204
0
LINE
8
back_outsideCutPath
10
287.75
20
204
11
267.25
21
204
0
LINE
8
back_outsideCutPath
10
267.25
20
204
11
267.25
21
206
0
LINE
8
back_outsideCutPath
10
267.25
20
206
11
246.75
21
206
0
LINE
8
back_outsideCutPath
10
246.75
20
206
11
246.75
21
204
0
LINE
8
back_outsideCutPath
10
246.75
20
204
11
226.25
21
204
0
LINE
8
back_outsideCutPath
10
226.25
20
204
11
226.25
21
206
0
LINE
8
back_outsideCutPath
10
226.25
20
206
11
205.75
21
206
0
LINE
8
back_outsideCutPath
10
205.75
20
206
11
205.75
21
204
0
LINE
8
back_outsideCutPath
10
205.75
20
204
11
185.25
21
204
0
LINE
8
back_outsideCutPath
10
185.25
20
204
11
185.25
21
206
0
LINE
8
back_outsideCutPath
10
185.25
20
206
11
164.75
21
206
0
LINE
8
back_outsideCutPath
10
164.75
20
206
11
164.75
21
204
0
LINE
8
back_outsideCutPath
10
164.75
20
204
11
144.25
21
204
0
LINE
8
back_outsideCutPath
10
144.25
20
204
11
144.25
21
206
0
LINE
8
back_outsideCutPath
10
144.25
20
206
11
123.75
21
206
0
LINE
8
back_outsideCutPath
10
123.75
20
206
11
123.75
21
204
0
LINE
8
back_outsideCutPath
10
123.75
20
204
11
103.25
21
204
0
LINE
8
back_outsideCutPath
10
103.25
20
204
11
103.25
21
206
0
LINE
8
back_outsideCutPath
10
103.25
20
206
11
82.75
21
206
0
LINE
8
back_outsideCutPath
10
82.75
20
206
11
82.75
21
204
0
LINE
8
back_outsideCutPath
10
82.75
20
204
11
62.25
21
204
0
LINE
8
back_outsideCutPath
10
62.25
20
204
11
62.25
21
206
0
LINE
8
back_outsideCutPath
10
62.25
20
206
11
41.75
21
206
0
LINE
8
back_outsideCutPath
10
41.75
20
206
11
41.75
21
204
0
LINE
8
back_outsideCutPath
10
41.75
20
204
11
21.25
21
204
0
LINE
8
back_outsideCutPath
10
21.25
20
204
11
21.25
21
206
0
LINE
8
back_outsideCutPath
10
21.25
20
206
11
0
21
206
0
LINE
8
back_labelLayer
10
155.8886719
20
149.8770634
11
155.7714844
21
149.8770634
0
LINE
8
back_labelLayer
10
155.7714844
20
149.8770634
11
155.4296875
21
148.5001103
0
LINE
8
back_labelLayer
10
155.4296875
20
148.5001103
11
154.2675781
21
148.5001103
0
LINE
8
back_labelLayer
10
154.2675781
20
148.5001103
11
154.2675781
21
163.6954228
0
LINE
8
back_labelLayer
10
154.2675781
20
163.6954228
11
155.8886719
21
163.6954228
0
LINE
8
back_labelLayer
10
155.8886719
20
163.6954228
11
155.8886719
21
160.0040166
0
LINE
8
back_labelLayer
10
155.8105469
20
157.7774541
11
155.8886719
21
157.7774541
0
ARC
8
back_labelLayer
10
159.2966775
20
154.4246287
40
4.9546266
50
74.2393364
51
90.5623784
0
ARC
8
back_labelLayer
10
159.6242936
20
155.6265047
40
3.7089652
50
38.563135
51
74.0670337
0
ARC
8
back_labelLayer
10
158.7811887
20
154.9709425
40
4.776887
50
16.4709282
51
38.4075249
0
ARC
8
back_labelLayer
10
156.3523335
20
154.2093236
40
7.3221308
50
5.1338483
51
16.7973468
0
ARC
8
back_labelLayer
10
153.2860763
20
153.8836053
40
10.4053536
50
359.8779407
51
5.4093585
0
ARC
8
back_labelLayer
10
154.1867078
20
153.8053634
40
9.5048639
50
350.6562881
51
0.3380252
0
ARC
8
back_labelLayer
10
157.5002613
20
153.2417664
40
6.1437972
50
335.8306022
51
350.8254751
0
ARC
8
back_labelLayer
10
158.9578448
20
152.6126521
40
4.5564622
50
321.3161305
51
335.5436301
0
ARC
8
back_labelLayer
10
159.5150752
20
152.1585923
40
3.8376919
50
274.0640061
51
321.4081015
0
ARC
8
back_labelLayer
10
159.2554747
20
153.8030045
40
5.4982118
50
269.9225965
51
275.5481661
0
ARC
8
back_labelLayer
10
159.2207101
20
153.2218541
40
4.9171322
50
255.7755416
51
270.3185374
0
ARC
8
back_labelLayer
10
159.0803944
20
152.5984365
40
4.2783843
50
245.9801859
51
255.5455587
0
ARC
8
back_labelLayer
10
158.8086003
20
151.9663728
40
3.5904312
50
215.5850261
51
245.8361642
0
ARC
8
back_labelLayer
10
122.0900958
20
159.9754433
40
33.7985882
50
358.1123236
51
0.0484378
0
ARC
8
back_labelLayer
10
131.4970011
20
159.6596271
40
24.3863854
50
355.7238501
51
358.1259023
0
ARC
8
back_labelLayer
10
135.6558653
20
159.3737435
40
20.2177974
50
355.4715177
51
355.6529673
0
ARC
8
back_labelLayer
10
158.9119411
20
155.6692469
40
3.6857421
50
95.1835136
51
145.1108959
0
ARC
8
back_labelLayer
10
159.2359053
20
153.8423621
40
5.5366677
50
89.8743539
51
96.8145168
0
ARC
8
back_labelLayer
10
158.9797325
20
153.4663119
40
4.5554093
50
89.5731223
51
100.7324143
0
ARC
8
back_labelLayer
10
158.6425047
20
155.1701038
40
2.8186562
50
100.4469271
51
119.6700806
0
ARC
8
back_labelLayer
10
158.3297942
20
155.7547523
40
2.1559401
50
120.1402874
51
142.4248999
0
ARC
8
back_labelLayer
10
158.847151
20
155.4125044
40
2.7750293
50
143.3382417
51
161.2559929
0
ARC
8
back_labelLayer
10
161.0106157
20
154.6444
40
5.070677
50
160.8926193
51
171.2334482
0
ARC
8
back_labelLayer
10
164.6223319
20
154.061745
40
8.7290381
50
171.0667895
51
177.8456849
0
ARC
8
back_labelLayer
10
168.3782991
20
153.870715
40
12.4896305
50
177.6176676
51
180.042556
0
ARC
8
back_labelLayer
10
166.6071483
20
153.8195844
40
10.7185581
50
179.7762696
51
185.7075172
0
ARC
8
back_labelLayer
10
162.3811629
20
153.3841575
40
6.4702325
50
185.5924625
51
194.2050865
0
ARC
8
back_labelLayer
10
159.6740959
20
152.6815766
40
3.6735677
50
193.9430285
51
208.0218386
0
ARC
8
back_labelLayer
10
158.5788007
20
152.1243686
40
2.4449999
50
208.5536273
51
217.560509
0
ARC
8
back_labelLayer
10
158.4895636
20
152.087254
40
2.3517682
50
218.1690497
51
253.8047105
0
ARC
8
back_labelLayer
10
158.9257689
20
153.4321185
40
3.7651815
50
253.1382373
51
266.8483309
0
ARC
8
back_labelLayer
10
159.04809
20
154.8746562
40
5.2124386
50
266.3775722
51
270.0510514
0
ARC
8
back_labelLayer
10
159.0873142
20
152.8936739
40
3.2316392
50
269.3869014
51
285.8630523
0
ARC
8
back_labelLayer
10
159.3274047
20
152.0259509
40
2.3313432
50
286.0162899
51
326.849735
0
ARC
8
back_labelLayer
10
158.1686045
20
152.7936133
40
3.7213332
50
326.7105084
51
343.6661789
0
ARC
8
back_labelLayer
10
155.9993961
20
153.4564532
40
5.9894605
50
343.4171354
51
353.6369032
0
ARC
8
back_labelLayer
10
152.7230414
20
153.8452135
40
9.288746
50
353.4934852
51
0.2205553
0
ARC
8
back_labelLayer
10
152.434222
20
153.9197357
40
9.5775752
50
359.7680902
51
6.3095251
0
ARC
8
back_labelLayer
10
156.0419156
20
154.3337409
40
5.9462546
50
6.1648601
51
16.0396518
0
ARC
8
back_labelLayer
10
158.3659209
20
155.0186273
40
3.5235221
50
15.7779193
51
32.0151484
0
ARC
8
back_labelLayer
10
159.0904845
20
155.4335481
40
2.6893853
50
32.70347
51
35.5241319
0
ARC
8
back_labelLayer
10
159.3556744
20
155.6220279
40
2.3640397
50
35.5408356
51
79.8011276
0
ARC
8
back_labelLayer
10
159.0382087
20
154.2724222
40
3.7492528
50
78.6781247
51
90.3749718
0
LINE
8
back_labelLayer
10
174.3066406
20
148.5001103
11
173.1054688
21
148.5001103
0
LINE
8
back_labelLayer
10
173.1054688
20
148.5001103
11
172.7832031
21
150.0235478
0
LINE
8
back_labelLayer
10
172.7832031
20
150.0235478
11
172.7050781
21
150.0235478
0
LINE
8
back_labelLayer
10
170.9082031
20
154.8575322
11
172.7246094
21
154.9161259
0
LINE
8
back_labelLayer
10
172.7246094
20
154.9161259
11
172.7246094
21
155.5801884
0
LINE
8
back_labelLayer
10
167.421875
20
157.2208134
11
166.9238281
21
158.4610478
0
LINE
8
back_labelLayer
10
174.3066406
20
155.8047978
11
174.3066406
21
148.5001103
0
LINE
8
back_labelLayer
10
172.6855469
20
152.7969853
11
172.6855469
21
153.7637822
0
LINE
8
back_labelLayer
10
172.6855469
20
153.7637822
11
171.0644531
21
153.6954228
0
ARC
8
back_labelLayer
10
167.4306644
20
154.1879571
40
6.7202489
50
314.7445074
51
321.7071704
0
ARC
8
back_labelLayer
10
169.0817415
20
152.5103331
40
4.3664493
50
304.8485428
51
314.8530978
0
ARC
8
back_labelLayer
10
169.8748672
20
151.3813971
40
2.986777
50
294.3932694
51
304.7371559
0
ARC
8
back_labelLayer
10
169.6038997
20
152.0834926
40
3.7383563
50
281.2979431
51
293.7313825
0
ARC
8
back_labelLayer
10
169.2456914
20
153.8195485
40
5.5109586
50
272.9335174
51
281.4139131
0
ARC
8
back_labelLayer
10
169.1269653
20
155.6000298
40
7.2952343
50
269.9538855
51
273.1491107
0
ARC
8
back_labelLayer
10
169.0859498
20
153.279584
40
4.9749103
50
258.6719639
51
270.4047542
0
ARC
8
back_labelLayer
10
168.7403872
20
151.6265524
40
3.2862349
50
238.3273137
51
258.9183621
0
ARC
8
back_labelLayer
10
168.5022473
20
151.1920954
40
2.7915621
50
227.7689348
51
237.8050187
0
ARC
8
back_labelLayer
10
168.4277627
20
151.0881164
40
2.6645499
50
192.0827618
51
227.4520837
0
ARC
8
back_labelLayer
10
169.8014924
20
151.4267548
40
4.0789644
50
179.5457285
51
192.694943
0
ARC
8
back_labelLayer
10
168.5253096
20
151.5744445
40
2.8050261
50
115.4904649
51
182.3568121
0
ARC
8
back_labelLayer
10
169.9300973
20
148.9977752
40
5.7376476
50
101.3568205
51
117.0798671
0
ARC
8
back_labelLayer
10
171.0582719
20
143.7257077
40
11.1288529
50
92.4696269
51
101.7064866
0
ARC
8
back_labelLayer
10
171.3824904
20
139.03036
40
15.8342771
50
91.7164487
51
92.9096216
0
ARC
8
back_labelLayer
10
168.0684989
20
155.60511
40
4.6561772
50
359.693331
51
8.0035628
0
ARC
8
back_labelLayer
10
169.8298384
20
155.8616989
40
2.8762816
50
7.8272679
51
20.6041502
0
ARC
8
back_labelLayer
10
170.8265519
20
156.24299
40
1.8091542
50
20.4094277
51
41.4479322
0
ARC
8
back_labelLayer
10
170.9738197
20
156.3239384
40
1.6455973
50
42.729564
51
71.0380389
0
ARC
8
back_labelLayer
10
170.627111
20
155.3812322
40
2.6498947
50
70.5716248
51
83.9928856
0
ARC
8
back_labelLayer
10
170.4614756
20
154.035819
40
4.0053257
50
83.6506279
51
90.1753328
0
ARC
8
back_labelLayer
10
170.4905285
20
152.7633669
40
5.2779207
50
90.4484524
51
103.7665593
0
ARC
8
back_labelLayer
10
171.1111829
20
150.1460332
40
7.9677873
50
103.6226473
51
112.4320058
0
ARC
8
back_labelLayer
10
172.1750748
20
147.4597886
40
10.8568188
50
112.2122283
51
115.9640928
0
ARC
8
back_labelLayer
10
170.4713502
20
151.8822077
40
7.4743595
50
106.3568646
51
118.3349734
0
ARC
8
back_labelLayer
10
170.7896822
20
150.8988828
40
8.5075819
50
104.5161895
51
106.5489699
0
ARC
8
back_labelLayer
10
170.5562371
20
151.8715425
40
7.5074799
50
90.0714502
51
104.652096
0
ARC
8
back_labelLayer
10
170.5856983
20
152.5325074
40
6.8466192
50
81.5679788
51
90.3248934
0
ARC
8
back_labelLayer
10
170.9815605
20
155.1114421
40
4.2375352
50
68.2273377
51
81.7494148
0
ARC
8
back_labelLayer
10
171.5329279
20
156.4832925
40
2.7590347
50
47.8683409
51
68.2933994
0
ARC
8
back_labelLayer
10
171.6224197
20
156.6619777
40
2.567044
50
19.2330911
51
46.6741267
0
ARC
8
back_labelLayer
10
170.1316912
20
156.1074223
40
4.157374
50
6.3379111
51
19.6815496
0
ARC
8
back_labelLayer
10
167.9280519
20
155.8267669
40
6.3786266
50
359.8026633
51
6.658371
0
ARC
8
back_labelLayer
10
169.4761385
20
154.1059151
40
4.4633471
50
269.5792127
51
282.0413547
0
ARC
8
back_labelLayer
10
169.8017091
20
152.6618203
40
2.9831557
50
281.7120864
51
306.4593916
0
ARC
8
back_labelLayer
10
169.9460938
20
152.4243809
40
2.7065025
50
306.9880823
51
313.8559907
0
ARC
8
back_labelLayer
10
169.9288957
20
152.419491
40
2.7149381
50
314.1892061
51
347.4269792
0
ARC
8
back_labelLayer
10
168.5689102
20
152.7602966
40
4.1166607
50
346.9177645
51
0.2824482
0
ARC
8
back_labelLayer
10
167.5226294
20
152.7970382
40
5.1629176
50
359.817467
51
359.9994127
0
ARC
8
back_labelLayer
10
171.4500662
20
141.7985913
40
11.9030793
50
91.8564832
51
96.4478262
0
ARC
8
back_labelLayer
10
170.9132738
20
146.4436288
40
7.2271525
50
96.3545423
51
102.9953068
0
ARC
8
back_labelLayer
10
170.184616
20
149.5394904
40
4.0467499
50
102.7995585
51
113.24332
0
ARC
8
back_labelLayer
10
169.5839333
20
150.9760909
40
2.4897418
50
113.5886443
51
121.680458
0
ARC
8
back_labelLayer
10
169.1665917
20
151.6116959
40
1.7297996
50
120.9734105
51
172.4179761
0
ARC
8
back_labelLayer
10
169.9823049
20
151.4487613
40
2.5604465
50
171.2121897
51
180.2058228
0
ARC
8
back_labelLayer
10
169.7385229
20
151.4204208
40
2.316727
50
179.5265724
51
192.7787214
0
ARC
8
back_labelLayer
10
168.9548163
20
151.2304473
40
1.510459
50
192.326445
51
222.0579919
0
ARC
8
back_labelLayer
10
168.8965274
20
151.19559
40
1.4438911
50
222.5804588
51
229.2546163
0
ARC
8
back_labelLayer
10
169.0935082
20
151.4492005
40
1.7646752
50
229.7836963
51
254.2724368
0
ARC
8
back_labelLayer
10
169.3558684
20
152.3234906
40
2.6773946
50
253.9396744
51
266.4533722
0
ARC
8
back_labelLayer
10
169.4396009
20
153.2885805
40
3.6458941
50
266.0782346
51
270.0590643
0
LINE
8
back_labelLayer
10
184.7851563
20
158.8419072
11
184.2871094
21
157.4649541
0
LINE
8
back_labelLayer
10
184.6289063
20
150.2969853
11
184.6289063
21
148.8614384
0
ARC
8
back_labelLayer
10
181.8721212
20
154.3632527
40
6.0586755
50
256.4243755
51
270.4889884
0
ARC
8
back_labelLayer
10
181.3879769
20
152.4736772
40
4.1083396
50
221.7976345
51
256.8020472
0
ARC
8
back_labelLayer
10
181.8568144
20
152.8200827
40
4.6890531
50
196.0166575
51
221.1349271
0
ARC
8
back_labelLayer
10
184.2131655
20
153.5403047
40
7.1527796
50
183.591376
51
196.3539497
0
ARC
8
back_labelLayer
10
186.8527904
20
153.7728497
40
9.8020146
50
179.9388361
51
183.9815029
0
ARC
8
back_labelLayer
10
185.9951545
20
153.8409023
40
8.9445587
50
169.897846
51
180.3688969
0
ARC
8
back_labelLayer
10
182.8813448
20
154.4169111
40
5.7780272
50
153.0875059
51
170.1051419
0
ARC
8
back_labelLayer
10
181.6999074
20
154.9814342
40
4.4691314
50
138.6550063
51
152.6853485
0
ARC
8
back_labelLayer
10
181.479401
20
155.1421245
40
4.1975112
50
101.491292
51
138.3133869
0
ARC
8
back_labelLayer
10
181.9856242
20
153.0352793
40
6.3634321
50
89.5891859
51
102.1787782
0
ARC
8
back_labelLayer
10
182.0245506
20
152.0830162
40
7.3155347
50
77.7702363
51
89.9475301
0
ARC
8
back_labelLayer
10
181.886083
20
151.31911
40
8.0914803
50
74.6797009
51
77.9578473
0
ARC
8
back_labelLayer
10
182.6340573
20
154.0288783
40
5.2803836
50
70.094526
51
74.7386567
0
ARC
8
back_labelLayer
10
183.3454669
20
155.9784898
40
3.2050414
50
63.5034027
51
70.1861249
0
ARC
8
back_labelLayer
10
183.6860924
20
156.6915361
40
2.4149612
50
62.9282302
51
63.1884379
0
ARC
8
back_labelLayer
10
181.6240678
20
150.763004
40
7.211652
50
68.3294412
51
74.8831264
0
ARC
8
back_labelLayer
10
181.2436553
20
149.4141402
40
8.6130607
50
74.7801496
51
77.4497675
0
ARC
8
back_labelLayer
10
181.643055
20
151.2888765
40
6.6963547
50
77.2999021
51
81.7345291
0
ARC
8
back_labelLayer
10
181.934401
20
153.3189822
40
4.6454542
50
81.6910151
51
87.507921
0
ARC
8
back_labelLayer
10
181.9906145
20
154.3695998
40
3.5934013
50
87.674992
51
89.9749185
0
ARC
8
back_labelLayer
10
181.9118247
20
154.368077
40
3.595822
50
88.7193937
51
112.5667715
0
ARC
8
back_labelLayer
10
181.6563178
20
155.2128493
40
2.7191105
50
114.4265782
51
161.6632806
0
ARC
8
back_labelLayer
10
184.1945379
20
154.2193636
40
5.4429205
50
160.1418489
51
175.1368044
0
ARC
8
back_labelLayer
10
187.6880099
20
153.8270714
40
8.9575739
50
174.5309675
51
180.1549624
0
ARC
8
back_labelLayer
10
186.5812657
20
153.762305
40
7.8509016
50
179.7041402
51
188.0743723
0
ARC
8
back_labelLayer
10
183.7534707
20
153.348568
40
4.9930426
50
187.9315309
51
200.3885334
0
ARC
8
back_labelLayer
10
182.2244558
20
152.7821479
40
3.3624863
50
200.4183568
51
216.6392549
0
ARC
8
back_labelLayer
10
181.5834497
20
152.3239089
40
2.5747147
50
216.9695228
51
261.3103146
0
ARC
8
back_labelLayer
10
181.8663379
20
153.6427794
40
3.9220093
50
260.1359453
51
270.2692071
0
ARC
8
back_labelLayer
10
181.8532793
20
156.5068346
40
6.7860942
50
270.2658436
51
286.2891424
0
ARC
8
back_labelLayer
10
181.4407403
20
158.0453351
40
8.3786232
50
286.0460598
51
292.3653954
0
ARC
8
back_labelLayer
10
182.5393972
20
152.972001
40
4.6111574
50
282.0344333
51
296.9454504
0
ARC
8
back_labelLayer
10
182.0651709
20
155.1091529
40
6.8002402
50
272.5980445
51
282.1878533
0
ARC
8
back_labelLayer
10
181.9291798
20
157.1947576
40
8.8899615
50
269.9655087
51
272.8643089
0
LINE
8
back_labelLayer
10
188.6914063
20
153.9786259
11
188.7695313
21
153.9786259
0
LINE
8
back_labelLayer
10
190.0488281
20
155.5411259
11
193.5058594
21
159.2032353
0
LINE
8
back_labelLayer
10
193.5058594
20
159.2032353
11
195.4296875
21
159.2032353
0
LINE
8
back_labelLayer
10
195.4296875
20
159.2032353
11
191.09375
21
154.6426884
0
LINE
8
back_labelLayer
10
191.09375
20
154.6426884
11
195.7324219
21
148.5001103
0
LINE
8
back_labelLayer
10
195.7324219
20
148.5001103
11
193.7695313
21
148.5001103
0
LINE
8
back_labelLayer
10
193.7695313
20
148.5001103
11
189.9902344
21
153.5587041
0
LINE
8
back_labelLayer
10
189.9902344
20
153.5587041
11
188.7695313
21
152.5040166
0
LINE
8
back_labelLayer
10
188.7695313
20
152.5040166
11
188.7695313
21
148.5001103
0
LINE
8
back_labelLayer
10
188.7695313
20
148.5001103
11
187.1679688
21
148.5001103
0
LINE
8
back_labelLayer
10
187.1679688
20
148.5001103
11
187.1679688
21
163.6954228
0
LINE
8
back_labelLayer
10
187.1679688
20
163.6954228
11
188.7695313
21
163.6954228
0
LINE
8
back_labelLayer
10
188.7695313
20
163.6954228
11
188.7695313
21
155.6387822
0
ARC
8
back_labelLayer
10
196.6025346
20
148.434094
40
9.5967586
50
142.3233918
51
144.7075212
0
ARC
8
back_labelLayer
10
201.7127593
20
144.492464
40
16.0505045
50
140.4331061
51
142.3365832
0
ARC
8
back_labelLayer
10
208.3726946
20
139.0101636
40
24.6766385
50
139.2798925
51
140.470333
0
ARC
8
back_labelLayer
10
216.073863
20
132.387678
40
34.8336703
50
138.3417705
51
139.2877062
0
ARC
8
back_labelLayer
10
177.9667222
20
155.6590068
40
10.802828
50
358.2738882
51
359.8927332
0
ARC
8
back_labelLayer
10
169.5606473
20
155.8932771
40
19.2121548
50
357.5041933
51
358.3306763
0
ARC
8
back_labelLayer
10
156.9839581
20
156.4487927
40
31.8011053
50
356.6324975
51
357.4910035
0
ARC
8
back_labelLayer
10
136.0766685
20
157.6681531
40
52.7439211
50
356.0329142
51
356.6442762
0
ARC
8
back_labelLayer
10
121.4751586
20
158.6546298
40
67.378698
50
356.0205403
51
356.0550821
0
LINE
8
right_outsideCutPath
10
355
20
206
11
355
21
186.75
0
LINE
8
right_outsideCutPath
10
355
20
186.75
11
353
21
186.75
0
LINE
8
right_outsideCutPath
10
353
20
186.75
11
353
21
166.25
0
LINE
8
right_outsideCutPath
10
353
20
166.25
11
355
21
166.25
0
LINE
8
right_outsideCutPath
10
355
20
166.25
11
355
21
145.75
0
LINE
8
right_outsideCutPath
10
355
20
145.75
11
353
21
145.75
0
LINE
8
right_outsideCutPath
10
353
20
145.75
11
353
21
125.25
0
LINE
8
right_outsideCutPath
10
353
20
125.25
11
355
21
125.25
0
LINE
8
right_outsideCutPath
10
355
20
125.25
11
355
21
106
0
LINE
8
right_outsideCutPath
10
355
20
106
11
385.75
21
106
0
LINE
8
right_outsideCutPath
10
385.75
20
106
11
385.75
21
108
0
LINE
8
right_outsideCutPath
10
385.75
20
108
11
406.25
21
108
0
LINE
8
right_outsideCutPath
10
406.25
20
108
11
406.25
21
106
0
LINE
8
right_outsideCutPath
10
406.25
20
106
11
426.75
21
106
0
LINE
8
right_outsideCutPath
10
426.75
20
106
11
426.75
21
108
0
LINE
8
right_outsideCutPath
10
426.75
20
108
11
447.25
21
108
0
LINE
8
right_outsideCutPath
10
447.25
20
108
11
447.25
21
106
0
LINE
8
right_outsideCutPath
10
447.25
20
106
11
467.75
21
106
0
LINE
8
right_outsideCutPath
10
467.75
20
106
11
467.75
21
108
0
LINE
8
right_outsideCutPath
10
467.75
20
108
11
488.25
21
108
0
LINE
8
right_outsideCutPath
10
488.25
20
108
11
488.25
21
106
0
LINE
8
right_outsideCutPath
10
488.25
20
106
11
508.75
21
106
0
LINE
8
right_outsideCutPath
10
508.75
20
106
11
508.75
21
108
0
LINE
8
right_outsideCutPath
10
508.75
20
108
11
529.25
21
108
0
LINE
8
right_outsideCutPath
10
529.25
20
108
11
529.25
21
106
0
LINE
8
right_outsideCutPath
10
529.25
20
106
11
549.75
21
106
0
LINE
8
right_outsideCutPath
10
549.75
20
106
11
549.75
21
108
0
LINE
8
right_outsideCutPath
10
549.75
20
108
11
570.25
21
108
0
LINE
8
right_outsideCutPath
10
570.25
20
108
11
570.25
21
106
0
LINE
8
right_outsideCutPath
10
570.25
20
106
11
590.75
21
106
0
LINE
8
right_outsideCutPath
10
590.75
20
106
11
601
21
106
0
LINE
8
right_outsideCutPath
10
601
20
106
11
601
21
125.25
0
LINE
8
right_outsideCutPath
10
601
20
125.25
11
603
21
125.25
0
LINE
8
right_outsideCutPath
10
603
20
125.25
11
603
21
145.75
0
LINE
8
right_outsideCutPath
10
603
20
145.75
11
601
21
145.75
0
LINE
8
right_outsideCutPath
10
601
20
145.75
11
601
21
166.25
0
LINE
8
right_outsideCutPath
10
601
20
166.25
11
603
21
166.25
0
LINE
8
right_outsideCutPath
10
603
20
166.25
11
603
21
186.75
0
LINE
8
right_outsideCutPath
10
603
20
186.75
11
601
21
186.75
0
LINE
8
right_outsideCutPath
10
601
20
186.75
11
601
21
206
0
LINE
8
right_outsideCutPath
10
601
20
206
11
570.25
21
206
0
LINE
8
right_outsideCutPath
10
570.25
20
206
11
570.25
21
204
0
LINE
8
right_outsideCutPath
10
570.25
20
204
11
549.75
21
204
0
LINE
8
right_outsideCutPath
10
549.75
20
204
11
549.75
21
206
0
LINE
8
right_outsideCutPath
10
549.75
20
206
11
529.25
21
206
0
LINE
8
right_outsideCutPath
10
529.25
20
206
11
529.25
21
204
0
LINE
8
right_outsideCutPath
10
529.25
20
204
11
508.75
21
204
0
LINE
8
right_outsideCutPath
10
508.75
20
204
11
508.75
21
206
0
LINE
8
right_outsideCutPath
10
508.75
20
206
11
488.25
21
206
0
LINE
8
right_outsideCutPath
10
488.25
20
206
11
488.25
21
204
0
LINE
8
right_outsideCutPath
10
488.25
20
204
11
467.75
21
204
0
LINE
8
right_outsideCutPath
10
467.75
20
204
11
467.75
21
206
0
LINE
8
right_outsideCutPath
10
467.75
20
206
11
447.25
21
206
0
LINE
8
right_outsideCutPath
10
447.25
20
206
11
447.25
21
204
0
LINE
8
right_outsideCutPath
10
447.25
20
204
11
426.75
21
204
0
LINE
8
right_outsideCutPath
10
426.75
20
204
11
426.75
21
206
0
LINE
8
right_outsideCutPath
10
426.75
20
206
11
406.25
21
206
0
LINE
8
right_outsideCutPath
10
406.25
20
206
11
406.25
21
204
0
LINE
8
right_outsideCutPath
10
406.25
20
204
11
385.75
21
204
0
LINE
8
right_outsideCutPath
10
385.75
20
204
11
385.75
21
206
0
LINE
8
right_outsideCutPath
10
385.75
20
206
11
365.25
21
206
0
LINE
8
right_outsideCutPath
10
365.25
20
206
11
355
21
206
0
LINE
8
right_labelLayer
10
463.4736328
20
161.5859965
11
463.2490234
21
160.0820902
0
LINE
8
right_labelLayer
10
458.9326172
20
156.546934
11
458.9326172
21
150.8047465
0
LINE
8
right_labelLayer
10
458.9326172
20
150.8047465
11
457.3115234
21
150.8047465
0
LINE
8
right_labelLayer
10
457.3115234
20
150.8047465
11
457.3115234
21
161.5078715
0
LINE
8
right_labelLayer
10
457.3115234
20
161.5078715
11
458.6494141
21
161.5078715
0
LINE
8
right_labelLayer
10
458.6494141
20
161.5078715
11
458.8349609
21
159.5254496
0
LINE
8
right_labelLayer
10
458.8349609
20
159.5254496
11
458.9130859
21
159.5254496
0
ARC
8
right_labelLayer
10
462.2109731
20
154.2609915
40
7.4422111
50
84.992291
51
90.1280853
0
ARC
8
right_labelLayer
10
462.3897017
20
156.263446
40
5.4317999
50
78.4891881
51
85.0266001
0
ARC
8
right_labelLayer
10
461.6959917
20
153.1082823
40
7.1446416
50
77.4453847
51
81.6360114
0
ARC
8
right_labelLayer
10
462.0072803
20
155.2539438
40
4.9765227
50
81.5884291
51
87.1916446
0
ARC
8
right_labelLayer
10
462.074891
20
156.4262208
40
3.8023544
50
87.3437351
51
89.9659832
0
ARC
8
right_labelLayer
10
462.0591828
20
157.4197569
40
2.8088752
50
89.6335332
51
137.0880824
0
ARC
8
right_labelLayer
10
462.7484147
20
156.6446749
40
3.8426618
50
135.6208614
51
138.8378137
0
ARC
8
right_labelLayer
10
462.6475217
20
156.7431608
40
3.7018901
50
138.9575794
51
174.5422254
0
ARC
8
right_labelLayer
10
463.8531895
20
156.5545133
40
4.9205781
50
173.6907914
51
180.0882543
0
ARC
8
right_labelLayer
10
463.6826861
20
156.838279
40
5.4744836
50
139.4139283
51
150.6032915
0
ARC
8
right_labelLayer
10
462.7011144
20
157.6793819
40
4.1818363
50
124.2321574
51
139.4160923
0
ARC
8
right_labelLayer
10
462.1762687
20
158.471632
40
3.2316024
50
89.6796684
51
124.4405593
0
LINE
8
right_labelLayer
10
467.0966797
20
161.5078715
11
467.0966797
21
150.8047465
0
LINE
8
right_labelLayer
10
467.0966797
20
150.8047465
11
465.4755859
21
150.8047465
0
LINE
8
right_labelLayer
10
465.4755859
20
150.8047465
11
465.4755859
21
161.5078715
0
LINE
8
right_labelLayer
10
465.4755859
20
161.5078715
11
467.0966797
21
161.5078715
0
ARC
8
right_labelLayer
10
467.1352002
20
164.4193747
40
1.7963674
50
170.84516
51
180.354443
0
ARC
8
right_labelLayer
10
466.4627107
20
164.5318181
40
1.1145614
50
155.96784
51
171.0516068
0
ARC
8
right_labelLayer
10
466.1369972
20
164.676319
40
0.7582342
50
133.7880515
51
155.9170999
0
ARC
8
right_labelLayer
10
466.2572495
20
164.5433735
40
0.9374362
50
92.6445969
51
133.4710463
0
ARC
8
right_labelLayer
10
466.2952373
20
164.2449592
40
1.2375218
50
89.969388
51
93.7640939
0
ARC
8
right_labelLayer
10
466.3106995
20
164.5274675
40
0.955128
50
46.3708278
51
90.8879141
0
ARC
8
right_labelLayer
10
466.4057574
20
164.625602
40
0.8185082
50
17.7252267
51
46.4473562
0
ARC
8
right_labelLayer
10
465.9624771
20
164.4729548
40
1.2872609
50
4.9427611
51
18.1900435
0
ARC
8
right_labelLayer
10
465.3986025
20
164.4119934
40
1.854331
50
359.8847085
51
5.3182096
0
ARC
8
right_labelLayer
10
465.5756929
20
164.3968732
40
1.6772754
50
349.8345182
51
0.3890488
0
ARC
8
right_labelLayer
10
466.1863228
20
164.2829624
40
1.0561358
50
332.6322522
51
350.070587
0
ARC
8
right_labelLayer
10
466.4239914
20
164.1656033
40
0.7911343
50
313.6153551
51
332.2677738
0
ARC
8
right_labelLayer
10
466.3094523
20
164.2698955
40
0.9457148
50
269.1788142
51
314.2807511
0
ARC
8
right_labelLayer
10
466.2851545
20
164.3539714
40
1.0297497
50
250.5000439
51
270.5978105
0
ARC
8
right_labelLayer
10
466.2539904
20
164.2374378
40
0.9095473
50
225.1300523
51
249.9001405
0
ARC
8
right_labelLayer
10
466.2051983
20
164.1835405
40
0.8369342
50
197.7933491
51
224.8942061
0
ARC
8
right_labelLayer
10
466.6618577
20
164.3400336
40
1.3196052
50
184.9925272
51
198.2040554
0
ARC
8
right_labelLayer
10
467.2528838
20
164.4042737
40
1.9140208
50
179.8806098
51
185.368566
0
LINE
8
right_labelLayer
10
475.5927734
20
161.5078715
11
479.2939453
21
161.5078715
0
LINE
8
right_labelLayer
10
479.2939453
20
161.5078715
11
479.2939453
21
160.4824808
0
LINE
8
right_labelLayer
10
479.2939453
20
160.4824808
11
477.3115234
21
160.2481058
0
LINE
8
right_labelLayer
10
473.6591797
20
152.5039652
11
475.5537109
21
152.5039652
0
LINE
8
right_labelLayer
10
475.0361328
20
151.0488871
11
473.0927734
21
151.0488871
0
ARC
8
right_labelLayer
10
475.2457144
20
158.6132451
40
2.6344519
50
29.4583912
51
38.3577421
0
ARC
8
right_labelLayer
10
474.1691082
20
157.9986554
40
3.874121
50
23.1845822
51
29.5421815
0
ARC
8
right_labelLayer
10
473.1419093
20
157.5431305
40
4.997723
50
21.2506855
51
23.3489206
0
ARC
8
right_labelLayer
10
474.8879468
20
158.2375399
40
3.1187547
50
6.8504735
51
20.9872
0
ARC
8
right_labelLayer
10
474.0095809
20
158.1184446
40
4.0050778
50
359.8710952
51
7.0432407
0
ARC
8
right_labelLayer
10
474.2985676
20
158.070793
40
3.7162817
50
342.5649726
51
0.5957577
0
ARC
8
right_labelLayer
10
474.983963
20
157.8815291
40
3.0057696
50
310.6097754
51
342.0923762
0
ARC
8
right_labelLayer
10
474.5996172
20
158.3285942
40
3.5953358
50
284.9315915
51
310.6222663
0
ARC
8
right_labelLayer
10
474.1186565
20
160.0139454
40
5.3477935
50
272.5334957
51
285.257977
0
ARC
8
right_labelLayer
10
473.9949931
20
161.7031846
40
7.0410173
50
269.9692232
51
272.9311949
0
ARC
8
right_labelLayer
10
473.9796499
20
159.8721008
40
5.2099453
50
263.4836855
51
270.1271415
0
ARC
8
right_labelLayer
10
473.8947813
20
159.0659981
40
4.3994247
50
259.4963395
51
263.3904223
0
ARC
8
right_labelLayer
10
474.4200129
20
152.179081
40
2.8846791
50
117.3935299
51
128.4095265
0
ARC
8
right_labelLayer
10
473.6773789
20
153.1003731
40
1.7014082
50
128.0881899
51
147.1400598
0
ARC
8
right_labelLayer
10
473.2772978
20
153.368858
40
1.2196931
50
147.5369239
51
180.2592022
0
ARC
8
right_labelLayer
10
472.8977479
20
153.3529568
40
0.8401949
50
179.291902
51
198.3580478
0
ARC
8
right_labelLayer
10
472.7404361
20
153.3116135
40
0.6779462
50
199.2291438
51
239.5690898
0
ARC
8
right_labelLayer
10
472.8707957
20
153.4917189
40
0.8995167
50
238.2200043
51
239.8460148
0
ARC
8
right_labelLayer
10
472.9749236
20
153.7058924
40
1.1371495
50
240.7301941
51
254.5027091
0
ARC
8
right_labelLayer
10
473.28529
20
154.7754
40
2.2507401
50
254.1636876
51
262.2122981
0
ARC
8
right_labelLayer
10
473.5311249
20
156.4924505
40
3.9852803
50
262.0555586
51
267.2083598
0
ARC
8
right_labelLayer
10
473.649889
20
158.6707901
40
6.1668318
50
267.0919511
51
270.0863196
0
ARC
8
right_labelLayer
10
475.5891476
20
145.8682378
40
6.635822
50
81.5744259
51
90.3059724
0
ARC
8
right_labelLayer
10
475.9531372
20
148.2421106
40
4.2342546
50
68.367136
51
81.7399222
0
ARC
8
right_labelLayer
10
476.4285434
20
149.4570733
40
2.9296117
50
52.1879624
51
68.2500955
0
ARC
8
right_labelLayer
10
476.7611951
20
149.9052999
40
2.3715914
50
8.6201447
51
51.898241
0
ARC
8
right_labelLayer
10
475.5953033
20
149.6586094
40
3.5619591
50
359.7430778
51
9.7326305
0
ARC
8
right_labelLayer
10
475.6475253
20
149.5985216
40
3.5099785
50
340.5268782
51
0.720146
0
ARC
8
right_labelLayer
10
476.1632266
20
149.4701182
40
2.9814051
50
302.9903718
51
339.5494545
0
ARC
8
right_labelLayer
10
475.6210276
20
150.1593159
40
3.8555242
50
303.1871148
51
304.1720169
0
ARC
8
right_labelLayer
10
475.1173545
20
151.0315523
40
4.8615076
50
286.254211
51
302.5280183
0
ARC
8
right_labelLayer
10
474.1992089
20
154.0600161
40
8.0259813
50
276.4939772
51
286.4953662
0
ARC
8
right_labelLayer
10
473.6263399
20
158.8488822
40
12.8489412
50
269.7545176
51
276.6169549
0
ARC
8
right_labelLayer
10
473.5285043
20
155.0825184
40
9.0825602
50
262.5634818
51
270.2699014
0
ARC
8
right_labelLayer
10
473.0836576
20
151.7853262
40
5.7555434
50
251.2102012
51
262.7064068
0
ARC
8
right_labelLayer
10
472.4424834
20
149.9033831
40
3.767375
50
235.966797
51
251.2229064
0
ARC
8
right_labelLayer
10
471.7628952
20
148.93388
40
2.5836695
50
208.9036115
51
236.4231609
0
ARC
8
right_labelLayer
10
471.8252833
20
148.9077284
40
2.6261819
50
182.2079755
51
207.7461672
0
ARC
8
right_labelLayer
10
472.6194471
20
148.987056
40
3.4231584
50
179.9785049
51
183.0226599
0
ARC
8
right_labelLayer
10
471.6746382
20
149.0318278
40
2.4787307
50
138.391614
51
181.0052658
0
ARC
8
right_labelLayer
10
471.936396
20
148.7965852
40
2.8306574
50
113.8121401
51
138.3496206
0
ARC
8
right_labelLayer
10
472.4329196
20
147.7243837
40
4.0121099
50
102.2870907
51
114.1172764
0
ARC
8
right_labelLayer
10
472.276901
20
153.1755483
40
1.6824853
50
216.5861576
51
245.4968502
0
ARC
8
right_labelLayer
10
472.517679
20
153.3798314
40
1.9976852
50
215.4650457
51
217.1747138
0
ARC
8
right_labelLayer
10
472.1165759
20
153.0901191
40
1.5029096
50
182.1767501
51
215.3415496
0
ARC
8
right_labelLayer
10
472.4738967
20
153.1284392
40
1.8615921
50
179.9838091
51
182.937617
0
ARC
8
right_labelLayer
10
472.4660535
20
153.1446357
40
1.853815
50
161.7226125
51
180.4843331
0
ARC
8
right_labelLayer
10
472.262229
20
153.2002517
40
1.6428689
50
144.4963479
51
161.335045
0
ARC
8
right_labelLayer
10
472.8055658
20
152.7953075
40
2.320404
50
132.7259275
51
144.1479182
0
ARC
8
right_labelLayer
10
473.676352
20
151.8654116
40
3.594345
50
125.2212527
51
132.8655526
0
ARC
8
right_labelLayer
10
474.5518309
20
150.6497015
40
5.0924354
50
121.2352449
51
125.3794758
0
ARC
8
right_labelLayer
10
472.9998391
20
157.6290665
40
2.8419075
50
215.1640727
51
247.4747853
0
ARC
8
right_labelLayer
10
473.5303222
20
158.0571898
40
3.5224263
50
212.4714021
51
215.887566
0
ARC
8
right_labelLayer
10
473.3908273
20
157.9573907
40
3.351173
50
183.0160775
51
212.312319
0
ARC
8
right_labelLayer
10
474.1261667
20
158.0393543
40
4.0900342
50
179.9759015
51
183.6206916
0
ARC
8
right_labelLayer
10
474.7195808
20
158.0806338
40
4.683615
50
166.8195875
51
180.4839435
0
ARC
8
right_labelLayer
10
473.1658397
20
158.472919
40
3.0814803
50
132.3287821
51
167.3340828
0
ARC
8
right_labelLayer
10
473.373709
20
158.1741229
40
3.4426821
50
106.2189004
51
131.5377554
0
ARC
8
right_labelLayer
10
473.8996577
20
156.4711407
40
5.2248723
50
93.632975
51
106.5408676
0
ARC
8
right_labelLayer
10
474.0713547
20
154.5435392
40
7.1596488
50
89.9380052
51
94.0267838
0
ARC
8
right_labelLayer
10
474.0991611
20
155.4894799
40
6.2137364
50
82.585225
51
90.1849663
0
ARC
8
right_labelLayer
10
474.2890225
20
156.9584787
40
4.7325197
50
74.0089194
51
82.5694553
0
ARC
8
right_labelLayer
10
472.3867554
20
148.9857284
40
1.6281169
50
179.2207309
51
200.935564
0
ARC
8
right_labelLayer
10
472.193143
20
148.9408972
40
1.4315278
50
202.028675
51
236.1457476
0
ARC
8
right_labelLayer
10
472.4849161
20
149.3113575
40
1.9020601
50
235.0634158
51
238.5041866
0
ARC
8
right_labelLayer
10
472.824176
20
149.917318
40
2.5961346
50
239.106615
51
254.4863067
0
ARC
8
right_labelLayer
10
473.2764728
20
151.4768186
40
4.219834
50
254.2323945
51
263.4937537
0
ARC
8
right_labelLayer
10
473.5605871
20
153.8832019
40
6.6429195
50
263.4108368
51
270.1457377
0
ARC
8
right_labelLayer
10
473.5906895
20
155.4652806
40
8.2249871
50
269.9080095
51
270.0009111
0
ARC
8
right_labelLayer
10
473.6296693
20
158.1380649
40
10.8978408
50
269.7957494
51
275.3991084
0
ARC
8
right_labelLayer
10
474.0375397
20
153.9508652
40
6.6908512
50
275.2957034
51
283.3515941
0
ARC
8
right_labelLayer
10
474.702051
20
151.213867
40
3.8744047
50
283.1370673
51
295.8573119
0
ARC
8
right_labelLayer
10
475.1944185
20
150.1389585
40
2.6924989
50
296.4048133
51
301.800872
0
ARC
8
right_labelLayer
10
475.387477
20
149.8728482
40
2.3647203
50
301.2230954
51
318.6238129
0
ARC
8
right_labelLayer
10
475.8228919
20
149.4706383
40
1.7721859
50
319.0765535
51
1.1406985
0
ARC
8
right_labelLayer
10
475.4015074
20
149.5232944
40
2.193288
50
359.5460775
51
10.9904899
0
ARC
8
right_labelLayer
10
476.2486928
20
149.6956118
40
1.3288113
50
10.6608775
51
30.9361534
0
ARC
8
right_labelLayer
10
476.5173109
20
149.8446848
40
1.0218218
50
31.5095492
51
58.0777723
0
ARC
8
right_labelLayer
10
476.2655513
20
149.3938992
40
1.5377539
50
58.9972155
51
73.8586059
0
ARC
8
right_labelLayer
10
475.7566869
20
147.7280294
40
3.2795218
50
73.4099876
51
81.5906846
0
ARC
8
right_labelLayer
10
475.3255288
20
144.9378407
40
6.102794
50
81.4172367
51
86.575637
0
ARC
8
right_labelLayer
10
475.0613221
20
140.7339935
40
10.3149243
50
86.5054507
51
90.139918
0
ARC
8
right_labelLayer
10
473.0695872
20
147.3225499
40
3.7264093
50
89.6434955
51
100.0209284
0
ARC
8
right_labelLayer
10
472.8353753
20
148.5966364
40
2.4310217
50
99.810277
51
116.8229778
0
ARC
8
right_labelLayer
10
472.6072334
20
149.0777576
40
1.8987691
50
117.2304679
51
130.5023043
0
ARC
8
right_labelLayer
10
472.4900887
20
149.2283167
40
1.7082263
50
130.7944641
51
169.0413514
0
ARC
8
right_labelLayer
10
473.352704
20
149.025168
40
2.5939725
50
168.2580722
51
180.3820499
0
ARC
8
right_labelLayer
10
474.8019445
20
158.055935
40
3.1643417
50
179.5617754
51
191.6528905
0
ARC
8
right_labelLayer
10
473.7017349
20
157.8182313
40
2.0388239
50
191.3555163
51
213.366036
0
ARC
8
right_labelLayer
10
473.4375221
20
157.6656723
40
1.7343473
50
213.9573883
51
227.7971276
0
ARC
8
right_labelLayer
10
473.6673917
20
157.9444687
40
2.0953571
50
228.2620612
51
254.7341401
0
ARC
8
right_labelLayer
10
473.9610679
20
158.9511909
40
3.1439339
50
254.4016282
51
267.4348698
0
ARC
8
right_labelLayer
10
474.0376859
20
159.9787639
40
4.174018
50
267.0154833
51
270.0323008
0
ARC
8
right_labelLayer
10
474.0877649
20
159.3360605
40
3.5316365
50
269.2256931
51
284.3773202
0
ARC
8
right_labelLayer
10
474.5691216
20
157.659008
40
1.788278
50
282.7796683
51
346.4828524
0
ARC
8
right_labelLayer
10
473.1299962
20
158.066651
40
3.2833685
50
345.4362055
51
0.7465961
0
ARC
8
right_labelLayer
10
472.9276957
20
158.1592801
40
3.4857466
50
359.1806438
51
15.0431674
0
ARC
8
right_labelLayer
10
474.5071517
20
158.6200239
40
1.8411661
50
13.9535587
51
77.6673868
0
ARC
8
right_labelLayer
10
474.0539902
20
156.9960842
40
3.5257245
50
76.1095116
51
90.702832
0
ARC
8
right_labelLayer
10
473.9861611
20
157.1201095
40
3.4015226
50
89.5859491
51
101.3333872
0
ARC
8
right_labelLayer
10
473.7430772
20
158.279522
40
2.2169729
50
101.0620478
51
121.9739155
0
ARC
8
right_labelLayer
10
473.572236
20
158.5868511
40
1.8658881
50
122.5210678
51
134.9967093
0
ARC
8
right_labelLayer
10
473.6425819
20
158.544701
40
1.9455358
50
135.5840084
51
163.001576
0
ARC
8
right_labelLayer
10
474.6699682
20
158.2079612
40
3.0265604
50
162.5912073
51
175.7343257
0
ARC
8
right_labelLayer
10
475.9022134
20
158.08657
40
4.2645229
50
175.3393345
51
180.0864289
0
LINE
8
right_labelLayer
10
490.4365234
20
150.8047465
11
488.8154297
21
150.8047465
0
LINE
8
right_labelLayer
10
488.8154297
20
150.8047465
11
488.8154297
21
157.7285746
0
LINE
8
right_labelLayer
10
483.1123047
20
156.4004496
11
483.1123047
21
150.8047465
0
LINE
8
right_labelLayer
10
483.1123047
20
150.8047465
11
481.4912109
21
150.8047465
0
LINE
8
right_labelLayer
10
481.4912109
20
150.8047465
11
481.4912109
21
166.000059
0
LINE
8
right_labelLayer
10
481.4912109
20
166.000059
11
483.1123047
21
166.000059
0
LINE
8
right_labelLayer
10
483.1123047
20
166.000059
11
483.1123047
21
161.4004496
0
LINE
8
right_labelLayer
10
483.0341797
20
160.0234965
11
483.1318359
21
160.0234965
0
LINE
8
right_labelLayer
10
490.4365234
20
157.7871683
11
490.4365234
21
150.8047465
0
ARC
8
right_labelLayer
10
484.2330699
20
157.7548532
40
4.5824351
50
359.6714273
51
8.6877183
0
ARC
8
right_labelLayer
10
485.931464
20
158.0242078
40
2.8628588
50
8.4931172
51
22.6580015
0
ARC
8
right_labelLayer
10
486.7943479
20
158.3827957
40
1.9284334
50
22.7024538
51
42.3419526
0
ARC
8
right_labelLayer
10
486.8913429
20
158.4264271
40
1.8276521
50
43.3791036
51
71.5386098
0
ARC
8
right_labelLayer
10
486.5286364
20
157.4129338
40
2.9039368
50
71.0827882
51
84.3690971
0
ARC
8
right_labelLayer
10
486.3658248
20
156.0286776
40
4.2975682
50
84.0197499
51
90.1510883
0
ARC
8
right_labelLayer
10
486.3195551
20
155.4206932
40
4.9056621
50
89.5919487
51
100.3595241
0
ARC
8
right_labelLayer
10
485.972191
20
157.2461406
40
3.047537
50
100.1068053
51
118.0847271
0
ARC
8
right_labelLayer
10
485.6188898
20
157.9394039
40
2.2696253
50
118.4551041
51
139.6706062
0
ARC
8
right_labelLayer
10
485.9735781
20
157.6969689
40
2.6972872
50
140.6208152
51
160.5049118
0
ARC
8
right_labelLayer
10
487.8431877
20
157.0048458
40
4.6907784
50
160.1567165
51
171.5312858
0
ARC
8
right_labelLayer
10
490.8682624
20
156.5255609
40
7.7535057
50
171.3202501
51
178.3406756
0
ARC
8
right_labelLayer
10
493.5748205
20
156.4046422
40
10.4625167
50
178.1079588
51
180.0229599
0
ARC
8
right_labelLayer
10
468.5295732
20
161.3830616
40
14.5827418
50
357.8674098
51
0.0683177
0
ARC
8
right_labelLayer
10
473.4833994
20
161.1940583
40
9.6253145
50
354.9828812
51
357.8943747
0
ARC
8
right_labelLayer
10
476.755291
20
160.9091495
40
6.3410428
50
351.9712528
51
354.9619117
0
ARC
8
right_labelLayer
10
485.8776945
20
158.3058665
40
3.2388257
50
119.8315968
51
147.9725896
0
ARC
8
right_labelLayer
10
486.2698747
20
157.7034066
40
3.9567528
50
116.6658028
51
120.4183243
0
ARC
8
right_labelLayer
10
486.3431111
20
157.5110347
40
4.1615837
50
96.6652572
51
116.3782364
0
ARC
8
right_labelLayer
10
486.5008935
20
156.4224061
40
5.2612558
50
89.8927469
51
96.9958896
0
ARC
8
right_labelLayer
10
486.5513445
20
155.1067581
40
6.5770199
50
80.6863111
51
90.3537096
0
ARC
8
right_labelLayer
10
486.9608715
20
157.5155442
40
4.1337356
50
65.6022926
51
80.8843959
0
ARC
8
right_labelLayer
10
487.4526385
20
158.6231159
40
2.9219527
50
46.7401062
51
65.4130663
0
ARC
8
right_labelLayer
10
487.4860634
20
158.728651
40
2.8225978
50
19.2204318
51
45.7660665
0
ARC
8
right_labelLayer
10
485.8585273
20
158.1253107
40
4.5581614
50
6.4733964
51
19.6467979
0
ARC
8
right_labelLayer
10
483.4266044
20
157.8123096
40
7.009964
50
359.7945084
51
6.7743941
0
LINE
8
right_labelLayer
10
498.6884766
20
152.1426371
11
498.6884766
21
150.9024027
0
LINE
8
right_labelLayer
10
493.8837891
20
153.8809183
11
493.8837891
21
160.2481058
0
LINE
8
right_labelLayer
10
493.8837891
20
160.2481058
11
492.3505859
21
160.2481058
0
LINE
8
right_labelLayer
10
492.3505859
20
160.2481058
11
492.3505859
21
161.0293558
0
LINE
8
right_labelLayer
10
492.3505859
20
161.0293558
11
493.8837891
21
161.703184
0
LINE
8
right_labelLayer
10
493.8837891
20
161.703184
11
494.5673828
21
163.9883402
0
LINE
8
right_labelLayer
10
494.5673828
20
163.9883402
11
495.5048828
21
163.9883402
0
LINE
8
right_labelLayer
10
495.5048828
20
163.9883402
11
495.5048828
21
161.5078715
0
LINE
8
right_labelLayer
10
495.5048828
20
161.5078715
11
498.6103516
21
161.5078715
0
LINE
8
right_labelLayer
10
498.6103516
20
161.5078715
11
498.6103516
21
160.2481058
0
LINE
8
right_labelLayer
10
498.6103516
20
160.2481058
11
495.5048828
21
160.2481058
0
LINE
8
right_labelLayer
10
495.5048828
20
160.2481058
11
495.5048828
21
153.9492777
0
ARC
8
right_labelLayer
10
497.2347514
20
157.2712074
40
5.3238944
50
269.8803417
51
278.3028182
0
ARC
8
right_labelLayer
10
497.284398
20
156.8638546
40
4.9136514
50
278.4158959
51
279.0076561
0
ARC
8
right_labelLayer
10
496.6880479
20
160.6734033
40
8.7695902
50
278.9589695
51
280.5103918
0
ARC
8
right_labelLayer
10
497.2573839
20
157.6185373
40
5.6621249
50
280.4847522
51
282.6268451
0
ARC
8
right_labelLayer
10
497.7566736
20
155.4003626
40
3.3884538
50
282.5876165
51
285.5795336
0
ARC
8
right_labelLayer
10
498.0083329
20
154.4750941
40
2.429599
50
285.7231888
51
286.2566654
0
ARC
8
right_labelLayer
10
498.0069231
20
152.3439275
40
1.5945246
50
287.9888406
51
295.3048016
0
ARC
8
right_labelLayer
10
497.6223285
20
153.5075088
40
2.8200086
50
283.3069861
51
288.1197567
0
ARC
8
right_labelLayer
10
497.2160747
20
155.2021221
40
4.5626327
50
280.0069961
51
283.3735389
0
ARC
8
right_labelLayer
10
496.9442668
20
156.6772062
40
6.0625179
50
279.1862135
51
280.1142603
0
ARC
8
right_labelLayer
10
496.7773867
20
157.6263542
40
7.0261467
50
275.5260122
51
279.2939725
0
ARC
8
right_labelLayer
10
496.9654064
20
155.6624417
40
5.0532558
50
270.8932457
51
275.5483966
0
ARC
8
right_labelLayer
10
496.9890142
20
154.7653064
40
4.1558726
50
270.0033586
51
270.7606301
0
ARC
8
right_labelLayer
10
496.9238416
20
154.8429864
40
4.2340578
50
253.784789
51
270.8852547
0
ARC
8
right_labelLayer
10
496.4222185
20
153.1322616
40
2.4513133
50
190.3817699
51
253.8772374
0
ARC
8
right_labelLayer
10
498.9789898
20
153.8235667
40
5.0955236
50
179.3551054
51
192.8477577
0
ARC
8
right_labelLayer
10
498.7691821
20
153.9288628
40
3.2643631
50
179.6416773
51
189.7505556
0
ARC
8
right_labelLayer
10
497.616792
20
153.7233226
40
2.093823
50
189.5479676
51
205.7873396
0
ARC
8
right_labelLayer
10
497.1432062
20
153.5049372
40
1.5724225
50
206.1294051
51
221.408398
0
ARC
8
right_labelLayer
10
497.0901078
20
153.464647
40
1.505957
50
221.5949091
51
262.3505289
0
ARC
8
right_labelLayer
10
497.2163992
20
154.1140853
40
2.1667729
50
261.3266216
51
270.1912791
0
LINE
8
bottom_outsideCutPath
10
608
20
504
11
608
21
473.25
0
LINE
8
bottom_outsideCutPath
10
608
20
473.25
11
606
21
473.25
0
LINE
8
bottom_outsideCutPath
10
606
20
473.25
11
606
21
452.75
0
LINE
8
bottom_outsideCutPath
10
606
20
452.75
11
608
21
452.75
0
LINE
8
bottom_outsideCutPath
10
608
20
452.75
11
608
21
432.25
0
LINE
8
bottom_outsideCutPath
10
608
20
432.25
11
606
21
432.25
0
LINE
8
bottom_outsideCutPath
10
606
20
432.25
11
606
21
411.75
0
LINE
8
bottom_outsideCutPath
10
606
20
411.75
11
608
21
411.75
0
LINE
8
bottom_outsideCutPath
10
608
20
411.75
11
608
21
391.25
0
LINE
8
bottom_outsideCutPath
10
608
20
391.25
11
606
21
391.25
0
LINE
8
bottom_outsideCutPath
10
606
20
391.25
11
606
21
370.75
0
LINE
8
bottom_outsideCutPath
10
606
20
370.75
11
608
21
370.75
0
LINE
8
bottom_outsideCutPath
10
608
20
370.75
11
608
21
350.25
0
LINE
8
bottom_outsideCutPath
10
608
20
350.25
11
606
21
350.25
0
LINE
8
bottom_outsideCutPath
10
606
20
350.25
11
606
21
329.75
0
LINE
8
bottom_outsideCutPath
10
606
20
329.75
11
608
21
329.75
0
LINE
8
bottom_outsideCutPath
10
608
20
329.75
11
608
21
309.25
0
LINE
8
bottom_outsideCutPath
10
608
20
309.25
11
606
21
309.25
0
LINE
8
bottom_outsideCutPath
10
606
20
309.25
11
606
21
288.75
0
LINE
8
bottom_outsideCutPath
10
606
20
288.75
11
608
21
288.75
0
LINE
8
bottom_outsideCutPath
10
608
20
288.75
11
608
21
268.25
0
LINE
8
bottom_outsideCutPath
10
608
20
268.25
11
608
21
258
0
LINE
8
bottom_outsideCutPath
10
608
20
258
11
627.25
21
258
0
LINE
8
bottom_outsideCutPath
10
627.25
20
258
11
627.25
21
256
0
LINE
8
bottom_outsideCutPath
10
627.25
20
256
11
647.75
21
256
0
LINE
8
bottom_outsideCutPath
10
647.75
20
256
11
647.75
21
258
0
LINE
8
bottom_outsideCutPath
10
647.75
20
258
11
668.25
21
258
0
LINE
8
bottom_outsideCutPath
10
668.25
20
258
11
668.25
21
256
0
LINE
8
bottom_outsideCutPath
10
668.25
20
256
11
688.75
21
256
0
LINE
8
bottom_outsideCutPath
10
688.75
20
256
11
688.75
21
258
0
LINE
8
bottom_outsideCutPath
10
688.75
20
258
11
709.25
21
258
0
LINE
8
bottom_outsideCutPath
10
709.25
20
258
11
709.25
21
256
0
LINE
8
bottom_outsideCutPath
10
709.25
20
256
11
729.75
21
256
0
LINE
8
bottom_outsideCutPath
10
729.75
20
256
11
729.75
21
258
0
LINE
8
bottom_outsideCutPath
10
729.75
20
258
11
750.25
21
258
0
LINE
8
bottom_outsideCutPath
10
750.25
20
258
11
750.25
21
256
0
LINE
8
bottom_outsideCutPath
10
750.25
20
256
11
770.75
21
256
0
LINE
8
bottom_outsideCutPath
10
770.75
20
256
11
770.75
21
258
0
LINE
8
bottom_outsideCutPath
10
770.75
20
258
11
791.25
21
258
0
LINE
8
bottom_outsideCutPath
10
791.25
20
258
11
791.25
21
256
0
LINE
8
bottom_outsideCutPath
10
791.25
20
256
11
811.75
21
256
0
LINE
8
bottom_outsideCutPath
10
811.75
20
256
11
811.75
21
258
0
LINE
8
bottom_outsideCutPath
10
811.75
20
258
11
832.25
21
258
0
LINE
8
bottom_outsideCutPath
10
832.25
20
258
11
832.25
21
256
0
LINE
8
bottom_outsideCutPath
10
832.25
20
256
11
852.75
21
256
0
LINE
8
bottom_outsideCutPath
10
852.75
20
256
11
852.75
21
258
0
LINE
8
bottom_outsideCutPath
10
852.75
20
258
11
873.25
21
258
0
LINE
8
bottom_outsideCutPath
10
873.25
20
258
11
873.25
21
256
0
LINE
8
bottom_outsideCutPath
10
873.25
20
256
11
893.75
21
256
0
LINE
8
bottom_outsideCutPath
10
893.75
20
256
11
893.75
21
258
0
LINE
8
bottom_outsideCutPath
10
893.75
20
258
11
914.25
21
258
0
LINE
8
bottom_outsideCutPath
10
914.25
20
258
11
914.25
21
256
0
LINE
8
bottom_outsideCutPath
10
914.25
20
256
11
934.75
21
256
0
LINE
8
bottom_outsideCutPath
10
934.75
20
256
11
934.75
21
258
0
LINE
8
bottom_outsideCutPath
10
934.75
20
258
11
954
21
258
0
LINE
8
bottom_outsideCutPath
10
954
20
258
11
954
21
288.75
0
LINE
8
bottom_outsideCutPath
10
954
20
288.75
11
956
21
288.75
0
LINE
8
bottom_outsideCutPath
10
956
20
288.75
11
956
21
309.25
0
LINE
8
bottom_outsideCutPath
10
956
20
309.25
11
954
21
309.25
0
LINE
8
bottom_outsideCutPath
10
954
20
309.25
11
954
21
329.75
0
LINE
8
bottom_outsideCutPath
10
954
20
329.75
11
956
21
329.75
0
LINE
8
bottom_outsideCutPath
10
956
20
329.75
11
956
21
350.25
0
LINE
8
bottom_outsideCutPath
10
956
20
350.25
11
954
21
350.25
0
LINE
8
bottom_outsideCutPath
10
954
20
350.25
11
954
21
370.75
0
LINE
8
bottom_outsideCutPath
10
954
20
370.75
11
956
21
370.75
0
LINE
8
bottom_outsideCutPath
10
956
20
370.75
11
956
21
391.25
0
LINE
8
bottom_outsideCutPath
10
956
20
391.25
11
954
21
391.25
0
LINE
8
bottom_outsideCutPath
10
954
20
391.25
11
954
21
411.75
0
LINE
8
bottom_outsideCutPath
10
954
20
411.75
11
956
21
411.75
0
LINE
8
bottom_outsideCutPath
10
956
20
411.75
11
956
21
432.25
0
LINE
8
bottom_outsideCutPath
10
956
20
432.25
11
954
21
432.25
0
LINE
8
bottom_outsideCutPath
10
954
20
432.25
11
954
21
452.75
0
LINE
8
bottom_outsideCutPath
10
954
20
452.75
11
956
21
452.75
0
LINE
8
bottom_outsideCutPath
10
956
20
452.75
11
956
21
473.25
0
LINE
8
bottom_outsideCutPath
10
956
20
473.25
11
954
21
473.25
0
LINE
8
bottom_outsideCutPath
10
954
20
473.25
11
954
21
493.75
0
LINE
8
bottom_outsideCutPath
10
954
20
493.75
11
954
21
504
0
LINE
8
bottom_outsideCutPath
10
954
20
504
11
934.75
21
504
0
LINE
8
bottom_outsideCutPath
10
934.75
20
504
11
934.75
21
506
0
LINE
8
bottom_outsideCutPath
10
934.75
20
506
11
914.25
21
506
0
LINE
8
bottom_outsideCutPath
10
914.25
20
506
11
914.25
21
504
0
LINE
8
bottom_outsideCutPath
10
914.25
20
504
11
893.75
21
504
0
LINE
8
bottom_outsideCutPath
10
893.75
20
504
11
893.75
21
506
0
LINE
8
bottom_outsideCutPath
10
893.75
20
506
11
873.25
21
506
0
LINE
8
bottom_outsideCutPath
10
873.25
20
506
11
873.25
21
504
0
LINE
8
bottom_outsideCutPath
10
873.25
20
504
11
852.75
21
504
0
LINE
8
bottom_outsideCutPath
10
852.75
20
504
11
852.75
21
506
0
LINE
8
bottom_outsideCutPath
10
852.75
20
506
11
832.25
21
506
0
LINE
8
bottom_outsideCutPath
10
832.25
20
506
11
832.25
21
504
0
LINE
8
bottom_outsideCutPath
10
832.25
20
504
11
811.75
21
504
0
LINE
8
bottom_outsideCutPath
10
811.75
20
504
11
811.75
21
506
0
LINE
8
bottom_outsideCutPath
10
811.75
20
506
11
791.25
21
506
0
LINE
8
bottom_outsideCutPath
10
791.25
20
506
11
791.25
21
504
0
LINE
8
bottom_outsideCutPath
10
791.25
20
504
11
770.75
21
504
0
LINE
8
bottom_outsideCutPath
10
770.75
20
504
11
770.75
21
506
0
LINE
8
bottom_outsideCutPath
10
770.75
20
506
11
750.25
21
506
0
LINE
8
bottom_outsideCutPath
10
750.25
20
506
11
750.25
21
504
0
LINE
8
bottom_outsideCutPath
10
750.25
20
504
11
729.75
21
504
0
LINE
8
bottom_outsideCutPath
10
729.75
20
504
11
729.75
21
506
0
LINE
8
bottom_outsideCutPath
10
729.75
20
506
11
709.25
21
506
0
LINE
8
bottom_outsideCutPath
10
709.25
20
506
11
709.25
21
504
0
LINE
8
bottom_outsideCutPath
10
709.25
20
504
11
688.75
21
504
0
LINE
8
bottom_outsideCutPath
10
688.75
20
504
11
688.75
21
506
0
LINE
8
bottom_outsideCutPath
10
688.75
20
506
11
668.25
21
506
0
LINE
8
bottom_outsideCutPath
10
668.25
20
506
11
668.25
21
504
0
LINE
8
bottom_outsideCutPath
10
668.25
20
504
11
647.75
21
504
0
LINE
8
bottom_outsideCutPath
10
647.75
20
504
11
647.75
21
506
0
LINE
8
bottom_outsideCutPath
10
647.75
20
506
11
627.25
21
506
0
LINE
8
bottom_outsideCutPath
10
627.25
20
506
11
627.25
21
504
0
LINE
8
bottom_outsideCutPath
10
627.25
20
504
11
608
21
504
0
LINE
8
bottom_labelLayer
10
702.8016393
20
365.6930145
11
702.5086706
21
365.6930145
0
LINE
8
bottom_labelLayer
10
702.5086706
20
365.6930145
11
701.6541784
21
362.2506317
0
LINE
8
bottom_labelLayer
10
701.6541784
20
362.2506317
11
698.748905
21
362.2506317
0
LINE
8
bottom_labelLayer
10
698.748905
20
362.2506317
11
698.748905
21
400.238913
0
LINE
8
bottom_labelLayer
10
698.748905
20
400.238913
11
702.8016393
21
400.238913
0
LINE
8
bottom_labelLayer
10
702.8016393
20
400.238913
11
702.8016393
21
391.0103973
0
LINE
8
bottom_labelLayer
10
702.6063268
20
385.4439911
11
702.8016393
21
385.4439911
0
ARC
8
bottom_labelLayer
10
711.321654
20
377.0619372
40
12.3865568
50
74.2393268
51
90.5623815
0
ARC
8
bottom_labelLayer
10
712.1406956
20
380.0666204
40
9.2724099
50
38.5631291
51
74.0670402
0
ARC
8
bottom_labelLayer
10
710.0329335
20
378.4277128
40
11.9422154
50
16.4709281
51
38.4075287
0
ARC
8
bottom_labelLayer
10
703.9607806
20
376.5236636
40
18.3053396
50
5.1338483
51
16.7973387
0
ARC
8
bottom_labelLayer
10
696.2951963
20
375.7093723
40
26.0133381
50
359.8779337
51
5.4093612
0
ARC
8
bottom_labelLayer
10
698.5467732
20
375.5137603
40
23.7621156
50
350.6562805
51
0.3380356
0
ARC
8
bottom_labelLayer
10
706.8306288
20
374.1047666
40
15.3594764
50
335.8305956
51
350.8254847
0
ARC
8
bottom_labelLayer
10
710.4745477
20
372.5320005
40
11.3911834
50
321.3161495
51
335.5436143
0
ARC
8
bottom_labelLayer
10
711.8676478
20
371.396836
40
9.5942291
50
274.0640049
51
321.4081036
0
ARC
8
bottom_labelLayer
10
711.2186493
20
375.5078275
40
13.7454898
50
269.9225836
51
275.5481695
0
ARC
8
bottom_labelLayer
10
711.1317339
20
374.0549875
40
12.292827
50
255.7755419
51
270.3185421
0
ARC
8
bottom_labelLayer
10
710.7809317
20
372.4964048
40
10.6959162
50
245.9801617
51
255.5455743
0
ARC
8
bottom_labelLayer
10
710.1014575
20
370.9162843
40
8.9760734
50
215.5850174
51
245.8361709
0
ARC
8
bottom_labelLayer
10
618.3051733
20
390.9389645
40
84.4964962
50
358.112324
51
0.0484375
0
ARC
8
bottom_labelLayer
10
641.8215767
20
390.1494671
40
60.96685
50
355.7238715
51
358.1258888
0
ARC
8
bottom_labelLayer
10
652.1677801
20
389.4388278
40
50.5964989
50
355.4715095
51
355.6527727
0
ARC
8
bottom_labelLayer
10
710.3598123
20
380.1734737
40
9.2143547
50
95.1835132
51
145.1108986
0
ARC
8
bottom_labelLayer
10
711.1697205
20
375.6063449
40
13.8415859
50
89.874343
51
96.8145478
0
ARC
8
bottom_labelLayer
10
710.5292923
20
374.6661465
40
11.3885122
50
89.5731294
51
100.732432
0
ARC
8
bottom_labelLayer
10
709.6862247
20
378.9256086
40
7.0466477
50
100.4469425
51
119.6700756
0
ARC
8
bottom_labelLayer
10
708.9044446
20
380.3872377
40
5.389849
50
120.1402875
51
142.4249044
0
ARC
8
bottom_labelLayer
10
710.197834
20
379.531618
40
6.9375698
50
143.3382333
51
161.2559933
0
ARC
8
bottom_labelLayer
10
715.6065222
20
377.6113502
40
12.6767162
50
160.892629
51
171.2334385
0
ARC
8
bottom_labelLayer
10
724.6357536
20
376.1547192
40
21.8225597
50
171.0667771
51
177.8456835
0
ARC
8
bottom_labelLayer
10
734.0259315
20
375.6771366
40
31.2243006
50
177.6176721
51
180.0425431
0
ARC
8
bottom_labelLayer
10
729.5978362
20
375.5493189
40
26.7964011
50
179.7762739
51
185.7075202
0
ARC
8
bottom_labelLayer
10
719.032926
20
374.4607607
40
16.1756413
50
185.592481
51
194.205073
0
ARC
8
bottom_labelLayer
10
712.2652049
20
372.7043006
40
9.1839253
50
193.9430401
51
208.0218407
0
ARC
8
bottom_labelLayer
10
709.5269541
20
371.3112763
40
6.1124928
50
208.5536508
51
217.5605424
0
ARC
8
bottom_labelLayer
10
709.3038677
20
371.21849
40
5.8794191
50
218.1690477
51
253.8047164
0
ARC
8
bottom_labelLayer
10
710.3943866
20
374.5806708
40
9.412973
50
253.1382428
51
266.8483086
0
ARC
8
bottom_labelLayer
10
710.7001879
20
378.1869967
40
13.0310968
50
266.3775584
51
270.0510375
0
ARC
8
bottom_labelLayer
10
710.7982472
20
373.2345272
40
8.0790846
50
269.3868854
51
285.863064
0
ARC
8
bottom_labelLayer
10
711.3984722
20
371.0652321
40
5.8283569
50
286.0162853
51
326.8497391
0
ARC
8
bottom_labelLayer
10
708.501476
20
372.9843877
40
9.3033281
50
326.7104982
51
343.6661781
0
ARC
8
bottom_labelLayer
10
703.0784646
20
374.6414832
40
14.9736355
50
343.4171404
51
353.6369188
0
ARC
8
bottom_labelLayer
10
694.8875347
20
375.6133938
40
23.2218938
50
353.4934832
51
0.2205451
0
ARC
8
bottom_labelLayer
10
694.1655386
20
375.7996991
40
23.9439141
50
359.7680805
51
6.309522
0
ARC
8
bottom_labelLayer
10
703.1847251
20
376.8347055
40
14.86566
50
6.1648606
51
16.0396367
0
ARC
8
bottom_labelLayer
10
708.9947482
20
378.5469177
40
8.8088202
50
15.7779362
51
32.0151375
0
ARC
8
bottom_labelLayer
10
710.8065502
20
379.5844776
40
6.7230083
50
32.7034123
51
35.524265
0
ARC
8
bottom_labelLayer
10
711.4691448
20
380.0554245
40
5.9101006
50
35.5408398
51
79.8011221
0
ARC
8
bottom_labelLayer
10
710.6754798
20
376.6813992
40
9.3731441
50
78.6781302
51
90.3749621
0
ARC
8
bottom_labelLayer
10
731.5507127
20
375.5128239
40
20.9340196
50
349.1761872
51
0.3862663
0
ARC
8
bottom_labelLayer
10
738.5986918
20
374.1077943
40
13.7476953
50
330.2507078
51
349.4116456
0
ARC
8
bottom_labelLayer
10
740.7677046
20
372.980428
40
11.3055623
50
318.1439797
51
329.7566206
0
ARC
8
bottom_labelLayer
10
741.1591873
20
372.6666938
40
10.804669
50
278.8959147
51
317.9979151
0
ARC
8
bottom_labelLayer
10
740.1505002
20
377.4993985
40
15.7371975
50
269.7502869
51
279.803325
0
ARC
8
bottom_labelLayer
10
739.9869117
20
374.7764722
40
13.0144684
50
253.5436929
51
270.418243
0
ARC
8
bottom_labelLayer
10
739.5536867
20
373.1006489
40
11.2847235
50
238.8115579
51
253.2428333
0
ARC
8
bottom_labelLayer
10
739.4138679
20
372.8194737
40
10.9718118
50
207.7947028
51
238.6757981
0
ARC
8
bottom_labelLayer
10
741.420152
20
374.0482243
40
13.3204523
50
205.6560147
51
208.4461215
0
ARC
8
bottom_labelLayer
10
742.9654613
20
374.6921023
40
14.9924494
50
188.9102415
51
205.3171463
0
ARC
8
bottom_labelLayer
10
748.1733441
20
375.5741491
40
20.2742056
50
179.7744729
51
189.0932824
0
ARC
8
bottom_labelLayer
10
748.9415675
20
375.7964782
40
21.0427546
50
169.244298
51
180.388077
0
ARC
8
bottom_labelLayer
10
741.7956077
20
377.2089753
40
13.7588397
50
150.7111468
51
169.469546
0
ARC
8
bottom_labelLayer
10
739.5144024
20
378.3804571
40
11.1965465
50
138.1759418
51
150.2287358
0
ARC
8
bottom_labelLayer
10
739.1349383
20
378.6716521
40
10.71965
50
99.1759346
51
137.9832749
0
ARC
8
bottom_labelLayer
10
740.1793603
20
373.7564908
40
15.7404061
50
89.7326345
51
100.0759839
0
ARC
8
bottom_labelLayer
10
740.3881033
20
375.8791767
40
13.6182208
50
73.5222775
51
90.569222
0
ARC
8
bottom_labelLayer
10
741.1867319
20
378.7808083
40
10.6093881
50
41.1445663
51
73.2133843
0
ARC
8
bottom_labelLayer
10
739.6622167
20
377.4705081
40
12.6195643
50
13.5014348
51
41.0703433
0
ARC
8
bottom_labelLayer
10
733.772261
20
375.9291855
40
18.707006
50
1.1277227
51
13.8800009
0
ARC
8
bottom_labelLayer
10
728.6996379
20
375.657322
40
23.784619
50
359.9918821
51
1.5420054
0
ARC
8
bottom_labelLayer
10
752.6212217
20
375.5486304
40
20.5229776
50
179.7059631
51
187.9160745
0
ARC
8
bottom_labelLayer
10
745.094039
20
374.4673607
40
12.9186528
50
187.7639309
51
200.0976797
0
ARC
8
bottom_labelLayer
10
740.9473281
20
372.9480021
40
8.5023584
50
200.084591
51
216.9131648
0
ARC
8
bottom_labelLayer
10
739.4331019
20
371.8667732
40
6.6424257
50
217.3009569
51
261.7099105
0
ARC
8
bottom_labelLayer
10
740.1360573
20
375.2211991
40
10.0653879
50
260.5033149
51
270.2476852
0
ARC
8
bottom_labelLayer
10
740.2702313
20
374.5689324
40
9.4134639
50
269.4481687
51
284.7255702
0
ARC
8
bottom_labelLayer
10
741.0154406
20
371.8051937
40
6.5511027
50
284.5662283
51
322.6333807
0
ARC
8
bottom_labelLayer
10
739.2731065
20
373.0639522
40
8.6999982
50
323.0089253
51
342.6390512
0
ARC
8
bottom_labelLayer
10
734.2896475
20
374.6926896
40
13.9425934
50
342.3615728
51
353.753756
0
ARC
8
bottom_labelLayer
10
726.937423
20
375.5789043
40
21.3477466
50
353.5363063
51
0.201423
0
ARC
8
bottom_labelLayer
10
728.0638689
20
375.7571597
40
20.2214323
50
359.7075683
51
7.8972728
0
ARC
8
bottom_labelLayer
10
735.4695271
20
376.8188305
40
12.7401843
50
7.7439892
51
20.0690193
0
ARC
8
bottom_labelLayer
10
739.5962436
20
378.3331801
40
8.3443927
50
20.0257079
51
37.43505
0
ARC
8
bottom_labelLayer
10
740.9654585
20
379.3047544
40
6.6668719
50
37.9577646
51
80.4006197
0
ARC
8
bottom_labelLayer
10
740.1873777
20
375.8330334
40
10.2214662
50
79.3453451
51
90.3174754
0
ARC
8
bottom_labelLayer
10
740.0433077
20
376.4096992
40
9.6450398
50
89.4806012
51
103.8805054
0
ARC
8
bottom_labelLayer
10
739.232874
20
379.4958259
40
6.4547794
50
103.4685204
51
142.3118918
0
ARC
8
bottom_labelLayer
10
740.8084176
20
378.387791
40
8.3794431
50
142.9025722
51
162.3749637
0
ARC
8
bottom_labelLayer
10
745.7729655
20
376.7333675
40
13.6120832
50
162.0653142
51
173.1674842
0
ARC
8
bottom_labelLayer
10
753.5140231
20
375.7460425
40
21.4157067
50
173.0086204
51
180.2463805
0
LINE
8
bottom_labelLayer
10
771.8934362
20
365.5953583
11
771.8934362
21
362.4947723
0
LINE
8
bottom_labelLayer
10
759.8817175
20
369.9410614
11
759.8817175
21
385.8590302
0
LINE
8
bottom_labelLayer
10
759.8817175
20
385.8590302
11
756.0487097
21
385.8590302
0
LINE
8
bottom_labelLayer
10
756.0487097
20
385.8590302
11
756.0487097
21
387.8121552
0
LINE
8
bottom_labelLayer
10
756.0487097
20
387.8121552
11
759.8817175
21
389.4967255
0
LINE
8
bottom_labelLayer
10
759.8817175
20
389.4967255
11
761.5907018
21
395.2096161
0
LINE
8
bottom_labelLayer
10
761.5907018
20
395.2096161
11
763.9344518
21
395.2096161
0
LINE
8
bottom_labelLayer
10
763.9344518
20
395.2096161
11
763.9344518
21
389.0084442
0
LINE
8
bottom_labelLayer
10
763.9344518
20
389.0084442
11
771.6981237
21
389.0084442
0
LINE
8
bottom_labelLayer
10
771.6981237
20
389.0084442
11
771.6981237
21
385.8590302
0
LINE
8
bottom_labelLayer
10
771.6981237
20
385.8590302
11
763.9344518
21
385.8590302
0
LINE
8
bottom_labelLayer
10
763.9344518
20
385.8590302
11
763.9344518
21
370.1119598
0
ARC
8
bottom_labelLayer
10
768.2591186
20
378.4168005
40
13.3097524
50
269.8803621
51
278.302828
0
ARC
8
bottom_labelLayer
10
768.3860518
20
377.3801336
40
12.2656452
50
278.4153916
51
279.0080435
0
ARC
8
bottom_labelLayer
10
766.8925624
20
386.9210659
40
21.9227514
50
278.9589502
51
280.5104591
0
ARC
8
bottom_labelLayer
10
768.3157038
20
379.2851187
40
14.1553221
50
280.4847486
51
282.62684
0
ARC
8
bottom_labelLayer
10
769.5638679
20
373.7399049
40
8.471375
50
282.5876742
51
285.5795064
0
ARC
8
bottom_labelLayer
10
770.1885352
20
371.4423187
40
6.0904543
50
285.7239938
51
286.2560288
0
ARC
8
bottom_labelLayer
10
770.1895573
20
366.0985703
40
3.9862969
50
287.988839
51
295.3048269
0
ARC
8
bottom_labelLayer
10
769.2280909
20
369.0074621
40
7.0499421
50
283.3069314
51
288.1197563
0
ARC
8
bottom_labelLayer
10
768.2124129
20
373.2441582
40
11.4066711
50
280.0070122
51
283.3735287
0
ARC
8
bottom_labelLayer
10
767.5326161
20
376.9334534
40
15.1579929
50
279.186308
51
280.1142508
0
ARC
8
bottom_labelLayer
10
767.1156849
20
379.304859
40
17.5655762
50
275.5260332
51
279.2939486
0
ARC
8
bottom_labelLayer
10
767.5857583
20
374.3949398
40
12.6332094
50
270.8932523
51
275.5483775
0
ARC
8
bottom_labelLayer
10
767.6448183
20
372.1497592
40
10.3874088
50
270.0031497
51
270.7605869
0
ARC
8
bottom_labelLayer
10
767.4818484
20
372.3462333
40
10.5851463
50
253.7847941
51
270.8852572
0
ARC
8
bottom_labelLayer
10
766.2277906
20
368.0694189
40
6.1282826
50
190.3817649
51
253.8772393
0
ARC
8
bottom_labelLayer
10
772.6197114
20
369.7976811
40
12.7388009
50
179.3550995
51
192.8477604
0
ARC
8
bottom_labelLayer
10
772.0951557
20
370.0609197
40
8.1608634
50
179.6416551
51
189.7505883
0
ARC
8
bottom_labelLayer
10
769.2142172
20
369.54707
40
5.2345495
50
189.5479593
51
205.7873558
0
ARC
8
bottom_labelLayer
10
768.0302628
20
369.0011115
40
3.9310598
50
206.1294288
51
221.4084071
0
ARC
8
bottom_labelLayer
10
767.897515
20
368.9003843
40
3.7648939
50
221.5949167
51
262.3505195
0
ARC
8
bottom_labelLayer
10
768.2132409
20
370.5239645
40
5.4169178
50
261.3266174
51
270.1912984
0
LINE
8
bottom_labelLayer
10
789.5448034
20
365.5953583
11
789.5448034
21
362.4947723
0
LINE
8
bottom_labelLayer
10
777.5330847
20
369.9410614
11
777.5330847
21
385.8590302
0
LINE
8
bottom_labelLayer
10
777.5330847
20
385.8590302
11
773.7000768
21
385.8590302
0
LINE
8
bottom_labelLayer
10
773.7000768
20
385.8590302
11
773.7000768
21
387.8121552
0
LINE
8
bottom_labelLayer
10
773.7000768
20
387.8121552
11
777.5330847
21
389.4967255
0
LINE
8
bottom_labelLayer
10
777.5330847
20
389.4967255
11
779.242069
21
395.2096161
0
LINE
8
bottom_labelLayer
10
779.242069
20
395.2096161
11
781.585819
21
395.2096161
0
LINE
8
bottom_labelLayer
10
781.585819
20
395.2096161
11
781.585819
21
389.0084442
0
LINE
8
bottom_labelLayer
10
781.585819
20
389.0084442
11
789.3494909
21
389.0084442
0
LINE
8
bottom_labelLayer
10
789.3494909
20
389.0084442
11
789.3494909
21
385.8590302
0
LINE
8
bottom_labelLayer
10
789.3494909
20
385.8590302
11
781.585819
21
385.8590302
0
LINE
8
bottom_labelLayer
10
781.585819
20
385.8590302
11
781.585819
21
370.1119598
0
ARC
8
bottom_labelLayer
10
785.9104858
20
378.4168005
40
13.3097524
50
269.8803621
51
278.302828
0
ARC
8
bottom_labelLayer
10
786.037419
20
377.3801336
40
12.2656452
50
278.4153916
51
279.0080435
0
ARC
8
bottom_labelLayer
10
784.5439296
20
386.9210659
40
21.9227514
50
278.9589502
51
280.5104591
0
ARC
8
bottom_labelLayer
10
785.967071
20
379.2851187
40
14.1553221
50
280.4847486
51
282.62684
0
ARC
8
bottom_labelLayer
10
787.2152351
20
373.7399049
40
8.471375
50
282.5876742
51
285.5795064
0
ARC
8
bottom_labelLayer
10
787.8399023
20
371.4423187
40
6.0904543
50
285.7239938
51
286.2560288
0
ARC
8
bottom_labelLayer
10
787.8409245
20
366.0985703
40
3.9862969
50
287.988839
51
295.3048269
0
ARC
8
bottom_labelLayer
10
786.8794581
20
369.0074621
40
7.0499421
50
283.3069314
51
288.1197563
0
ARC
8
bottom_labelLayer
10
785.8637801
20
373.2441582
40
11.4066711
50
280.0070122
51
283.3735287
0
ARC
8
bottom_labelLayer
10
785.1839833
20
376.9334534
40
15.1579929
50
279.186308
51
280.1142508
0
ARC
8
bottom_labelLayer
10
784.767052
20
379.304859
40
17.5655762
50
275.5260332
51
279.2939486
0
ARC
8
bottom_labelLayer
10
785.2371255
20
374.3949398
40
12.6332094
50
270.8932523
51
275.5483775
0
ARC
8
bottom_labelLayer
10
785.2961855
20
372.1497592
40
10.3874088
50
270.0031497
51
270.7605869
0
ARC
8
bottom_labelLayer
10
785.1332156
20
372.3462333
40
10.5851463
50
253.7847941
51
270.8852572
0
ARC
8
bottom_labelLayer
10
783.8791578
20
368.0694189
40
6.1282826
50
190.3817649
51
253.8772393
0
ARC
8
bottom_labelLayer
10
790.2710786
20
369.7976811
40
12.7388009
50
179.3550995
51
192.8477604
0
ARC
8
bottom_labelLayer
10
789.7465229
20
370.0609197
40
8.1608634
50
179.6416551
51
189.7505883
0
ARC
8
bottom_labelLayer
10
786.8655844
20
369.54707
40
5.2345495
50
189.5479593
51
205.7873558
0
ARC
8
bottom_labelLayer
10
785.68163
20
369.0011115
40
3.9310598
50
206.1294288
51
221.4084071
0
ARC
8
bottom_labelLayer
10
785.5488822
20
368.9003843
40
3.7648939
50
221.5949167
51
262.3505195
0
ARC
8
bottom_labelLayer
10
785.8646081
20
370.5239645
40
5.4169178
50
261.3266174
51
270.1912984
0
ARC
8
bottom_labelLayer
10
797.0536424
20
375.5128239
40
20.9340196
50
349.1761872
51
0.3862663
0
ARC
8
bottom_labelLayer
10
804.1016214
20
374.1077943
40
13.7476953
50
330.2507078
51
349.4116456
0
ARC
8
bottom_labelLayer
10
806.2706343
20
372.980428
40
11.3055623
50
318.1439797
51
329.7566206
0
ARC
8
bottom_labelLayer
10
806.662117
20
372.6666938
40
10.804669
50
278.8959147
51
317.9979151
0
ARC
8
bottom_labelLayer
10
805.6534299
20
377.4993985
40
15.7371975
50
269.7502869
51
279.803325
0
ARC
8
bottom_labelLayer
10
805.4898414
20
374.7764722
40
13.0144684
50
253.5436929
51
270.418243
0
ARC
8
bottom_labelLayer
10
805.0566164
20
373.1006489
40
11.2847235
50
238.8115579
51
253.2428333
0
ARC
8
bottom_labelLayer
10
804.9167976
20
372.8194737
40
10.9718118
50
207.7947028
51
238.6757981
0
ARC
8
bottom_labelLayer
10
806.9230817
20
374.0482243
40
13.3204523
50
205.6560147
51
208.4461215
0
ARC
8
bottom_labelLayer
10
808.468391
20
374.6921023
40
14.9924494
50
188.9102415
51
205.3171463
0
ARC
8
bottom_labelLayer
10
813.6762738
20
375.5741491
40
20.2742056
50
179.7744729
51
189.0932824
0
ARC
8
bottom_labelLayer
10
814.4444972
20
375.7964782
40
21.0427546
50
169.244298
51
180.388077
0
ARC
8
bottom_labelLayer
10
807.2985374
20
377.2089753
40
13.7588397
50
150.7111468
51
169.469546
0
ARC
8
bottom_labelLayer
10
805.0173321
20
378.3804571
40
11.1965465
50
138.1759418
51
150.2287358
0
ARC
8
bottom_labelLayer
10
804.637868
20
378.6716521
40
10.71965
50
99.1759346
51
137.9832749
0
ARC
8
bottom_labelLayer
10
805.68229
20
373.7564908
40
15.7404061
50
89.7326345
51
100.0759839
0
ARC
8
bottom_labelLayer
10
805.891033
20
375.8791767
40
13.6182208
50
73.5222775
51
90.569222
0
ARC
8
bottom_labelLayer
10
806.6896616
20
378.7808083
40
10.6093881
50
41.1445663
51
73.2133843
0
ARC
8
bottom_labelLayer
10
805.1651464
20
377.4705081
40
12.6195643
50
13.5014348
51
41.0703433
0
ARC
8
bottom_labelLayer
10
799.2751907
20
375.9291855
40
18.707006
50
1.1277227
51
13.8800009
0
ARC
8
bottom_labelLayer
10
794.2025675
20
375.657322
40
23.784619
50
359.9918821
51
1.5420054
0
ARC
8
bottom_labelLayer
10
818.1241514
20
375.5486304
40
20.5229776
50
179.7059631
51
187.9160745
0
ARC
8
bottom_labelLayer
10
810.5969687
20
374.4673607
40
12.9186528
50
187.7639309
51
200.0976797
0
ARC
8
bottom_labelLayer
10
806.4502578
20
372.9480021
40
8.5023584
50
200.084591
51
216.9131648
0
ARC
8
bottom_labelLayer
10
804.9360316
20
371.8667732
40
6.6424257
50
217.3009569
51
261.7099105
0
ARC
8
bottom_labelLayer
10
805.638987
20
375.2211991
40
10.0653879
50
260.5033149
51
270.2476852
0
ARC
8
bottom_labelLayer
10
805.773161
20
374.5689324
40
9.4134639
50
269.4481687
51
284.7255702
0
ARC
8
bottom_labelLayer
10
806.5183703
20
371.8051937
40
6.5511027
50
284.5662283
51
322.6333807
0
ARC
8
bottom_labelLayer
10
804.7760362
20
373.0639522
40
8.6999982
50
323.0089253
51
342.6390512
0
ARC
8
bottom_labelLayer
10
799.7925772
20
374.6926896
40
13.9425934
50
342.3615728
51
353.753756
0
ARC
8
bottom_labelLayer
10
792.4403527
20
375.5789043
40
21.3477466
50
353.5363063
51
0.201423
0
ARC
8
bottom_labelLayer
10
793.5667986
20
375.7571597
40
20.2214323
50
359.7075683
51
7.8972728
0
ARC
8
bottom_labelLayer
10
800.9724568
20
376.8188305
40
12.7401843
50
7.7439892
51
20.0690193
0
ARC
8
bottom_labelLayer
10
805.0991733
20
378.3331801
40
8.3443927
50
20.0257079
51
37.43505
0
ARC
8
bottom_labelLayer
10
806.4683882
20
379.3047544
40
6.6668719
50
37.9577646
51
80.4006197
0
ARC
8
bottom_labelLayer
10
805.6903074
20
375.8330334
40
10.2214662
50
79.3453451
51
90.3174754
0
ARC
8
bottom_labelLayer
10
805.5462374
20
376.4096992
40
9.6450398
50
89.4806012
51
103.8805054
0
ARC
8
bottom_labelLayer
10
804.7358037
20
379.4958259
40
6.4547794
50
103.4685204
51
142.3118918
0
ARC
8
bottom_labelLayer
10
806.3113473
20
378.387791
40
8.3794431
50
142.9025722
51
162.3749637
0
ARC
8
bottom_labelLayer
10
811.2758952
20
376.7333675
40
13.6120832
50
162.0653142
51
173.1674842
0
ARC
8
bottom_labelLayer
10
819.0169527
20
375.7460425
40
21.4157067
50
173.0086204
51
180.2463805
0
LINE
8
bottom_labelLayer
10
863.2508581
20
362.2506317
11
859.1981237
21
362.2506317
0
LINE
8
bottom_labelLayer
10
859.1981237
20
362.2506317
11
859.1981237
21
379.6578583
0
LINE
8
bottom_labelLayer
10
846.1854284
20
377.192038
11
846.1854284
21
362.2506317
0
LINE
8
bottom_labelLayer
10
846.1854284
20
362.2506317
11
842.132694
21
362.2506317
0
LINE
8
bottom_labelLayer
10
842.132694
20
362.2506317
11
842.132694
21
379.6578583
0
LINE
8
bottom_labelLayer
10
829.1444128
20
376.2887177
11
829.1444128
21
362.2506317
0
LINE
8
bottom_labelLayer
10
829.1444128
20
362.2506317
11
825.0916784
21
362.2506317
0
LINE
8
bottom_labelLayer
10
825.0916784
20
362.2506317
11
825.0916784
21
389.0084442
0
LINE
8
bottom_labelLayer
10
825.0916784
20
389.0084442
11
828.3875768
21
389.0084442
0
LINE
8
bottom_labelLayer
10
828.3875768
20
389.0084442
11
829.0467565
21
385.3463348
0
LINE
8
bottom_labelLayer
10
829.0467565
20
385.3463348
11
829.242069
21
385.3463348
0
LINE
8
bottom_labelLayer
10
845.3553503
20
384.9557098
11
845.5506628
21
384.9557098
0
LINE
8
bottom_labelLayer
10
863.2508581
20
379.7066864
11
863.2508581
21
362.2506317
0
ARC
8
bottom_labelLayer
10
847.2424156
20
379.7215375
40
11.9558777
50
359.6948309
51
8.147155
0
ARC
8
bottom_labelLayer
10
851.6461361
20
380.3732393
40
7.5042754
50
7.9864601
51
20.7949604
0
ARC
8
bottom_labelLayer
10
854.0803911
20
381.3057122
40
4.8975501
50
20.7071247
51
40.0217618
0
ARC
8
bottom_labelLayer
10
854.6144137
20
381.6551167
40
4.2645755
50
41.0408079
51
73.1792697
0
ARC
8
bottom_labelLayer
10
853.841689
20
379.3179998
40
6.7256067
50
72.6395543
51
86.2568084
0
ARC
8
bottom_labelLayer
10
853.5941412
20
376.6467948
40
9.4075546
50
85.8144503
51
90.0685284
0
ARC
8
bottom_labelLayer
10
853.5031943
20
375.6263236
40
10.4283236
50
89.5621314
51
101.2961669
0
ARC
8
bottom_labelLayer
10
852.717765
20
379.3864424
40
6.5872823
50
101.0032222
51
121.7840492
0
ARC
8
bottom_labelLayer
10
852.1206437
20
380.452472
40
5.3668708
50
122.3597162
51
140.288415
0
ARC
8
bottom_labelLayer
10
853.1949294
20
379.6647676
40
6.6970526
50
140.9765287
51
161.1699474
0
ARC
8
bottom_labelLayer
10
857.2420093
20
378.2245052
40
10.9925428
50
160.8731849
51
172.5272412
0
ARC
8
bottom_labelLayer
10
864.0045525
20
377.2905502
40
17.8191765
50
172.3776559
51
180.1829607
0
ARC
8
bottom_labelLayer
10
868.7036478
20
377.1920629
40
22.5182193
50
179.8941876
51
180.0000635
0
ARC
8
bottom_labelLayer
10
830.1769859
20
379.7215375
40
11.9558777
50
359.6948309
51
8.147155
0
ARC
8
bottom_labelLayer
10
834.5807064
20
380.3732393
40
7.5042754
50
7.9864601
51
20.7949604
0
ARC
8
bottom_labelLayer
10
837.0149614
20
381.3057122
40
4.8975501
50
20.7071247
51
40.0217618
0
ARC
8
bottom_labelLayer
10
837.5600871
20
381.6627889
40
4.2511638
50
41.061072
51
72.8993561
0
ARC
8
bottom_labelLayer
10
836.7727224
20
379.3187124
40
6.7234311
50
72.3601148
51
85.9561713
0
ARC
8
bottom_labelLayer
10
836.5061912
20
376.5641849
40
9.4901669
50
85.523772
51
90.0793652
0
ARC
8
bottom_labelLayer
10
836.4152754
20
375.9888219
40
10.0658211
50
89.557319
51
101.4832197
0
ARC
8
bottom_labelLayer
10
835.6426877
20
379.6085584
40
6.364838
50
101.1546264
51
123.0655688
0
ARC
8
bottom_labelLayer
10
835.117529
20
380.5233631
40
5.3119908
50
123.7020547
51
142.3021982
0
ARC
8
bottom_labelLayer
10
836.3476882
20
379.688809
40
6.7962989
50
143.0769781
51
161.3913882
0
ARC
8
bottom_labelLayer
10
841.3064064
20
377.9375036
40
12.0548709
50
161.0234518
51
171.4469056
0
ARC
8
bottom_labelLayer
10
849.5154589
20
376.6515832
40
20.3639389
50
171.3041978
51
178.3501537
0
ARC
8
bottom_labelLayer
10
857.3610759
20
376.3011809
40
28.216666
50
178.0976081
51
180.0253075
0
ARC
8
bottom_labelLayer
10
836.1079476
20
381.3088601
40
7.9650167
50
117.1209512
51
149.5423751
0
ARC
8
bottom_labelLayer
10
836.9208482
20
379.8640335
40
9.621775
50
93.8343331
51
117.5072145
0
ARC
8
bottom_labelLayer
10
837.1453664
20
377.8753786
40
11.6213488
50
89.9661843
51
94.283139
0
ARC
8
bottom_labelLayer
10
837.2798938
20
376.2286557
40
13.2686839
50
77.5572271
51
90.5512966
0
ARC
8
bottom_labelLayer
10
838.5110831
20
381.5242314
40
7.8324545
50
52.7026995
51
78.0053804
0
ARC
8
bottom_labelLayer
10
838.9497326
20
382.3403489
40
6.9189632
50
22.2097889
51
51.4970601
0
ARC
8
bottom_labelLayer
10
852.8923675
20
380.7481628
40
8.4619194
50
119.4041748
51
150.1828839
0
ARC
8
bottom_labelLayer
10
853.8308838
20
379.3209434
40
10.1667344
50
118.2583731
51
120.0629743
0
ARC
8
bottom_labelLayer
10
853.8281629
20
379.2167064
40
10.257391
50
95.863515
51
117.969321
0
ARC
8
bottom_labelLayer
10
854.1753117
20
376.7065565
40
12.7901814
50
89.919683
51
96.2617511
0
ARC
8
bottom_labelLayer
10
854.2867645
20
375.4095093
40
14.0875266
50
79.936105
51
90.3803752
0
ARC
8
bottom_labelLayer
10
855.2254384
20
380.4932612
40
8.918038
50
62.9723194
51
80.1665224
0
ARC
8
bottom_labelLayer
10
856.2066953
20
382.5064196
40
6.678963
50
44.2290002
51
62.6229105
0
ARC
8
bottom_labelLayer
10
855.9148435
20
382.3774896
40
6.9789097
50
19.5612055
51
43.3161165
0
ARC
8
bottom_labelLayer
10
851.6762479
20
380.7854685
40
11.5061876
50
7.5041894
51
19.964539
0
ARC
8
bottom_labelLayer
10
844.6625288
20
379.800532
40
18.5885662
50
359.7107372
51
7.690726
0
ENDSEC
0
EOF