  0
SECTION
  2
HEADER
  9
$ACADVER
  1
AC1009
  9
$EXTMIN
 10
-124.67079208
 20
-249.23762376
 30
0.0
  9
$EXTMAX
 10
225.32920792
 20
0.76237624
 30
0.0
  0
ENDSEC
  0
SECTION
  2
TABLES
  0
TABLE
  2
LAYER
 70
1
 0
LAYER
 2
Default_Layer
 70
0
 62
18
 6
CONTINUOUS
 0
ENDTAB
 0
ENDSEC
  0
SECTION
  2
ENTITIES
  0
POLYLINE
  8
Default_Layer
 62
256
 66
   1
 39
0.000000
 70
    1
  0
VERTEX
  8
0
 10
-122.67079208
 20
-247.23762376
  0
VERTEX
  8
0
 10
-103.42079208
 20
-247.23762376
  0
VERTEX
  8
0
 10
-103.42079208
 20
-249.23762376
  0
VERTEX
  8
0
 10
-82.92079208
 20
-249.23762376
  0
VERTEX
  8
0
 10
-82.92079208
 20
-247.23762376
  0
VERTEX
  8
0
 10
-62.42079208
 20
-247.23762376
  0
VERTEX
  8
0
 10
-62.42079208
 20
-249.23762376
  0
VERTEX
  8
0
 10
-41.92079208
 20
-249.23762376
  0
VERTEX
  8
0
 10
-41.92079208
 20
-247.23762376
  0
VERTEX
  8
0
 10
-21.42079208
 20
-247.23762376
  0
VERTEX
  8
0
 10
-21.42079208
 20
-249.23762376
  0
VERTEX
  8
0
 10
-0.92079208
 20
-249.23762376
  0
VERTEX
  8
0
 10
-0.92079208
 20
-247.23762376
  0
VERTEX
  8
0
 10
19.57920792
 20
-247.23762376
  0
VERTEX
  8
0
 10
19.57920792
 20
-249.23762376
  0
VERTEX
  8
0
 10
40.07920792
 20
-249.23762376
  0
VERTEX
  8
0
 10
40.07920792
 20
-247.23762376
  0
VERTEX
  8
0
 10
60.57920792
 20
-247.23762376
  0
VERTEX
  8
0
 10
60.57920792
 20
-249.23762376
  0
VERTEX
  8
0
 10
81.07920792
 20
-249.23762376
  0
VERTEX
  8
0
 10
81.07920792
 20
-247.23762376
  0
VERTEX
  8
0
 10
101.57920792
 20
-247.23762376
  0
VERTEX
  8
0
 10
101.57920792
 20
-249.23762376
  0
VERTEX
  8
0
 10
122.07920792
 20
-249.23762376
  0
VERTEX
  8
0
 10
122.07920792
 20
-247.23762376
  0
VERTEX
  8
0
 10
142.57920792
 20
-247.23762376
  0
VERTEX
  8
0
 10
142.57920792
 20
-249.23762376
  0
VERTEX
  8
0
 10
163.07920792
 20
-249.23762376
  0
VERTEX
  8
0
 10
163.07920792
 20
-247.23762376
  0
VERTEX
  8
0
 10
183.57920792
 20
-247.23762376
  0
VERTEX
  8
0
 10
183.57920792
 20
-249.23762376
  0
VERTEX
  8
0
 10
204.07920792
 20
-249.23762376
  0
VERTEX
  8
0
 10
204.07920792
 20
-247.23762376
  0
VERTEX
  8
0
 10
223.32920792
 20
-247.23762376
  0
VERTEX
  8
0
 10
223.32920792
 20
-216.48762376
  0
VERTEX
  8
0
 10
225.32920792
 20
-216.48762376
  0
VERTEX
  8
0
 10
225.32920792
 20
-195.98762376
  0
VERTEX
  8
0
 10
223.32920792
 20
-195.98762376
  0
VERTEX
  8
0
 10
223.32920792
 20
-175.48762376
  0
VERTEX
  8
0
 10
225.32920792
 20
-175.48762376
  0
VERTEX
  8
0
 10
225.32920792
 20
-154.98762376
  0
VERTEX
  8
0
 10
223.32920792
 20
-154.98762376
  0
VERTEX
  8
0
 10
223.32920792
 20
-134.48762376
  0
VERTEX
  8
0
 10
225.32920792
 20
-134.48762376
  0
VERTEX
  8
0
 10
225.32920792
 20
-113.98762376
  0
VERTEX
  8
0
 10
223.32920792
 20
-113.98762376
  0
VERTEX
  8
0
 10
223.32920792
 20
-93.48762376
  0
VERTEX
  8
0
 10
225.32920792
 20
-93.48762376
  0
VERTEX
  8
0
 10
225.32920792
 20
-72.98762376
  0
VERTEX
  8
0
 10
223.32920792
 20
-72.98762376
  0
VERTEX
  8
0
 10
223.32920792
 20
-52.48762376
  0
VERTEX
  8
0
 10
225.32920792
 20
-52.48762376
  0
VERTEX
  8
0
 10
225.32920792
 20
-31.98762376
  0
VERTEX
  8
0
 10
223.32920792
 20
-31.98762376
  0
VERTEX
  8
0
 10
223.32920792
 20
-11.48762376
  0
VERTEX
  8
0
 10
223.32920792
 20
-1.23762376
  0
VERTEX
  8
0
 10
204.07920792
 20
-1.23762376
  0
VERTEX
  8
0
 10
204.07920792
 20
0.76237624
  0
VERTEX
  8
0
 10
183.57920792
 20
0.76237624
  0
VERTEX
  8
0
 10
183.57920792
 20
-1.23762376
  0
VERTEX
  8
0
 10
163.07920792
 20
-1.23762376
  0
VERTEX
  8
0
 10
163.07920792
 20
0.76237624
  0
VERTEX
  8
0
 10
142.57920792
 20
0.76237624
  0
VERTEX
  8
0
 10
142.57920792
 20
-1.23762376
  0
VERTEX
  8
0
 10
122.07920792
 20
-1.23762376
  0
VERTEX
  8
0
 10
122.07920792
 20
0.76237624
  0
VERTEX
  8
0
 10
101.57920792
 20
0.76237624
  0
VERTEX
  8
0
 10
101.57920792
 20
-1.23762376
  0
VERTEX
  8
0
 10
81.07920792
 20
-1.23762376
  0
VERTEX
  8
0
 10
81.07920792
 20
0.76237624
  0
VERTEX
  8
0
 10
60.57920792
 20
0.76237624
  0
VERTEX
  8
0
 10
60.57920792
 20
-1.23762376
  0
VERTEX
  8
0
 10
40.07920792
 20
-1.23762376
  0
VERTEX
  8
0
 10
40.07920792
 20
0.76237624
  0
VERTEX
  8
0
 10
19.57920792
 20
0.76237624
  0
VERTEX
  8
0
 10
19.57920792
 20
-1.23762376
  0
VERTEX
  8
0
 10
-0.92079208
 20
-1.23762376
  0
VERTEX
  8
0
 10
-0.92079208
 20
0.76237624
  0
VERTEX
  8
0
 10
-21.42079208
 20
0.76237624
  0
VERTEX
  8
0
 10
-21.42079208
 20
-1.23762376
  0
VERTEX
  8
0
 10
-41.92079208
 20
-1.23762376
  0
VERTEX
  8
0
 10
-41.92079208
 20
0.76237624
  0
VERTEX
  8
0
 10
-62.42079208
 20
0.76237624
  0
VERTEX
  8
0
 10
-62.42079208
 20
-1.23762376
  0
VERTEX
  8
0
 10
-82.92079208
 20
-1.23762376
  0
VERTEX
  8
0
 10
-82.92079208
 20
0.76237624
  0
VERTEX
  8
0
 10
-103.42079208
 20
0.76237624
  0
VERTEX
  8
0
 10
-103.42079208
 20
-1.23762376
  0
VERTEX
  8
0
 10
-122.67079208
 20
-1.23762376
  0
VERTEX
  8
0
 10
-122.67079208
 20
-31.98762376
  0
VERTEX
  8
0
 10
-124.67079208
 20
-31.98762376
  0
VERTEX
  8
0
 10
-124.67079208
 20
-52.48762376
  0
VERTEX
  8
0
 10
-122.67079208
 20
-52.48762376
  0
VERTEX
  8
0
 10
-122.67079208
 20
-72.98762376
  0
VERTEX
  8
0
 10
-124.67079208
 20
-72.98762376
  0
VERTEX
  8
0
 10
-124.67079208
 20
-93.48762376
  0
VERTEX
  8
0
 10
-122.67079208
 20
-93.48762376
  0
VERTEX
  8
0
 10
-122.67079208
 20
-113.98762376
  0
VERTEX
  8
0
 10
-124.67079208
 20
-113.98762376
  0
VERTEX
  8
0
 10
-124.67079208
 20
-134.48762376
  0
VERTEX
  8
0
 10
-122.67079208
 20
-134.48762376
  0
VERTEX
  8
0
 10
-122.67079208
 20
-154.98762376
  0
VERTEX
  8
0
 10
-124.67079208
 20
-154.98762376
  0
VERTEX
  8
0
 10
-124.67079208
 20
-175.48762376
  0
VERTEX
  8
0
 10
-122.67079208
 20
-175.48762376
  0
VERTEX
  8
0
 10
-122.67079208
 20
-195.98762376
  0
VERTEX
  8
0
 10
-124.67079208
 20
-195.98762376
  0
VERTEX
  8
0
 10
-124.67079208
 20
-216.48762376
  0
VERTEX
  8
0
 10
-122.67079208
 20
-216.48762376
  0
VERTEX
  8
0
 10
-122.67079208
 20
-236.98762376
  0
VERTEX
  8
0
 10
-122.67079208
 20
-247.23762376
  0
SEQEND
  0
ENDSEC
  0
EOF
