  0
SECTION
  2
HEADER
  9
$ACADVER
  1
AC1009
  9
$EXTMIN
 10
-439.93292942
 20
187.04646644
 30
0.0
  9
$EXTMAX
 10
-389.93292942
 20
232.04646644
 30
0.0
  0
ENDSEC
  0
SECTION
  2
TABLES
  0
TABLE
  2
LAYER
 70
1
 0
LAYER
 2
Default_Layer
 70
0
 62
18
 6
CONTINUOUS
 0
ENDTAB
 0
ENDSEC
  0
SECTION
  2
ENTITIES
  0
POLYLINE
  8
Default_Layer
 62
256
 66
   1
 39
0.000000
 70
    1
  0
VERTEX
  8
0
 10
-439.93292942
 20
190.04646644
 42
0.41421356
  0
VERTEX
  8
0
 10
-436.93292942
 20
187.04646644
  0
VERTEX
  8
0
 10
-392.93292942
 20
187.04646644
 42
0.41421356
  0
VERTEX
  8
0
 10
-389.93292942
 20
190.04646644
  0
VERTEX
  8
0
 10
-389.93292942
 20
204.04646644
 42
0.41421356
  0
VERTEX
  8
0
 10
-392.93292942
 20
207.04646644
  0
VERTEX
  8
0
 10
-436.93292942
 20
207.04646644
 42
0.41421356
  0
VERTEX
  8
0
 10
-439.93292942
 20
204.04646644
  0
VERTEX
  8
0
 10
-439.93292942
 20
190.04646644
  0
SEQEND
  0
CIRCLE
  8
Default_Layer
 62
256
 10
-435.432929
 20
197.046466
 40
1.500000
  0
POLYLINE
  8
Default_Layer
 62
256
 66
   1
 39
0.000000
 70
    1
  0
VERTEX
  8
0
 10
-432.00932535
 20
201.24769084
 42
-0.30534506
  0
VERTEX
  8
0
 10
-432.26015658
 20
201.59104085
 42
-0.01699200
  0
VERTEX
  8
0
 10
-432.60418604
 20
203.35376718
 42
-0.03525282
  0
VERTEX
  8
0
 10
-433.28272909
 20
201.42985489
 42
-0.31791393
  0
VERTEX
  8
0
 10
-433.53457651
 20
201.35539511
 42
-0.31791393
  0
VERTEX
  8
0
 10
-433.68866776
 20
201.56806214
 42
-0.02588826
  0
VERTEX
  8
0
 10
-434.11925193
 20
203.32296534
 42
-0.01801248
  0
VERTEX
  8
0
 10
-434.56594748
 20
201.38423653
 42
-0.39038271
  0
VERTEX
  8
0
 10
-434.83273245
 20
201.32534823
 42
-0.39038271
  0
VERTEX
  8
0
 10
-434.91328608
 20
201.58640984
 42
-0.03297854
  0
VERTEX
  8
0
 10
-434.55649378
 20
203.17100153
 42
-0.10617240
  0
VERTEX
  8
0
 10
-434.24981601
 20
204.25595881
 42
-0.30744553
  0
VERTEX
  8
0
 10
-433.99327566
 20
204.28633647
 42
-0.30744553
  0
VERTEX
  8
0
 10
-433.87043075
 20
204.05908137
 42
0.00990461
  0
VERTEX
  8
0
 10
-433.43006058
 20
202.11976815
 42
0.01843091
  0
VERTEX
  8
0
 10
-432.78899713
 20
204.21814404
 42
-0.33056132
  0
VERTEX
  8
0
 10
-432.56524458
 20
204.33980735
 42
-0.33056132
  0
VERTEX
  8
0
 10
-432.38400096
 20
204.16087185
 42
-0.04506374
  0
VERTEX
  8
0
 10
-432.15249436
 20
202.93372532
 42
-0.01068280
  0
VERTEX
  8
0
 10
-431.81320421
 20
201.40410647
 42
-0.28939039
  0
VERTEX
  8
0
 10
-432.00932535
 20
201.24769084
  0
SEQEND
  0
POLYLINE
  8
Default_Layer
 62
256
 66
   1
 39
0.000000
 70
    1
  0
VERTEX
  8
0
 10
-429.77811650
 20
201.28811826
 42
-0.36180443
  0
VERTEX
  8
0
 10
-429.98410386
 20
201.58394434
 42
-0.02079514
  0
VERTEX
  8
0
 10
-430.09130873
 20
202.86021570
 42
0.50146595
  0
VERTEX
  8
0
 10
-430.42206763
 20
202.96467173
 42
0.16846636
  0
VERTEX
  8
0
 10
-430.95051183
 20
202.35270713
 42
-0.08562589
  0
VERTEX
  8
0
 10
-431.03505649
 20
201.45464075
 42
-0.39248686
  0
VERTEX
  8
0
 10
-431.29729588
 20
201.41366717
 42
-0.39248686
  0
VERTEX
  8
0
 10
-431.35773793
 20
201.67211463
 42
0.01449563
  0
VERTEX
  8
0
 10
-431.33697877
 20
204.37840990
 42
-0.37259984
  0
VERTEX
  8
0
 10
-431.07721117
 20
204.45576460
 42
-0.37259984
  0
VERTEX
  8
0
 10
-430.96334594
 20
204.20980187
 42
-0.01928598
  0
VERTEX
  8
0
 10
-430.96398764
 20
202.97259432
 42
-0.40347271
  0
VERTEX
  8
0
 10
-429.89346300
 20
203.28807262
 42
-0.19127278
  0
VERTEX
  8
0
 10
-429.70394889
 20
202.57733771
  0
VERTEX
  8
0
 10
-429.59258350
 20
201.41842452
 42
-0.26340404
  0
VERTEX
  8
0
 10
-429.77811650
 20
201.28811826
  0
SEQEND
  0
POLYLINE
  8
Default_Layer
 62
256
 66
   1
 39
0.000000
 70
    1
  0
VERTEX
  8
0
 10
-428.39010823
 20
201.29389361
 42
-0.43570129
  0
VERTEX
  8
0
 10
-429.21471395
 20
202.36193893
 42
-0.45135033
  0
VERTEX
  8
0
 10
-428.14107048
 20
203.39060908
 42
-0.31923864
  0
VERTEX
  8
0
 10
-427.54746492
 20
202.71817511
 42
-0.29885769
  0
VERTEX
  8
0
 10
-427.99322161
 20
201.40097816
 42
-0.12442572
  0
VERTEX
  8
0
 10
-428.39010823
 20
201.29389361
  0
SEQEND
  0
POLYLINE
  8
Default_Layer
 62
256
 66
   1
 39
0.000000
 70
    1
  0
VERTEX
  8
0
 10
-428.27460130
 20
203.01302174
 42
0.39066700
  0
VERTEX
  8
0
 10
-428.82717820
 20
202.35985756
 42
0.44401798
  0
VERTEX
  8
0
 10
-428.39010823
 20
201.68276694
 42
0.43125839
  0
VERTEX
  8
0
 10
-427.87844509
 20
202.40033958
 42
0.31420984
  0
VERTEX
  8
0
 10
-428.14430708
 20
202.97983756
  0
VERTEX
  8
0
 10
-428.27460130
 20
203.01302174
  0
SEQEND
  0
POLYLINE
  8
Default_Layer
 62
256
 66
   1
 39
0.000000
 70
    1
  0
VERTEX
  8
0
 10
-425.42735550
 20
201.28811826
 42
-0.36180443
  0
VERTEX
  8
0
 10
-425.63334285
 20
201.58394434
 42
-0.02079514
  0
VERTEX
  8
0
 10
-425.74054772
 20
202.86021570
 42
0.50146595
  0
VERTEX
  8
0
 10
-426.07130663
 20
202.96467173
 42
0.16846636
  0
VERTEX
  8
0
 10
-426.59975083
 20
202.35270713
 42
-0.08562589
  0
VERTEX
  8
0
 10
-426.68429548
 20
201.45464075
 42
-0.39248686
  0
VERTEX
  8
0
 10
-426.94653488
 20
201.41366717
 42
-0.39248686
  0
VERTEX
  8
0
 10
-427.00697693
 20
201.67211463
 42
0.01449563
  0
VERTEX
  8
0
 10
-426.98621776
 20
204.37840990
 42
-0.37259984
  0
VERTEX
  8
0
 10
-426.72645016
 20
204.45576460
 42
-0.37259984
  0
VERTEX
  8
0
 10
-426.61258493
 20
204.20980187
 42
-0.01928598
  0
VERTEX
  8
0
 10
-426.61322664
 20
202.97259432
 42
-0.40347271
  0
VERTEX
  8
0
 10
-425.54270200
 20
203.28807262
 42
-0.19127278
  0
VERTEX
  8
0
 10
-425.35318789
 20
202.57733771
  0
VERTEX
  8
0
 10
-425.24182249
 20
201.41842452
 42
-0.26340404
  0
VERTEX
  8
0
 10
-425.42735550
 20
201.28811826
  0
SEQEND
  0
POLYLINE
  8
Default_Layer
 62
256
 66
   1
 39
0.000000
 70
    1
  0
VERTEX
  8
0
 10
-423.25775034
 20
201.28041780
  0
VERTEX
  8
0
 10
-423.53668944
 20
201.49765189
 42
-0.35524165
  0
VERTEX
  8
0
 10
-424.73623904
 20
201.55763443
 42
-0.33692228
  0
VERTEX
  8
0
 10
-424.61110653
 20
203.08617613
 42
-0.43351075
  0
VERTEX
  8
0
 10
-423.22406082
 20
203.14404991
 42
-0.05365535
  0
VERTEX
  8
0
 10
-423.27700150
 20
202.73773023
 42
0.11295237
  0
VERTEX
  8
0
 10
-423.16007606
 20
201.66361711
 42
-0.30770920
  0
VERTEX
  8
0
 10
-423.13261783
 20
201.33047080
  0
VERTEX
  8
0
 10
-423.25775034
 20
201.28041780
  0
SEQEND
  0
POLYLINE
  8
Default_Layer
 62
256
 66
   1
 39
0.000000
 70
    1
  0
VERTEX
  8
0
 10
-423.65817436
 20
202.61837307
 42
0.07302039
  0
VERTEX
  8
0
 10
-423.63342288
 20
203.01302174
 42
0.42167162
  0
VERTEX
  8
0
 10
-424.43688358
 20
202.66872687
 42
0.33633850
  0
VERTEX
  8
0
 10
-424.36998581
 20
201.73907657
 42
0.42683749
  0
VERTEX
  8
0
 10
-423.59815025
 20
201.87369891
  0
VERTEX
  8
0
 10
-423.65817436
 20
202.61837307
  0
SEQEND
  0
POLYLINE
  8
Default_Layer
 62
256
 66
   1
 39
0.000000
 70
    1
  0
VERTEX
  8
0
 10
-420.29884783
 20
201.24769084
 42
-0.38271173
  0
VERTEX
  8
0
 10
-420.49483701
 20
201.51143166
 42
0.05945829
  0
VERTEX
  8
0
 10
-420.71804173
 20
202.93361073
 42
0.54232738
  0
VERTEX
  8
0
 10
-421.02654149
 20
202.95700088
 42
0.11644511
  0
VERTEX
  8
0
 10
-421.33405336
 20
202.72253195
 42
-0.00994278
  0
VERTEX
  8
0
 10
-421.24071059
 20
201.30508334
 42
-0.39871173
  0
VERTEX
  8
0
 10
-421.48185889
 20
201.18755092
 42
-0.39871173
  0
VERTEX
  8
0
 10
-421.61205161
 20
201.42210630
 42
0.03362585
  0
VERTEX
  8
0
 10
-421.75459610
 20
203.04027416
 42
0.22655560
  0
VERTEX
  8
0
 10
-422.03337689
 20
202.85708739
 42
0.09242734
  0
VERTEX
  8
0
 10
-422.36107433
 20
202.44382926
 42
0.01941411
  0
VERTEX
  8
0
 10
-422.37941640
 20
201.42335763
 42
-0.34180600
  0
VERTEX
  8
0
 10
-422.60892758
 20
201.33581713
 42
-0.34180600
  0
VERTEX
  8
0
 10
-422.75120433
 20
201.53605710
 42
-0.02686005
  0
VERTEX
  8
0
 10
-422.74687282
 20
202.66541808
 42
-0.14401577
  0
VERTEX
  8
0
 10
-422.69284926
 20
203.47607218
 42
-0.36589993
  0
VERTEX
  8
0
 10
-422.43228884
 20
203.47923544
 42
-0.36589993
  0
VERTEX
  8
0
 10
-422.38567302
 20
203.22285933
 42
0.03357181
  0
VERTEX
  8
0
 10
-422.39144837
 20
202.90329016
 42
-0.26809109
  0
VERTEX
  8
0
 10
-421.71353700
 20
203.43528379
 42
-0.29195598
  0
VERTEX
  8
0
 10
-421.34996089
 20
203.14200448
 42
-0.44683969
  0
VERTEX
  8
0
 10
-420.44383310
 20
203.28229727
 42
-0.13650658
  0
VERTEX
  8
0
 10
-420.24008115
 20
202.49688815
 42
-0.03115806
  0
VERTEX
  8
0
 10
-420.11644314
 20
201.36127265
 42
-0.26165051
  0
VERTEX
  8
0
 10
-420.29884783
 20
201.24769084
  0
SEQEND
  0
POLYLINE
  8
Default_Layer
 62
256
 66
   1
 39
0.000000
 70
    1
  0
VERTEX
  8
0
 10
-418.78185683
 20
201.31892011
 42
-0.42193904
  0
VERTEX
  8
0
 10
-419.77597115
 20
202.15446399
 42
-0.33693284
  0
VERTEX
  8
0
 10
-419.09425057
 20
203.37721859
 42
-0.29752590
  0
VERTEX
  8
0
 10
-418.12587373
 20
203.14296704
 42
-0.45984835
  0
VERTEX
  8
0
 10
-418.43437348
 20
202.47206429
 42
-0.01256064
  0
VERTEX
  8
0
 10
-419.42484540
 20
201.98886030
 42
0.37868175
  0
VERTEX
  8
0
 10
-418.27001675
 20
201.80212410
 42
-0.24992911
  0
VERTEX
  8
0
 10
-418.00273509
 20
201.97208430
 42
-0.65657735
  0
VERTEX
  8
0
 10
-418.00356873
 20
201.57465967
 42
-0.14712219
  0
VERTEX
  8
0
 10
-418.78185683
 20
201.31892011
  0
SEQEND
  0
POLYLINE
  8
Default_Layer
 62
256
 66
   1
 39
0.000000
 70
    1
  0
VERTEX
  8
0
 10
-418.83383495
 20
203.07270032
 42
0.32485739
  0
VERTEX
  8
0
 10
-419.40066822
 20
202.53106342
  0
VERTEX
  8
0
 10
-419.45757237
 20
202.34308155
 42
0.04366203
  0
VERTEX
  8
0
 10
-418.36988212
 20
202.91869108
 42
0.13461359
  0
VERTEX
  8
0
 10
-418.83383495
 20
203.07270032
  0
SEQEND
  0
POLYLINE
  8
Default_Layer
 62
256
 66
   1
 39
0.000000
 70
    1
  0
VERTEX
  8
0
 10
-415.74787482
 20
203.10735240
 42
0.01953659
  0
VERTEX
  8
0
 10
-415.72092320
 20
201.45849098
 42
-0.31380669
  0
VERTEX
  8
0
 10
-415.91441445
 20
201.37309114
 42
-0.31380669
  0
VERTEX
  8
0
 10
-416.06166864
 20
201.52490747
 42
-0.61099727
  0
VERTEX
  8
0
 10
-417.58561632
 20
202.22608703
 42
-0.42889892
  0
VERTEX
  8
0
 10
-416.66689870
 20
203.41008775
 42
-0.21164292
  0
VERTEX
  8
0
 10
-416.08477003
 20
203.21323375
 42
-0.04051486
  0
VERTEX
  8
0
 10
-415.99308640
 20
204.36902496
 42
-0.40709750
  0
VERTEX
  8
0
 10
-415.75781347
 20
204.44521143
 42
-0.40709750
  0
VERTEX
  8
0
 10
-415.67591968
 20
204.21186374
  0
VERTEX
  8
0
 10
-415.74787482
 20
203.10735240
  0
SEQEND
  0
POLYLINE
  8
Default_Layer
 62
256
 66
   1
 39
0.000000
 70
    1
  0
VERTEX
  8
0
 10
-416.60262610
 20
203.05729940
 42
0.40764278
  0
VERTEX
  8
0
 10
-417.22700522
 20
202.47607495
 42
0.37552702
  0
VERTEX
  8
0
 10
-416.88863850
 20
201.74388306
 42
0.37552702
  0
VERTEX
  8
0
 10
-416.11783672
 20
201.98149957
 42
0.03977428
  0
VERTEX
  8
0
 10
-416.13642730
 20
202.77569778
 42
0.27606361
  0
VERTEX
  8
0
 10
-416.60262610
 20
203.05729940
  0
SEQEND
  0
POLYLINE
  8
Default_Layer
 62
256
 66
   1
 39
0.000000
 70
    1
  0
VERTEX
  8
0
 10
-411.88801826
 20
201.34972196
 42
-0.25183127
  0
VERTEX
  8
0
 10
-412.15854765
 20
201.71437936
 42
-0.03797461
  0
VERTEX
  8
0
 10
-412.32116925
 20
202.41046059
 42
0.04520589
  0
VERTEX
  8
0
 10
-413.35528495
 20
202.19034007
 42
-0.05830344
  0
VERTEX
  8
0
 10
-413.74912366
 20
201.39014938
 42
-0.34254176
  0
VERTEX
  8
0
 10
-413.99799451
 20
201.46450023
 42
-0.34254176
  0
VERTEX
  8
0
 10
-413.98771766
 20
201.72403660
 42
0.05708729
  0
VERTEX
  8
0
 10
-413.76088062
 20
202.29330357
 42
-0.39717943
  0
VERTEX
  8
0
 10
-413.58569511
 20
202.59293404
 42
-0.05180538
  0
VERTEX
  8
0
 10
-412.53514584
 20
204.21631518
 42
-0.52414118
  0
VERTEX
  8
0
 10
-412.28131936
 20
204.07279782
 42
0.01764520
  0
VERTEX
  8
0
 10
-411.78621363
 20
201.85942460
 42
-0.26796622
  0
VERTEX
  8
0
 10
-411.75133506
 20
201.40555031
  0
VERTEX
  8
0
 10
-411.88801826
 20
201.34972196
  0
SEQEND
  0
POLYLINE
  8
Default_Layer
 62
256
 66
   1
 39
0.000000
 70
    1
  0
VERTEX
  8
0
 10
-412.56758403
 20
203.55012896
  0
VERTEX
  8
0
 10
-413.11816706
 20
202.66265072
  0
VERTEX
  8
0
 10
-412.41164968
 20
202.80703438
  0
VERTEX
  8
0
 10
-412.56758403
 20
203.55012896
  0
SEQEND
  0
POLYLINE
  8
Default_Layer
 62
256
 66
   1
 39
0.000000
 70
    1
  0
VERTEX
  8
0
 10
-410.24396964
 20
201.32662057
 42
-0.07939462
  0
VERTEX
  8
0
 10
-410.77915174
 20
201.44212750
 42
-0.37123714
  0
VERTEX
  8
0
 10
-411.01781329
 20
201.39271560
 42
-0.37123714
  0
VERTEX
  8
0
 10
-411.10208987
 20
201.62140388
 42
-0.01797418
  0
VERTEX
  8
0
 10
-411.09032041
 20
204.20869347
 42
-0.34551076
  0
VERTEX
  8
0
 10
-410.99036132
 20
204.41079882
 42
-0.34551076
  0
VERTEX
  8
0
 10
-410.77028246
 20
204.36177140
 42
-0.03885635
  0
VERTEX
  8
0
 10
-410.77045022
 20
203.57477044
  0
VERTEX
  8
0
 10
-410.77337640
 20
203.20168306
 42
-0.38251076
  0
VERTEX
  8
0
 10
-409.54056853
 20
203.15289341
 42
-0.56302118
  0
VERTEX
  8
0
 10
-410.04183251
 20
201.34575141
  0
VERTEX
  8
0
 10
-410.24396964
 20
201.32662057
  0
SEQEND
  0
POLYLINE
  8
Default_Layer
 62
256
 66
   1
 39
0.000000
 70
    1
  0
VERTEX
  8
0
 10
-410.17081525
 20
203.06499986
 42
0.20057182
  0
VERTEX
  8
0
 10
-410.77167777
 20
202.76626723
 42
0.05580642
  0
VERTEX
  8
0
 10
-410.75412524
 20
201.82958908
 42
0.26951384
  0
VERTEX
  8
0
 10
-409.91136891
 20
201.79812578
 42
0.54739495
  0
VERTEX
  8
0
 10
-409.95224060
 20
203.01702006
  0
VERTEX
  8
0
 10
-410.17081525
 20
203.06499986
  0
SEQEND
  0
POLYLINE
  8
Default_Layer
 62
256
 66
   1
 39
0.000000
 70
    1
  0
VERTEX
  8
0
 10
-407.03095189
 20
203.10735240
 42
0.01953659
  0
VERTEX
  8
0
 10
-407.00400027
 20
201.45849098
 42
-0.31380669
  0
VERTEX
  8
0
 10
-407.19749152
 20
201.37309114
 42
-0.31380669
  0
VERTEX
  8
0
 10
-407.34474571
 20
201.52490747
 42
-0.61099727
  0
VERTEX
  8
0
 10
-408.86869338
 20
202.22608703
 42
-0.42889892
  0
VERTEX
  8
0
 10
-407.94997577
 20
203.41008775
 42
-0.21164292
  0
VERTEX
  8
0
 10
-407.36784710
 20
203.21323375
 42
-0.04051486
  0
VERTEX
  8
0
 10
-407.27616347
 20
204.36902496
 42
-0.40709750
  0
VERTEX
  8
0
 10
-407.04089053
 20
204.44521143
 42
-0.40709750
  0
VERTEX
  8
0
 10
-406.95899675
 20
204.21186374
  0
VERTEX
  8
0
 10
-407.03095189
 20
203.10735240
  0
SEQEND
  0
POLYLINE
  8
Default_Layer
 62
256
 66
   1
 39
0.000000
 70
    1
  0
VERTEX
  8
0
 10
-407.88570316
 20
203.05729940
 42
0.40764278
  0
VERTEX
  8
0
 10
-408.51008229
 20
202.47607495
 42
0.37552702
  0
VERTEX
  8
0
 10
-408.17171557
 20
201.74388306
 42
0.37552702
  0
VERTEX
  8
0
 10
-407.40091379
 20
201.98149957
 42
0.03977428
  0
VERTEX
  8
0
 10
-407.41950436
 20
202.77569778
 42
0.27606361
  0
VERTEX
  8
0
 10
-407.88570316
 20
203.05729940
  0
SEQEND
  0
POLYLINE
  8
Default_Layer
 62
256
 66
   1
 39
0.000000
 70
    1
  0
VERTEX
  8
0
 10
-405.58904039
 20
201.31892011
 42
-0.42193904
  0
VERTEX
  8
0
 10
-406.58315471
 20
202.15446399
 42
-0.33693284
  0
VERTEX
  8
0
 10
-405.90143413
 20
203.37721859
 42
-0.29752590
  0
VERTEX
  8
0
 10
-404.93305728
 20
203.14296704
 42
-0.45984835
  0
VERTEX
  8
0
 10
-405.24155704
 20
202.47206429
 42
-0.01256064
  0
VERTEX
  8
0
 10
-406.23202896
 20
201.98886030
 42
0.37868175
  0
VERTEX
  8
0
 10
-405.07720030
 20
201.80212410
 42
-0.24992911
  0
VERTEX
  8
0
 10
-404.80991865
 20
201.97208430
 42
-0.65657735
  0
VERTEX
  8
0
 10
-404.81075229
 20
201.57465967
 42
-0.14712219
  0
VERTEX
  8
0
 10
-405.58904039
 20
201.31892011
  0
SEQEND
  0
POLYLINE
  8
Default_Layer
 62
256
 66
   1
 39
0.000000
 70
    1
  0
VERTEX
  8
0
 10
-405.64101850
 20
203.07270032
 42
0.32485739
  0
VERTEX
  8
0
 10
-406.20785177
 20
202.53106342
  0
VERTEX
  8
0
 10
-406.26475592
 20
202.34308155
 42
0.04366203
  0
VERTEX
  8
0
 10
-405.17706567
 20
202.91869108
 42
0.13461359
  0
VERTEX
  8
0
 10
-405.64101850
 20
203.07270032
  0
SEQEND
  0
POLYLINE
  8
Default_Layer
 62
256
 66
   1
 39
0.000000
 70
    1
  0
VERTEX
  8
0
 10
-403.83911041
 20
202.92061620
 42
-0.02913380
  0
VERTEX
  8
0
 10
-403.90468465
 20
201.46306313
 42
-0.41421356
  0
VERTEX
  8
0
 10
-404.13051808
 20
201.33404697
 42
-0.41421356
  0
VERTEX
  8
0
 10
-404.25953424
 20
201.55988040
 42
-0.01117770
  0
VERTEX
  8
0
 10
-404.17847217
 20
204.41173846
 42
-0.38757900
  0
VERTEX
  8
0
 10
-403.90171997
 20
204.46686105
 42
-0.38757900
  0
VERTEX
  8
0
 10
-403.82146351
 20
204.19632606
  0
VERTEX
  8
0
 10
-403.83911041
 20
202.92061620
  0
SEQEND
  0
POLYLINE
  8
Default_Layer
 62
256
 66
   1
 39
0.000000
 70
    1
  0
VERTEX
  8
0
 10
-401.63677829
 20
201.28811826
 42
-0.36180443
  0
VERTEX
  8
0
 10
-401.84276564
 20
201.58394434
 42
-0.02079514
  0
VERTEX
  8
0
 10
-401.94997051
 20
202.86021570
 42
0.50146595
  0
VERTEX
  8
0
 10
-402.28072942
 20
202.96467173
 42
0.16846636
  0
VERTEX
  8
0
 10
-402.80917362
 20
202.35270713
 42
-0.08562589
  0
VERTEX
  8
0
 10
-402.89371827
 20
201.45464075
 42
-0.39248686
  0
VERTEX
  8
0
 10
-403.15595767
 20
201.41366717
 42
-0.39248686
  0
VERTEX
  8
0
 10
-403.21639972
 20
201.67211463
 42
0.01449563
  0
VERTEX
  8
0
 10
-403.19564055
 20
204.37840990
 42
-0.37259984
  0
VERTEX
  8
0
 10
-402.93587295
 20
204.45576460
 42
-0.37259984
  0
VERTEX
  8
0
 10
-402.82200772
 20
204.20980187
 42
-0.01928598
  0
VERTEX
  8
0
 10
-402.82264943
 20
202.97259432
 42
-0.40347271
  0
VERTEX
  8
0
 10
-401.75212479
 20
203.28807262
 42
-0.19127278
  0
VERTEX
  8
0
 10
-401.56261068
 20
202.57733771
  0
VERTEX
  8
0
 10
-401.45124528
 20
201.41842452
 42
-0.26340404
  0
VERTEX
  8
0
 10
-401.63677829
 20
201.28811826
  0
SEQEND
  0
POLYLINE
  8
Default_Layer
 62
256
 66
   1
 39
0.000000
 70
    1
  0
VERTEX
  8
0
 10
-399.46717313
 20
201.28041780
  0
VERTEX
  8
0
 10
-399.74611223
 20
201.49765189
 42
-0.35524165
  0
VERTEX
  8
0
 10
-400.94566183
 20
201.55763443
 42
-0.33692228
  0
VERTEX
  8
0
 10
-400.82052932
 20
203.08617613
 42
-0.43351075
  0
VERTEX
  8
0
 10
-399.43348361
 20
203.14404991
 42
-0.05365535
  0
VERTEX
  8
0
 10
-399.48642429
 20
202.73773023
 42
0.11295237
  0
VERTEX
  8
0
 10
-399.36949885
 20
201.66361711
 42
-0.30770920
  0
VERTEX
  8
0
 10
-399.34204062
 20
201.33047080
  0
VERTEX
  8
0
 10
-399.46717313
 20
201.28041780
  0
SEQEND
  0
POLYLINE
  8
Default_Layer
 62
256
 66
   1
 39
0.000000
 70
    1
  0
VERTEX
  8
0
 10
-399.86759715
 20
202.61837307
 42
0.07302039
  0
VERTEX
  8
0
 10
-399.84284567
 20
203.01302174
 42
0.42167162
  0
VERTEX
  8
0
 10
-400.64630637
 20
202.66872687
 42
0.33633850
  0
VERTEX
  8
0
 10
-400.57940860
 20
201.73907657
 42
0.42683749
  0
VERTEX
  8
0
 10
-399.80757304
 20
201.87369891
  0
VERTEX
  8
0
 10
-399.86759715
 20
202.61837307
  0
SEQEND
  0
POLYLINE
  8
Default_Layer
 62
256
 66
   1
 39
0.000000
 70
    1
  0
VERTEX
  8
0
 10
-397.18013593
 20
203.10735240
 42
0.01953659
  0
VERTEX
  8
0
 10
-397.15318431
 20
201.45849098
 42
-0.31380669
  0
VERTEX
  8
0
 10
-397.34667556
 20
201.37309114
 42
-0.31380669
  0
VERTEX
  8
0
 10
-397.49392975
 20
201.52490747
 42
-0.61099727
  0
VERTEX
  8
0
 10
-399.01787743
 20
202.22608703
 42
-0.42889892
  0
VERTEX
  8
0
 10
-398.09915981
 20
203.41008775
 42
-0.21164292
  0
VERTEX
  8
0
 10
-397.51703114
 20
203.21323375
 42
-0.04051486
  0
VERTEX
  8
0
 10
-397.42534752
 20
204.36902496
 42
-0.40709750
  0
VERTEX
  8
0
 10
-397.19007458
 20
204.44521143
 42
-0.40709750
  0
VERTEX
  8
0
 10
-397.10818079
 20
204.21186374
  0
VERTEX
  8
0
 10
-397.18013593
 20
203.10735240
  0
SEQEND
  0
POLYLINE
  8
Default_Layer
 62
256
 66
   1
 39
0.000000
 70
    1
  0
VERTEX
  8
0
 10
-398.03488721
 20
203.05729940
 42
0.40764278
  0
VERTEX
  8
0
 10
-398.65926633
 20
202.47607495
 42
0.37552702
  0
VERTEX
  8
0
 10
-398.32089961
 20
201.74388306
 42
0.37552702
  0
VERTEX
  8
0
 10
-397.55009783
 20
201.98149957
 42
0.03977428
  0
VERTEX
  8
0
 10
-397.56868841
 20
202.77569778
 42
0.27606361
  0
VERTEX
  8
0
 10
-398.03488721
 20
203.05729940
  0
SEQEND
  0
POLYLINE
  8
Default_Layer
 62
256
 66
   1
 39
0.000000
 70
    1
  0
VERTEX
  8
0
 10
-394.95085219
 20
203.12467844
 42
0.00763530
  0
VERTEX
  8
0
 10
-396.17990093
 20
200.34233653
 42
-0.37443272
  0
VERTEX
  8
0
 10
-396.43982776
 20
200.36678834
 42
-0.37443272
  0
VERTEX
  8
0
 10
-396.45128721
 20
200.62761114
 42
-0.03438424
  0
VERTEX
  8
0
 10
-396.07704476
 20
201.59228651
 42
-0.01450079
  0
VERTEX
  8
0
 10
-396.90484442
 20
203.20745841
 42
-0.37721724
  0
VERTEX
  8
0
 10
-396.69606558
 20
203.38882275
 42
-0.37721724
  0
VERTEX
  8
0
 10
-396.48954450
 20
203.20489159
 42
-0.03232068
  0
VERTEX
  8
0
 10
-395.86913228
 20
202.04468865
 42
-0.05400629
  0
VERTEX
  8
0
 10
-395.21651813
 20
203.38264392
 42
-0.31774633
  0
VERTEX
  8
0
 10
-394.99251254
 20
203.34755537
 42
-0.31774633
  0
VERTEX
  8
0
 10
-394.95085219
 20
203.12467844
  0
SEQEND
  0
POLYLINE
  8
Default_Layer
 62
256
 66
   1
 39
0.000000
 70
    1
  0
VERTEX
  8
0
 10
-429.75573541
 20
190.78870762
 42
-0.32574320
  0
VERTEX
  8
0
 10
-430.93653048
 20
191.70589901
 42
-0.17458426
  0
VERTEX
  8
0
 10
-430.89863283
 20
193.81140392
 42
-0.55577136
  0
VERTEX
  8
0
 10
-428.81475519
 20
194.30207635
 42
-0.21216195
  0
VERTEX
  8
0
 10
-428.39674539
 20
192.41777163
 42
-0.22159115
  0
VERTEX
  8
0
 10
-429.06901173
 20
190.98255816
 42
-0.13926170
  0
VERTEX
  8
0
 10
-429.75573541
 20
190.78870762
  0
SEQEND
  0
POLYLINE
  8
Default_Layer
 62
256
 66
   1
 39
0.000000
 70
    1
  0
VERTEX
  8
0
 10
-429.68243058
 20
194.21204299
 42
0.32614072
  0
VERTEX
  8
0
 10
-430.54223510
 20
193.40558809
 42
0.17413280
  0
VERTEX
  8
0
 10
-430.39455642
 20
191.64143619
 42
0.31854031
  0
VERTEX
  8
0
 10
-429.58535288
 20
191.29373376
 42
0.31854031
  0
VERTEX
  8
0
 10
-428.98945563
 20
191.94228123
 42
0.18987087
  0
VERTEX
  8
0
 10
-429.07867753
 20
193.90021113
 42
0.24679329
  0
VERTEX
  8
0
 10
-429.68243058
 20
194.21204299
  0
SEQEND
  0
POLYLINE
  8
Default_Layer
 62
256
 66
   1
 39
0.000000
 70
    1
  0
VERTEX
  8
0
 10
-426.47412270
 20
190.88156040
 42
-0.06629350
  0
VERTEX
  8
0
 10
-427.72103779
 20
190.93336248
 42
-0.34586418
  0
VERTEX
  8
0
 10
-427.75424471
 20
191.23132736
 42
-0.34586418
  0
VERTEX
  8
0
 10
-427.47259552
 20
191.33408680
 42
0.20152461
  0
VERTEX
  8
0
 10
-427.20874178
 20
191.35594734
 42
-0.03312553
  0
VERTEX
  8
0
 10
-427.14254697
 20
193.88660814
  0
VERTEX
  8
0
 10
-427.14119662
 20
193.91149320
 42
-0.18865774
  0
VERTEX
  8
0
 10
-427.62775740
 20
193.67111446
 42
-0.65502796
  0
VERTEX
  8
0
 10
-427.60831126
 20
194.16100111
 42
-0.08662125
  0
VERTEX
  8
0
 10
-426.89548970
 20
194.66924790
 42
-0.30351905
  0
VERTEX
  8
0
 10
-426.67925786
 20
194.60804351
 42
-0.30351905
  0
VERTEX
  8
0
 10
-426.65319592
 20
194.38483294
 42
-0.00731874
  0
VERTEX
  8
0
 10
-426.76943643
 20
191.97345324
 42
0.10687680
  0
VERTEX
  8
0
 10
-426.70736533
 20
191.34626857
 42
-0.44907455
  0
VERTEX
  8
0
 10
-426.23710377
 20
191.11613584
 42
-0.34814175
  0
VERTEX
  8
0
 10
-426.47412270
 20
190.88156040
  0
SEQEND
  0
POLYLINE
  8
Default_Layer
 62
256
 66
   1
 39
0.000000
 70
    1
  0
VERTEX
  8
0
 10
-423.47839882
 20
190.87911691
 42
0.08403875
  0
VERTEX
  8
0
 10
-424.73598383
 20
190.91128958
 42
-0.20375922
  0
VERTEX
  8
0
 10
-425.45762912
 20
190.97807842
 42
-0.36981879
  0
VERTEX
  8
0
 10
-424.88787958
 20
192.55315478
 42
0.07335768
  0
VERTEX
  8
0
 10
-423.93319417
 20
193.33589760
 42
0.40694630
  0
VERTEX
  8
0
 10
-423.92392926
 20
194.00000199
 42
0.39876018
  0
VERTEX
  8
0
 10
-425.02092240
 20
193.84090337
 42
-0.54241678
  0
VERTEX
  8
0
 10
-425.52646693
 20
193.81642601
 42
-0.30394716
  0
VERTEX
  8
0
 10
-425.19739698
 20
194.27435209
 42
-0.50196381
  0
VERTEX
  8
0
 10
-423.34202130
 20
194.06421159
 42
-0.35938946
  0
VERTEX
  8
0
 10
-424.11563638
 20
192.52178803
 42
0.07341862
  0
VERTEX
  8
0
 10
-424.86528540
 20
191.92635779
 42
0.26998747
  0
VERTEX
  8
0
 10
-425.04025704
 20
191.35047857
 42
-0.10208524
  0
VERTEX
  8
0
 10
-423.42739088
 20
191.33498129
 42
-0.35833997
  0
VERTEX
  8
0
 10
-423.26547419
 20
191.08607808
 42
-0.35833997
  0
VERTEX
  8
0
 10
-423.47839882
 20
190.87911691
  0
SEQEND
  0
POLYLINE
  8
Default_Layer
 62
256
 66
   1
 39
0.000000
 70
    1
  0
VERTEX
  8
0
 10
-421.38676779
 20
190.75205521
 42
-0.28729620
  0
VERTEX
  8
0
 10
-422.50863706
 20
191.33493039
 42
-0.36428978
  0
VERTEX
  8
0
 10
-422.03429375
 20
192.79725985
 42
-0.59950811
  0
VERTEX
  8
0
 10
-421.86270615
 20
194.49467382
 42
-0.31137283
  0
VERTEX
  8
0
 10
-420.55968318
 20
194.32842395
 42
-0.28706046
  0
VERTEX
  8
0
 10
-420.44846601
 20
193.14667952
 42
-0.07717950
  0
VERTEX
  8
0
 10
-420.81743364
 20
192.87545166
 42
-0.28819916
  0
VERTEX
  8
0
 10
-420.14906162
 20
191.91496755
 42
-0.46105857
  0
VERTEX
  8
0
 10
-421.26413492
 20
190.76824336
  0
VERTEX
  8
0
 10
-421.38676779
 20
190.75205521
  0
SEQEND
  0
POLYLINE
  8
Default_Layer
 62
256
 66
   1
 39
0.000000
 70
    1
  0
VERTEX
  8
0
 10
-421.36477634
 20
194.17539058
 42
0.31277317
  0
VERTEX
  8
0
 10
-421.92152714
 20
193.87085676
 42
0.31277317
  0
VERTEX
  8
0
 10
-421.83155160
 20
193.24267151
 42
0.22076117
  0
VERTEX
  8
0
 10
-421.36439052
 20
193.08816426
 42
0.25598250
  0
VERTEX
  8
0
 10
-420.83582772
 20
193.48401747
 42
0.48538714
  0
VERTEX
  8
0
 10
-421.21926626
 20
194.15889699
  0
VERTEX
  8
0
 10
-421.36477634
 20
194.17539058
  0
SEQEND
  0
POLYLINE
  8
Default_Layer
 62
256
 66
   1
 39
0.000000
 70
    1
  0
VERTEX
  8
0
 10
-421.40875923
 20
192.62865875
 42
0.26492593
  0
VERTEX
  8
0
 10
-422.09066865
 20
191.95460342
 42
0.48308410
  0
VERTEX
  8
0
 10
-421.50588813
 20
191.19310591
 42
0.27649289
  0
VERTEX
  8
0
 10
-420.76514286
 20
191.42303871
 42
0.49664339
  0
VERTEX
  8
0
 10
-421.22418144
 20
192.55836130
  0
VERTEX
  8
0
 10
-421.40875923
 20
192.62865875
  0
SEQEND
  0
POLYLINE
  8
Default_Layer
 62
256
 66
   1
 39
0.000000
 70
    1
  0
VERTEX
  8
0
 10
-418.35439149
 20
190.77160316
 42
-0.27635136
  0
VERTEX
  8
0
 10
-419.41312262
 20
191.34460255
 42
-0.40690662
  0
VERTEX
  8
0
 10
-419.39956308
 20
191.66785012
 42
-0.40690662
  0
VERTEX
  8
0
 10
-419.07607750
 20
191.66237897
 42
0.65110138
  0
VERTEX
  8
0
 10
-417.70698770
 20
191.69622137
 42
0.46061288
  0
VERTEX
  8
0
 10
-418.48650307
 20
192.63696663
 42
-0.35215056
  0
VERTEX
  8
0
 10
-418.85286430
 20
192.87789516
 42
-0.29328369
  0
VERTEX
  8
0
 10
-418.43004207
 20
193.14970945
 42
0.24057090
  0
VERTEX
  8
0
 10
-417.73740920
 20
193.52175588
 42
0.50638546
  0
VERTEX
  8
0
 10
-418.28577003
 20
194.13222218
 42
0.15561689
  0
VERTEX
  8
0
 10
-419.06626280
 20
193.85529284
 42
-0.40703683
  0
VERTEX
  8
0
 10
-419.34085549
 20
194.07013889
 42
-0.40703683
  0
VERTEX
  8
0
 10
-419.13281892
 20
194.34992588
 42
-0.44027271
  0
VERTEX
  8
0
 10
-417.35683498
 20
194.07826168
 42
-0.44408204
  0
VERTEX
  8
0
 10
-417.81486797
 20
192.88473694
 42
0.41421356
  0
VERTEX
  8
0
 10
-417.81231170
 20
192.84080104
 42
0.41421356
  0
VERTEX
  8
0
 10
-417.76837579
 20
192.84335731
 42
-0.45670539
  0
VERTEX
  8
0
 10
-417.35386546
 20
191.32744718
 42
-0.25837172
  0
VERTEX
  8
0
 10
-418.35439149
 20
190.77160316
  0
SEQEND
  0
POLYLINE
  8
Default_Layer
 62
256
 66
   1
 39
0.000000
 70
    1
  0
VERTEX
  8
0
 10
-414.86263828
 20
191.17966669
 42
-0.11543772
  0
VERTEX
  8
0
 10
-416.08866149
 20
190.66103505
 42
-0.37201879
  0
VERTEX
  8
0
 10
-416.24500077
 20
190.96165848
 42
-0.37201879
  0
VERTEX
  8
0
 10
-415.97035565
 20
191.16011874
 42
0.23345959
  0
VERTEX
  8
0
 10
-414.62537499
 20
192.32371067
  0
VERTEX
  8
0
 10
-414.59385392
 20
192.38675283
 42
-0.40136192
  0
VERTEX
  8
0
 10
-416.36355459
 20
192.75016150
 42
-0.41339980
  0
VERTEX
  8
0
 10
-415.86090710
 20
194.48254572
 42
-0.41339980
  0
VERTEX
  8
0
 10
-414.12713264
 20
193.98471473
 42
-0.20359302
  0
VERTEX
  8
0
 10
-414.13027420
 20
192.31755307
 42
-0.15803935
  0
VERTEX
  8
0
 10
-414.86263828
 20
191.17966669
  0
SEQEND
  0
POLYLINE
  8
Default_Layer
 62
256
 66
   1
 39
0.000000
 70
    1
  0
VERTEX
  8
0
 10
-415.20961446
 20
194.21937347
 42
0.27100022
  0
VERTEX
  8
0
 10
-415.91103826
 20
193.86337516
 42
0.42022111
  0
VERTEX
  8
0
 10
-415.67922350
 20
192.75526229
 42
0.35767011
  0
VERTEX
  8
0
 10
-414.46207977
 20
193.01926875
 42
0.41687006
  0
VERTEX
  8
0
 10
-415.20961446
 20
194.21937347
  0
SEQEND
  0
POLYLINE
  8
Default_Layer
 62
256
 66
   1
 39
0.000000
 70
    1
  0
VERTEX
  8
0
 10
-411.36844158
 20
191.95181086
 42
-0.06701780
  0
VERTEX
  8
0
 10
-411.41708239
 20
190.89858850
 42
-0.33669891
  0
VERTEX
  8
0
 10
-411.74730572
 20
190.88518894
 42
-0.33669891
  0
VERTEX
  8
0
 10
-411.84883254
 20
191.19970334
 42
0.10377494
  0
VERTEX
  8
0
 10
-411.86696993
 20
191.96463920
 42
-0.04575496
  0
VERTEX
  8
0
 10
-413.48855459
 20
192.05145961
 42
-0.55163162
  0
VERTEX
  8
0
 10
-413.48488935
 20
192.44570212
  0
VERTEX
  8
0
 10
-412.00930347
 20
194.51509180
 42
-0.49588410
  0
VERTEX
  8
0
 10
-411.38569876
 20
194.56115722
 42
0.01830029
  0
VERTEX
  8
0
 10
-411.34840493
 20
192.42633743
 42
-0.34302313
  0
VERTEX
  8
0
 10
-410.82989546
 20
192.22871984
 42
-0.52888945
  0
VERTEX
  8
0
 10
-411.22280932
 20
191.95669785
  0
VERTEX
  8
0
 10
-411.36844158
 20
191.95181086
  0
SEQEND
  0
POLYLINE
  8
Default_Layer
 62
256
 66
   1
 39
0.000000
 70
    1
  0
VERTEX
  8
0
 10
-411.84247945
 20
194.01900695
  0
VERTEX
  8
0
 10
-412.86141653
 20
192.46005765
  0
VERTEX
  8
0
 10
-411.84247945
 20
192.43562271
  0
VERTEX
  8
0
 10
-411.84247945
 20
194.01900695
  0
SEQEND
  0
POLYLINE
  8
Default_Layer
 62
256
 66
   1
 39
0.000000
 70
    1
  0
VERTEX
  8
0
 10
-409.29635850
 20
190.73006376
 42
-0.32070864
  0
VERTEX
  8
0
 10
-410.36172197
 20
191.38003322
 42
-0.32953838
  0
VERTEX
  8
0
 10
-410.11841358
 20
191.59362638
 42
-0.32953838
  0
VERTEX
  8
0
 10
-409.84288670
 20
191.42360886
 42
0.52955715
  0
VERTEX
  8
0
 10
-408.45774366
 20
191.75484232
 42
0.33898592
  0
VERTEX
  8
0
 10
-408.62070690
 20
193.03735861
 42
0.37324890
  0
VERTEX
  8
0
 10
-409.82308422
 20
192.62209186
 42
-0.65555474
  0
VERTEX
  8
0
 10
-410.30185636
 20
192.63140768
 42
-0.04065681
  0
VERTEX
  8
0
 10
-410.20533834
 20
194.14118166
 42
-0.16422669
  0
VERTEX
  8
0
 10
-410.25878978
 20
194.53427879
 42
-0.27806635
  0
VERTEX
  8
0
 10
-409.86284190
 20
194.61644128
  0
VERTEX
  8
0
 10
-408.17907078
 20
194.63904360
 42
-0.39329697
  0
VERTEX
  8
0
 10
-408.00514509
 20
194.37117416
 42
-0.39329697
  0
VERTEX
  8
0
 10
-408.25982063
 20
194.17844494
 42
-0.01985686
  0
VERTEX
  8
0
 10
-409.71419601
 20
194.13873816
  0
VERTEX
  8
0
 10
-409.80460529
 20
193.32505460
 42
-0.29149970
  0
VERTEX
  8
0
 10
-408.36294372
 20
193.43379009
 42
-0.27082148
  0
VERTEX
  8
0
 10
-407.87081459
 20
192.01954734
 42
-0.38995179
  0
VERTEX
  8
0
 10
-409.29635850
 20
190.73006376
  0
SEQEND
  0
POLYLINE
  8
Default_Layer
 62
256
 66
   1
 39
0.000000
 70
    1
  0
VERTEX
  8
0
 10
-406.11492906
 20
190.75205521
 42
-0.28729620
  0
VERTEX
  8
0
 10
-407.23679833
 20
191.33493039
 42
-0.36428978
  0
VERTEX
  8
0
 10
-406.76245502
 20
192.79725985
 42
-0.59950811
  0
VERTEX
  8
0
 10
-406.59086743
 20
194.49467382
 42
-0.31137283
  0
VERTEX
  8
0
 10
-405.28784445
 20
194.32842395
 42
-0.28706046
  0
VERTEX
  8
0
 10
-405.17662728
 20
193.14667952
 42
-0.07717950
  0
VERTEX
  8
0
 10
-405.54559491
 20
192.87545166
 42
-0.28819916
  0
VERTEX
  8
0
 10
-404.87722289
 20
191.91496755
 42
-0.46105857
  0
VERTEX
  8
0
 10
-405.99229619
 20
190.76824336
  0
VERTEX
  8
0
 10
-406.11492906
 20
190.75205521
  0
SEQEND
  0
POLYLINE
  8
Default_Layer
 62
256
 66
   1
 39
0.000000
 70
    1
  0
VERTEX
  8
0
 10
-406.09293761
 20
194.17539058
 42
0.31277317
  0
VERTEX
  8
0
 10
-406.64968841
 20
193.87085676
 42
0.31277317
  0
VERTEX
  8
0
 10
-406.55971287
 20
193.24267151
 42
0.22076117
  0
VERTEX
  8
0
 10
-406.09255179
 20
193.08816426
 42
0.25598250
  0
VERTEX
  8
0
 10
-405.56398899
 20
193.48401747
 42
0.48538714
  0
VERTEX
  8
0
 10
-405.94742753
 20
194.15889699
  0
VERTEX
  8
0
 10
-406.09293761
 20
194.17539058
  0
SEQEND
  0
POLYLINE
  8
Default_Layer
 62
256
 66
   1
 39
0.000000
 70
    1
  0
VERTEX
  8
0
 10
-406.13692050
 20
192.62865875
 42
0.26492593
  0
VERTEX
  8
0
 10
-406.81882992
 20
191.95460342
 42
0.48308410
  0
VERTEX
  8
0
 10
-406.23404940
 20
191.19310591
 42
0.27649289
  0
VERTEX
  8
0
 10
-405.49330413
 20
191.42303871
 42
0.49664339
  0
VERTEX
  8
0
 10
-405.95234271
 20
192.55836130
  0
VERTEX
  8
0
 10
-406.13692050
 20
192.62865875
  0
SEQEND
  0
POLYLINE
  8
Default_Layer
 62
256
 66
   1
 39
0.000000
 70
    1
  0
VERTEX
  8
0
 10
-401.74107444
 20
194.07520732
 42
0.09889196
  0
VERTEX
  8
0
 10
-403.19739698
 20
191.37758972
 42
-0.12522721
  0
VERTEX
  8
0
 10
-403.53997487
 20
190.74570212
 42
-0.33112165
  0
VERTEX
  8
0
 10
-403.83326646
 20
190.86620345
 42
-0.33112165
  0
VERTEX
  8
0
 10
-403.80221998
 20
191.18176112
 42
-0.07004077
  0
VERTEX
  8
0
 10
-402.58304616
 20
193.78748587
  0
VERTEX
  8
0
 10
-402.37638293
 20
194.06054635
 42
-0.03644843
  0
VERTEX
  8
0
 10
-404.24168532
 20
194.13446205
 42
-0.39743070
  0
VERTEX
  8
0
 10
-404.36282539
 20
194.42928555
 42
-0.39743070
  0
VERTEX
  8
0
 10
-404.07546993
 20
194.56720817
 42
-0.02130936
  0
VERTEX
  8
0
 10
-401.65921739
 20
194.49121220
 42
-0.39438471
  0
VERTEX
  8
0
 10
-401.74107444
 20
194.07520732
  0
SEQEND
  0
POLYLINE
  8
Default_Layer
 62
256
 66
   1
 39
0.000000
 70
    1
  0
VERTEX
  8
0
 10
-400.00619356
 20
190.75205521
 42
-0.28729620
  0
VERTEX
  8
0
 10
-401.12806284
 20
191.33493039
 42
-0.36428978
  0
VERTEX
  8
0
 10
-400.65371953
 20
192.79725985
 42
-0.59950811
  0
VERTEX
  8
0
 10
-400.48213193
 20
194.49467382
 42
-0.31137283
  0
VERTEX
  8
0
 10
-399.17910896
 20
194.32842395
 42
-0.28706046
  0
VERTEX
  8
0
 10
-399.06789179
 20
193.14667952
 42
-0.07717950
  0
VERTEX
  8
0
 10
-399.43685942
 20
192.87545166
 42
-0.28819916
  0
VERTEX
  8
0
 10
-398.76848739
 20
191.91496755
 42
-0.46105857
  0
VERTEX
  8
0
 10
-399.88356070
 20
190.76824336
  0
VERTEX
  8
0
 10
-400.00619356
 20
190.75205521
  0
SEQEND
  0
POLYLINE
  8
Default_Layer
 62
256
 66
   1
 39
0.000000
 70
    1
  0
VERTEX
  8
0
 10
-399.98420212
 20
194.17539058
 42
0.31277317
  0
VERTEX
  8
0
 10
-400.54095292
 20
193.87085676
 42
0.31277317
  0
VERTEX
  8
0
 10
-400.45097738
 20
193.24267151
 42
0.22076117
  0
VERTEX
  8
0
 10
-399.98381630
 20
193.08816426
 42
0.25598250
  0
VERTEX
  8
0
 10
-399.45525350
 20
193.48401747
 42
0.48538714
  0
VERTEX
  8
0
 10
-399.83869204
 20
194.15889699
  0
VERTEX
  8
0
 10
-399.98420212
 20
194.17539058
  0
SEQEND
  0
POLYLINE
  8
Default_Layer
 62
256
 66
   1
 39
0.000000
 70
    1
  0
VERTEX
  8
0
 10
-400.02818501
 20
192.62865875
 42
0.26492593
  0
VERTEX
  8
0
 10
-400.71009443
 20
191.95460342
 42
0.48308410
  0
VERTEX
  8
0
 10
-400.12531391
 20
191.19310591
 42
0.27649289
  0
VERTEX
  8
0
 10
-399.38456864
 20
191.42303871
 42
0.49664339
  0
VERTEX
  8
0
 10
-399.84360722
 20
192.55836130
  0
VERTEX
  8
0
 10
-400.02818501
 20
192.62865875
  0
SEQEND
  0
POLYLINE
  8
Default_Layer
 62
256
 66
   1
 39
0.000000
 70
    1
  0
VERTEX
  8
0
 10
-439.93292942
 20
215.04646644
 42
0.41421356
  0
VERTEX
  8
0
 10
-436.93292942
 20
212.04646644
  0
VERTEX
  8
0
 10
-392.93292942
 20
212.04646644
 42
0.41421356
  0
VERTEX
  8
0
 10
-389.93292942
 20
215.04646644
  0
VERTEX
  8
0
 10
-389.93292942
 20
229.04646644
 42
0.41421356
  0
VERTEX
  8
0
 10
-392.93292942
 20
232.04646644
  0
VERTEX
  8
0
 10
-436.93292942
 20
232.04646644
 42
0.41421356
  0
VERTEX
  8
0
 10
-439.93292942
 20
229.04646644
  0
VERTEX
  8
0
 10
-439.93292942
 20
215.04646644
  0
SEQEND
  0
CIRCLE
  8
Default_Layer
 62
256
 10
-435.432929
 20
222.046466
 40
1.500000
  0
POLYLINE
  8
Default_Layer
 62
256
 66
   1
 39
0.000000
 70
    1
  0
VERTEX
  8
0
 10
-432.00932535
 20
226.24769084
 42
-0.30534506
  0
VERTEX
  8
0
 10
-432.26015658
 20
226.59104085
 42
-0.01699200
  0
VERTEX
  8
0
 10
-432.60418604
 20
228.35376718
 42
-0.03525282
  0
VERTEX
  8
0
 10
-433.28272909
 20
226.42985489
 42
-0.31791393
  0
VERTEX
  8
0
 10
-433.53457651
 20
226.35539511
 42
-0.31791393
  0
VERTEX
  8
0
 10
-433.68866776
 20
226.56806214
 42
-0.02588826
  0
VERTEX
  8
0
 10
-434.11925193
 20
228.32296534
 42
-0.01801248
  0
VERTEX
  8
0
 10
-434.56594748
 20
226.38423653
 42
-0.39038271
  0
VERTEX
  8
0
 10
-434.83273245
 20
226.32534823
 42
-0.39038271
  0
VERTEX
  8
0
 10
-434.91328608
 20
226.58640984
 42
-0.03297854
  0
VERTEX
  8
0
 10
-434.55649378
 20
228.17100153
 42
-0.10617240
  0
VERTEX
  8
0
 10
-434.24981601
 20
229.25595881
 42
-0.30744553
  0
VERTEX
  8
0
 10
-433.99327566
 20
229.28633647
 42
-0.30744553
  0
VERTEX
  8
0
 10
-433.87043075
 20
229.05908137
 42
0.00990461
  0
VERTEX
  8
0
 10
-433.43006058
 20
227.11976815
 42
0.01843091
  0
VERTEX
  8
0
 10
-432.78899713
 20
229.21814404
 42
-0.33056132
  0
VERTEX
  8
0
 10
-432.56524458
 20
229.33980735
 42
-0.33056132
  0
VERTEX
  8
0
 10
-432.38400096
 20
229.16087185
 42
-0.04506374
  0
VERTEX
  8
0
 10
-432.15249436
 20
227.93372532
 42
-0.01068280
  0
VERTEX
  8
0
 10
-431.81320421
 20
226.40410647
 42
-0.28939039
  0
VERTEX
  8
0
 10
-432.00932535
 20
226.24769084
  0
SEQEND
  0
POLYLINE
  8
Default_Layer
 62
256
 66
   1
 39
0.000000
 70
    1
  0
VERTEX
  8
0
 10
-429.77811650
 20
226.28811826
 42
-0.36180443
  0
VERTEX
  8
0
 10
-429.98410386
 20
226.58394434
 42
-0.02079514
  0
VERTEX
  8
0
 10
-430.09130873
 20
227.86021570
 42
0.50146595
  0
VERTEX
  8
0
 10
-430.42206763
 20
227.96467173
 42
0.16846636
  0
VERTEX
  8
0
 10
-430.95051183
 20
227.35270713
 42
-0.08562589
  0
VERTEX
  8
0
 10
-431.03505649
 20
226.45464075
 42
-0.39248686
  0
VERTEX
  8
0
 10
-431.29729588
 20
226.41366717
 42
-0.39248686
  0
VERTEX
  8
0
 10
-431.35773793
 20
226.67211463
 42
0.01449563
  0
VERTEX
  8
0
 10
-431.33697877
 20
229.37840990
 42
-0.37259984
  0
VERTEX
  8
0
 10
-431.07721117
 20
229.45576460
 42
-0.37259984
  0
VERTEX
  8
0
 10
-430.96334594
 20
229.20980187
 42
-0.01928598
  0
VERTEX
  8
0
 10
-430.96398764
 20
227.97259432
 42
-0.40347271
  0
VERTEX
  8
0
 10
-429.89346300
 20
228.28807262
 42
-0.19127278
  0
VERTEX
  8
0
 10
-429.70394889
 20
227.57733771
  0
VERTEX
  8
0
 10
-429.59258350
 20
226.41842452
 42
-0.26340404
  0
VERTEX
  8
0
 10
-429.77811650
 20
226.28811826
  0
SEQEND
  0
POLYLINE
  8
Default_Layer
 62
256
 66
   1
 39
0.000000
 70
    1
  0
VERTEX
  8
0
 10
-428.39010823
 20
226.29389361
 42
-0.43570129
  0
VERTEX
  8
0
 10
-429.21471395
 20
227.36193893
 42
-0.45135033
  0
VERTEX
  8
0
 10
-428.14107048
 20
228.39060908
 42
-0.31923864
  0
VERTEX
  8
0
 10
-427.54746492
 20
227.71817511
 42
-0.29885769
  0
VERTEX
  8
0
 10
-427.99322161
 20
226.40097816
 42
-0.12442572
  0
VERTEX
  8
0
 10
-428.39010823
 20
226.29389361
  0
SEQEND
  0
POLYLINE
  8
Default_Layer
 62
256
 66
   1
 39
0.000000
 70
    1
  0
VERTEX
  8
0
 10
-428.27460130
 20
228.01302174
 42
0.39066700
  0
VERTEX
  8
0
 10
-428.82717820
 20
227.35985756
 42
0.44401798
  0
VERTEX
  8
0
 10
-428.39010823
 20
226.68276694
 42
0.43125839
  0
VERTEX
  8
0
 10
-427.87844509
 20
227.40033958
 42
0.31420984
  0
VERTEX
  8
0
 10
-428.14430708
 20
227.97983756
  0
VERTEX
  8
0
 10
-428.27460130
 20
228.01302174
  0
SEQEND
  0
POLYLINE
  8
Default_Layer
 62
256
 66
   1
 39
0.000000
 70
    1
  0
VERTEX
  8
0
 10
-425.42735550
 20
226.28811826
 42
-0.36180443
  0
VERTEX
  8
0
 10
-425.63334285
 20
226.58394434
 42
-0.02079514
  0
VERTEX
  8
0
 10
-425.74054772
 20
227.86021570
 42
0.50146595
  0
VERTEX
  8
0
 10
-426.07130663
 20
227.96467173
 42
0.16846636
  0
VERTEX
  8
0
 10
-426.59975083
 20
227.35270713
 42
-0.08562589
  0
VERTEX
  8
0
 10
-426.68429548
 20
226.45464075
 42
-0.39248686
  0
VERTEX
  8
0
 10
-426.94653488
 20
226.41366717
 42
-0.39248686
  0
VERTEX
  8
0
 10
-427.00697693
 20
226.67211463
 42
0.01449563
  0
VERTEX
  8
0
 10
-426.98621776
 20
229.37840990
 42
-0.37259984
  0
VERTEX
  8
0
 10
-426.72645016
 20
229.45576460
 42
-0.37259984
  0
VERTEX
  8
0
 10
-426.61258493
 20
229.20980187
 42
-0.01928598
  0
VERTEX
  8
0
 10
-426.61322664
 20
227.97259432
 42
-0.40347271
  0
VERTEX
  8
0
 10
-425.54270200
 20
228.28807262
 42
-0.19127278
  0
VERTEX
  8
0
 10
-425.35318789
 20
227.57733771
  0
VERTEX
  8
0
 10
-425.24182249
 20
226.41842452
 42
-0.26340404
  0
VERTEX
  8
0
 10
-425.42735550
 20
226.28811826
  0
SEQEND
  0
POLYLINE
  8
Default_Layer
 62
256
 66
   1
 39
0.000000
 70
    1
  0
VERTEX
  8
0
 10
-423.25775034
 20
226.28041780
  0
VERTEX
  8
0
 10
-423.53668944
 20
226.49765189
 42
-0.35524165
  0
VERTEX
  8
0
 10
-424.73623904
 20
226.55763443
 42
-0.33692228
  0
VERTEX
  8
0
 10
-424.61110653
 20
228.08617613
 42
-0.43351075
  0
VERTEX
  8
0
 10
-423.22406082
 20
228.14404991
 42
-0.05365535
  0
VERTEX
  8
0
 10
-423.27700150
 20
227.73773023
 42
0.11295237
  0
VERTEX
  8
0
 10
-423.16007606
 20
226.66361711
 42
-0.30770920
  0
VERTEX
  8
0
 10
-423.13261783
 20
226.33047080
  0
VERTEX
  8
0
 10
-423.25775034
 20
226.28041780
  0
SEQEND
  0
POLYLINE
  8
Default_Layer
 62
256
 66
   1
 39
0.000000
 70
    1
  0
VERTEX
  8
0
 10
-423.65817436
 20
227.61837307
 42
0.07302039
  0
VERTEX
  8
0
 10
-423.63342288
 20
228.01302174
 42
0.42167162
  0
VERTEX
  8
0
 10
-424.43688358
 20
227.66872687
 42
0.33633850
  0
VERTEX
  8
0
 10
-424.36998581
 20
226.73907657
 42
0.42683749
  0
VERTEX
  8
0
 10
-423.59815025
 20
226.87369891
  0
VERTEX
  8
0
 10
-423.65817436
 20
227.61837307
  0
SEQEND
  0
POLYLINE
  8
Default_Layer
 62
256
 66
   1
 39
0.000000
 70
    1
  0
VERTEX
  8
0
 10
-420.29884783
 20
226.24769084
 42
-0.38271173
  0
VERTEX
  8
0
 10
-420.49483701
 20
226.51143166
 42
0.05945829
  0
VERTEX
  8
0
 10
-420.71804173
 20
227.93361073
 42
0.54232738
  0
VERTEX
  8
0
 10
-421.02654149
 20
227.95700088
 42
0.11644511
  0
VERTEX
  8
0
 10
-421.33405336
 20
227.72253195
 42
-0.00994278
  0
VERTEX
  8
0
 10
-421.24071059
 20
226.30508334
 42
-0.39871173
  0
VERTEX
  8
0
 10
-421.48185889
 20
226.18755092
 42
-0.39871173
  0
VERTEX
  8
0
 10
-421.61205161
 20
226.42210630
 42
0.03362585
  0
VERTEX
  8
0
 10
-421.75459610
 20
228.04027416
 42
0.22655560
  0
VERTEX
  8
0
 10
-422.03337689
 20
227.85708739
 42
0.09242734
  0
VERTEX
  8
0
 10
-422.36107433
 20
227.44382926
 42
0.01941411
  0
VERTEX
  8
0
 10
-422.37941640
 20
226.42335763
 42
-0.34180600
  0
VERTEX
  8
0
 10
-422.60892758
 20
226.33581713
 42
-0.34180600
  0
VERTEX
  8
0
 10
-422.75120433
 20
226.53605710
 42
-0.02686005
  0
VERTEX
  8
0
 10
-422.74687282
 20
227.66541808
 42
-0.14401577
  0
VERTEX
  8
0
 10
-422.69284926
 20
228.47607218
 42
-0.36589993
  0
VERTEX
  8
0
 10
-422.43228884
 20
228.47923544
 42
-0.36589993
  0
VERTEX
  8
0
 10
-422.38567302
 20
228.22285933
 42
0.03357181
  0
VERTEX
  8
0
 10
-422.39144837
 20
227.90329016
 42
-0.26809109
  0
VERTEX
  8
0
 10
-421.71353700
 20
228.43528379
 42
-0.29195598
  0
VERTEX
  8
0
 10
-421.34996089
 20
228.14200448
 42
-0.44683969
  0
VERTEX
  8
0
 10
-420.44383310
 20
228.28229727
 42
-0.13650658
  0
VERTEX
  8
0
 10
-420.24008115
 20
227.49688815
 42
-0.03115806
  0
VERTEX
  8
0
 10
-420.11644314
 20
226.36127265
 42
-0.26165051
  0
VERTEX
  8
0
 10
-420.29884783
 20
226.24769084
  0
SEQEND
  0
POLYLINE
  8
Default_Layer
 62
256
 66
   1
 39
0.000000
 70
    1
  0
VERTEX
  8
0
 10
-418.78185683
 20
226.31892011
 42
-0.42193904
  0
VERTEX
  8
0
 10
-419.77597115
 20
227.15446399
 42
-0.33693284
  0
VERTEX
  8
0
 10
-419.09425057
 20
228.37721859
 42
-0.29752590
  0
VERTEX
  8
0
 10
-418.12587373
 20
228.14296704
 42
-0.45984835
  0
VERTEX
  8
0
 10
-418.43437348
 20
227.47206429
 42
-0.01256064
  0
VERTEX
  8
0
 10
-419.42484540
 20
226.98886030
 42
0.37868175
  0
VERTEX
  8
0
 10
-418.27001675
 20
226.80212410
 42
-0.24992911
  0
VERTEX
  8
0
 10
-418.00273509
 20
226.97208430
 42
-0.65657735
  0
VERTEX
  8
0
 10
-418.00356873
 20
226.57465967
 42
-0.14712219
  0
VERTEX
  8
0
 10
-418.78185683
 20
226.31892011
  0
SEQEND
  0
POLYLINE
  8
Default_Layer
 62
256
 66
   1
 39
0.000000
 70
    1
  0
VERTEX
  8
0
 10
-418.83383495
 20
228.07270032
 42
0.32485739
  0
VERTEX
  8
0
 10
-419.40066822
 20
227.53106342
  0
VERTEX
  8
0
 10
-419.45757237
 20
227.34308155
 42
0.04366203
  0
VERTEX
  8
0
 10
-418.36988212
 20
227.91869108
 42
0.13461359
  0
VERTEX
  8
0
 10
-418.83383495
 20
228.07270032
  0
SEQEND
  0
POLYLINE
  8
Default_Layer
 62
256
 66
   1
 39
0.000000
 70
    1
  0
VERTEX
  8
0
 10
-415.74787482
 20
228.10735240
 42
0.01953659
  0
VERTEX
  8
0
 10
-415.72092320
 20
226.45849098
 42
-0.31380669
  0
VERTEX
  8
0
 10
-415.91441445
 20
226.37309114
 42
-0.31380669
  0
VERTEX
  8
0
 10
-416.06166864
 20
226.52490747
 42
-0.61099727
  0
VERTEX
  8
0
 10
-417.58561632
 20
227.22608703
 42
-0.42889892
  0
VERTEX
  8
0
 10
-416.66689870
 20
228.41008775
 42
-0.21164292
  0
VERTEX
  8
0
 10
-416.08477003
 20
228.21323375
 42
-0.04051486
  0
VERTEX
  8
0
 10
-415.99308640
 20
229.36902496
 42
-0.40709750
  0
VERTEX
  8
0
 10
-415.75781347
 20
229.44521143
 42
-0.40709750
  0
VERTEX
  8
0
 10
-415.67591968
 20
229.21186374
  0
VERTEX
  8
0
 10
-415.74787482
 20
228.10735240
  0
SEQEND
  0
POLYLINE
  8
Default_Layer
 62
256
 66
   1
 39
0.000000
 70
    1
  0
VERTEX
  8
0
 10
-416.60262610
 20
228.05729940
 42
0.40764278
  0
VERTEX
  8
0
 10
-417.22700522
 20
227.47607495
 42
0.37552702
  0
VERTEX
  8
0
 10
-416.88863850
 20
226.74388306
 42
0.37552702
  0
VERTEX
  8
0
 10
-416.11783672
 20
226.98149957
 42
0.03977428
  0
VERTEX
  8
0
 10
-416.13642730
 20
227.77569778
 42
0.27606361
  0
VERTEX
  8
0
 10
-416.60262610
 20
228.05729940
  0
SEQEND
  0
POLYLINE
  8
Default_Layer
 62
256
 66
   1
 39
0.000000
 70
    1
  0
VERTEX
  8
0
 10
-411.88801826
 20
226.34972196
 42
-0.25183127
  0
VERTEX
  8
0
 10
-412.15854765
 20
226.71437936
 42
-0.03797461
  0
VERTEX
  8
0
 10
-412.32116925
 20
227.41046059
 42
0.04520589
  0
VERTEX
  8
0
 10
-413.35528495
 20
227.19034007
 42
-0.05830344
  0
VERTEX
  8
0
 10
-413.74912366
 20
226.39014938
 42
-0.34254176
  0
VERTEX
  8
0
 10
-413.99799451
 20
226.46450023
 42
-0.34254176
  0
VERTEX
  8
0
 10
-413.98771766
 20
226.72403660
 42
0.05708729
  0
VERTEX
  8
0
 10
-413.76088062
 20
227.29330357
 42
-0.39717943
  0
VERTEX
  8
0
 10
-413.58569511
 20
227.59293404
 42
-0.05180538
  0
VERTEX
  8
0
 10
-412.53514584
 20
229.21631518
 42
-0.52414118
  0
VERTEX
  8
0
 10
-412.28131936
 20
229.07279782
 42
0.01764520
  0
VERTEX
  8
0
 10
-411.78621363
 20
226.85942460
 42
-0.26796622
  0
VERTEX
  8
0
 10
-411.75133506
 20
226.40555031
  0
VERTEX
  8
0
 10
-411.88801826
 20
226.34972196
  0
SEQEND
  0
POLYLINE
  8
Default_Layer
 62
256
 66
   1
 39
0.000000
 70
    1
  0
VERTEX
  8
0
 10
-412.56758403
 20
228.55012896
  0
VERTEX
  8
0
 10
-413.11816706
 20
227.66265072
  0
VERTEX
  8
0
 10
-412.41164968
 20
227.80703438
  0
VERTEX
  8
0
 10
-412.56758403
 20
228.55012896
  0
SEQEND
  0
POLYLINE
  8
Default_Layer
 62
256
 66
   1
 39
0.000000
 70
    1
  0
VERTEX
  8
0
 10
-410.24396964
 20
226.32662057
 42
-0.07939462
  0
VERTEX
  8
0
 10
-410.77915174
 20
226.44212750
 42
-0.37123714
  0
VERTEX
  8
0
 10
-411.01781329
 20
226.39271560
 42
-0.37123714
  0
VERTEX
  8
0
 10
-411.10208987
 20
226.62140388
 42
-0.01797418
  0
VERTEX
  8
0
 10
-411.09032041
 20
229.20869347
 42
-0.34551076
  0
VERTEX
  8
0
 10
-410.99036132
 20
229.41079882
 42
-0.34551076
  0
VERTEX
  8
0
 10
-410.77028246
 20
229.36177140
 42
-0.03885635
  0
VERTEX
  8
0
 10
-410.77045022
 20
228.57477044
  0
VERTEX
  8
0
 10
-410.77337640
 20
228.20168306
 42
-0.38251076
  0
VERTEX
  8
0
 10
-409.54056853
 20
228.15289341
 42
-0.56302118
  0
VERTEX
  8
0
 10
-410.04183251
 20
226.34575141
  0
VERTEX
  8
0
 10
-410.24396964
 20
226.32662057
  0
SEQEND
  0
POLYLINE
  8
Default_Layer
 62
256
 66
   1
 39
0.000000
 70
    1
  0
VERTEX
  8
0
 10
-410.17081525
 20
228.06499986
 42
0.20057182
  0
VERTEX
  8
0
 10
-410.77167777
 20
227.76626723
 42
0.05580642
  0
VERTEX
  8
0
 10
-410.75412524
 20
226.82958908
 42
0.26951384
  0
VERTEX
  8
0
 10
-409.91136891
 20
226.79812578
 42
0.54739495
  0
VERTEX
  8
0
 10
-409.95224060
 20
228.01702006
  0
VERTEX
  8
0
 10
-410.17081525
 20
228.06499986
  0
SEQEND
  0
POLYLINE
  8
Default_Layer
 62
256
 66
   1
 39
0.000000
 70
    1
  0
VERTEX
  8
0
 10
-407.03095189
 20
228.10735240
 42
0.01953659
  0
VERTEX
  8
0
 10
-407.00400027
 20
226.45849098
 42
-0.31380669
  0
VERTEX
  8
0
 10
-407.19749152
 20
226.37309114
 42
-0.31380669
  0
VERTEX
  8
0
 10
-407.34474571
 20
226.52490747
 42
-0.61099727
  0
VERTEX
  8
0
 10
-408.86869338
 20
227.22608703
 42
-0.42889892
  0
VERTEX
  8
0
 10
-407.94997577
 20
228.41008775
 42
-0.21164292
  0
VERTEX
  8
0
 10
-407.36784710
 20
228.21323375
 42
-0.04051486
  0
VERTEX
  8
0
 10
-407.27616347
 20
229.36902496
 42
-0.40709750
  0
VERTEX
  8
0
 10
-407.04089053
 20
229.44521143
 42
-0.40709750
  0
VERTEX
  8
0
 10
-406.95899675
 20
229.21186374
  0
VERTEX
  8
0
 10
-407.03095189
 20
228.10735240
  0
SEQEND
  0
POLYLINE
  8
Default_Layer
 62
256
 66
   1
 39
0.000000
 70
    1
  0
VERTEX
  8
0
 10
-407.88570316
 20
228.05729940
 42
0.40764278
  0
VERTEX
  8
0
 10
-408.51008229
 20
227.47607495
 42
0.37552702
  0
VERTEX
  8
0
 10
-408.17171557
 20
226.74388306
 42
0.37552702
  0
VERTEX
  8
0
 10
-407.40091379
 20
226.98149957
 42
0.03977428
  0
VERTEX
  8
0
 10
-407.41950436
 20
227.77569778
 42
0.27606361
  0
VERTEX
  8
0
 10
-407.88570316
 20
228.05729940
  0
SEQEND
  0
POLYLINE
  8
Default_Layer
 62
256
 66
   1
 39
0.000000
 70
    1
  0
VERTEX
  8
0
 10
-405.58904039
 20
226.31892011
 42
-0.42193904
  0
VERTEX
  8
0
 10
-406.58315471
 20
227.15446399
 42
-0.33693284
  0
VERTEX
  8
0
 10
-405.90143413
 20
228.37721859
 42
-0.29752590
  0
VERTEX
  8
0
 10
-404.93305728
 20
228.14296704
 42
-0.45984835
  0
VERTEX
  8
0
 10
-405.24155704
 20
227.47206429
 42
-0.01256064
  0
VERTEX
  8
0
 10
-406.23202896
 20
226.98886030
 42
0.37868175
  0
VERTEX
  8
0
 10
-405.07720030
 20
226.80212410
 42
-0.24992911
  0
VERTEX
  8
0
 10
-404.80991865
 20
226.97208430
 42
-0.65657735
  0
VERTEX
  8
0
 10
-404.81075229
 20
226.57465967
 42
-0.14712219
  0
VERTEX
  8
0
 10
-405.58904039
 20
226.31892011
  0
SEQEND
  0
POLYLINE
  8
Default_Layer
 62
256
 66
   1
 39
0.000000
 70
    1
  0
VERTEX
  8
0
 10
-405.64101850
 20
228.07270032
 42
0.32485739
  0
VERTEX
  8
0
 10
-406.20785177
 20
227.53106342
  0
VERTEX
  8
0
 10
-406.26475592
 20
227.34308155
 42
0.04366203
  0
VERTEX
  8
0
 10
-405.17706567
 20
227.91869108
 42
0.13461359
  0
VERTEX
  8
0
 10
-405.64101850
 20
228.07270032
  0
SEQEND
  0
POLYLINE
  8
Default_Layer
 62
256
 66
   1
 39
0.000000
 70
    1
  0
VERTEX
  8
0
 10
-403.83911041
 20
227.92061620
 42
-0.02913380
  0
VERTEX
  8
0
 10
-403.90468465
 20
226.46306313
 42
-0.41421356
  0
VERTEX
  8
0
 10
-404.13051808
 20
226.33404697
 42
-0.41421356
  0
VERTEX
  8
0
 10
-404.25953424
 20
226.55988040
 42
-0.01117770
  0
VERTEX
  8
0
 10
-404.17847217
 20
229.41173846
 42
-0.38757900
  0
VERTEX
  8
0
 10
-403.90171997
 20
229.46686105
 42
-0.38757900
  0
VERTEX
  8
0
 10
-403.82146351
 20
229.19632606
  0
VERTEX
  8
0
 10
-403.83911041
 20
227.92061620
  0
SEQEND
  0
POLYLINE
  8
Default_Layer
 62
256
 66
   1
 39
0.000000
 70
    1
  0
VERTEX
  8
0
 10
-401.63677829
 20
226.28811826
 42
-0.36180443
  0
VERTEX
  8
0
 10
-401.84276564
 20
226.58394434
 42
-0.02079514
  0
VERTEX
  8
0
 10
-401.94997051
 20
227.86021570
 42
0.50146595
  0
VERTEX
  8
0
 10
-402.28072942
 20
227.96467173
 42
0.16846636
  0
VERTEX
  8
0
 10
-402.80917362
 20
227.35270713
 42
-0.08562589
  0
VERTEX
  8
0
 10
-402.89371827
 20
226.45464075
 42
-0.39248686
  0
VERTEX
  8
0
 10
-403.15595767
 20
226.41366717
 42
-0.39248686
  0
VERTEX
  8
0
 10
-403.21639972
 20
226.67211463
 42
0.01449563
  0
VERTEX
  8
0
 10
-403.19564055
 20
229.37840990
 42
-0.37259984
  0
VERTEX
  8
0
 10
-402.93587295
 20
229.45576460
 42
-0.37259984
  0
VERTEX
  8
0
 10
-402.82200772
 20
229.20980187
 42
-0.01928598
  0
VERTEX
  8
0
 10
-402.82264943
 20
227.97259432
 42
-0.40347271
  0
VERTEX
  8
0
 10
-401.75212479
 20
228.28807262
 42
-0.19127278
  0
VERTEX
  8
0
 10
-401.56261068
 20
227.57733771
  0
VERTEX
  8
0
 10
-401.45124528
 20
226.41842452
 42
-0.26340404
  0
VERTEX
  8
0
 10
-401.63677829
 20
226.28811826
  0
SEQEND
  0
POLYLINE
  8
Default_Layer
 62
256
 66
   1
 39
0.000000
 70
    1
  0
VERTEX
  8
0
 10
-399.46717313
 20
226.28041780
  0
VERTEX
  8
0
 10
-399.74611223
 20
226.49765189
 42
-0.35524165
  0
VERTEX
  8
0
 10
-400.94566183
 20
226.55763443
 42
-0.33692228
  0
VERTEX
  8
0
 10
-400.82052932
 20
228.08617613
 42
-0.43351075
  0
VERTEX
  8
0
 10
-399.43348361
 20
228.14404991
 42
-0.05365535
  0
VERTEX
  8
0
 10
-399.48642429
 20
227.73773023
 42
0.11295237
  0
VERTEX
  8
0
 10
-399.36949885
 20
226.66361711
 42
-0.30770920
  0
VERTEX
  8
0
 10
-399.34204062
 20
226.33047080
  0
VERTEX
  8
0
 10
-399.46717313
 20
226.28041780
  0
SEQEND
  0
POLYLINE
  8
Default_Layer
 62
256
 66
   1
 39
0.000000
 70
    1
  0
VERTEX
  8
0
 10
-399.86759715
 20
227.61837307
 42
0.07302039
  0
VERTEX
  8
0
 10
-399.84284567
 20
228.01302174
 42
0.42167162
  0
VERTEX
  8
0
 10
-400.64630637
 20
227.66872687
 42
0.33633850
  0
VERTEX
  8
0
 10
-400.57940860
 20
226.73907657
 42
0.42683749
  0
VERTEX
  8
0
 10
-399.80757304
 20
226.87369891
  0
VERTEX
  8
0
 10
-399.86759715
 20
227.61837307
  0
SEQEND
  0
POLYLINE
  8
Default_Layer
 62
256
 66
   1
 39
0.000000
 70
    1
  0
VERTEX
  8
0
 10
-397.18013593
 20
228.10735240
 42
0.01953659
  0
VERTEX
  8
0
 10
-397.15318431
 20
226.45849098
 42
-0.31380669
  0
VERTEX
  8
0
 10
-397.34667556
 20
226.37309114
 42
-0.31380669
  0
VERTEX
  8
0
 10
-397.49392975
 20
226.52490747
 42
-0.61099727
  0
VERTEX
  8
0
 10
-399.01787743
 20
227.22608703
 42
-0.42889892
  0
VERTEX
  8
0
 10
-398.09915981
 20
228.41008775
 42
-0.21164292
  0
VERTEX
  8
0
 10
-397.51703114
 20
228.21323375
 42
-0.04051486
  0
VERTEX
  8
0
 10
-397.42534752
 20
229.36902496
 42
-0.40709750
  0
VERTEX
  8
0
 10
-397.19007458
 20
229.44521143
 42
-0.40709750
  0
VERTEX
  8
0
 10
-397.10818079
 20
229.21186374
  0
VERTEX
  8
0
 10
-397.18013593
 20
228.10735240
  0
SEQEND
  0
POLYLINE
  8
Default_Layer
 62
256
 66
   1
 39
0.000000
 70
    1
  0
VERTEX
  8
0
 10
-398.03488721
 20
228.05729940
 42
0.40764278
  0
VERTEX
  8
0
 10
-398.65926633
 20
227.47607495
 42
0.37552702
  0
VERTEX
  8
0
 10
-398.32089961
 20
226.74388306
 42
0.37552702
  0
VERTEX
  8
0
 10
-397.55009783
 20
226.98149957
 42
0.03977428
  0
VERTEX
  8
0
 10
-397.56868841
 20
227.77569778
 42
0.27606361
  0
VERTEX
  8
0
 10
-398.03488721
 20
228.05729940
  0
SEQEND
  0
POLYLINE
  8
Default_Layer
 62
256
 66
   1
 39
0.000000
 70
    1
  0
VERTEX
  8
0
 10
-394.95085219
 20
228.12467844
 42
0.00763530
  0
VERTEX
  8
0
 10
-396.17990093
 20
225.34233653
 42
-0.37443272
  0
VERTEX
  8
0
 10
-396.43982776
 20
225.36678834
 42
-0.37443272
  0
VERTEX
  8
0
 10
-396.45128721
 20
225.62761114
 42
-0.03438424
  0
VERTEX
  8
0
 10
-396.07704476
 20
226.59228651
 42
-0.01450079
  0
VERTEX
  8
0
 10
-396.90484442
 20
228.20745841
 42
-0.37721724
  0
VERTEX
  8
0
 10
-396.69606558
 20
228.38882275
 42
-0.37721724
  0
VERTEX
  8
0
 10
-396.48954450
 20
228.20489159
 42
-0.03232068
  0
VERTEX
  8
0
 10
-395.86913228
 20
227.04468865
 42
-0.05400629
  0
VERTEX
  8
0
 10
-395.21651813
 20
228.38264392
 42
-0.31774633
  0
VERTEX
  8
0
 10
-394.99251254
 20
228.34755537
 42
-0.31774633
  0
VERTEX
  8
0
 10
-394.95085219
 20
228.12467844
  0
SEQEND
  0
POLYLINE
  8
Default_Layer
 62
256
 66
   1
 39
0.000000
 70
    1
  0
VERTEX
  8
0
 10
-429.75573541
 20
215.78870762
 42
-0.32574320
  0
VERTEX
  8
0
 10
-430.93653048
 20
216.70589901
 42
-0.17458426
  0
VERTEX
  8
0
 10
-430.89863283
 20
218.81140392
 42
-0.55577136
  0
VERTEX
  8
0
 10
-428.81475519
 20
219.30207635
 42
-0.21216195
  0
VERTEX
  8
0
 10
-428.39674539
 20
217.41777163
 42
-0.22159115
  0
VERTEX
  8
0
 10
-429.06901173
 20
215.98255816
 42
-0.13926170
  0
VERTEX
  8
0
 10
-429.75573541
 20
215.78870762
  0
SEQEND
  0
POLYLINE
  8
Default_Layer
 62
256
 66
   1
 39
0.000000
 70
    1
  0
VERTEX
  8
0
 10
-429.68243058
 20
219.21204299
 42
0.32614072
  0
VERTEX
  8
0
 10
-430.54223510
 20
218.40558809
 42
0.17413280
  0
VERTEX
  8
0
 10
-430.39455642
 20
216.64143619
 42
0.31854031
  0
VERTEX
  8
0
 10
-429.58535288
 20
216.29373376
 42
0.31854031
  0
VERTEX
  8
0
 10
-428.98945563
 20
216.94228123
 42
0.18987087
  0
VERTEX
  8
0
 10
-429.07867753
 20
218.90021113
 42
0.24679329
  0
VERTEX
  8
0
 10
-429.68243058
 20
219.21204299
  0
SEQEND
  0
POLYLINE
  8
Default_Layer
 62
256
 66
   1
 39
0.000000
 70
    1
  0
VERTEX
  8
0
 10
-426.47412270
 20
215.88156040
 42
-0.06629350
  0
VERTEX
  8
0
 10
-427.72103779
 20
215.93336248
 42
-0.34586418
  0
VERTEX
  8
0
 10
-427.75424471
 20
216.23132736
 42
-0.34586418
  0
VERTEX
  8
0
 10
-427.47259552
 20
216.33408680
 42
0.20152461
  0
VERTEX
  8
0
 10
-427.20874178
 20
216.35594734
 42
-0.03312553
  0
VERTEX
  8
0
 10
-427.14254697
 20
218.88660814
  0
VERTEX
  8
0
 10
-427.14119662
 20
218.91149320
 42
-0.18865774
  0
VERTEX
  8
0
 10
-427.62775740
 20
218.67111446
 42
-0.65502796
  0
VERTEX
  8
0
 10
-427.60831126
 20
219.16100111
 42
-0.08662125
  0
VERTEX
  8
0
 10
-426.89548970
 20
219.66924790
 42
-0.30351905
  0
VERTEX
  8
0
 10
-426.67925786
 20
219.60804351
 42
-0.30351905
  0
VERTEX
  8
0
 10
-426.65319592
 20
219.38483294
 42
-0.00731874
  0
VERTEX
  8
0
 10
-426.76943643
 20
216.97345324
 42
0.10687680
  0
VERTEX
  8
0
 10
-426.70736533
 20
216.34626857
 42
-0.44907455
  0
VERTEX
  8
0
 10
-426.23710377
 20
216.11613584
 42
-0.34814175
  0
VERTEX
  8
0
 10
-426.47412270
 20
215.88156040
  0
SEQEND
  0
POLYLINE
  8
Default_Layer
 62
256
 66
   1
 39
0.000000
 70
    1
  0
VERTEX
  8
0
 10
-423.47839882
 20
215.87911691
 42
0.08403875
  0
VERTEX
  8
0
 10
-424.73598383
 20
215.91128958
 42
-0.20375922
  0
VERTEX
  8
0
 10
-425.45762912
 20
215.97807842
 42
-0.36981879
  0
VERTEX
  8
0
 10
-424.88787958
 20
217.55315478
 42
0.07335768
  0
VERTEX
  8
0
 10
-423.93319417
 20
218.33589760
 42
0.40694630
  0
VERTEX
  8
0
 10
-423.92392926
 20
219.00000199
 42
0.39876018
  0
VERTEX
  8
0
 10
-425.02092240
 20
218.84090337
 42
-0.54241678
  0
VERTEX
  8
0
 10
-425.52646693
 20
218.81642601
 42
-0.30394716
  0
VERTEX
  8
0
 10
-425.19739698
 20
219.27435209
 42
-0.50196381
  0
VERTEX
  8
0
 10
-423.34202130
 20
219.06421159
 42
-0.35938946
  0
VERTEX
  8
0
 10
-424.11563638
 20
217.52178803
 42
0.07341862
  0
VERTEX
  8
0
 10
-424.86528540
 20
216.92635779
 42
0.26998747
  0
VERTEX
  8
0
 10
-425.04025704
 20
216.35047857
 42
-0.10208524
  0
VERTEX
  8
0
 10
-423.42739088
 20
216.33498129
 42
-0.35833997
  0
VERTEX
  8
0
 10
-423.26547419
 20
216.08607808
 42
-0.35833997
  0
VERTEX
  8
0
 10
-423.47839882
 20
215.87911691
  0
SEQEND
  0
POLYLINE
  8
Default_Layer
 62
256
 66
   1
 39
0.000000
 70
    1
  0
VERTEX
  8
0
 10
-421.38676779
 20
215.75205521
 42
-0.28729620
  0
VERTEX
  8
0
 10
-422.50863706
 20
216.33493039
 42
-0.36428978
  0
VERTEX
  8
0
 10
-422.03429375
 20
217.79725985
 42
-0.59950811
  0
VERTEX
  8
0
 10
-421.86270615
 20
219.49467382
 42
-0.31137283
  0
VERTEX
  8
0
 10
-420.55968318
 20
219.32842395
 42
-0.28706046
  0
VERTEX
  8
0
 10
-420.44846601
 20
218.14667952
 42
-0.07717950
  0
VERTEX
  8
0
 10
-420.81743364
 20
217.87545166
 42
-0.28819916
  0
VERTEX
  8
0
 10
-420.14906162
 20
216.91496755
 42
-0.46105857
  0
VERTEX
  8
0
 10
-421.26413492
 20
215.76824336
  0
VERTEX
  8
0
 10
-421.38676779
 20
215.75205521
  0
SEQEND
  0
POLYLINE
  8
Default_Layer
 62
256
 66
   1
 39
0.000000
 70
    1
  0
VERTEX
  8
0
 10
-421.36477634
 20
219.17539058
 42
0.31277317
  0
VERTEX
  8
0
 10
-421.92152714
 20
218.87085676
 42
0.31277317
  0
VERTEX
  8
0
 10
-421.83155160
 20
218.24267151
 42
0.22076117
  0
VERTEX
  8
0
 10
-421.36439052
 20
218.08816426
 42
0.25598250
  0
VERTEX
  8
0
 10
-420.83582772
 20
218.48401747
 42
0.48538714
  0
VERTEX
  8
0
 10
-421.21926626
 20
219.15889699
  0
VERTEX
  8
0
 10
-421.36477634
 20
219.17539058
  0
SEQEND
  0
POLYLINE
  8
Default_Layer
 62
256
 66
   1
 39
0.000000
 70
    1
  0
VERTEX
  8
0
 10
-421.40875923
 20
217.62865875
 42
0.26492593
  0
VERTEX
  8
0
 10
-422.09066865
 20
216.95460342
 42
0.48308410
  0
VERTEX
  8
0
 10
-421.50588813
 20
216.19310591
 42
0.27649289
  0
VERTEX
  8
0
 10
-420.76514286
 20
216.42303871
 42
0.49664339
  0
VERTEX
  8
0
 10
-421.22418144
 20
217.55836130
  0
VERTEX
  8
0
 10
-421.40875923
 20
217.62865875
  0
SEQEND
  0
POLYLINE
  8
Default_Layer
 62
256
 66
   1
 39
0.000000
 70
    1
  0
VERTEX
  8
0
 10
-418.35439149
 20
215.77160316
 42
-0.27635136
  0
VERTEX
  8
0
 10
-419.41312262
 20
216.34460255
 42
-0.40690662
  0
VERTEX
  8
0
 10
-419.39956308
 20
216.66785012
 42
-0.40690662
  0
VERTEX
  8
0
 10
-419.07607750
 20
216.66237897
 42
0.65110138
  0
VERTEX
  8
0
 10
-417.70698770
 20
216.69622137
 42
0.46061288
  0
VERTEX
  8
0
 10
-418.48650307
 20
217.63696663
 42
-0.35215056
  0
VERTEX
  8
0
 10
-418.85286430
 20
217.87789516
 42
-0.29328369
  0
VERTEX
  8
0
 10
-418.43004207
 20
218.14970945
 42
0.24057090
  0
VERTEX
  8
0
 10
-417.73740920
 20
218.52175588
 42
0.50638546
  0
VERTEX
  8
0
 10
-418.28577003
 20
219.13222218
 42
0.15561689
  0
VERTEX
  8
0
 10
-419.06626280
 20
218.85529284
 42
-0.40703683
  0
VERTEX
  8
0
 10
-419.34085549
 20
219.07013889
 42
-0.40703683
  0
VERTEX
  8
0
 10
-419.13281892
 20
219.34992588
 42
-0.44027271
  0
VERTEX
  8
0
 10
-417.35683498
 20
219.07826168
 42
-0.44408204
  0
VERTEX
  8
0
 10
-417.81486797
 20
217.88473694
 42
0.41421356
  0
VERTEX
  8
0
 10
-417.81231170
 20
217.84080104
 42
0.41421356
  0
VERTEX
  8
0
 10
-417.76837579
 20
217.84335731
 42
-0.45670539
  0
VERTEX
  8
0
 10
-417.35386546
 20
216.32744718
 42
-0.25837172
  0
VERTEX
  8
0
 10
-418.35439149
 20
215.77160316
  0
SEQEND
  0
POLYLINE
  8
Default_Layer
 62
256
 66
   1
 39
0.000000
 70
    1
  0
VERTEX
  8
0
 10
-414.86263828
 20
216.17966669
 42
-0.11543772
  0
VERTEX
  8
0
 10
-416.08866149
 20
215.66103505
 42
-0.37201879
  0
VERTEX
  8
0
 10
-416.24500077
 20
215.96165848
 42
-0.37201879
  0
VERTEX
  8
0
 10
-415.97035565
 20
216.16011874
 42
0.23345959
  0
VERTEX
  8
0
 10
-414.62537499
 20
217.32371067
  0
VERTEX
  8
0
 10
-414.59385392
 20
217.38675283
 42
-0.40136192
  0
VERTEX
  8
0
 10
-416.36355459
 20
217.75016150
 42
-0.41339980
  0
VERTEX
  8
0
 10
-415.86090710
 20
219.48254572
 42
-0.41339980
  0
VERTEX
  8
0
 10
-414.12713264
 20
218.98471473
 42
-0.20359302
  0
VERTEX
  8
0
 10
-414.13027420
 20
217.31755307
 42
-0.15803935
  0
VERTEX
  8
0
 10
-414.86263828
 20
216.17966669
  0
SEQEND
  0
POLYLINE
  8
Default_Layer
 62
256
 66
   1
 39
0.000000
 70
    1
  0
VERTEX
  8
0
 10
-415.20961446
 20
219.21937347
 42
0.27100022
  0
VERTEX
  8
0
 10
-415.91103826
 20
218.86337516
 42
0.42022111
  0
VERTEX
  8
0
 10
-415.67922350
 20
217.75526229
 42
0.35767011
  0
VERTEX
  8
0
 10
-414.46207977
 20
218.01926875
 42
0.41687006
  0
VERTEX
  8
0
 10
-415.20961446
 20
219.21937347
  0
SEQEND
  0
POLYLINE
  8
Default_Layer
 62
256
 66
   1
 39
0.000000
 70
    1
  0
VERTEX
  8
0
 10
-411.36844158
 20
216.95181086
 42
-0.06701780
  0
VERTEX
  8
0
 10
-411.41708239
 20
215.89858850
 42
-0.33669891
  0
VERTEX
  8
0
 10
-411.74730572
 20
215.88518894
 42
-0.33669891
  0
VERTEX
  8
0
 10
-411.84883254
 20
216.19970334
 42
0.10377494
  0
VERTEX
  8
0
 10
-411.86696993
 20
216.96463920
 42
-0.04575496
  0
VERTEX
  8
0
 10
-413.48855459
 20
217.05145961
 42
-0.55163162
  0
VERTEX
  8
0
 10
-413.48488935
 20
217.44570212
  0
VERTEX
  8
0
 10
-412.00930347
 20
219.51509180
 42
-0.49588410
  0
VERTEX
  8
0
 10
-411.38569876
 20
219.56115722
 42
0.01830029
  0
VERTEX
  8
0
 10
-411.34840493
 20
217.42633743
 42
-0.34302313
  0
VERTEX
  8
0
 10
-410.82989546
 20
217.22871984
 42
-0.52888945
  0
VERTEX
  8
0
 10
-411.22280932
 20
216.95669785
  0
VERTEX
  8
0
 10
-411.36844158
 20
216.95181086
  0
SEQEND
  0
POLYLINE
  8
Default_Layer
 62
256
 66
   1
 39
0.000000
 70
    1
  0
VERTEX
  8
0
 10
-411.84247945
 20
219.01900695
  0
VERTEX
  8
0
 10
-412.86141653
 20
217.46005765
  0
VERTEX
  8
0
 10
-411.84247945
 20
217.43562271
  0
VERTEX
  8
0
 10
-411.84247945
 20
219.01900695
  0
SEQEND
  0
POLYLINE
  8
Default_Layer
 62
256
 66
   1
 39
0.000000
 70
    1
  0
VERTEX
  8
0
 10
-409.29635850
 20
215.73006376
 42
-0.32070864
  0
VERTEX
  8
0
 10
-410.36172197
 20
216.38003322
 42
-0.32953838
  0
VERTEX
  8
0
 10
-410.11841358
 20
216.59362638
 42
-0.32953838
  0
VERTEX
  8
0
 10
-409.84288670
 20
216.42360886
 42
0.52955715
  0
VERTEX
  8
0
 10
-408.45774366
 20
216.75484232
 42
0.33898592
  0
VERTEX
  8
0
 10
-408.62070690
 20
218.03735861
 42
0.37324890
  0
VERTEX
  8
0
 10
-409.82308422
 20
217.62209186
 42
-0.65555474
  0
VERTEX
  8
0
 10
-410.30185636
 20
217.63140768
 42
-0.04065681
  0
VERTEX
  8
0
 10
-410.20533834
 20
219.14118166
 42
-0.16422669
  0
VERTEX
  8
0
 10
-410.25878978
 20
219.53427879
 42
-0.27806635
  0
VERTEX
  8
0
 10
-409.86284190
 20
219.61644128
  0
VERTEX
  8
0
 10
-408.17907078
 20
219.63904360
 42
-0.39329697
  0
VERTEX
  8
0
 10
-408.00514509
 20
219.37117416
 42
-0.39329697
  0
VERTEX
  8
0
 10
-408.25982063
 20
219.17844494
 42
-0.01985686
  0
VERTEX
  8
0
 10
-409.71419601
 20
219.13873816
  0
VERTEX
  8
0
 10
-409.80460529
 20
218.32505460
 42
-0.29149970
  0
VERTEX
  8
0
 10
-408.36294372
 20
218.43379009
 42
-0.27082148
  0
VERTEX
  8
0
 10
-407.87081459
 20
217.01954734
 42
-0.38995179
  0
VERTEX
  8
0
 10
-409.29635850
 20
215.73006376
  0
SEQEND
  0
POLYLINE
  8
Default_Layer
 62
256
 66
   1
 39
0.000000
 70
    1
  0
VERTEX
  8
0
 10
-406.11492906
 20
215.75205521
 42
-0.28729620
  0
VERTEX
  8
0
 10
-407.23679833
 20
216.33493039
 42
-0.36428978
  0
VERTEX
  8
0
 10
-406.76245502
 20
217.79725985
 42
-0.59950811
  0
VERTEX
  8
0
 10
-406.59086743
 20
219.49467382
 42
-0.31137283
  0
VERTEX
  8
0
 10
-405.28784445
 20
219.32842395
 42
-0.28706046
  0
VERTEX
  8
0
 10
-405.17662728
 20
218.14667952
 42
-0.07717950
  0
VERTEX
  8
0
 10
-405.54559491
 20
217.87545166
 42
-0.28819916
  0
VERTEX
  8
0
 10
-404.87722289
 20
216.91496755
 42
-0.46105857
  0
VERTEX
  8
0
 10
-405.99229619
 20
215.76824336
  0
VERTEX
  8
0
 10
-406.11492906
 20
215.75205521
  0
SEQEND
  0
POLYLINE
  8
Default_Layer
 62
256
 66
   1
 39
0.000000
 70
    1
  0
VERTEX
  8
0
 10
-406.09293761
 20
219.17539058
 42
0.31277317
  0
VERTEX
  8
0
 10
-406.64968841
 20
218.87085676
 42
0.31277317
  0
VERTEX
  8
0
 10
-406.55971287
 20
218.24267151
 42
0.22076117
  0
VERTEX
  8
0
 10
-406.09255179
 20
218.08816426
 42
0.25598250
  0
VERTEX
  8
0
 10
-405.56398899
 20
218.48401747
 42
0.48538714
  0
VERTEX
  8
0
 10
-405.94742753
 20
219.15889699
  0
VERTEX
  8
0
 10
-406.09293761
 20
219.17539058
  0
SEQEND
  0
POLYLINE
  8
Default_Layer
 62
256
 66
   1
 39
0.000000
 70
    1
  0
VERTEX
  8
0
 10
-406.13692050
 20
217.62865875
 42
0.26492593
  0
VERTEX
  8
0
 10
-406.81882992
 20
216.95460342
 42
0.48308410
  0
VERTEX
  8
0
 10
-406.23404940
 20
216.19310591
 42
0.27649289
  0
VERTEX
  8
0
 10
-405.49330413
 20
216.42303871
 42
0.49664339
  0
VERTEX
  8
0
 10
-405.95234271
 20
217.55836130
  0
VERTEX
  8
0
 10
-406.13692050
 20
217.62865875
  0
SEQEND
  0
POLYLINE
  8
Default_Layer
 62
256
 66
   1
 39
0.000000
 70
    1
  0
VERTEX
  8
0
 10
-401.74107444
 20
219.07520732
 42
0.09889196
  0
VERTEX
  8
0
 10
-403.19739698
 20
216.37758972
 42
-0.12522721
  0
VERTEX
  8
0
 10
-403.53997487
 20
215.74570212
 42
-0.33112165
  0
VERTEX
  8
0
 10
-403.83326646
 20
215.86620345
 42
-0.33112165
  0
VERTEX
  8
0
 10
-403.80221998
 20
216.18176112
 42
-0.07004077
  0
VERTEX
  8
0
 10
-402.58304616
 20
218.78748587
  0
VERTEX
  8
0
 10
-402.37638293
 20
219.06054635
 42
-0.03644843
  0
VERTEX
  8
0
 10
-404.24168532
 20
219.13446205
 42
-0.39743070
  0
VERTEX
  8
0
 10
-404.36282539
 20
219.42928555
 42
-0.39743070
  0
VERTEX
  8
0
 10
-404.07546993
 20
219.56720817
 42
-0.02130936
  0
VERTEX
  8
0
 10
-401.65921739
 20
219.49121220
 42
-0.39438471
  0
VERTEX
  8
0
 10
-401.74107444
 20
219.07520732
  0
SEQEND
  0
POLYLINE
  8
Default_Layer
 62
256
 66
   1
 39
0.000000
 70
    1
  0
VERTEX
  8
0
 10
-400.00619356
 20
215.75205521
 42
-0.28729620
  0
VERTEX
  8
0
 10
-401.12806284
 20
216.33493039
 42
-0.36428978
  0
VERTEX
  8
0
 10
-400.65371953
 20
217.79725985
 42
-0.59950811
  0
VERTEX
  8
0
 10
-400.48213193
 20
219.49467382
 42
-0.31137283
  0
VERTEX
  8
0
 10
-399.17910896
 20
219.32842395
 42
-0.28706046
  0
VERTEX
  8
0
 10
-399.06789179
 20
218.14667952
 42
-0.07717950
  0
VERTEX
  8
0
 10
-399.43685942
 20
217.87545166
 42
-0.28819916
  0
VERTEX
  8
0
 10
-398.76848739
 20
216.91496755
 42
-0.46105857
  0
VERTEX
  8
0
 10
-399.88356070
 20
215.76824336
  0
VERTEX
  8
0
 10
-400.00619356
 20
215.75205521
  0
SEQEND
  0
POLYLINE
  8
Default_Layer
 62
256
 66
   1
 39
0.000000
 70
    1
  0
VERTEX
  8
0
 10
-399.98420212
 20
219.17539058
 42
0.31277317
  0
VERTEX
  8
0
 10
-400.54095292
 20
218.87085676
 42
0.31277317
  0
VERTEX
  8
0
 10
-400.45097738
 20
218.24267151
 42
0.22076117
  0
VERTEX
  8
0
 10
-399.98381630
 20
218.08816426
 42
0.25598250
  0
VERTEX
  8
0
 10
-399.45525350
 20
218.48401747
 42
0.48538714
  0
VERTEX
  8
0
 10
-399.83869204
 20
219.15889699
  0
VERTEX
  8
0
 10
-399.98420212
 20
219.17539058
  0
SEQEND
  0
POLYLINE
  8
Default_Layer
 62
256
 66
   1
 39
0.000000
 70
    1
  0
VERTEX
  8
0
 10
-400.02818501
 20
217.62865875
 42
0.26492593
  0
VERTEX
  8
0
 10
-400.71009443
 20
216.95460342
 42
0.48308410
  0
VERTEX
  8
0
 10
-400.12531391
 20
216.19310591
 42
0.27649289
  0
VERTEX
  8
0
 10
-399.38456864
 20
216.42303871
 42
0.49664339
  0
VERTEX
  8
0
 10
-399.84360722
 20
217.55836130
  0
VERTEX
  8
0
 10
-400.02818501
 20
217.62865875
  0
SEQEND
  0
ENDSEC
  0
EOF
