  0
SECTION
  2
HEADER
  9
$ACADVER
  1
AC1009
  9
$EXTMIN
 10
-340.71782178
 20
-43.24504950
 30
0.0
  9
$EXTMAX
 10
-240.71782178
 20
206.75495050
 30
0.0
  0
ENDSEC
  0
SECTION
  2
TABLES
  0
TABLE
  2
LAYER
 70
1
 0
LAYER
 2
Default_Layer
 70
0
 62
18
 6
CONTINUOUS
 0
ENDTAB
 0
ENDSEC
  0
SECTION
  2
ENTITIES
  0
POLYLINE
  8
Default_Layer
 62
256
 66
   1
 39
0.000000
 70
    1
  0
VERTEX
  8
0
 10
-340.71782178
 20
204.75495050
  0
VERTEX
  8
0
 10
-340.71782178
 20
174.00495050
  0
VERTEX
  8
0
 10
-338.71782178
 20
174.00495050
  0
VERTEX
  8
0
 10
-338.71782178
 20
153.50495050
  0
VERTEX
  8
0
 10
-340.71782178
 20
153.50495050
  0
VERTEX
  8
0
 10
-340.71782178
 20
133.00495050
  0
VERTEX
  8
0
 10
-338.71782178
 20
133.00495050
  0
VERTEX
  8
0
 10
-338.71782178
 20
112.50495050
  0
VERTEX
  8
0
 10
-340.71782178
 20
112.50495050
  0
VERTEX
  8
0
 10
-340.71782178
 20
92.00495050
  0
VERTEX
  8
0
 10
-338.71782178
 20
92.00495050
  0
VERTEX
  8
0
 10
-338.71782178
 20
71.50495050
  0
VERTEX
  8
0
 10
-340.71782178
 20
71.50495050
  0
VERTEX
  8
0
 10
-340.71782178
 20
51.00495050
  0
VERTEX
  8
0
 10
-338.71782178
 20
51.00495050
  0
VERTEX
  8
0
 10
-338.71782178
 20
30.50495050
  0
VERTEX
  8
0
 10
-340.71782178
 20
30.50495050
  0
VERTEX
  8
0
 10
-340.71782178
 20
10.00495050
  0
VERTEX
  8
0
 10
-338.71782178
 20
10.00495050
  0
VERTEX
  8
0
 10
-338.71782178
 20
-10.49504950
  0
VERTEX
  8
0
 10
-340.71782178
 20
-10.49504950
  0
VERTEX
  8
0
 10
-340.71782178
 20
-30.99504950
  0
VERTEX
  8
0
 10
-340.71782178
 20
-41.24504950
  0
VERTEX
  8
0
 10
-321.46782178
 20
-41.24504950
  0
VERTEX
  8
0
 10
-321.46782178
 20
-43.24504950
  0
VERTEX
  8
0
 10
-300.96782178
 20
-43.24504950
  0
VERTEX
  8
0
 10
-300.96782178
 20
-41.24504950
  0
VERTEX
  8
0
 10
-280.46782178
 20
-41.24504950
  0
VERTEX
  8
0
 10
-280.46782178
 20
-43.24504950
  0
VERTEX
  8
0
 10
-259.96782178
 20
-43.24504950
  0
VERTEX
  8
0
 10
-259.96782178
 20
-41.24504950
  0
VERTEX
  8
0
 10
-240.71782178
 20
-41.24504950
  0
VERTEX
  8
0
 10
-240.71782178
 20
-10.49504950
  0
VERTEX
  8
0
 10
-242.71782178
 20
-10.49504950
  0
VERTEX
  8
0
 10
-242.71782178
 20
10.00495050
  0
VERTEX
  8
0
 10
-240.71782178
 20
10.00495050
  0
VERTEX
  8
0
 10
-240.71782178
 20
30.50495050
  0
VERTEX
  8
0
 10
-242.71782178
 20
30.50495050
  0
VERTEX
  8
0
 10
-242.71782178
 20
51.00495050
  0
VERTEX
  8
0
 10
-240.71782178
 20
51.00495050
  0
VERTEX
  8
0
 10
-240.71782178
 20
71.50495050
  0
VERTEX
  8
0
 10
-242.71782178
 20
71.50495050
  0
VERTEX
  8
0
 10
-242.71782178
 20
92.00495050
  0
VERTEX
  8
0
 10
-240.71782178
 20
92.00495050
  0
VERTEX
  8
0
 10
-240.71782178
 20
112.50495050
  0
VERTEX
  8
0
 10
-242.71782178
 20
112.50495050
  0
VERTEX
  8
0
 10
-242.71782178
 20
133.00495050
  0
VERTEX
  8
0
 10
-240.71782178
 20
133.00495050
  0
VERTEX
  8
0
 10
-240.71782178
 20
153.50495050
  0
VERTEX
  8
0
 10
-242.71782178
 20
153.50495050
  0
VERTEX
  8
0
 10
-242.71782178
 20
174.00495050
  0
VERTEX
  8
0
 10
-240.71782178
 20
174.00495050
  0
VERTEX
  8
0
 10
-240.71782178
 20
194.50495050
  0
VERTEX
  8
0
 10
-240.71782178
 20
204.75495050
  0
VERTEX
  8
0
 10
-259.96782178
 20
204.75495050
  0
VERTEX
  8
0
 10
-259.96782178
 20
206.75495050
  0
VERTEX
  8
0
 10
-280.46782178
 20
206.75495050
  0
VERTEX
  8
0
 10
-280.46782178
 20
204.75495050
  0
VERTEX
  8
0
 10
-300.96782178
 20
204.75495050
  0
VERTEX
  8
0
 10
-300.96782178
 20
206.75495050
  0
VERTEX
  8
0
 10
-321.46782178
 20
206.75495050
  0
VERTEX
  8
0
 10
-321.46782178
 20
204.75495050
  0
VERTEX
  8
0
 10
-340.71782178
 20
204.75495050
  0
SEQEND
  0
ENDSEC
  0
EOF
