  0
SECTION
  2
HEADER
  9
$ACADVER
  1
AC1009
  9
$EXTMIN
 10
-237.71782178
 20
-43.24504950
 30
0.0
  9
$EXTMAX
 10
-137.71782178
 20
206.75495050
 30
0.0
  0
ENDSEC
  0
SECTION
  2
TABLES
  0
TABLE
  2
LAYER
 70
1
 0
LAYER
 2
Default_Layer
 70
0
 62
18
 6
CONTINUOUS
 0
ENDTAB
 0
ENDSEC
  0
SECTION
  2
ENTITIES
  0
POLYLINE
  8
Default_Layer
 62
256
 66
   1
 39
0.000000
 70
    1
  0
VERTEX
  8
0
 10
-222.04735949
 20
-29.22816870
 42
-0.11678427
  0
VERTEX
  8
0
 10
-221.76147067
 20
-31.48962258
 42
-0.30077082
  0
VERTEX
  8
0
 10
-222.52656848
 20
-31.77551140
 42
-0.02188485
  0
VERTEX
  8
0
 10
-227.37164608
 20
-31.55782224
 42
-0.28041189
  0
VERTEX
  8
0
 10
-227.57837521
 20
-31.12884621
 42
-0.29169244
  0
VERTEX
  8
0
 10
-226.87187079
 20
-28.73924078
 42
-0.41177852
  0
VERTEX
  8
0
 10
-224.51765576
 20
-29.10823386
 42
0.41421356
  0
VERTEX
  8
0
 10
-224.50248227
 20
-29.13721680
 42
0.41421356
  0
VERTEX
  8
0
 10
-224.47349932
 20
-29.12204330
 42
-0.20949390
  0
VERTEX
  8
0
 10
-223.57288528
 20
-28.09704905
 42
-0.30173992
  0
VERTEX
  8
0
 10
-222.50093310
 20
-28.51060226
 42
-0.06986308
  0
VERTEX
  8
0
 10
-222.04735949
 20
-29.22816870
  0
SEQEND
  0
POLYLINE
  8
Default_Layer
 62
256
 66
   1
 39
0.000000
 70
    1
  0
VERTEX
  8
0
 10
-226.91113469
 20
-30.33507157
 42
0.11579588
  0
VERTEX
  8
0
 10
-226.86080811
 20
-30.89613543
 42
-0.01237031
  0
VERTEX
  8
0
 10
-224.82561239
 20
-30.97648879
 42
0.28164544
  0
VERTEX
  8
0
 10
-225.34424403
 20
-29.32529759
 42
0.48137144
  0
VERTEX
  8
0
 10
-226.70800316
 20
-29.68806002
 42
0.13934206
  0
VERTEX
  8
0
 10
-226.91113469
 20
-30.33507157
  0
SEQEND
  0
POLYLINE
  8
Default_Layer
 62
256
 66
   1
 39
0.000000
 70
    1
  0
VERTEX
  8
0
 10
-223.97527641
 20
-29.92456454
 42
0.02531040
  0
VERTEX
  8
0
 10
-224.05957696
 20
-31.02780217
 42
0.00927232
  0
VERTEX
  8
0
 10
-222.47619272
 20
-31.04979362
 42
0.11482681
  0
VERTEX
  8
0
 10
-222.90178362
 20
-29.19673220
 42
0.20108818
  0
VERTEX
  8
0
 10
-223.36341019
 20
-28.77734402
 42
0.19256587
  0
VERTEX
  8
0
 10
-223.86886224
 20
-29.62755782
  0
VERTEX
  8
0
 10
-223.97527641
 20
-29.92456454
  0
SEQEND
  0
POLYLINE
  8
Default_Layer
 62
256
 66
   1
 39
0.000000
 70
    1
  0
VERTEX
  8
0
 10
-225.17014507
 20
-24.02352606
 42
0.02251805
  0
VERTEX
  8
0
 10
-220.22597103
 20
-26.18956543
 42
-0.26543604
  0
VERTEX
  8
0
 10
-219.80789706
 20
-26.49308419
 42
-0.66768055
  0
VERTEX
  8
0
 10
-220.37596781
 20
-26.91440183
 42
-0.02557430
  0
VERTEX
  8
0
 10
-222.25261300
 20
-26.16769221
 42
-0.01279740
  0
VERTEX
  8
0
 10
-225.28529474
 20
-27.73549918
 42
-0.39019992
  0
VERTEX
  8
0
 10
-225.68276330
 20
-27.40861532
 42
-0.39019992
  0
VERTEX
  8
0
 10
-225.38982051
 20
-26.98550914
 42
-0.03537071
  0
VERTEX
  8
0
 10
-223.11394471
 20
-25.77184615
 42
-0.04251155
  0
VERTEX
  8
0
 10
-225.59286957
 20
-24.58960221
 42
-0.37662007
  0
VERTEX
  8
0
 10
-225.62994153
 20
-24.12104276
 42
-0.37662007
  0
VERTEX
  8
0
 10
-225.17014507
 20
-24.02352606
  0
SEQEND
  0
POLYLINE
  8
Default_Layer
 62
256
 66
   1
 39
0.000000
 70
    1
  0
VERTEX
  8
0
 10
-222.72909437
 20
-22.31918885
 42
-0.41006532
  0
VERTEX
  8
0
 10
-222.35869835
 20
-22.69487609
 42
-0.41006532
  0
VERTEX
  8
0
 10
-222.72909437
 20
-23.07056332
 42
-0.21412562
  0
VERTEX
  8
0
 10
-223.36959529
 20
-23.01879179
 42
-0.30812316
  0
VERTEX
  8
0
 10
-223.42297865
 20
-22.55926014
 42
-0.30812316
  0
VERTEX
  8
0
 10
-223.01498319
 20
-22.34118030
  0
VERTEX
  8
0
 10
-222.72909437
 20
-22.31918885
  0
SEQEND
  0
POLYLINE
  8
Default_Layer
 62
256
 66
   1
 39
0.000000
 70
    1
  0
VERTEX
  8
0
 10
-225.40472052
 20
-22.38149796
 42
-0.41006532
  0
VERTEX
  8
0
 10
-225.03432449
 20
-22.75718519
 42
-0.41006532
  0
VERTEX
  8
0
 10
-225.40472052
 20
-23.13287242
 42
-0.48462559
  0
VERTEX
  8
0
 10
-226.03147678
 20
-22.82708658
 42
-0.46395877
  0
VERTEX
  8
0
 10
-225.49719150
 20
-22.38989747
  0
VERTEX
  8
0
 10
-225.40472052
 20
-22.38149796
  0
SEQEND
  0
POLYLINE
  8
Default_Layer
 62
256
 66
   1
 39
0.000000
 70
    1
  0
VERTEX
  8
0
 10
-221.59653481
 20
-13.39432630
 42
-0.30693901
  0
VERTEX
  8
0
 10
-222.10673640
 20
-13.84368488
 42
-0.02008851
  0
VERTEX
  8
0
 10
-225.60630879
 20
-14.52688586
 42
-0.02026406
  0
VERTEX
  8
0
 10
-222.00429290
 20
-15.76611922
 42
-0.57841078
  0
VERTEX
  8
0
 10
-221.94253359
 20
-16.47661097
 42
-0.04645490
  0
VERTEX
  8
0
 10
-225.32933458
 20
-17.36502508
  0
VERTEX
  8
0
 10
-225.54766493
 20
-17.41143076
 42
0.00791005
  0
VERTEX
  8
0
 10
-221.94839797
 20
-18.19945764
 42
-0.40433900
  0
VERTEX
  8
0
 10
-221.70039780
 20
-18.66712713
 42
-0.40433900
  0
VERTEX
  8
0
 10
-222.15941115
 20
-18.93080418
 42
-0.05048739
  0
VERTEX
  8
0
 10
-224.56538026
 20
-18.41381514
  0
VERTEX
  8
0
 10
-226.88787059
 20
-17.89559895
 42
-0.23274471
  0
VERTEX
  8
0
 10
-227.43872581
 20
-17.47791417
 42
-0.46329587
  0
VERTEX
  8
0
 10
-227.00817631
 20
-16.95537002
  0
VERTEX
  8
0
 10
-224.01720163
 20
-16.29938369
  0
VERTEX
  8
0
 10
-223.25688912
 20
-16.09927438
 42
0.02347867
  0
VERTEX
  8
0
 10
-227.11455558
 20
-14.93647658
 42
-0.48190256
  0
VERTEX
  8
0
 10
-227.46890587
 20
-14.31986518
 42
-0.18340219
  0
VERTEX
  8
0
 10
-226.43424607
 20
-13.92700804
 42
0.02872601
  0
VERTEX
  8
0
 10
-222.25430465
 20
-13.07009342
 42
-0.53751987
  0
VERTEX
  8
0
 10
-221.59653481
 20
-13.39432630
  0
SEQEND
  0
POLYLINE
  8
Default_Layer
 62
256
 66
   1
 39
0.000000
 70
    1
  0
VERTEX
  8
0
 10
-221.67717012
 20
-9.78406363
 42
-0.32407399
  0
VERTEX
  8
0
 10
-223.26431605
 20
-12.17553712
 42
-0.32887597
  0
VERTEX
  8
0
 10
-227.17635880
 20
-10.58182153
 42
-0.28065758
  0
VERTEX
  8
0
 10
-226.91113469
 20
-7.66188892
 42
-0.18946943
  0
VERTEX
  8
0
 10
-225.22854990
 20
-7.05644683
 42
-0.26103365
  0
VERTEX
  8
0
 10
-221.96855680
 20
-8.64600620
 42
-0.12014223
  0
VERTEX
  8
0
 10
-221.67717012
 20
-9.78406363
  0
SEQEND
  0
POLYLINE
  8
Default_Layer
 62
256
 66
   1
 39
0.000000
 70
    1
  0
VERTEX
  8
0
 10
-226.70221593
 20
-9.45419191
 42
0.26438825
  0
VERTEX
  8
0
 10
-225.57632253
 20
-11.11373299
 42
0.23214709
  0
VERTEX
  8
0
 10
-223.33498695
 20
-11.40707829
 42
0.61792865
  0
VERTEX
  8
0
 10
-223.52249854
 20
-8.20720207
 42
0.23665759
  0
VERTEX
  8
0
 10
-226.15105527
 20
-8.01810455
 42
0.24309200
  0
VERTEX
  8
0
 10
-226.69219042
 20
-9.25982632
  0
VERTEX
  8
0
 10
-226.70221593
 20
-9.45419191
  0
SEQEND
  0
POLYLINE
  8
Default_Layer
 62
256
 66
   1
 39
0.000000
 70
    1
  0
VERTEX
  8
0
 10
-221.79079260
 20
0.09376166
 42
-0.25144432
  0
VERTEX
  8
0
 10
-222.32187528
 20
-0.37786865
 42
-0.03474683
  0
VERTEX
  8
0
 10
-223.81034055
 20
-0.73091763
 42
0.03426894
  0
VERTEX
  8
0
 10
-223.40284848
 20
-2.69460021
 42
-0.03991009
  0
VERTEX
  8
0
 10
-221.93618050
 20
-3.38811575
 42
-0.39342480
  0
VERTEX
  8
0
 10
-221.92615549
 20
-3.88526236
 42
-0.39342480
  0
VERTEX
  8
0
 10
-222.42131591
 20
-3.93077509
  0
VERTEX
  8
0
 10
-223.54644318
 20
-3.46042282
 42
-0.51181179
  0
VERTEX
  8
0
 10
-224.12555130
 20
-3.15730736
 42
-0.04019823
  0
VERTEX
  8
0
 10
-227.19394732
 20
-1.20052667
 42
-0.57025443
  0
VERTEX
  8
0
 10
-227.10918862
 20
-0.70172660
 42
-0.02545371
  0
VERTEX
  8
0
 10
-225.00398747
 20
-0.24808317
 42
0.03184039
  0
VERTEX
  8
0
 10
-222.74214263
 20
0.29447028
 42
-0.13802107
  0
VERTEX
  8
0
 10
-222.01620494
 20
0.43921066
 42
-0.25046690
  0
VERTEX
  8
0
 10
-221.79079260
 20
0.09376166
  0
SEQEND
  0
POLYLINE
  8
Default_Layer
 62
256
 66
   1
 39
0.000000
 70
    1
  0
VERTEX
  8
0
 10
-225.98016340
 20
-1.20006851
  0
VERTEX
  8
0
 10
-224.29048716
 20
-2.24832752
  0
VERTEX
  8
0
 10
-224.56538026
 20
-0.90318397
  0
VERTEX
  8
0
 10
-225.98016340
 20
-1.20006851
  0
SEQEND
  0
POLYLINE
  8
Default_Layer
 62
256
 66
   1
 39
0.000000
 70
    1
  0
VERTEX
  8
0
 10
-221.74680970
 20
3.22387773
 42
-0.07912676
  0
VERTEX
  8
0
 10
-221.96672418
 20
2.20494065
 42
-0.36952580
  0
VERTEX
  8
0
 10
-221.84420392
 20
1.77584270
 42
-0.36952580
  0
VERTEX
  8
0
 10
-222.24925320
 20
1.58856924
 42
-0.01338528
  0
VERTEX
  8
0
 10
-227.28636377
 20
1.60235207
 42
-0.56612172
  0
VERTEX
  8
0
 10
-227.59378588
 20
2.20219172
 42
-0.12798998
  0
VERTEX
  8
0
 10
-226.88381198
 20
2.23193015
  0
VERTEX
  8
0
 10
-225.31675472
 20
2.21593637
 42
-0.32239398
  0
VERTEX
  8
0
 10
-225.45947006
 20
4.29786979
 42
-0.43921611
  0
VERTEX
  8
0
 10
-222.31364786
 20
4.54748799
 42
-0.19591784
  0
VERTEX
  8
0
 10
-221.74680970
 20
3.22387773
  0
SEQEND
  0
POLYLINE
  8
Default_Layer
 62
256
 66
   1
 39
0.000000
 70
    1
  0
VERTEX
  8
0
 10
-225.05652259
 20
3.36315690
 42
0.18481057
  0
VERTEX
  8
0
 10
-224.50067465
 20
2.21931967
 42
0.04192711
  0
VERTEX
  8
0
 10
-222.70876894
 20
2.24209287
 42
0.26110393
  0
VERTEX
  8
0
 10
-222.63013286
 20
3.87262544
 42
0.33145268
  0
VERTEX
  8
0
 10
-224.29264049
 20
4.35116851
 42
0.32482316
  0
VERTEX
  8
0
 10
-225.05652259
 20
3.36315690
  0
SEQEND
  0
POLYLINE
  8
Default_Layer
 62
256
 66
   1
 39
0.000000
 70
    1
  0
VERTEX
  8
0
 10
-225.13715790
 20
9.34116545
 42
0.03024763
  0
VERTEX
  8
0
 10
-222.06476939
 20
9.40530717
 42
-0.36190272
  0
VERTEX
  8
0
 10
-221.81346829
 20
9.06399017
 42
-0.36190272
  0
VERTEX
  8
0
 10
-222.10371257
 20
8.75510864
 42
0.10196024
  0
VERTEX
  8
0
 10
-221.90667061
 20
8.36649321
 42
-0.60229921
  0
VERTEX
  8
0
 10
-223.80952070
 20
5.85052950
 42
-0.38803586
  0
VERTEX
  8
0
 10
-225.70746086
 20
7.52635559
 42
-0.22012279
  0
VERTEX
  8
0
 10
-225.33874617
 20
8.69974823
 42
-0.03545512
  0
VERTEX
  8
0
 10
-227.55965332
 20
8.85941530
 42
-0.39481502
  0
VERTEX
  8
0
 10
-227.68882093
 20
9.31862937
 42
-0.39481502
  0
VERTEX
  8
0
 10
-227.23923420
 20
9.47810853
  0
VERTEX
  8
0
 10
-225.13715790
 20
9.34116545
  0
SEQEND
  0
POLYLINE
  8
Default_Layer
 62
256
 66
   1
 39
0.000000
 70
    1
  0
VERTEX
  8
0
 10
-225.04186163
 20
7.71379832
 42
0.40046516
  0
VERTEX
  8
0
 10
-223.99138233
 20
6.51484150
 42
0.48898288
  0
VERTEX
  8
0
 10
-222.42724648
 20
7.62751243
 42
0.24324829
  0
VERTEX
  8
0
 10
-222.98072728
 20
8.63701621
 42
0.02673960
  0
VERTEX
  8
0
 10
-224.48798728
 20
8.61248729
 42
0.27800058
  0
VERTEX
  8
0
 10
-225.04186163
 20
7.71379832
  0
SEQEND
  0
POLYLINE
  8
Default_Layer
 62
256
 66
   1
 39
0.000000
 70
    1
  0
VERTEX
  8
0
 10
-221.73214874
 20
12.08643118
 42
-0.28486514
  0
VERTEX
  8
0
 10
-222.65356422
 20
10.34940134
 42
-0.30963251
  0
VERTEX
  8
0
 10
-225.36257024
 20
10.95742232
 42
-0.32752297
  0
VERTEX
  8
0
 10
-225.38227091
 20
13.18760711
 42
-0.55523338
  0
VERTEX
  8
0
 10
-223.97894165
 20
12.84513613
 42
-0.01333509
  0
VERTEX
  8
0
 10
-223.00765271
 20
10.86224059
 42
0.31973981
  0
VERTEX
  8
0
 10
-222.47553821
 20
12.61186970
 42
0.15090424
  0
VERTEX
  8
0
 10
-222.96275350
 20
13.38957718
 42
-0.36292631
  0
VERTEX
  8
0
 10
-222.79789105
 20
13.80104327
 42
-0.36292631
  0
VERTEX
  8
0
 10
-222.36371563
 20
13.71173662
 42
-0.19376630
  0
VERTEX
  8
0
 10
-221.73214874
 20
12.08643118
  0
SEQEND
  0
POLYLINE
  8
Default_Layer
 62
256
 66
   1
 39
0.000000
 70
    1
  0
VERTEX
  8
0
 10
-225.07118356
 20
11.98746967
 42
0.34464366
  0
VERTEX
  8
0
 10
-224.05647560
 20
10.91327203
  0
VERTEX
  8
0
 10
-223.68205711
 20
10.79993149
 42
0.04356306
  0
VERTEX
  8
0
 10
-224.77796425
 20
12.87079282
 42
0.17454525
  0
VERTEX
  8
0
 10
-225.07118356
 20
11.98746967
  0
SEQEND
  0
POLYLINE
  8
Default_Layer
 62
256
 66
   1
 39
0.000000
 70
    1
  0
VERTEX
  8
0
 10
-224.78162950
 20
15.41813552
 42
-0.02227777
  0
VERTEX
  8
0
 10
-221.94931428
 20
15.29764071
 42
-0.39389573
  0
VERTEX
  8
0
 10
-221.79109962
 20
14.81167979
 42
-0.39389573
  0
VERTEX
  8
0
 10
-222.26483047
 20
14.61992741
 42
-0.00285373
  0
VERTEX
  8
0
 10
-227.59195326
 20
14.75518500
 42
-0.39341182
  0
VERTEX
  8
0
 10
-227.75030383
 20
15.25849090
 42
-0.39341182
  0
VERTEX
  8
0
 10
-227.25960411
 20
15.45241231
  0
VERTEX
  8
0
 10
-224.78162950
 20
15.41813552
  0
SEQEND
  0
POLYLINE
  8
Default_Layer
 62
256
 66
   1
 39
0.000000
 70
    1
  0
VERTEX
  8
0
 10
-221.67350488
 20
19.61117156
 42
-0.38732780
  0
VERTEX
  8
0
 10
-222.17166353
 20
19.23071951
 42
-0.04569765
  0
VERTEX
  8
0
 10
-224.55896609
 20
19.04718256
 42
0.46874724
  0
VERTEX
  8
0
 10
-224.93075900
 20
18.58824853
 42
0.24238791
  0
VERTEX
  8
0
 10
-223.97684177
 20
17.53687407
 42
0.17491534
  0
VERTEX
  8
0
 10
-223.35458816
 20
17.36991723
 42
-0.08264288
  0
VERTEX
  8
0
 10
-222.00948533
 20
17.23263358
 42
-0.40053909
  0
VERTEX
  8
0
 10
-221.89483372
 20
16.73965229
 42
-0.40053909
  0
VERTEX
  8
0
 10
-222.38189606
 20
16.60200846
 42
0.02027662
  0
VERTEX
  8
0
 10
-226.97490989
 20
16.65943057
 42
-0.19520416
  0
VERTEX
  8
0
 10
-227.65105527
 20
16.70967492
 42
-0.33204924
  0
VERTEX
  8
0
 10
-227.70342830
 20
17.16976833
 42
-0.33204924
  0
VERTEX
  8
0
 10
-227.27723590
 20
17.35084545
 42
-0.02445007
  0
VERTEX
  8
0
 10
-225.05426706
 20
17.35140933
  0
VERTEX
  8
0
 10
-224.88059101
 20
17.35338292
 42
-0.32778496
  0
VERTEX
  8
0
 10
-225.60658368
 20
19.16749410
 42
-0.30923805
  0
VERTEX
  8
0
 10
-224.64362519
 20
19.71347960
 42
0.01862114
  0
VERTEX
  8
0
 10
-222.00230757
 20
19.98044462
 42
-0.37923896
  0
VERTEX
  8
0
 10
-221.67350488
 20
19.61117156
  0
SEQEND
  0
POLYLINE
  8
Default_Layer
 62
256
 66
   1
 39
0.000000
 70
    1
  0
VERTEX
  8
0
 10
-221.65884391
 20
23.74189850
 42
-0.09099035
  0
VERTEX
  8
0
 10
-222.08767714
 20
23.24342568
 42
-0.14256290
  0
VERTEX
  8
0
 10
-221.71883529
 20
21.96521321
 42
-0.38574698
  0
VERTEX
  8
0
 10
-223.02225640
 20
20.60163143
 42
-0.43977964
  0
VERTEX
  8
0
 10
-225.70408449
 20
22.38360320
 42
-0.26329882
  0
VERTEX
  8
0
 10
-225.20702656
 20
23.80604022
 42
-0.13742224
  0
VERTEX
  8
0
 10
-224.77101959
 20
23.74845735
 42
0.10691601
  0
VERTEX
  8
0
 10
-222.71338619
 20
23.81153808
 42
-0.04849222
  0
VERTEX
  8
0
 10
-221.95145234
 20
24.07421371
 42
-0.36496745
  0
VERTEX
  8
0
 10
-221.65884391
 20
23.74189850
  0
SEQEND
  0
POLYLINE
  8
Default_Layer
 62
256
 66
   1
 39
0.000000
 70
    1
  0
VERTEX
  8
0
 10
-224.20618661
 20
22.97952831
 42
0.04328635
  0
VERTEX
  8
0
 10
-224.95222982
 20
23.03883858
 42
0.34201231
  0
VERTEX
  8
0
 10
-224.68091172
 20
21.76159917
 42
0.33557252
  0
VERTEX
  8
0
 10
-222.64479382
 20
21.49144034
 42
0.41464313
  0
VERTEX
  8
0
 10
-222.61913713
 20
22.92146317
 42
0.30821449
  0
VERTEX
  8
0
 10
-222.82389322
 20
23.08927611
 42
-0.01888153
  0
VERTEX
  8
0
 10
-224.20618661
 20
22.97952831
  0
SEQEND
  0
POLYLINE
  8
Default_Layer
 62
256
 66
   1
 39
0.000000
 70
    1
  0
VERTEX
  8
0
 10
-225.13715790
 20
28.09620516
 42
0.03024763
  0
VERTEX
  8
0
 10
-222.06476939
 20
28.16034688
 42
-0.36190272
  0
VERTEX
  8
0
 10
-221.81346829
 20
27.81902987
 42
-0.36190272
  0
VERTEX
  8
0
 10
-222.10371257
 20
27.51014835
 42
0.10196024
  0
VERTEX
  8
0
 10
-221.90667061
 20
27.12153292
 42
-0.60229921
  0
VERTEX
  8
0
 10
-223.80952070
 20
24.60556921
 42
-0.38803586
  0
VERTEX
  8
0
 10
-225.70746086
 20
26.28139529
 42
-0.22012279
  0
VERTEX
  8
0
 10
-225.33874617
 20
27.45478793
 42
-0.03545512
  0
VERTEX
  8
0
 10
-227.55965332
 20
27.61445501
 42
-0.39481502
  0
VERTEX
  8
0
 10
-227.68882093
 20
28.07366908
 42
-0.39481502
  0
VERTEX
  8
0
 10
-227.23923420
 20
28.23314824
  0
VERTEX
  8
0
 10
-225.13715790
 20
28.09620516
  0
SEQEND
  0
POLYLINE
  8
Default_Layer
 62
256
 66
   1
 39
0.000000
 70
    1
  0
VERTEX
  8
0
 10
-225.04186163
 20
26.46883802
 42
0.40046516
  0
VERTEX
  8
0
 10
-223.99138233
 20
25.26988121
 42
0.48898288
  0
VERTEX
  8
0
 10
-222.42724648
 20
26.38255213
 42
0.24324829
  0
VERTEX
  8
0
 10
-222.98072728
 20
27.39205592
 42
0.02673960
  0
VERTEX
  8
0
 10
-224.48798728
 20
27.36752699
 42
0.27800058
  0
VERTEX
  8
0
 10
-225.04186163
 20
26.46883802
  0
SEQEND
  0
POLYLINE
  8
Default_Layer
 62
256
 66
   1
 39
0.000000
 70
    1
  0
VERTEX
  8
0
 10
-225.17014507
 20
32.34055458
 42
0.02251805
  0
VERTEX
  8
0
 10
-220.22597103
 20
30.17451521
 42
-0.26543604
  0
VERTEX
  8
0
 10
-219.80789706
 20
29.87099644
 42
-0.66768055
  0
VERTEX
  8
0
 10
-220.37596781
 20
29.44967881
 42
-0.02557430
  0
VERTEX
  8
0
 10
-222.25261300
 20
30.19638842
 42
-0.01279740
  0
VERTEX
  8
0
 10
-225.28529474
 20
28.62858146
 42
-0.39019992
  0
VERTEX
  8
0
 10
-225.68276330
 20
28.95546532
 42
-0.39019992
  0
VERTEX
  8
0
 10
-225.38982051
 20
29.37857150
 42
-0.03537071
  0
VERTEX
  8
0
 10
-223.11394471
 20
30.59223448
 42
-0.04251155
  0
VERTEX
  8
0
 10
-225.59286957
 20
31.77447842
 42
-0.37662007
  0
VERTEX
  8
0
 10
-225.62994153
 20
32.24303788
 42
-0.37662007
  0
VERTEX
  8
0
 10
-225.17014507
 20
32.34055458
  0
SEQEND
  0
POLYLINE
  8
Default_Layer
 62
256
 66
   1
 39
0.000000
 70
    1
  0
VERTEX
  8
0
 10
-165.21782178
 20
46.75495050
  0
VERTEX
  8
0
 10
-210.21782178
 20
46.75495050
  0
VERTEX
  8
0
 10
-210.21782178
 20
116.75495050
  0
VERTEX
  8
0
 10
-165.21782178
 20
116.75495050
  0
VERTEX
  8
0
 10
-165.21782178
 20
46.75495050
  0
SEQEND
  0
POLYLINE
  8
Default_Layer
 62
256
 66
   1
 39
0.000000
 70
    1
  0
VERTEX
  8
0
 10
-237.71782178
 20
204.75495050
  0
VERTEX
  8
0
 10
-218.46782178
 20
204.75495050
  0
VERTEX
  8
0
 10
-218.46782178
 20
206.75495050
  0
VERTEX
  8
0
 10
-197.96782178
 20
206.75495050
  0
VERTEX
  8
0
 10
-197.96782178
 20
204.75495050
  0
VERTEX
  8
0
 10
-177.46782178
 20
204.75495050
  0
VERTEX
  8
0
 10
-177.46782178
 20
206.75495050
  0
VERTEX
  8
0
 10
-156.96782178
 20
206.75495050
  0
VERTEX
  8
0
 10
-156.96782178
 20
204.75495050
  0
VERTEX
  8
0
 10
-137.71782178
 20
204.75495050
  0
VERTEX
  8
0
 10
-137.71782178
 20
194.50495050
  0
VERTEX
  8
0
 10
-137.71782178
 20
174.00495050
  0
VERTEX
  8
0
 10
-139.71782178
 20
174.00495050
  0
VERTEX
  8
0
 10
-139.71782178
 20
153.50495050
  0
VERTEX
  8
0
 10
-137.71782178
 20
153.50495050
  0
VERTEX
  8
0
 10
-137.71782178
 20
133.00495050
  0
VERTEX
  8
0
 10
-139.71782178
 20
133.00495050
  0
VERTEX
  8
0
 10
-139.71782178
 20
112.50495050
  0
VERTEX
  8
0
 10
-137.71782178
 20
112.50495050
  0
VERTEX
  8
0
 10
-137.71782178
 20
92.00495050
  0
VERTEX
  8
0
 10
-139.71782178
 20
92.00495050
  0
VERTEX
  8
0
 10
-139.71782178
 20
71.50495050
  0
VERTEX
  8
0
 10
-137.71782178
 20
71.50495050
  0
VERTEX
  8
0
 10
-137.71782178
 20
51.00495050
  0
VERTEX
  8
0
 10
-139.71782178
 20
51.00495050
  0
VERTEX
  8
0
 10
-139.71782178
 20
30.50495050
  0
VERTEX
  8
0
 10
-137.71782178
 20
30.50495050
  0
VERTEX
  8
0
 10
-137.71782178
 20
10.00495050
  0
VERTEX
  8
0
 10
-139.71782178
 20
10.00495050
  0
VERTEX
  8
0
 10
-139.71782178
 20
-10.49504950
  0
VERTEX
  8
0
 10
-137.71782178
 20
-10.49504950
  0
VERTEX
  8
0
 10
-137.71782178
 20
-41.24504950
  0
VERTEX
  8
0
 10
-156.96782178
 20
-41.24504950
  0
VERTEX
  8
0
 10
-156.96782178
 20
-43.24504950
  0
VERTEX
  8
0
 10
-177.46782178
 20
-43.24504950
  0
VERTEX
  8
0
 10
-177.46782178
 20
-41.24504950
  0
VERTEX
  8
0
 10
-197.96782178
 20
-41.24504950
  0
VERTEX
  8
0
 10
-197.96782178
 20
-43.24504950
  0
VERTEX
  8
0
 10
-218.46782178
 20
-43.24504950
  0
VERTEX
  8
0
 10
-218.46782178
 20
-41.24504950
  0
VERTEX
  8
0
 10
-237.71782178
 20
-41.24504950
  0
VERTEX
  8
0
 10
-237.71782178
 20
-30.99504950
  0
VERTEX
  8
0
 10
-237.71782178
 20
-10.49504950
  0
VERTEX
  8
0
 10
-235.71782178
 20
-10.49504950
  0
VERTEX
  8
0
 10
-235.71782178
 20
10.00495050
  0
VERTEX
  8
0
 10
-237.71782178
 20
10.00495050
  0
VERTEX
  8
0
 10
-237.71782178
 20
30.50495050
  0
VERTEX
  8
0
 10
-235.71782178
 20
30.50495050
  0
VERTEX
  8
0
 10
-235.71782178
 20
51.00495050
  0
VERTEX
  8
0
 10
-237.71782178
 20
51.00495050
  0
VERTEX
  8
0
 10
-237.71782178
 20
71.50495050
  0
VERTEX
  8
0
 10
-235.71782178
 20
71.50495050
  0
VERTEX
  8
0
 10
-235.71782178
 20
92.00495050
  0
VERTEX
  8
0
 10
-237.71782178
 20
92.00495050
  0
VERTEX
  8
0
 10
-237.71782178
 20
112.50495050
  0
VERTEX
  8
0
 10
-235.71782178
 20
112.50495050
  0
VERTEX
  8
0
 10
-235.71782178
 20
133.00495050
  0
VERTEX
  8
0
 10
-237.71782178
 20
133.00495050
  0
VERTEX
  8
0
 10
-237.71782178
 20
153.50495050
  0
VERTEX
  8
0
 10
-235.71782178
 20
153.50495050
  0
VERTEX
  8
0
 10
-235.71782178
 20
174.00495050
  0
VERTEX
  8
0
 10
-237.71782178
 20
174.00495050
  0
VERTEX
  8
0
 10
-237.71782178
 20
204.75495050
  0
SEQEND
  0
ENDSEC
  0
EOF
