  0
SECTION
  2
HEADER
  9
$ACADVER
  1
AC1009
  9
$EXTMIN
 10
-478.00000000
 20
-146.23762376
 30
0.0
  9
$EXTMAX
 10
-128.00000000
 20
-46.23762376
 30
0.0
  0
ENDSEC
  0
SECTION
  2
TABLES
  0
TABLE
  2
LAYER
 70
1
 0
LAYER
 2
Default_Layer
 70
0
 62
18
 6
CONTINUOUS
 0
ENDTAB
 0
ENDSEC
  0
SECTION
  2
ENTITIES
  0
POLYLINE
  8
Default_Layer
 62
256
 66
   1
 39
0.000000
 70
    1
  0
VERTEX
  8
0
 10
-478.00000000
 20
-146.23762376
  0
VERTEX
  8
0
 10
-478.00000000
 20
-126.98762376
  0
VERTEX
  8
0
 10
-476.00000000
 20
-126.98762376
  0
VERTEX
  8
0
 10
-476.00000000
 20
-106.48762376
  0
VERTEX
  8
0
 10
-478.00000000
 20
-106.48762376
  0
VERTEX
  8
0
 10
-478.00000000
 20
-85.98762376
  0
VERTEX
  8
0
 10
-476.00000000
 20
-85.98762376
  0
VERTEX
  8
0
 10
-476.00000000
 20
-65.48762376
  0
VERTEX
  8
0
 10
-478.00000000
 20
-65.48762376
  0
VERTEX
  8
0
 10
-478.00000000
 20
-46.23762376
  0
VERTEX
  8
0
 10
-456.75000000
 20
-46.23762376
  0
VERTEX
  8
0
 10
-456.75000000
 20
-48.23762376
  0
VERTEX
  8
0
 10
-436.25000000
 20
-48.23762376
  0
VERTEX
  8
0
 10
-436.25000000
 20
-46.23762376
  0
VERTEX
  8
0
 10
-415.75000000
 20
-46.23762376
  0
VERTEX
  8
0
 10
-415.75000000
 20
-48.23762376
  0
VERTEX
  8
0
 10
-395.25000000
 20
-48.23762376
  0
VERTEX
  8
0
 10
-395.25000000
 20
-46.23762376
  0
VERTEX
  8
0
 10
-374.75000000
 20
-46.23762376
  0
VERTEX
  8
0
 10
-374.75000000
 20
-48.23762376
  0
VERTEX
  8
0
 10
-354.25000000
 20
-48.23762376
  0
VERTEX
  8
0
 10
-354.25000000
 20
-46.23762376
  0
VERTEX
  8
0
 10
-333.75000000
 20
-46.23762376
  0
VERTEX
  8
0
 10
-333.75000000
 20
-48.23762376
  0
VERTEX
  8
0
 10
-313.25000000
 20
-48.23762376
  0
VERTEX
  8
0
 10
-313.25000000
 20
-46.23762376
  0
VERTEX
  8
0
 10
-292.75000000
 20
-46.23762376
  0
VERTEX
  8
0
 10
-292.75000000
 20
-48.23762376
  0
VERTEX
  8
0
 10
-272.25000000
 20
-48.23762376
  0
VERTEX
  8
0
 10
-272.25000000
 20
-46.23762376
  0
VERTEX
  8
0
 10
-251.75000000
 20
-46.23762376
  0
VERTEX
  8
0
 10
-251.75000000
 20
-48.23762376
  0
VERTEX
  8
0
 10
-231.25000000
 20
-48.23762376
  0
VERTEX
  8
0
 10
-231.25000000
 20
-46.23762376
  0
VERTEX
  8
0
 10
-210.75000000
 20
-46.23762376
  0
VERTEX
  8
0
 10
-210.75000000
 20
-48.23762376
  0
VERTEX
  8
0
 10
-190.25000000
 20
-48.23762376
  0
VERTEX
  8
0
 10
-190.25000000
 20
-46.23762376
  0
VERTEX
  8
0
 10
-169.75000000
 20
-46.23762376
  0
VERTEX
  8
0
 10
-169.75000000
 20
-48.23762376
  0
VERTEX
  8
0
 10
-149.25000000
 20
-48.23762376
  0
VERTEX
  8
0
 10
-149.25000000
 20
-46.23762376
  0
VERTEX
  8
0
 10
-128.00000000
 20
-46.23762376
  0
VERTEX
  8
0
 10
-128.00000000
 20
-65.48762376
  0
VERTEX
  8
0
 10
-130.00000000
 20
-65.48762376
  0
VERTEX
  8
0
 10
-130.00000000
 20
-85.98762376
  0
VERTEX
  8
0
 10
-128.00000000
 20
-85.98762376
  0
VERTEX
  8
0
 10
-128.00000000
 20
-106.48762376
  0
VERTEX
  8
0
 10
-130.00000000
 20
-106.48762376
  0
VERTEX
  8
0
 10
-130.00000000
 20
-126.98762376
  0
VERTEX
  8
0
 10
-128.00000000
 20
-126.98762376
  0
VERTEX
  8
0
 10
-128.00000000
 20
-146.23762376
  0
VERTEX
  8
0
 10
-149.25000000
 20
-146.23762376
  0
VERTEX
  8
0
 10
-149.25000000
 20
-144.23762376
  0
VERTEX
  8
0
 10
-169.75000000
 20
-144.23762376
  0
VERTEX
  8
0
 10
-169.75000000
 20
-146.23762376
  0
VERTEX
  8
0
 10
-190.25000000
 20
-146.23762376
  0
VERTEX
  8
0
 10
-190.25000000
 20
-144.23762376
  0
VERTEX
  8
0
 10
-210.75000000
 20
-144.23762376
  0
VERTEX
  8
0
 10
-210.75000000
 20
-146.23762376
  0
VERTEX
  8
0
 10
-231.25000000
 20
-146.23762376
  0
VERTEX
  8
0
 10
-231.25000000
 20
-144.23762376
  0
VERTEX
  8
0
 10
-251.75000000
 20
-144.23762376
  0
VERTEX
  8
0
 10
-251.75000000
 20
-146.23762376
  0
VERTEX
  8
0
 10
-272.25000000
 20
-146.23762376
  0
VERTEX
  8
0
 10
-272.25000000
 20
-144.23762376
  0
VERTEX
  8
0
 10
-292.75000000
 20
-144.23762376
  0
VERTEX
  8
0
 10
-292.75000000
 20
-146.23762376
  0
VERTEX
  8
0
 10
-313.25000000
 20
-146.23762376
  0
VERTEX
  8
0
 10
-313.25000000
 20
-144.23762376
  0
VERTEX
  8
0
 10
-333.75000000
 20
-144.23762376
  0
VERTEX
  8
0
 10
-333.75000000
 20
-146.23762376
  0
VERTEX
  8
0
 10
-354.25000000
 20
-146.23762376
  0
VERTEX
  8
0
 10
-354.25000000
 20
-144.23762376
  0
VERTEX
  8
0
 10
-374.75000000
 20
-144.23762376
  0
VERTEX
  8
0
 10
-374.75000000
 20
-146.23762376
  0
VERTEX
  8
0
 10
-395.25000000
 20
-146.23762376
  0
VERTEX
  8
0
 10
-395.25000000
 20
-144.23762376
  0
VERTEX
  8
0
 10
-415.75000000
 20
-144.23762376
  0
VERTEX
  8
0
 10
-415.75000000
 20
-146.23762376
  0
VERTEX
  8
0
 10
-436.25000000
 20
-146.23762376
  0
VERTEX
  8
0
 10
-436.25000000
 20
-144.23762376
  0
VERTEX
  8
0
 10
-456.75000000
 20
-144.23762376
  0
VERTEX
  8
0
 10
-456.75000000
 20
-146.23762376
  0
VERTEX
  8
0
 10
-478.00000000
 20
-146.23762376
  0
SEQEND
  0
POLYLINE
  8
Default_Layer
 62
256
 66
   1
 39
0.000000
 70
    0
  0
VERTEX
  8
0
 10
-302.00000000
 20
-97.73762376
  0
VERTEX
  8
0
 10
-304.00000000
 20
-97.73762376
  0
SEQEND
  0
POLYLINE
  8
Default_Layer
 62
256
 66
   1
 39
0.000000
 70
    0
  0
VERTEX
  8
0
 10
-304.00000000
 20
-94.73762376
  0
VERTEX
  8
0
 10
-302.00000000
 20
-94.73762376
  0
SEQEND
  0
POLYLINE
  8
Default_Layer
 62
256
 66
   1
 39
0.000000
 70
    0
  0
VERTEX
  8
0
 10
-302.00000000
 20
-94.73762376
  0
VERTEX
  8
0
 10
-301.84663371
 20
-94.74536809
  0
VERTEX
  8
0
 10
-301.69769768
 20
-94.76809843
  0
VERTEX
  8
0
 10
-301.41613231
 20
-94.85550120
  0
VERTEX
  8
0
 10
-301.16133574
 20
-94.99380020
  0
VERTEX
  8
0
 10
-300.93933983
 20
-95.17696359
  0
VERTEX
  8
0
 10
-300.75617644
 20
-95.39895950
  0
VERTEX
  8
0
 10
-300.61787744
 20
-95.65375607
  0
VERTEX
  8
0
 10
-300.53047467
 20
-95.93532144
  0
VERTEX
  8
0
 10
-300.50774433
 20
-96.08425748
  0
VERTEX
  8
0
 10
-300.50000000
 20
-96.23762376
  0
VERTEX
  8
0
 10
-300.50774433
 20
-96.39099005
  0
VERTEX
  8
0
 10
-300.53047467
 20
-96.53992608
  0
VERTEX
  8
0
 10
-300.61787744
 20
-96.82149146
  0
VERTEX
  8
0
 10
-300.75617644
 20
-97.07628803
  0
VERTEX
  8
0
 10
-300.93933983
 20
-97.29828393
  0
VERTEX
  8
0
 10
-301.16133574
 20
-97.48144732
  0
VERTEX
  8
0
 10
-301.41613231
 20
-97.61974633
  0
VERTEX
  8
0
 10
-301.69769768
 20
-97.70714909
  0
VERTEX
  8
0
 10
-301.84663371
 20
-97.72987943
  0
VERTEX
  8
0
 10
-302.00000000
 20
-97.73762376
  0
SEQEND
  0
POLYLINE
  8
Default_Layer
 62
256
 66
   1
 39
0.000000
 70
    0
  0
VERTEX
  8
0
 10
-304.00000000
 20
-97.73762376
  0
VERTEX
  8
0
 10
-304.15336629
 20
-97.72987943
  0
VERTEX
  8
0
 10
-304.30230232
 20
-97.70714909
  0
VERTEX
  8
0
 10
-304.58386769
 20
-97.61974633
  0
VERTEX
  8
0
 10
-304.83866426
 20
-97.48144732
  0
VERTEX
  8
0
 10
-305.06066017
 20
-97.29828393
  0
VERTEX
  8
0
 10
-305.24382356
 20
-97.07628803
  0
VERTEX
  8
0
 10
-305.38212256
 20
-96.82149146
  0
VERTEX
  8
0
 10
-305.46952533
 20
-96.53992608
  0
VERTEX
  8
0
 10
-305.49225567
 20
-96.39099005
  0
VERTEX
  8
0
 10
-305.50000000
 20
-96.23762376
  0
VERTEX
  8
0
 10
-305.49225567
 20
-96.08425748
  0
VERTEX
  8
0
 10
-305.46952533
 20
-95.93532144
  0
VERTEX
  8
0
 10
-305.38212256
 20
-95.65375607
  0
VERTEX
  8
0
 10
-305.24382356
 20
-95.39895950
  0
VERTEX
  8
0
 10
-305.06066017
 20
-95.17696359
  0
VERTEX
  8
0
 10
-304.83866426
 20
-94.99380020
  0
VERTEX
  8
0
 10
-304.58386769
 20
-94.85550120
  0
VERTEX
  8
0
 10
-304.30230232
 20
-94.76809843
  0
VERTEX
  8
0
 10
-304.15336629
 20
-94.74536809
  0
VERTEX
  8
0
 10
-304.00000000
 20
-94.73762376
  0
SEQEND
  0
POLYLINE
  8
Default_Layer
 62
256
 66
   1
 39
0.000000
 70
    1
  0
VERTEX
  8
0
 10
-178.54308911
 20
-110.73762376
  0
VERTEX
  8
0
 10
-178.54308911
 20
-81.73762376
  0
VERTEX
  8
0
 10
-156.54308911
 20
-81.73762376
  0
VERTEX
  8
0
 10
-156.54308911
 20
-110.73762376
  0
VERTEX
  8
0
 10
-178.54308911
 20
-110.73762376
  0
SEQEND
  0
ENDSEC
  0
EOF
