  0
SECTION
  2
HEADER
  9
$ACADVER
  1
AC1009
  9
$EXTMIN
 10
-478.00000000
 20
-249.23762376
 30
0.0
  9
$EXTMAX
 10
-128.00000000
 20
-149.23762376
 30
0.0
  0
ENDSEC
  0
SECTION
  2
TABLES
  0
TABLE
  2
LAYER
 70
1
 0
LAYER
 2
Default_Layer
 70
0
 62
18
 6
CONTINUOUS
 0
ENDTAB
 0
ENDSEC
  0
SECTION
  2
ENTITIES
  0
POLYLINE
  8
Default_Layer
 62
256
 66
   1
 39
0.000000
 70
    1
  0
VERTEX
  8
0
 10
-478.00000000
 20
-249.23762376
  0
VERTEX
  8
0
 10
-478.00000000
 20
-229.98762376
  0
VERTEX
  8
0
 10
-476.00000000
 20
-229.98762376
  0
VERTEX
  8
0
 10
-476.00000000
 20
-209.48762376
  0
VERTEX
  8
0
 10
-478.00000000
 20
-209.48762376
  0
VERTEX
  8
0
 10
-478.00000000
 20
-188.98762376
  0
VERTEX
  8
0
 10
-476.00000000
 20
-188.98762376
  0
VERTEX
  8
0
 10
-476.00000000
 20
-168.48762376
  0
VERTEX
  8
0
 10
-478.00000000
 20
-168.48762376
  0
VERTEX
  8
0
 10
-478.00000000
 20
-149.23762376
  0
VERTEX
  8
0
 10
-456.75000000
 20
-149.23762376
  0
VERTEX
  8
0
 10
-456.75000000
 20
-151.23762376
  0
VERTEX
  8
0
 10
-436.25000000
 20
-151.23762376
  0
VERTEX
  8
0
 10
-436.25000000
 20
-149.23762376
  0
VERTEX
  8
0
 10
-415.75000000
 20
-149.23762376
  0
VERTEX
  8
0
 10
-415.75000000
 20
-151.23762376
  0
VERTEX
  8
0
 10
-395.25000000
 20
-151.23762376
  0
VERTEX
  8
0
 10
-395.25000000
 20
-149.23762376
  0
VERTEX
  8
0
 10
-374.75000000
 20
-149.23762376
  0
VERTEX
  8
0
 10
-374.75000000
 20
-151.23762376
  0
VERTEX
  8
0
 10
-354.25000000
 20
-151.23762376
  0
VERTEX
  8
0
 10
-354.25000000
 20
-149.23762376
  0
VERTEX
  8
0
 10
-333.75000000
 20
-149.23762376
  0
VERTEX
  8
0
 10
-333.75000000
 20
-151.23762376
  0
VERTEX
  8
0
 10
-313.25000000
 20
-151.23762376
  0
VERTEX
  8
0
 10
-313.25000000
 20
-149.23762376
  0
VERTEX
  8
0
 10
-292.75000000
 20
-149.23762376
  0
VERTEX
  8
0
 10
-292.75000000
 20
-151.23762376
  0
VERTEX
  8
0
 10
-272.25000000
 20
-151.23762376
  0
VERTEX
  8
0
 10
-272.25000000
 20
-149.23762376
  0
VERTEX
  8
0
 10
-251.75000000
 20
-149.23762376
  0
VERTEX
  8
0
 10
-251.75000000
 20
-151.23762376
  0
VERTEX
  8
0
 10
-231.25000000
 20
-151.23762376
  0
VERTEX
  8
0
 10
-231.25000000
 20
-149.23762376
  0
VERTEX
  8
0
 10
-210.75000000
 20
-149.23762376
  0
VERTEX
  8
0
 10
-210.75000000
 20
-151.23762376
  0
VERTEX
  8
0
 10
-190.25000000
 20
-151.23762376
  0
VERTEX
  8
0
 10
-190.25000000
 20
-149.23762376
  0
VERTEX
  8
0
 10
-169.75000000
 20
-149.23762376
  0
VERTEX
  8
0
 10
-169.75000000
 20
-151.23762376
  0
VERTEX
  8
0
 10
-149.25000000
 20
-151.23762376
  0
VERTEX
  8
0
 10
-149.25000000
 20
-149.23762376
  0
VERTEX
  8
0
 10
-128.00000000
 20
-149.23762376
  0
VERTEX
  8
0
 10
-128.00000000
 20
-168.48762376
  0
VERTEX
  8
0
 10
-130.00000000
 20
-168.48762376
  0
VERTEX
  8
0
 10
-130.00000000
 20
-188.98762376
  0
VERTEX
  8
0
 10
-128.00000000
 20
-188.98762376
  0
VERTEX
  8
0
 10
-128.00000000
 20
-209.48762376
  0
VERTEX
  8
0
 10
-130.00000000
 20
-209.48762376
  0
VERTEX
  8
0
 10
-130.00000000
 20
-229.98762376
  0
VERTEX
  8
0
 10
-128.00000000
 20
-229.98762376
  0
VERTEX
  8
0
 10
-128.00000000
 20
-249.23762376
  0
VERTEX
  8
0
 10
-149.25000000
 20
-249.23762376
  0
VERTEX
  8
0
 10
-149.25000000
 20
-247.23762376
  0
VERTEX
  8
0
 10
-169.75000000
 20
-247.23762376
  0
VERTEX
  8
0
 10
-169.75000000
 20
-249.23762376
  0
VERTEX
  8
0
 10
-190.25000000
 20
-249.23762376
  0
VERTEX
  8
0
 10
-190.25000000
 20
-247.23762376
  0
VERTEX
  8
0
 10
-210.75000000
 20
-247.23762376
  0
VERTEX
  8
0
 10
-210.75000000
 20
-249.23762376
  0
VERTEX
  8
0
 10
-231.25000000
 20
-249.23762376
  0
VERTEX
  8
0
 10
-231.25000000
 20
-247.23762376
  0
VERTEX
  8
0
 10
-251.75000000
 20
-247.23762376
  0
VERTEX
  8
0
 10
-251.75000000
 20
-249.23762376
  0
VERTEX
  8
0
 10
-272.25000000
 20
-249.23762376
  0
VERTEX
  8
0
 10
-272.25000000
 20
-247.23762376
  0
VERTEX
  8
0
 10
-292.75000000
 20
-247.23762376
  0
VERTEX
  8
0
 10
-292.75000000
 20
-249.23762376
  0
VERTEX
  8
0
 10
-313.25000000
 20
-249.23762376
  0
VERTEX
  8
0
 10
-313.25000000
 20
-247.23762376
  0
VERTEX
  8
0
 10
-333.75000000
 20
-247.23762376
  0
VERTEX
  8
0
 10
-333.75000000
 20
-249.23762376
  0
VERTEX
  8
0
 10
-354.25000000
 20
-249.23762376
  0
VERTEX
  8
0
 10
-354.25000000
 20
-247.23762376
  0
VERTEX
  8
0
 10
-374.75000000
 20
-247.23762376
  0
VERTEX
  8
0
 10
-374.75000000
 20
-249.23762376
  0
VERTEX
  8
0
 10
-395.25000000
 20
-249.23762376
  0
VERTEX
  8
0
 10
-395.25000000
 20
-247.23762376
  0
VERTEX
  8
0
 10
-415.75000000
 20
-247.23762376
  0
VERTEX
  8
0
 10
-415.75000000
 20
-249.23762376
  0
VERTEX
  8
0
 10
-436.25000000
 20
-249.23762376
  0
VERTEX
  8
0
 10
-436.25000000
 20
-247.23762376
  0
VERTEX
  8
0
 10
-456.75000000
 20
-247.23762376
  0
VERTEX
  8
0
 10
-456.75000000
 20
-249.23762376
  0
VERTEX
  8
0
 10
-478.00000000
 20
-249.23762376
  0
SEQEND
  0
POLYLINE
  8
Default_Layer
 62
256
 66
   1
 39
0.000000
 70
    1
  0
VERTEX
  8
0
 10
-435.94198639
 20
-227.23762376
  0
VERTEX
  8
0
 10
-435.94198639
 20
-182.23762376
  0
VERTEX
  8
0
 10
-365.94198639
 20
-182.23762376
  0
VERTEX
  8
0
 10
-365.94198639
 20
-227.23762376
  0
VERTEX
  8
0
 10
-435.94198639
 20
-227.23762376
  0
SEQEND
  0
POLYLINE
  8
Default_Layer
 62
256
 66
   1
 39
0.000000
 70
    1
  0
VERTEX
  8
0
 10
-384.32639646
 20
-165.24666469
 42
0.08677417
  0
VERTEX
  8
0
 10
-385.50268584
 20
-165.12784106
 42
-0.01065704
  0
VERTEX
  8
0
 10
-387.53592609
 20
-165.23310330
 42
-0.42665851
  0
VERTEX
  8
0
 10
-388.11906598
 20
-164.74514429
 42
-0.24224758
  0
VERTEX
  8
0
 10
-387.43704094
 20
-162.56194358
 42
-0.00644811
  0
VERTEX
  8
0
 10
-385.50548423
 20
-161.09612509
 42
0.32155919
  0
VERTEX
  8
0
 10
-384.96414518
 20
-159.66429494
 42
0.45538095
  0
VERTEX
  8
0
 10
-386.98744309
 20
-159.61649494
 42
-0.15098250
  0
VERTEX
  8
0
 10
-387.71680745
 20
-160.05654387
 42
-0.31930101
  0
VERTEX
  8
0
 10
-388.10225095
 20
-159.80796577
 42
-0.31930101
  0
VERTEX
  8
0
 10
-387.99399980
 20
-159.36227590
 42
-0.18658056
  0
VERTEX
  8
0
 10
-386.01789769
 20
-158.30068882
 42
-0.31942899
  0
VERTEX
  8
0
 10
-384.05690414
 20
-159.39750682
 42
-0.32633675
  0
VERTEX
  8
0
 10
-385.08131400
 20
-161.91468366
 42
0.04739870
  0
VERTEX
  8
0
 10
-386.84043383
 20
-163.20878289
 42
0.17803462
  0
VERTEX
  8
0
 10
-387.26017777
 20
-164.37873555
 42
-0.05486622
  0
VERTEX
  8
0
 10
-384.55694014
 20
-164.28687326
 42
-0.32584847
  0
VERTEX
  8
0
 10
-383.90147282
 20
-164.79461826
 42
-0.37858974
  0
VERTEX
  8
0
 10
-384.32639646
 20
-165.24666469
  0
SEQEND
  0
POLYLINE
  8
Default_Layer
 62
256
 66
   1
 39
0.000000
 70
    1
  0
VERTEX
  8
0
 10
-378.67581613
 20
-165.24666469
 42
0.08677417
  0
VERTEX
  8
0
 10
-379.85210551
 20
-165.12784106
 42
-0.01065704
  0
VERTEX
  8
0
 10
-381.88534576
 20
-165.23310330
 42
-0.42665851
  0
VERTEX
  8
0
 10
-382.46848565
 20
-164.74514429
 42
-0.24224758
  0
VERTEX
  8
0
 10
-381.78646061
 20
-162.56194358
 42
-0.00644811
  0
VERTEX
  8
0
 10
-379.85490390
 20
-161.09612509
 42
0.32155919
  0
VERTEX
  8
0
 10
-379.31356485
 20
-159.66429494
 42
0.45538095
  0
VERTEX
  8
0
 10
-381.33686276
 20
-159.61649494
 42
-0.15098250
  0
VERTEX
  8
0
 10
-382.06622712
 20
-160.05654387
 42
-0.31930101
  0
VERTEX
  8
0
 10
-382.45167062
 20
-159.80796577
 42
-0.31930101
  0
VERTEX
  8
0
 10
-382.34341947
 20
-159.36227590
 42
-0.18658056
  0
VERTEX
  8
0
 10
-380.36731736
 20
-158.30068882
 42
-0.31942899
  0
VERTEX
  8
0
 10
-378.40632381
 20
-159.39750682
 42
-0.32633675
  0
VERTEX
  8
0
 10
-379.43073367
 20
-161.91468366
 42
0.04739870
  0
VERTEX
  8
0
 10
-381.18985350
 20
-163.20878289
 42
0.17803462
  0
VERTEX
  8
0
 10
-381.60959744
 20
-164.37873555
 42
-0.05486622
  0
VERTEX
  8
0
 10
-378.90635981
 20
-164.28687326
 42
-0.32584847
  0
VERTEX
  8
0
 10
-378.25089249
 20
-164.79461826
 42
-0.37858974
  0
VERTEX
  8
0
 10
-378.67581613
 20
-165.24666469
  0
SEQEND
  0
POLYLINE
  8
Default_Layer
 62
256
 66
   1
 39
0.000000
 70
    1
  0
VERTEX
  8
0
 10
-374.81986012
 20
-165.41392187
 42
-0.33301337
  0
VERTEX
  8
0
 10
-376.97278036
 20
-163.79539912
 42
-0.18148576
  0
VERTEX
  8
0
 10
-376.94384263
 20
-159.83988336
 42
-0.24509132
  0
VERTEX
  8
0
 10
-375.18356537
 20
-158.26834490
 42
-0.29085578
  0
VERTEX
  8
0
 10
-372.96917222
 20
-159.04753585
 42
-0.19046031
  0
VERTEX
  8
0
 10
-372.27486771
 20
-161.89472595
 42
-0.14236224
  0
VERTEX
  8
0
 10
-372.97263627
 20
-164.49764342
 42
-0.23858224
  0
VERTEX
  8
0
 10
-374.77171717
 20
-165.40885895
  0
VERTEX
  8
0
 10
-374.81986012
 20
-165.41392187
  0
SEQEND
  0
POLYLINE
  8
Default_Layer
 62
256
 66
   1
 39
0.000000
 70
    1
  0
VERTEX
  8
0
 10
-374.68424619
 20
-159.08075143
 42
0.28969670
  0
VERTEX
  8
0
 10
-376.11306190
 20
-160.13091179
 42
0.14937473
  0
VERTEX
  8
0
 10
-376.34666953
 20
-162.72379359
 42
0.18858501
  0
VERTEX
  8
0
 10
-375.63456079
 20
-164.26628900
 42
0.51804322
  0
VERTEX
  8
0
 10
-373.47861782
 20
-163.51730458
 42
0.16235140
  0
VERTEX
  8
0
 10
-373.37246397
 20
-160.03456939
 42
0.31110272
  0
VERTEX
  8
0
 10
-374.63651762
 20
-159.08583696
  0
VERTEX
  8
0
 10
-374.68424619
 20
-159.08075143
  0
SEQEND
  0
POLYLINE
  8
Default_Layer
 62
256
 66
   1
 39
0.000000
 70
    1
  0
VERTEX
  8
0
 10
-366.02755712
 20
-159.04006726
 42
0.05501585
  0
VERTEX
  8
0
 10
-366.93979322
 20
-161.21453881
 42
-0.02570875
  0
VERTEX
  8
0
 10
-368.55675688
 20
-165.34652586
 42
-0.31336676
  0
VERTEX
  8
0
 10
-369.08015020
 20
-165.56621409
 42
-0.31336676
  0
VERTEX
  8
0
 10
-369.46852179
 20
-165.15224429
 42
-0.01719304
  0
VERTEX
  8
0
 10
-370.90609432
 20
-160.40672531
 42
-0.07627296
  0
VERTEX
  8
0
 10
-371.25773428
 20
-158.72589499
 42
-0.38838216
  0
VERTEX
  8
0
 10
-370.73101295
 20
-158.38164487
 42
-0.38838216
  0
VERTEX
  8
0
 10
-370.34131289
 20
-158.87568674
 42
0.02008788
  0
VERTEX
  8
0
 10
-368.92517472
 20
-163.95381191
 42
-0.00644411
  0
VERTEX
  8
0
 10
-367.12868137
 20
-159.10787422
 42
-0.19027181
  0
VERTEX
  8
0
 10
-366.52141785
 20
-158.32696402
 42
-0.31615015
  0
VERTEX
  8
0
 10
-366.02400371
 20
-158.51004272
 42
-0.31615015
  0
VERTEX
  8
0
 10
-366.02755712
 20
-159.04006726
  0
SEQEND
  0
POLYLINE
  8
Default_Layer
 62
256
 66
   1
 39
0.000000
 70
    1
  0
VERTEX
  8
0
 10
-402.54421861
 20
-165.20598051
 42
-0.24183595
  0
VERTEX
  8
0
 10
-405.88664989
 20
-165.37052541
 42
0.02575269
  0
VERTEX
  8
0
 10
-406.35807781
 20
-165.19270165
 42
-0.29096929
  0
VERTEX
  8
0
 10
-406.57100060
 20
-164.45050784
 42
0.01421340
  0
VERTEX
  8
0
 10
-406.53578856
 20
-158.79596219
 42
-0.41202593
  0
VERTEX
  8
0
 10
-405.89569082
 20
-158.22649670
 42
-0.02089759
  0
VERTEX
  8
0
 10
-403.44696402
 20
-159.33146334
 42
-0.18590765
  0
VERTEX
  8
0
 10
-401.36172602
 20
-161.63129300
 42
-0.33216945
  0
VERTEX
  8
0
 10
-402.54421861
 20
-165.20598051
  0
SEQEND
  0
POLYLINE
  8
Default_Layer
 62
256
 66
   1
 39
0.000000
 70
    1
  0
VERTEX
  8
0
 10
-403.49351611
 20
-160.42332932
 42
0.02090262
  0
VERTEX
  8
0
 10
-405.62265478
 20
-159.38362254
 42
-0.01575231
  0
VERTEX
  8
0
 10
-405.65881849
 20
-164.45106298
 42
0.19087734
  0
VERTEX
  8
0
 10
-403.81460203
 20
-164.71836867
 42
0.29714091
  0
VERTEX
  8
0
 10
-402.21805729
 20
-163.27824818
 42
0.34334241
  0
VERTEX
  8
0
 10
-403.29702174
 20
-160.57726207
  0
VERTEX
  8
0
 10
-403.49351611
 20
-160.42332932
  0
SEQEND
  0
POLYLINE
  8
Default_Layer
 62
256
 66
   1
 39
0.000000
 70
    1
  0
VERTEX
  8
0
 10
-395.73639943
 20
-160.16566286
 42
-0.28511586
  0
VERTEX
  8
0
 10
-396.27022517
 20
-159.63615211
 42
0.30249609
  0
VERTEX
  8
0
 10
-396.78166986
 20
-159.42813173
 42
0.22248663
  0
VERTEX
  8
0
 10
-398.08675832
 20
-160.15344348
 42
0.15415068
  0
VERTEX
  8
0
 10
-399.37808544
 20
-162.63905748
 42
0.45697274
  0
VERTEX
  8
0
 10
-398.16167988
 20
-164.41448832
 42
0.16297724
  0
VERTEX
  8
0
 10
-396.55947166
 20
-163.76951606
 42
-0.17449061
  0
VERTEX
  8
0
 10
-395.91806559
 20
-163.47054603
 42
-0.32747264
  0
VERTEX
  8
0
 10
-395.54676283
 20
-163.93043731
 42
-0.32747264
  0
VERTEX
  8
0
 10
-395.87396372
 20
-164.42268249
 42
-0.22334523
  0
VERTEX
  8
0
 10
-398.58692886
 20
-165.29370577
 42
-0.38809989
  0
VERTEX
  8
0
 10
-400.28504597
 20
-162.50092410
 42
-0.16054066
  0
VERTEX
  8
0
 10
-398.48028088
 20
-159.23782748
 42
-0.24519248
  0
VERTEX
  8
0
 10
-396.35778941
 20
-158.54455483
 42
0.35352839
  0
VERTEX
  8
0
 10
-396.06659880
 20
-158.48918704
 42
-0.31288726
  0
VERTEX
  8
0
 10
-395.58871506
 20
-158.41476822
 42
-0.31288726
  0
VERTEX
  8
0
 10
-395.35162815
 20
-158.83631398
 42
-0.13618140
  0
VERTEX
  8
0
 10
-395.36701292
 20
-159.94609745
 42
-0.24794622
  0
VERTEX
  8
0
 10
-395.73639943
 20
-160.16566286
  0
SEQEND
  0
CIRCLE
  8
Default_Layer
 62
256
 10
-177.870337
 20
-225.881474
 40
3.200000
  0
CIRCLE
  8
Default_Layer
 62
256
 10
-177.870337
 20
-225.881474
 40
3.200000
  0
CIRCLE
  8
Default_Layer
 62
256
 10
-157.870337
 20
-225.881474
 40
3.200000
  0
CIRCLE
  8
Default_Layer
 62
256
 10
-230.361839
 20
-225.815352
 40
3.200000
  0
CIRCLE
  8
Default_Layer
 62
256
 10
-230.361839
 20
-225.815352
 40
3.200000
  0
CIRCLE
  8
Default_Layer
 62
256
 10
-210.361839
 20
-225.815352
 40
3.200000
  0
CIRCLE
  8
Default_Layer
 62
256
 10
-230.361839
 20
-225.815352
 40
3.200000
  0
CIRCLE
  8
Default_Layer
 62
256
 10
-230.361839
 20
-225.815352
 40
3.200000
  0
CIRCLE
  8
Default_Layer
 62
256
 10
-210.361839
 20
-225.815352
 40
3.200000
  0
POLYLINE
  8
Default_Layer
 62
256
 66
   1
 39
0.000000
 70
    1
  0
VERTEX
  8
0
 10
-225.44284068
 20
-212.75510049
  0
VERTEX
  8
0
 10
-226.34241307
 20
-212.75510049
  0
VERTEX
  8
0
 10
-227.23746500
 20
-212.75058003
  0
VERTEX
  8
0
 10
-227.50643262
 20
-212.74040898
  0
VERTEX
  8
0
 10
-227.68047049
 20
-212.70989585
  0
VERTEX
  8
0
 10
-227.78133335
 20
-212.65791051
  0
VERTEX
  8
0
 10
-227.85337825
 20
-212.58332285
  0
VERTEX
  8
0
 10
-227.89660519
 20
-212.48613287
  0
VERTEX
  8
0
 10
-227.91101417
 20
-212.36634057
  0
VERTEX
  8
0
 10
-227.89992491
 20
-212.25933270
  0
VERTEX
  8
0
 10
-227.86665712
 20
-212.16659255
  0
VERTEX
  8
0
 10
-227.81121080
 20
-212.08812012
  0
VERTEX
  8
0
 10
-227.73358595
 20
-212.02391540
  0
VERTEX
  8
0
 10
-227.63378257
 20
-211.97397839
  0
VERTEX
  8
0
 10
-227.51180067
 20
-211.93830911
  0
VERTEX
  8
0
 10
-227.36764024
 20
-211.91690753
  0
VERTEX
  8
0
 10
-227.20130128
 20
-211.90977367
  0
VERTEX
  8
0
 10
-226.98431900
 20
-211.91429414
  0
VERTEX
  8
0
 10
-226.79897996
 20
-211.92333507
  0
VERTEX
  8
0
 10
-226.83966414
 20
-211.28142914
  0
VERTEX
  8
0
 10
-226.87582785
 20
-210.64404368
  0
VERTEX
  8
0
 10
-226.84983519
 20
-209.92076940
  0
VERTEX
  8
0
 10
-226.77185718
 20
-208.89914447
  0
VERTEX
  8
0
 10
-226.69839963
 20
-207.88543036
  0
VERTEX
  8
0
 10
-226.67692743
 20
-207.14972480
  0
VERTEX
  8
0
 10
-226.95239322
 20
-207.35540593
  0
VERTEX
  8
0
 10
-227.17304838
 20
-207.50232102
  0
VERTEX
  8
0
 10
-227.33889291
 20
-207.59047007
  0
VERTEX
  8
0
 10
-227.44992682
 20
-207.61985309
  0
VERTEX
  8
0
 10
-227.53751081
 20
-207.61137722
  0
VERTEX
  8
0
 10
-227.61944423
 20
-207.58594961
  0
VERTEX
  8
0
 10
-227.69572706
 20
-207.54357025
  0
VERTEX
  8
0
 10
-227.76635931
 20
-207.48423916
  0
VERTEX
  8
0
 10
-227.82371270
 20
-207.41388943
  0
VERTEX
  8
0
 10
-227.86467941
 20
-207.33845419
  0
VERTEX
  8
0
 10
-227.88925944
 20
-207.25793342
  0
VERTEX
  8
0
 10
-227.89745278
 20
-207.17232713
  0
VERTEX
  8
0
 10
-227.87315528
 20
-207.06044564
  0
VERTEX
  8
0
 10
-227.80026280
 20
-206.93726298
  0
VERTEX
  8
0
 10
-227.67877532
 20
-206.80277917
  0
VERTEX
  8
0
 10
-227.50869285
 20
-206.65699420
  0
VERTEX
  8
0
 10
-227.21373256
 20
-206.43323122
  0
VERTEX
  8
0
 10
-226.81706182
 20
-206.10549756
  0
VERTEX
  8
0
 10
-226.62042162
 20
-205.92948198
  0
VERTEX
  8
0
 10
-226.42830189
 20
-205.80375657
  0
VERTEX
  8
0
 10
-226.24070263
 20
-205.72832132
  0
VERTEX
  8
0
 10
-226.05762382
 20
-205.70317624
  0
VERTEX
  8
0
 10
-225.92511771
 20
-205.72493097
  0
VERTEX
  8
0
 10
-225.83047049
 20
-205.79019518
  0
VERTEX
  8
0
 10
-225.77368216
 20
-205.89896885
  0
VERTEX
  8
0
 10
-225.75475272
 20
-206.05125199
  0
VERTEX
  8
0
 10
-225.78187550
 20
-206.36316402
  0
VERTEX
  8
0
 10
-225.80899829
 20
-206.67055559
  0
VERTEX
  8
0
 10
-225.79543690
 20
-207.12260202
  0
VERTEX
  8
0
 10
-225.77735504
 20
-207.57464845
  0
VERTEX
  8
0
 10
-225.80447782
 20
-208.21655437
  0
VERTEX
  8
0
 10
-225.88584618
 20
-209.11160630
  0
VERTEX
  8
0
 10
-225.96721454
 20
-210.00552810
  0
VERTEX
  8
0
 10
-225.99433732
 20
-210.64404368
  0
VERTEX
  8
0
 10
-225.95817361
 20
-211.28142914
  0
VERTEX
  8
0
 10
-225.91748943
 20
-211.89621228
  0
VERTEX
  8
0
 10
-225.44284068
 20
-211.88717135
  0
VERTEX
  8
0
 10
-225.35214887
 20
-211.89508217
  0
VERTEX
  8
0
 10
-225.26993292
 20
-211.91881460
  0
VERTEX
  8
0
 10
-225.19619285
 20
-211.95836867
  0
VERTEX
  8
0
 10
-225.13092865
 20
-212.01374435
  0
VERTEX
  8
0
 10
-225.07555296
 20
-212.07872603
  0
VERTEX
  8
0
 10
-225.03599890
 20
-212.15161851
  0
VERTEX
  8
0
 10
-225.01226646
 20
-212.23242181
  0
VERTEX
  8
0
 10
-225.00435565
 20
-212.32113592
  0
VERTEX
  8
0
 10
-225.01226646
 20
-212.41182774
  0
VERTEX
  8
0
 10
-225.03599890
 20
-212.49404368
  0
VERTEX
  8
0
 10
-225.07555296
 20
-212.56778375
  0
VERTEX
  8
0
 10
-225.13092865
 20
-212.63304796
  0
VERTEX
  8
0
 10
-225.19619285
 20
-212.68644594
  0
VERTEX
  8
0
 10
-225.26993292
 20
-212.72458736
  0
VERTEX
  8
0
 10
-225.35214887
 20
-212.74747221
  0
VERTEX
  8
0
 10
-225.44284068
 20
-212.75510049
  0
SEQEND
  0
POLYLINE
  8
Default_Layer
 62
256
 66
   1
 39
0.000000
 70
    1
  0
VERTEX
  8
0
 10
-219.90075150
 20
-212.75962096
  0
VERTEX
  8
0
 10
-220.03749554
 20
-212.74266921
  0
VERTEX
  8
0
 10
-220.22170446
 20
-212.69181399
  0
VERTEX
  8
0
 10
-220.40139291
 20
-212.63756842
  0
VERTEX
  8
0
 10
-220.53361649
 20
-212.61948656
  0
VERTEX
  8
0
 10
-221.22524752
 20
-212.64660935
  0
VERTEX
  8
0
 10
-221.92139902
 20
-212.67373213
  0
VERTEX
  8
0
 10
-222.14064154
 20
-212.68503330
  0
VERTEX
  8
0
 10
-222.44577288
 20
-212.71893678
  0
VERTEX
  8
0
 10
-222.74751387
 20
-212.75284026
  0
VERTEX
  8
0
 10
-222.96562627
 20
-212.76414142
  0
VERTEX
  8
0
 10
-223.11028112
 20
-212.74605956
  0
VERTEX
  8
0
 10
-223.25493598
 20
-212.72797771
  0
VERTEX
  8
0
 10
-223.39733060
 20
-212.70904826
  0
VERTEX
  8
0
 10
-223.51260244
 20
-212.65225993
  0
VERTEX
  8
0
 10
-223.60075150
 20
-212.55761271
  0
VERTEX
  8
0
 10
-223.66177776
 20
-212.42510660
  0
VERTEX
  8
0
 10
-223.70246194
 20
-212.21038455
  0
VERTEX
  8
0
 10
-223.71602333
 20
-211.88265089
  0
VERTEX
  8
0
 10
-223.70705304
 20
-211.62576138
  0
VERTEX
  8
0
 10
-223.68014215
 20
-211.38172694
  0
VERTEX
  8
0
 10
-223.63529067
 20
-211.15054757
  0
VERTEX
  8
0
 10
-223.57249859
 20
-210.93222328
  0
VERTEX
  8
0
 10
-223.49176593
 20
-210.72675405
  0
VERTEX
  8
0
 10
-223.39309267
 20
-210.53413989
  0
VERTEX
  8
0
 10
-223.27647882
 20
-210.35438081
  0
VERTEX
  8
0
 10
-223.14192437
 20
-210.18747679
  0
VERTEX
  8
0
 10
-222.95517269
 20
-210.00948351
  0
VERTEX
  8
0
 10
-222.65710458
 20
-209.76933385
  0
VERTEX
  8
0
 10
-221.72701906
 20
-209.10256537
  0
VERTEX
  8
0
 10
-221.18795369
 20
-208.70815486
  0
VERTEX
  8
0
 10
-220.99894178
 20
-208.54739585
  0
VERTEX
  8
0
 10
-220.86361038
 20
-208.41093433
  0
VERTEX
  8
0
 10
-220.69352792
 20
-208.18462859
  0
VERTEX
  8
0
 10
-220.57204044
 20
-207.93967593
  0
VERTEX
  8
0
 10
-220.49914795
 20
-207.67607636
  0
VERTEX
  8
0
 10
-220.47485046
 20
-207.39382987
  0
VERTEX
  8
0
 10
-220.49830037
 20
-207.25313042
  0
VERTEX
  8
0
 10
-220.56865009
 20
-207.12034179
  0
VERTEX
  8
0
 10
-220.68589963
 20
-206.99546396
  0
VERTEX
  8
0
 10
-220.85004899
 20
-206.87849695
  0
VERTEX
  8
0
 10
-221.01419835
 20
-206.78950031
  0
VERTEX
  8
0
 10
-221.17665253
 20
-206.72593128
  0
VERTEX
  8
0
 10
-221.33741154
 20
-206.68778986
  0
VERTEX
  8
0
 10
-221.49647538
 20
-206.67507606
  0
VERTEX
  8
0
 10
-221.70187398
 20
-206.69005009
  0
VERTEX
  8
0
 10
-221.90218705
 20
-206.73497221
  0
VERTEX
  8
0
 10
-222.09741460
 20
-206.80984240
  0
VERTEX
  8
0
 10
-222.28755663
 20
-206.91466066
  0
VERTEX
  8
0
 10
-222.93398302
 20
-207.42095266
  0
VERTEX
  8
0
 10
-223.10915101
 20
-207.53622450
  0
VERTEX
  8
0
 10
-223.18232602
 20
-207.56504246
  0
VERTEX
  8
0
 10
-223.24589505
 20
-207.57464845
  0
VERTEX
  8
0
 10
-223.44959847
 20
-207.55148107
  0
VERTEX
  8
0
 10
-223.52962482
 20
-207.52252184
  0
VERTEX
  8
0
 10
-223.59510092
 20
-207.48197893
  0
VERTEX
  8
0
 10
-223.64602677
 20
-207.42985232
  0
VERTEX
  8
0
 10
-223.68240238
 20
-207.36614203
  0
VERTEX
  8
0
 10
-223.70422775
 20
-207.29084805
  0
VERTEX
  8
0
 10
-223.71150287
 20
-207.20397038
  0
VERTEX
  8
0
 10
-223.70076677
 20
-207.10141234
  0
VERTEX
  8
0
 10
-223.66855846
 20
-207.00620006
  0
VERTEX
  8
0
 10
-223.61487795
 20
-206.91833354
  0
VERTEX
  8
0
 10
-223.53972523
 20
-206.83781277
  0
VERTEX
  8
0
 10
-223.04586451
 20
-206.40949878
  0
VERTEX
  8
0
 10
-222.82520935
 20
-206.24704460
  0
VERTEX
  8
0
 10
-222.62207098
 20
-206.11905895
  0
VERTEX
  8
0
 10
-222.34660519
 20
-205.98259744
  0
VERTEX
  8
0
 10
-222.06718399
 20
-205.88512493
  0
VERTEX
  8
0
 10
-221.78380739
 20
-205.82664142
  0
VERTEX
  8
0
 10
-221.49647538
 20
-205.80714692
  0
VERTEX
  8
0
 10
-221.14020629
 20
-205.83200947
  0
VERTEX
  8
0
 10
-220.80371423
 20
-205.90659713
  0
VERTEX
  8
0
 10
-220.48699920
 20
-206.03090990
  0
VERTEX
  8
0
 10
-220.19006121
 20
-206.20494777
  0
VERTEX
  8
0
 10
-220.03961451
 20
-206.32078467
  0
VERTEX
  8
0
 10
-219.90922737
 20
-206.44453238
  0
VERTEX
  8
0
 10
-219.79889978
 20
-206.57619090
  0
VERTEX
  8
0
 10
-219.70863176
 20
-206.71576024
  0
VERTEX
  8
0
 10
-219.63842330
 20
-206.86324038
  0
VERTEX
  8
0
 10
-219.58827440
 20
-207.01863134
  0
VERTEX
  8
0
 10
-219.55818506
 20
-207.18193311
  0
VERTEX
  8
0
 10
-219.54815528
 20
-207.35314570
  0
VERTEX
  8
0
 10
-219.55634862
 20
-207.57916891
  0
VERTEX
  8
0
 10
-219.58092865
 20
-207.79615119
  0
VERTEX
  8
0
 10
-219.62189536
 20
-208.00409255
  0
VERTEX
  8
0
 10
-219.67924875
 20
-208.20299298
  0
VERTEX
  8
0
 10
-219.75327135
 20
-208.39313501
  0
VERTEX
  8
0
 10
-219.84424569
 20
-208.57480116
  0
VERTEX
  8
0
 10
-219.95217178
 20
-208.74799145
  0
VERTEX
  8
0
 10
-220.07704960
 20
-208.91270587
  0
VERTEX
  8
0
 10
-220.27595003
 20
-209.12205987
  0
VERTEX
  8
0
 10
-220.53361649
 20
-209.34328009
  0
VERTEX
  8
0
 10
-220.85004899
 20
-209.57636653
  0
VERTEX
  8
0
 10
-221.22524752
 20
-209.82131918
  0
VERTEX
  8
0
 10
-221.92930983
 20
-210.29031735
  0
VERTEX
  8
0
 10
-222.17200226
 20
-210.47650397
  0
VERTEX
  8
0
 10
-222.34180220
 20
-210.63048229
  0
VERTEX
  8
0
 10
-222.45926364
 20
-210.76390662
  0
VERTEX
  8
0
 10
-222.56076219
 20
-210.90425290
  0
VERTEX
  8
0
 10
-222.64629785
 20
-211.05152115
  0
VERTEX
  8
0
 10
-222.71587062
 20
-211.20571137
  0
VERTEX
  8
0
 10
-222.76948050
 20
-211.36682354
  0
VERTEX
  8
0
 10
-222.80712749
 20
-211.53485767
  0
VERTEX
  8
0
 10
-222.82881159
 20
-211.70981376
  0
VERTEX
  8
0
 10
-222.83453280
 20
-211.89169182
  0
VERTEX
  8
0
 10
-221.90331716
 20
-211.80580300
  0
VERTEX
  8
0
 10
-221.08172278
 20
-211.76511882
  0
VERTEX
  8
0
 10
-220.53361649
 20
-211.75155743
  0
VERTEX
  8
0
 10
-220.36409908
 20
-211.75890318
  0
VERTEX
  8
0
 10
-220.19910214
 20
-211.78094044
  0
VERTEX
  8
0
 10
-220.03862566
 20
-211.81766921
  0
VERTEX
  8
0
 10
-219.88266964
 20
-211.86908950
  0
VERTEX
  8
0
 10
-219.70467636
 20
-211.95582590
  0
VERTEX
  8
0
 10
-219.57753830
 20
-212.05781888
  0
VERTEX
  8
0
 10
-219.50125547
 20
-212.17506842
  0
VERTEX
  8
0
 10
-219.47582785
 20
-212.30757453
  0
VERTEX
  8
0
 10
-219.48345614
 20
-212.39346335
  0
VERTEX
  8
0
 10
-219.50634099
 20
-212.47483171
  0
VERTEX
  8
0
 10
-219.54448241
 20
-212.55167960
  0
VERTEX
  8
0
 10
-219.59788039
 20
-212.62400703
  0
VERTEX
  8
0
 10
-219.66257953
 20
-212.68333812
  0
VERTEX
  8
0
 10
-219.73462443
 20
-212.72571747
  0
VERTEX
  8
0
 10
-219.81401509
 20
-212.75114509
  0
VERTEX
  8
0
 10
-219.90075150
 20
-212.75962096
  0
SEQEND
  0
POLYLINE
  8
Default_Layer
 62
256
 66
   1
 39
0.000000
 70
    1
  0
VERTEX
  8
0
 10
-212.90307281
 20
-206.55302352
  0
VERTEX
  8
0
 10
-213.15734893
 20
-206.98359774
  0
VERTEX
  8
0
 10
-213.35963971
 20
-207.43451405
  0
VERTEX
  8
0
 10
-213.70319499
 20
-208.42449573
  0
VERTEX
  8
0
 10
-214.91919988
 20
-211.71087325
  0
VERTEX
  8
0
 10
-215.14974355
 20
-212.28271198
  0
VERTEX
  8
0
 10
-215.41645095
 20
-212.84098931
  0
VERTEX
  8
0
 10
-215.49612413
 20
-212.95965150
  0
VERTEX
  8
0
 10
-215.59048882
 20
-213.04441020
  0
VERTEX
  8
0
 10
-215.69954502
 20
-213.09526543
  0
VERTEX
  8
0
 10
-215.82329273
 20
-213.11221717
  0
VERTEX
  8
0
 10
-215.98433427
 20
-213.09017991
  0
VERTEX
  8
0
 10
-216.11938314
 20
-213.02406812
  0
VERTEX
  8
0
 10
-216.22843934
 20
-212.91388180
  0
VERTEX
  8
0
 10
-216.31150287
 20
-212.75962096
  0
VERTEX
  8
0
 10
-216.59261924
 20
-211.99707514
  0
VERTEX
  8
0
 10
-216.88899218
 20
-211.08365883
  0
VERTEX
  8
0
 10
-217.20062168
 20
-210.01937203
  0
VERTEX
  8
0
 10
-217.52750776
 20
-208.80421473
  0
VERTEX
  8
0
 10
-217.88462443
 20
-207.56108705
  0
VERTEX
  8
0
 10
-218.08465498
 20
-206.78356720
  0
VERTEX
  8
0
 10
-218.13466261
 20
-206.51685981
  0
VERTEX
  8
0
 10
-218.15133183
 20
-206.33152077
  0
VERTEX
  8
0
 10
-218.14229090
 20
-206.23433079
  0
VERTEX
  8
0
 10
-218.11516811
 20
-206.14618174
  0
VERTEX
  8
0
 10
-218.06996347
 20
-206.06707361
  0
VERTEX
  8
0
 10
-218.00667697
 20
-205.99700642
  0
VERTEX
  8
0
 10
-217.93773989
 20
-205.94360843
  0
VERTEX
  8
0
 10
-217.86202211
 20
-205.90546702
  0
VERTEX
  8
0
 10
-217.77952364
 20
-205.88258217
  0
VERTEX
  8
0
 10
-217.69024447
 20
-205.87495388
  0
VERTEX
  8
0
 10
-217.53372340
 20
-205.89812126
  0
VERTEX
  8
0
 10
-217.40771545
 20
-205.96762340
  0
VERTEX
  8
0
 10
-217.31222065
 20
-206.08346030
  0
VERTEX
  8
0
 10
-217.24723897
 20
-206.24563195
  0
VERTEX
  8
0
 10
-217.07998179
 20
-207.03219273
  0
VERTEX
  8
0
 10
-216.64601723
 20
-208.56915058
  0
VERTEX
  8
0
 10
-216.21770324
 20
-210.13436133
  0
VERTEX
  8
0
 10
-215.80069041
 20
-211.46676818
  0
VERTEX
  8
0
 10
-215.77356762
 20
-211.39444075
  0
VERTEX
  8
0
 10
-214.56208320
 20
-208.11258369
  0
VERTEX
  8
0
 10
-214.17784374
 20
-207.00506995
  0
VERTEX
  8
0
 10
-214.04703280
 20
-206.69089768
  0
VERTEX
  8
0
 10
-213.91226646
 20
-206.41740959
  0
VERTEX
  8
0
 10
-213.77354471
 20
-206.18460568
  0
VERTEX
  8
0
 10
-213.63086756
 20
-205.99248595
  0
VERTEX
  8
0
 10
-213.55288955
 20
-205.91337783
  0
VERTEX
  8
0
 10
-213.46813085
 20
-205.85687203
  0
VERTEX
  8
0
 10
-213.37659145
 20
-205.82296854
  0
VERTEX
  8
0
 10
-213.27827135
 20
-205.81166738
  0
VERTEX
  8
0
 10
-213.19040482
 20
-205.82042578
  0
VERTEX
  8
0
 10
-213.10762382
 20
-205.84670098
  0
VERTEX
  8
0
 10
-213.02992834
 20
-205.89049298
  0
VERTEX
  8
0
 10
-212.95731839
 20
-205.95180177
  0
VERTEX
  8
0
 10
-212.89403189
 20
-206.02328162
  0
VERTEX
  8
0
 10
-212.84882724
 20
-206.10210721
  0
VERTEX
  8
0
 10
-212.82170446
 20
-206.18827856
  0
VERTEX
  8
0
 10
-212.81266353
 20
-206.28179567
  0
VERTEX
  8
0
 10
-212.83526585
 20
-206.41740959
  0
VERTEX
  8
0
 10
-212.90307281
 20
-206.55302352
  0
SEQEND
  0
POLYLINE
  8
Default_Layer
 62
256
 66
   1
 39
0.000000
 70
    1
  0
VERTEX
  8
0
 10
-171.43698295
 20
-212.96756231
  0
VERTEX
  8
0
 10
-171.74734107
 20
-212.95272954
  0
VERTEX
  8
0
 10
-172.03650952
 20
-212.90823122
  0
VERTEX
  8
0
 10
-172.30448830
 20
-212.83406735
  0
VERTEX
  8
0
 10
-172.55127739
 20
-212.73023794
  0
VERTEX
  8
0
 10
-172.77687681
 20
-212.59674298
  0
VERTEX
  8
0
 10
-172.98128655
 20
-212.43358247
  0
VERTEX
  8
0
 10
-173.16450662
 20
-212.24075642
  0
VERTEX
  8
0
 10
-173.32653701
 20
-212.01826482
  0
VERTEX
  8
0
 10
-173.38756328
 20
-211.88943159
  0
VERTEX
  8
0
 10
-173.40790537
 20
-211.76511882
  0
VERTEX
  8
0
 10
-173.39914697
 20
-211.68007758
  0
VERTEX
  8
0
 10
-173.37287177
 20
-211.60125199
  0
VERTEX
  8
0
 10
-173.32907977
 20
-211.52864203
  0
VERTEX
  8
0
 10
-173.26777098
 20
-211.46224771
  0
VERTEX
  8
0
 10
-173.19544355
 20
-211.40489432
  0
VERTEX
  8
0
 10
-173.11859566
 20
-211.36392761
  0
VERTEX
  8
0
 10
-173.03722730
 20
-211.33934759
  0
VERTEX
  8
0
 10
-172.95133848
 20
-211.33115425
  0
VERTEX
  8
0
 10
-172.85979908
 20
-211.34358553
  0
VERTEX
  8
0
 10
-172.77051991
 20
-211.38087936
  0
VERTEX
  8
0
 10
-172.68350097
 20
-211.44303574
  0
VERTEX
  8
0
 10
-172.59874227
 20
-211.53005468
  0
VERTEX
  8
0
 10
-172.38854068
 20
-211.76737905
  0
VERTEX
  8
0
 10
-172.23710512
 20
-211.90073275
  0
VERTEX
  8
0
 10
-172.07691117
 20
-211.98775168
  0
VERTEX
  8
0
 10
-171.89015949
 20
-212.04990807
  0
VERTEX
  8
0
 10
-171.67685008
 20
-212.08720190
  0
VERTEX
  8
0
 10
-171.43698295
 20
-212.09963317
  0
VERTEX
  8
0
 10
-171.24564017
 20
-212.09030972
  0
VERTEX
  8
0
 10
-171.06263200
 20
-212.06233934
  0
VERTEX
  8
0
 10
-170.88795844
 20
-212.01572206
  0
VERTEX
  8
0
 10
-170.72161948
 20
-211.95045785
  0
VERTEX
  8
0
 10
-170.56361513
 20
-211.86654673
  0
VERTEX
  8
0
 10
-170.41394538
 20
-211.76398870
  0
VERTEX
  8
0
 10
-170.27261024
 20
-211.64278375
  0
VERTEX
  8
0
 10
-170.13960971
 20
-211.50293189
  0
VERTEX
  8
0
 10
-170.02412597
 20
-211.35693502
  0
VERTEX
  8
0
 10
-169.92404007
 20
-211.20373366
  0
VERTEX
  8
0
 10
-169.83935199
 20
-211.04332781
  0
VERTEX
  8
0
 10
-169.77006175
 20
-210.87571747
  0
VERTEX
  8
0
 10
-169.71616934
 20
-210.70090265
  0
VERTEX
  8
0
 10
-169.67767476
 20
-210.51888333
  0
VERTEX
  8
0
 10
-169.65457802
 20
-210.32965952
  0
VERTEX
  8
0
 10
-169.64687910
 20
-210.13323122
  0
VERTEX
  8
0
 10
-169.66044049
 20
-209.81877642
  0
VERTEX
  8
0
 10
-169.70112467
 20
-209.53539982
  0
VERTEX
  8
0
 10
-169.76893164
 20
-209.28310141
  0
VERTEX
  8
0
 10
-169.86386139
 20
-209.06188119
  0
VERTEX
  8
0
 10
-169.93866094
 20
-208.94004055
  0
VERTEX
  8
0
 10
-170.02292522
 20
-208.83444533
  0
VERTEX
  8
0
 10
-170.11665422
 20
-208.74509553
  0
VERTEX
  8
0
 10
-170.21984795
 20
-208.67199115
  0
VERTEX
  8
0
 10
-170.33250639
 20
-208.61513218
  0
VERTEX
  8
0
 10
-170.45462956
 20
-208.57451863
  0
VERTEX
  8
0
 10
-170.58621745
 20
-208.55015051
  0
VERTEX
  8
0
 10
-170.72727006
 20
-208.54202780
  0
VERTEX
  8
0
 10
-170.95809627
 20
-208.55022114
  0
VERTEX
  8
0
 10
-171.16688521
 20
-208.57480116
  0
VERTEX
  8
0
 10
-171.35363689
 20
-208.61576787
  0
VERTEX
  8
0
 10
-171.51835131
 20
-208.67312126
  0
VERTEX
  8
0
 10
-171.64068637
 20
-208.73443006
  0
VERTEX
  8
0
 10
-171.76358649
 20
-208.81438577
  0
VERTEX
  8
0
 10
-172.01108191
 20
-209.03023794
  0
VERTEX
  8
0
 10
-172.50381252
 20
-209.56817319
  0
VERTEX
  8
0
 10
-172.60382779
 20
-209.65716983
  0
VERTEX
  8
0
 10
-172.70497318
 20
-209.72073885
  0
VERTEX
  8
0
 10
-172.80724868
 20
-209.75888027
  0
VERTEX
  8
0
 10
-172.91065430
 20
-209.77159408
  0
VERTEX
  8
0
 10
-172.99767324
 20
-209.76368327
  0
VERTEX
  8
0
 10
-173.07791148
 20
-209.73995083
  0
VERTEX
  8
0
 10
-173.15136902
 20
-209.70039677
  0
VERTEX
  8
0
 10
-173.21804587
 20
-209.64502108
  0
VERTEX
  8
0
 10
-173.27342156
 20
-209.57636653
  0
VERTEX
  8
0
 10
-173.31297562
 20
-209.50149634
  0
VERTEX
  8
0
 10
-173.33670806
 20
-209.42041051
  0
VERTEX
  8
0
 10
-173.34461887
 20
-209.33310904
  0
VERTEX
  8
0
 10
-173.27229144
 20
-208.52846640
  0
VERTEX
  8
0
 10
-173.15701960
 20
-207.34862523
  0
VERTEX
  8
0
 10
-173.11859566
 20
-206.65699420
  0
VERTEX
  8
0
 10
-173.13893775
 20
-206.49199725
  0
VERTEX
  8
0
 10
-173.19996401
 20
-206.31343892
  0
VERTEX
  8
0
 10
-173.25759993
 20
-206.14844197
  0
VERTEX
  8
0
 10
-173.27681191
 20
-206.03317013
  0
VERTEX
  8
0
 10
-173.26939552
 20
-205.96854162
  0
VERTEX
  8
0
 10
-173.24714636
 20
-205.91253024
  0
VERTEX
  8
0
 10
-173.21006443
 20
-205.86513600
  0
VERTEX
  8
0
 10
-173.15814972
 20
-205.82635889
  0
VERTEX
  8
0
 10
-173.00982198
 20
-205.77465608
  0
VERTEX
  8
0
 10
-172.80216316
 20
-205.75742181
  0
VERTEX
  8
0
 10
-172.53093530
 20
-205.77550367
  0
VERTEX
  8
0
 10
-172.25518698
 20
-205.78906506
  0
VERTEX
  8
0
 10
-171.46862620
 20
-205.77098320
  0
VERTEX
  8
0
 10
-170.68206542
 20
-205.75290135
  0
VERTEX
  8
0
 10
-170.31138735
 20
-205.76194228
  0
VERTEX
  8
0
 10
-169.94070928
 20
-205.77098320
  0
VERTEX
  8
0
 10
-169.69208374
 20
-205.73933995
  0
VERTEX
  8
0
 10
-169.44797867
 20
-205.70317624
  0
VERTEX
  8
0
 10
-169.36237238
 20
-205.71136958
  0
VERTEX
  8
0
 10
-169.28185161
 20
-205.73594961
  0
VERTEX
  8
0
 10
-169.20641636
 20
-205.77691631
  0
VERTEX
  8
0
 10
-169.13606664
 20
-205.83426970
  0
VERTEX
  8
0
 10
-169.07673555
 20
-205.90235920
  0
VERTEX
  8
0
 10
-169.03435619
 20
-205.97553421
  0
VERTEX
  8
0
 10
-169.00892858
 20
-206.05379475
  0
VERTEX
  8
0
 10
-169.00045271
 20
-206.13714081
  0
VERTEX
  8
0
 10
-169.01719256
 20
-206.25580300
  0
VERTEX
  8
0
 10
-169.06741209
 20
-206.35864356
  0
VERTEX
  8
0
 10
-169.15111131
 20
-206.44566250
  0
VERTEX
  8
0
 10
-169.26829022
 20
-206.51685981
  0
VERTEX
  8
0
 10
-169.41894882
 20
-206.57223549
  0
VERTEX
  8
0
 10
-169.60308710
 20
-206.61178956
  0
VERTEX
  8
0
 10
-169.82070508
 20
-206.63552199
  0
VERTEX
  8
0
 10
-170.07180274
 20
-206.64343281
  0
VERTEX
  8
0
 10
-170.42439895
 20
-206.63439188
  0
VERTEX
  8
0
 10
-170.68206542
 20
-206.62535095
  0
VERTEX
  8
0
 10
-171.44602388
 20
-206.63891234
  0
VERTEX
  8
0
 10
-172.20998234
 20
-206.66151466
  0
VERTEX
  8
0
 10
-172.25179663
 20
-207.13955376
  0
VERTEX
  8
0
 10
-172.37723952
 20
-208.16682926
  0
VERTEX
  8
0
 10
-172.21598608
 20
-208.05134553
  0
VERTEX
  8
0
 10
-172.04187757
 20
-207.95125962
  0
VERTEX
  8
0
 10
-171.85491400
 20
-207.86657155
  0
VERTEX
  8
0
 10
-171.65509535
 20
-207.79728131
  0
VERTEX
  8
0
 10
-171.44242163
 20
-207.74338890
  0
VERTEX
  8
0
 10
-171.21689285
 20
-207.70489432
  0
VERTEX
  8
0
 10
-170.97850899
 20
-207.68179757
  0
VERTEX
  8
0
 10
-170.72727006
 20
-207.67409866
  0
VERTEX
  8
0
 10
-170.48599028
 20
-207.68624741
  0
VERTEX
  8
0
 10
-170.25940201
 20
-207.72269365
  0
VERTEX
  8
0
 10
-170.04750525
 20
-207.78343739
  0
VERTEX
  8
0
 10
-169.85029999
 20
-207.86847862
  0
VERTEX
  8
0
 10
-169.66778625
 20
-207.97781735
  0
VERTEX
  8
0
 10
-169.49996401
 20
-208.11145358
  0
VERTEX
  8
0
 10
-169.34683329
 20
-208.26938730
  0
VERTEX
  8
0
 10
-169.20839407
 20
-208.45161851
  0
VERTEX
  8
0
 10
-169.10456465
 20
-208.62226604
  0
VERTEX
  8
0
 10
-169.01457916
 20
-208.80421473
  0
VERTEX
  8
0
 10
-168.93843759
 20
-208.99746457
  0
VERTEX
  8
0
 10
-168.87613994
 20
-209.20201558
  0
VERTEX
  8
0
 10
-168.82768622
 20
-209.41786775
  0
VERTEX
  8
0
 10
-168.79307641
 20
-209.64502108
  0
VERTEX
  8
0
 10
-168.76538857
 20
-210.13323122
  0
VERTEX
  8
0
 10
-168.77654847
 20
-210.43165249
  0
VERTEX
  8
0
 10
-168.81002815
 20
-210.71665364
  0
VERTEX
  8
0
 10
-168.86582764
 20
-210.98823465
  0
VERTEX
  8
0
 10
-168.94394691
 20
-211.24639554
  0
VERTEX
  8
0
 10
-169.04438597
 20
-211.49113630
  0
VERTEX
  8
0
 10
-169.16714483
 20
-211.72245694
  0
VERTEX
  8
0
 10
-169.31222348
 20
-211.94035744
  0
VERTEX
  8
0
 10
-169.47962192
 20
-212.14483782
  0
VERTEX
  8
0
 10
-169.67237735
 20
-212.33766387
  0
VERTEX
  8
0
 10
-169.87996554
 20
-212.50477978
  0
VERTEX
  8
0
 10
-170.10238651
 20
-212.64618556
  0
VERTEX
  8
0
 10
-170.33964025
 20
-212.76188119
  0
VERTEX
  8
0
 10
-170.59172676
 20
-212.85186668
  0
VERTEX
  8
0
 10
-170.85864605
 20
-212.91614203
  0
VERTEX
  8
0
 10
-171.14039811
 20
-212.95470724
  0
VERTEX
  8
0
 10
-171.43698295
 20
-212.96756231
  0
SEQEND
  0
POLYLINE
  8
Default_Layer
 62
256
 66
   1
 39
0.000000
 70
    1
  0
VERTEX
  8
0
 10
-162.42317721
 20
-206.48521656
  0
VERTEX
  8
0
 10
-162.67745332
 20
-206.91579078
  0
VERTEX
  8
0
 10
-162.87974410
 20
-207.36670709
  0
VERTEX
  8
0
 10
-163.22329938
 20
-208.35668876
  0
VERTEX
  8
0
 10
-164.43930427
 20
-211.64306628
  0
VERTEX
  8
0
 10
-164.66984795
 20
-212.21490501
  0
VERTEX
  8
0
 10
-164.93655534
 20
-212.77318235
  0
VERTEX
  8
0
 10
-165.01622852
 20
-212.89184454
  0
VERTEX
  8
0
 10
-165.11059321
 20
-212.97660324
  0
VERTEX
  8
0
 10
-165.21964941
 20
-213.02745846
  0
VERTEX
  8
0
 10
-165.34339712
 20
-213.04441020
  0
VERTEX
  8
0
 10
-165.50443866
 20
-213.02237294
  0
VERTEX
  8
0
 10
-165.63948753
 20
-212.95626115
  0
VERTEX
  8
0
 10
-165.74854373
 20
-212.84607484
  0
VERTEX
  8
0
 10
-165.83160726
 20
-212.69181399
  0
VERTEX
  8
0
 10
-166.11272363
 20
-211.92926818
  0
VERTEX
  8
0
 10
-166.40909657
 20
-211.01585187
  0
VERTEX
  8
0
 10
-166.72072608
 20
-209.95156506
  0
VERTEX
  8
0
 10
-167.04761215
 20
-208.73640776
  0
VERTEX
  8
0
 10
-167.40472883
 20
-207.49328009
  0
VERTEX
  8
0
 10
-167.60475937
 20
-206.71576024
  0
VERTEX
  8
0
 10
-167.65476701
 20
-206.44905284
  0
VERTEX
  8
0
 10
-167.67143622
 20
-206.26371381
  0
VERTEX
  8
0
 10
-167.66239529
 20
-206.16652383
  0
VERTEX
  8
0
 10
-167.63527250
 20
-206.07837477
  0
VERTEX
  8
0
 10
-167.59006786
 20
-205.99926665
  0
VERTEX
  8
0
 10
-167.52678136
 20
-205.92919945
  0
VERTEX
  8
0
 10
-167.45784428
 20
-205.87580147
  0
VERTEX
  8
0
 10
-167.38212651
 20
-205.83766005
  0
VERTEX
  8
0
 10
-167.29962803
 20
-205.81477520
  0
VERTEX
  8
0
 10
-167.21034886
 20
-205.80714692
  0
VERTEX
  8
0
 10
-167.05382779
 20
-205.83031430
  0
VERTEX
  8
0
 10
-166.92781985
 20
-205.89981644
  0
VERTEX
  8
0
 10
-166.83232504
 20
-206.01565333
  0
VERTEX
  8
0
 10
-166.76734337
 20
-206.17782499
  0
VERTEX
  8
0
 10
-166.60008619
 20
-206.96438577
  0
VERTEX
  8
0
 10
-166.16612162
 20
-208.50134362
  0
VERTEX
  8
0
 10
-165.73780763
 20
-210.06655437
  0
VERTEX
  8
0
 10
-165.32079480
 20
-211.39896121
  0
VERTEX
  8
0
 10
-165.29367202
 20
-211.32663378
  0
VERTEX
  8
0
 10
-164.08218759
 20
-208.04477673
  0
VERTEX
  8
0
 10
-163.69794813
 20
-206.93726298
  0
VERTEX
  8
0
 10
-163.56713720
 20
-206.62309072
  0
VERTEX
  8
0
 10
-163.43237085
 20
-206.34960263
  0
VERTEX
  8
0
 10
-163.29364911
 20
-206.11679872
  0
VERTEX
  8
0
 10
-163.15097195
 20
-205.92467899
  0
VERTEX
  8
0
 10
-163.07299395
 20
-205.84557086
  0
VERTEX
  8
0
 10
-162.98823524
 20
-205.78906506
  0
VERTEX
  8
0
 10
-162.89669584
 20
-205.75516158
  0
VERTEX
  8
0
 10
-162.79837574
 20
-205.74386042
  0
VERTEX
  8
0
 10
-162.71050922
 20
-205.75261882
  0
VERTEX
  8
0
 10
-162.62772822
 20
-205.77889402
  0
VERTEX
  8
0
 10
-162.55003274
 20
-205.82268601
  0
VERTEX
  8
0
 10
-162.47742278
 20
-205.88399481
  0
VERTEX
  8
0
 10
-162.41413628
 20
-205.95547465
  0
VERTEX
  8
0
 10
-162.36893164
 20
-206.03430025
  0
VERTEX
  8
0
 10
-162.34180885
 20
-206.12047160
  0
VERTEX
  8
0
 10
-162.33276792
 20
-206.21398870
  0
VERTEX
  8
0
 10
-162.35537024
 20
-206.34960263
  0
VERTEX
  8
0
 10
-162.42317721
 20
-206.48521656
  0
SEQEND
  0
POLYLINE
  8
Default_Layer
 62
256
 66
   1
 39
0.000000
 70
    1
  0
VERTEX
  8
0
 10
-435.94198639
 20
-227.23762376
  0
VERTEX
  8
0
 10
-435.94198639
 20
-182.23762376
  0
VERTEX
  8
0
 10
-365.94198639
 20
-182.23762376
  0
VERTEX
  8
0
 10
-365.94198639
 20
-227.23762376
  0
VERTEX
  8
0
 10
-435.94198639
 20
-227.23762376
  0
SEQEND
  0
POLYLINE
  8
Default_Layer
 62
256
 66
   1
 39
0.000000
 70
    1
  0
VERTEX
  8
0
 10
-435.94198639
 20
-227.23762376
  0
VERTEX
  8
0
 10
-435.94198639
 20
-182.23762376
  0
VERTEX
  8
0
 10
-365.94198639
 20
-182.23762376
  0
VERTEX
  8
0
 10
-365.94198639
 20
-227.23762376
  0
VERTEX
  8
0
 10
-435.94198639
 20
-227.23762376
  0
SEQEND
  0
POLYLINE
  8
Default_Layer
 62
256
 66
   1
 39
0.000000
 70
    1
  0
VERTEX
  8
0
 10
-311.94142547
 20
-196.45989588
  0
VERTEX
  8
0
 10
-311.94142547
 20
-169.45989588
  0
VERTEX
  8
0
 10
-265.94142547
 20
-169.45989588
  0
VERTEX
  8
0
 10
-265.94142547
 20
-196.45989588
  0
VERTEX
  8
0
 10
-311.94142547
 20
-196.45989588
  0
SEQEND
  0
CIRCLE
  8
Default_Layer
 62
256
 10
-278.941425
 20
-225.815352
 40
3.200000
  0
CIRCLE
  8
Default_Layer
 62
256
 10
-298.941425
 20
-225.815352
 40
3.200000
  0
POLYLINE
  8
Default_Layer
 62
256
 66
   1
 39
0.000000
 70
    1
  0
VERTEX
  8
0
 10
-296.77651247
 20
-207.50583304
 42
0.03002111
  0
VERTEX
  8
0
 10
-297.58250467
 20
-209.55043433
 42
-0.10563429
  0
VERTEX
  8
0
 10
-298.03266396
 20
-210.49459297
 42
-0.47710013
  0
VERTEX
  8
0
 10
-298.41491142
 20
-210.14750295
 42
-0.04350240
  0
VERTEX
  8
0
 10
-299.17837999
 20
-207.38210497
 42
-0.39842814
  0
VERTEX
  8
0
 10
-298.92783234
 20
-207.21959350
 42
-0.39842814
  0
VERTEX
  8
0
 10
-298.75198793
 20
-207.46097049
 42
0.01454102
  0
VERTEX
  8
0
 10
-298.10785028
 20
-209.76349950
 42
-0.03040220
  0
VERTEX
  8
0
 10
-297.16262120
 20
-207.32638283
 42
-0.41421356
  0
VERTEX
  8
0
 10
-296.90061143
 20
-207.18151416
 42
-0.41421356
  0
VERTEX
  8
0
 10
-296.75574277
 20
-207.44352394
  0
VERTEX
  8
0
 10
-296.77651247
 20
-207.50583304
  0
SEQEND
  0
POLYLINE
  8
Default_Layer
 62
256
 66
   1
 39
0.000000
 70
    1
  0
VERTEX
  8
0
 10
-294.81377575
 20
-210.49043903
 42
0.04150716
  0
VERTEX
  8
0
 10
-295.11818168
 20
-210.25768857
 42
-0.39955931
  0
VERTEX
  8
0
 10
-296.44822138
 20
-210.12882370
 42
-0.38574121
  0
VERTEX
  8
0
 10
-296.07231576
 20
-208.37478539
 42
-0.36517764
  0
VERTEX
  8
0
 10
-294.81021523
 20
-208.45018682
 42
-0.19056869
  0
VERTEX
  8
0
 10
-294.81641917
 20
-208.77656109
 42
0.14454174
  0
VERTEX
  8
0
 10
-294.62061754
 20
-210.29935778
 42
-0.29252290
  0
VERTEX
  8
0
 10
-294.81377575
 20
-210.49043903
  0
SEQEND
  0
POLYLINE
  8
Default_Layer
 62
256
 66
   1
 39
0.000000
 70
    1
  0
VERTEX
  8
0
 10
-295.24578553
 20
-209.04694483
 42
0.09056203
  0
VERTEX
  8
0
 10
-295.22224653
 20
-208.61978132
 42
0.40829271
  0
VERTEX
  8
0
 10
-296.08903537
 20
-208.99765388
 42
0.36632853
  0
VERTEX
  8
0
 10
-295.95727759
 20
-210.04350103
 42
0.37147283
  0
VERTEX
  8
0
 10
-295.18127728
 20
-209.84725027
  0
VERTEX
  8
0
 10
-295.24578553
 20
-209.04694483
  0
SEQEND
  0
POLYLINE
  8
Default_Layer
 62
256
 66
   1
 39
0.000000
 70
    1
  0
VERTEX
  8
0
 10
-292.64334203
 20
-208.81847812
 42
-0.32561013
  0
VERTEX
  8
0
 10
-292.74954882
 20
-209.03833644
 42
-0.32561013
  0
VERTEX
  8
0
 10
-292.99138287
 20
-209.00466365
 42
-0.07732061
  0
VERTEX
  8
0
 10
-293.04212029
 20
-208.55262595
 42
0.33528135
  0
VERTEX
  8
0
 10
-293.87471437
 20
-209.21879153
 42
-0.05189212
  0
VERTEX
  8
0
 10
-293.90754921
 20
-210.39512094
 42
-0.38497921
  0
VERTEX
  8
0
 10
-294.17885479
 20
-210.44845145
 42
-0.38497921
  0
VERTEX
  8
0
 10
-294.25922474
 20
-210.18389233
 42
-0.04214622
  0
VERTEX
  8
0
 10
-294.20967417
 20
-208.27861426
 42
-0.34215718
  0
VERTEX
  8
0
 10
-293.96496428
 20
-208.24848995
 42
-0.34215718
  0
VERTEX
  8
0
 10
-293.87474926
 20
-208.47794944
 42
0.36182605
  0
VERTEX
  8
0
 10
-293.88128519
 20
-208.51927718
 42
0.36182605
  0
VERTEX
  8
0
 10
-293.84182457
 20
-208.53318976
 42
-0.30869373
  0
VERTEX
  8
0
 10
-292.79392236
 20
-208.22758014
 42
-0.22590990
  0
VERTEX
  8
0
 10
-292.64334203
 20
-208.81847812
  0
SEQEND
  0
POLYLINE
  8
Default_Layer
 62
256
 66
   1
 39
0.000000
 70
    1
  0
VERTEX
  8
0
 10
-291.81878492
 20
-207.72391490
 42
-0.40874575
  0
VERTEX
  8
0
 10
-292.05524867
 20
-207.48298637
 42
-0.40874575
  0
VERTEX
  8
0
 10
-291.81878492
 20
-207.24205784
 42
-0.40689550
  0
VERTEX
  8
0
 10
-291.58381728
 20
-207.48298637
 42
-0.40689550
  0
VERTEX
  8
0
 10
-291.81878492
 20
-207.72391490
  0
SEQEND
  0
POLYLINE
  8
Default_Layer
 62
256
 66
   1
 39
0.000000
 70
    1
  0
VERTEX
  8
0
 10
-291.72532126
 20
-209.41041459
 42
-0.08163603
  0
VERTEX
  8
0
 10
-291.75884949
 20
-210.28422557
 42
-0.35334371
  0
VERTEX
  8
0
 10
-292.05181570
 20
-210.29207745
 42
-0.35334371
  0
VERTEX
  8
0
 10
-292.12119176
 20
-210.00733579
 42
-0.05930812
  0
VERTEX
  8
0
 10
-292.05081214
 20
-208.32801648
 42
-0.38619403
  0
VERTEX
  8
0
 10
-291.76535280
 20
-208.27894253
 42
-0.38619403
  0
VERTEX
  8
0
 10
-291.68897429
 20
-208.55833762
  0
VERTEX
  8
0
 10
-291.72532126
 20
-209.41041459
  0
SEQEND
  0
POLYLINE
  8
Default_Layer
 62
256
 66
   1
 39
0.000000
 70
    1
  0
VERTEX
  8
0
 10
-289.40119176
 20
-210.49043903
 42
0.04150716
  0
VERTEX
  8
0
 10
-289.70559768
 20
-210.25768857
 42
-0.39955931
  0
VERTEX
  8
0
 10
-291.03563739
 20
-210.12882370
 42
-0.38574121
  0
VERTEX
  8
0
 10
-290.65973177
 20
-208.37478539
 42
-0.36517764
  0
VERTEX
  8
0
 10
-289.39763124
 20
-208.45018682
 42
-0.19056869
  0
VERTEX
  8
0
 10
-289.40383517
 20
-208.77656109
 42
0.14454174
  0
VERTEX
  8
0
 10
-289.20803354
 20
-210.29935778
 42
-0.29252290
  0
VERTEX
  8
0
 10
-289.40119176
 20
-210.49043903
  0
SEQEND
  0
POLYLINE
  8
Default_Layer
 62
256
 66
   1
 39
0.000000
 70
    1
  0
VERTEX
  8
0
 10
-289.83320153
 20
-209.04694483
 42
0.09056203
  0
VERTEX
  8
0
 10
-289.80966254
 20
-208.61978132
 42
0.40829271
  0
VERTEX
  8
0
 10
-290.67645138
 20
-208.99765388
 42
0.36632853
  0
VERTEX
  8
0
 10
-290.54469359
 20
-210.04350103
 42
0.37147283
  0
VERTEX
  8
0
 10
-289.76869328
 20
-209.84725027
  0
VERTEX
  8
0
 10
-289.83320153
 20
-209.04694483
  0
SEQEND
  0
POLYLINE
  8
Default_Layer
 62
256
 66
   1
 39
0.000000
 70
    1
  0
VERTEX
  8
0
 10
-287.87669573
 20
-210.44059174
  0
VERTEX
  8
0
 10
-288.46883989
 20
-210.33092772
 42
-0.36804635
  0
VERTEX
  8
0
 10
-288.73970189
 20
-210.34981377
 42
-0.36804635
  0
VERTEX
  8
0
 10
-288.80154083
 20
-210.08542986
 42
-0.02296179
  0
VERTEX
  8
0
 10
-288.78225468
 20
-207.29855143
 42
-0.37100503
  0
VERTEX
  8
0
 10
-288.65373874
 20
-207.09791944
 42
-0.37100503
  0
VERTEX
  8
0
 10
-288.43617954
 20
-207.19506639
 42
-0.01503701
  0
VERTEX
  8
0
 10
-288.44786250
 20
-208.41762290
 42
-0.58705037
  0
VERTEX
  8
0
 10
-286.85482646
 20
-209.01821341
 42
-0.48649100
  0
VERTEX
  8
0
 10
-287.87669573
 20
-210.44059174
  0
SEQEND
  0
POLYLINE
  8
Default_Layer
 62
256
 66
   1
 39
0.000000
 70
    1
  0
VERTEX
  8
0
 10
-287.79777087
 20
-208.56508777
 42
0.20707135
  0
VERTEX
  8
0
 10
-288.44606246
 20
-208.89020282
 42
0.06178608
  0
VERTEX
  8
0
 10
-288.42421699
 20
-209.89914162
 42
0.30216865
  0
VERTEX
  8
0
 10
-287.44242017
 20
-209.87744963
 42
0.53170997
  0
VERTEX
  8
0
 10
-287.58875215
 20
-208.61096993
  0
VERTEX
  8
0
 10
-287.79777087
 20
-208.56508777
  0
SEQEND
  0
POLYLINE
  8
Default_Layer
 62
256
 66
   1
 39
0.000000
 70
    1
  0
VERTEX
  8
0
 10
-285.79557172
 20
-208.72086053
 42
-0.03936906
  0
VERTEX
  8
0
 10
-285.87835381
 20
-210.32398471
 42
-0.40173254
  0
VERTEX
  8
0
 10
-286.15415094
 20
-210.40558816
 42
-0.40173254
  0
VERTEX
  8
0
 10
-286.24748021
 20
-210.13353517
 42
-0.01499515
  0
VERTEX
  8
0
 10
-286.15488754
 20
-207.13019817
 42
-0.39967115
  0
VERTEX
  8
0
 10
-285.87703073
 20
-207.04306162
 42
-0.39967115
  0
VERTEX
  8
0
 10
-285.77614200
 20
-207.31622577
  0
VERTEX
  8
0
 10
-285.79557172
 20
-208.72086053
  0
SEQEND
  0
POLYLINE
  8
Default_Layer
 62
256
 66
   1
 39
0.000000
 70
    1
  0
VERTEX
  8
0
 10
-284.18799689
 20
-210.44889962
 42
-0.33911349
  0
VERTEX
  8
0
 10
-285.23284264
 20
-209.75121076
 42
-0.27674634
  0
VERTEX
  8
0
 10
-284.79066437
 20
-208.36569865
 42
-0.40108500
  0
VERTEX
  8
0
 10
-283.47418004
 20
-208.50447801
 42
-0.43567875
  0
VERTEX
  8
0
 10
-283.80209585
 20
-209.19897904
 42
-0.01269391
  0
VERTEX
  8
0
 10
-284.88170489
 20
-209.72611404
 42
0.46389300
  0
VERTEX
  8
0
 10
-283.44301369
 20
-209.74922033
 42
-0.40000888
  0
VERTEX
  8
0
 10
-283.19875303
 20
-209.91253841
 42
-0.40000888
  0
VERTEX
  8
0
 10
-283.34997656
 20
-210.16446599
 42
-0.14585744
  0
VERTEX
  8
0
 10
-284.18799689
 20
-210.44889962
  0
SEQEND
  0
POLYLINE
  8
Default_Layer
 62
256
 66
   1
 39
0.000000
 70
    1
  0
VERTEX
  8
0
 10
-284.24407508
 20
-208.55677989
 42
0.33156068
  0
VERTEX
  8
0
 10
-284.87526628
 20
-209.20604074
  0
VERTEX
  8
0
 10
-284.91701338
 20
-209.34395155
 42
0.03174525
  0
VERTEX
  8
0
 10
-283.74352529
 20
-208.72293750
 42
0.13484259
  0
VERTEX
  8
0
 10
-284.24407508
 20
-208.55677989
  0
SEQEND
  0
POLYLINE
  8
Default_Layer
 62
256
 66
   1
 39
0.000000
 70
    1
  0
VERTEX
  8
0
 10
-281.56686066
 20
-209.83619345
 42
-0.32842659
  0
VERTEX
  8
0
 10
-281.37360750
 20
-209.65894209
 42
-0.32842659
  0
VERTEX
  8
0
 10
-281.14696655
 20
-209.79084627
 42
0.28723181
  0
VERTEX
  8
0
 10
-280.33314044
 20
-210.06937329
 42
0.34593141
  0
VERTEX
  8
0
 10
-279.53465672
 20
-209.51424455
 42
0.38922479
  0
VERTEX
  8
0
 10
-280.07970683
 20
-208.94422135
 42
-0.12807233
  0
VERTEX
  8
0
 10
-281.13095657
 20
-208.65881105
 42
-0.46681781
  0
VERTEX
  8
0
 10
-280.91401705
 20
-207.62647904
 42
-0.32747533
  0
VERTEX
  8
0
 10
-279.27829927
 20
-207.53698759
 42
-0.30683352
  0
VERTEX
  8
0
 10
-279.35690699
 20
-207.75614146
 42
-0.30683352
  0
VERTEX
  8
0
 10
-279.58958516
 20
-207.76441581
 42
0.26627203
  0
VERTEX
  8
0
 10
-280.71197978
 20
-207.96515497
 42
0.65373077
  0
VERTEX
  8
0
 10
-280.62474704
 20
-208.45189290
 42
-0.03906781
  0
VERTEX
  8
0
 10
-279.55836570
 20
-208.68824561
 42
-0.30379925
  0
VERTEX
  8
0
 10
-279.12596158
 20
-209.57816438
 42
-0.30379925
  0
VERTEX
  8
0
 10
-279.78389118
 20
-210.31712134
 42
-0.30052449
  0
VERTEX
  8
0
 10
-281.46560837
 20
-210.11450744
 42
-0.12048158
  0
VERTEX
  8
0
 10
-281.56686066
 20
-209.83619345
  0
SEQEND
  0
POLYLINE
  8
Default_Layer
 62
256
 66
   1
 39
0.000000
 70
    1
  0
VERTEX
  8
0
 10
-276.91237074
 20
-209.14040848
 42
-0.03236730
  0
VERTEX
  8
0
 10
-276.91949178
 20
-210.37917277
 42
-0.34948221
  0
VERTEX
  8
0
 10
-277.13488437
 20
-210.50412914
 42
-0.34948221
  0
VERTEX
  8
0
 10
-277.30491809
 20
-210.32220445
 42
-0.30526281
  0
VERTEX
  8
0
 10
-278.43245321
 20
-210.25496254
 42
-0.17657803
  0
VERTEX
  8
0
 10
-278.62696146
 20
-209.48269315
 42
-0.12107314
  0
VERTEX
  8
0
 10
-278.54331149
 20
-208.18448301
 42
-0.31861033
  0
VERTEX
  8
0
 10
-278.27276323
 20
-208.21751550
 42
-0.31861033
  0
VERTEX
  8
0
 10
-278.21447121
 20
-208.48376641
 42
0.11966604
  0
VERTEX
  8
0
 10
-278.14643713
 20
-209.96842722
 42
0.17037432
  0
VERTEX
  8
0
 10
-277.31530294
 20
-209.94627287
 42
-0.05637791
  0
VERTEX
  8
0
 10
-277.24676292
 20
-208.26096001
 42
-0.39561366
  0
VERTEX
  8
0
 10
-276.96200584
 20
-208.19784102
 42
-0.39561366
  0
VERTEX
  8
0
 10
-276.88082676
 20
-208.47798484
  0
VERTEX
  8
0
 10
-276.91237074
 20
-209.14040848
  0
SEQEND
  0
POLYLINE
  8
Default_Layer
 62
256
 66
   1
 39
0.000000
 70
    1
  0
VERTEX
  8
0
 10
-275.51249292
 20
-210.42605295
 42
0.15224592
  0
VERTEX
  8
0
 10
-275.96953018
 20
-210.38440970
 42
-0.06238444
  0
VERTEX
  8
0
 10
-276.01511967
 20
-211.45919721
 42
-0.38121461
  0
VERTEX
  8
0
 10
-276.29957244
 20
-211.50733975
 42
-0.38121461
  0
VERTEX
  8
0
 10
-276.37975010
 20
-211.23020689
  0
VERTEX
  8
0
 10
-276.41710779
 20
-208.35191512
 42
-0.40041824
  0
VERTEX
  8
0
 10
-276.28098687
 20
-208.10407884
 42
-0.40041824
  0
VERTEX
  8
0
 10
-276.02698807
 20
-208.22832191
 42
-0.12921622
  0
VERTEX
  8
0
 10
-276.03173543
 20
-208.45500836
 42
-0.32780756
  0
VERTEX
  8
0
 10
-274.92977300
 20
-208.36349187
 42
-0.25485854
  0
VERTEX
  8
0
 10
-274.64700727
 20
-209.76435473
 42
-0.32843696
  0
VERTEX
  8
0
 10
-275.51249292
 20
-210.42605295
  0
SEQEND
  0
POLYLINE
  8
Default_Layer
 62
256
 66
   1
 39
0.000000
 70
    1
  0
VERTEX
  8
0
 10
-275.36918198
 20
-208.62531991
 42
0.24146643
  0
VERTEX
  8
0
 10
-275.99159799
 20
-208.95540237
 42
0.06212023
  0
VERTEX
  8
0
 10
-275.94263342
 20
-209.92789168
 42
0.27373810
  0
VERTEX
  8
0
 10
-275.19033178
 20
-209.87980983
 42
0.28554080
  0
VERTEX
  8
0
 10
-275.09086799
 20
-208.81432418
 42
0.21913511
  0
VERTEX
  8
0
 10
-275.36918198
 20
-208.62531991
  0
SEQEND
  0
POLYLINE
  8
Default_Layer
 62
256
 66
   1
 39
0.000000
 70
    1
  0
VERTEX
  8
0
 10
-273.23821069
 20
-210.42605295
 42
0.15224592
  0
VERTEX
  8
0
 10
-273.69524796
 20
-210.38440970
 42
-0.06238444
  0
VERTEX
  8
0
 10
-273.74083745
 20
-211.45919721
 42
-0.38121461
  0
VERTEX
  8
0
 10
-274.02529021
 20
-211.50733975
 42
-0.38121461
  0
VERTEX
  8
0
 10
-274.10546787
 20
-211.23020689
  0
VERTEX
  8
0
 10
-274.14282557
 20
-208.35191512
 42
-0.40041824
  0
VERTEX
  8
0
 10
-274.00670464
 20
-208.10407884
 42
-0.40041824
  0
VERTEX
  8
0
 10
-273.75270585
 20
-208.22832191
 42
-0.12921622
  0
VERTEX
  8
0
 10
-273.75745321
 20
-208.45500836
 42
-0.32780756
  0
VERTEX
  8
0
 10
-272.65549078
 20
-208.36349187
 42
-0.25485854
  0
VERTEX
  8
0
 10
-272.37272505
 20
-209.76435473
 42
-0.32843696
  0
VERTEX
  8
0
 10
-273.23821069
 20
-210.42605295
  0
SEQEND
  0
POLYLINE
  8
Default_Layer
 62
256
 66
   1
 39
0.000000
 70
    1
  0
VERTEX
  8
0
 10
-273.09489976
 20
-208.62531991
 42
0.24146643
  0
VERTEX
  8
0
 10
-273.71731576
 20
-208.95540237
 42
0.06212023
  0
VERTEX
  8
0
 10
-273.66835120
 20
-209.92789168
 42
0.27373810
  0
VERTEX
  8
0
 10
-272.91604956
 20
-209.87980983
 42
0.28554080
  0
VERTEX
  8
0
 10
-272.81658577
 20
-208.81432418
 42
0.21913511
  0
VERTEX
  8
0
 10
-273.09489976
 20
-208.62531991
  0
SEQEND
  0
POLYLINE
  8
Default_Layer
 62
256
 66
   1
 39
0.000000
 70
    1
  0
VERTEX
  8
0
 10
-271.31909035
 20
-208.72086053
 42
-0.03936906
  0
VERTEX
  8
0
 10
-271.40187245
 20
-210.32398471
 42
-0.40173254
  0
VERTEX
  8
0
 10
-271.67766958
 20
-210.40558816
 42
-0.40173254
  0
VERTEX
  8
0
 10
-271.77099884
 20
-210.13353517
 42
-0.01499515
  0
VERTEX
  8
0
 10
-271.67840617
 20
-207.13019817
 42
-0.39967115
  0
VERTEX
  8
0
 10
-271.40054936
 20
-207.04306162
 42
-0.39967115
  0
VERTEX
  8
0
 10
-271.29966063
 20
-207.31622577
  0
VERTEX
  8
0
 10
-271.31909035
 20
-208.72086053
  0
SEQEND
  0
POLYLINE
  8
Default_Layer
 62
256
 66
   1
 39
0.000000
 70
    1
  0
VERTEX
  8
0
 10
-268.86203476
 20
-208.50070170
 42
0.00559572
  0
VERTEX
  8
0
 10
-270.19856500
 20
-211.51853921
 42
-0.34317257
  0
VERTEX
  8
0
 10
-270.46683864
 20
-211.46354092
 42
-0.34317257
  0
VERTEX
  8
0
 10
-270.47950575
 20
-211.18998087
  0
VERTEX
  8
0
 10
-270.08850156
 20
-210.13195399
 42
-0.01482775
  0
VERTEX
  8
0
 10
-270.97015938
 20
-208.41139199
 42
-0.36159034
  0
VERTEX
  8
0
 10
-270.75708109
 20
-208.22232115
 42
-0.36159034
  0
VERTEX
  8
0
 10
-270.53240085
 20
-208.39744662
 42
-0.03253242
  0
VERTEX
  8
0
 10
-269.85274949
 20
-209.66588191
 42
-0.05366161
  0
VERTEX
  8
0
 10
-269.14865663
 20
-208.22238771
 42
-0.31230643
  0
VERTEX
  8
0
 10
-268.90903251
 20
-208.26235650
 42
-0.31230643
  0
VERTEX
  8
0
 10
-268.86203476
 20
-208.50070170
  0
SEQEND
  0
CIRCLE
  8
Default_Layer
 62
256
 10
-305.438568
 20
-208.835864
 40
3.600000
  0
ENDSEC
  0
EOF
