  0
SECTION
  2
HEADER
  9
$ACADVER
  1
AC1009
  9
$EXTMIN
 10
-124.67079208
 20
3.76237624
 30
0.0
  9
$EXTMAX
 10
225.32920792
 20
253.76237624
 30
0.0
  0
ENDSEC
  0
SECTION
  2
TABLES
  0
TABLE
  2
LAYER
 70
1
 0
LAYER
 2
Default_Layer
 70
0
 62
18
 6
CONTINUOUS
 0
ENDTAB
 0
ENDSEC
  0
SECTION
  2
ENTITIES
  0
POLYLINE
  8
Default_Layer
 62
256
 66
   1
 39
0.000000
 70
    1
  0
VERTEX
  8
0
 10
-122.67079208
 20
5.76237624
  0
VERTEX
  8
0
 10
-122.67079208
 20
16.01237624
  0
VERTEX
  8
0
 10
-122.67079208
 20
36.51237624
  0
VERTEX
  8
0
 10
-124.67079208
 20
36.51237624
  0
VERTEX
  8
0
 10
-124.67079208
 20
57.01237624
  0
VERTEX
  8
0
 10
-122.67079208
 20
57.01237624
  0
VERTEX
  8
0
 10
-122.67079208
 20
77.51237624
  0
VERTEX
  8
0
 10
-124.67079208
 20
77.51237624
  0
VERTEX
  8
0
 10
-124.67079208
 20
98.01237624
  0
VERTEX
  8
0
 10
-122.67079208
 20
98.01237624
  0
VERTEX
  8
0
 10
-122.67079208
 20
118.51237624
  0
VERTEX
  8
0
 10
-124.67079208
 20
118.51237624
  0
VERTEX
  8
0
 10
-124.67079208
 20
139.01237624
  0
VERTEX
  8
0
 10
-122.67079208
 20
139.01237624
  0
VERTEX
  8
0
 10
-122.67079208
 20
159.51237624
  0
VERTEX
  8
0
 10
-124.67079208
 20
159.51237624
  0
VERTEX
  8
0
 10
-124.67079208
 20
180.01237624
  0
VERTEX
  8
0
 10
-122.67079208
 20
180.01237624
  0
VERTEX
  8
0
 10
-122.67079208
 20
200.51237624
  0
VERTEX
  8
0
 10
-124.67079208
 20
200.51237624
  0
VERTEX
  8
0
 10
-124.67079208
 20
221.01237624
  0
VERTEX
  8
0
 10
-122.67079208
 20
221.01237624
  0
VERTEX
  8
0
 10
-122.67079208
 20
251.76237624
  0
VERTEX
  8
0
 10
-103.42079208
 20
251.76237624
  0
VERTEX
  8
0
 10
-103.42079208
 20
253.76237624
  0
VERTEX
  8
0
 10
-82.92079208
 20
253.76237624
  0
VERTEX
  8
0
 10
-82.92079208
 20
251.76237624
  0
VERTEX
  8
0
 10
-62.42079208
 20
251.76237624
  0
VERTEX
  8
0
 10
-62.42079208
 20
253.76237624
  0
VERTEX
  8
0
 10
-41.92079208
 20
253.76237624
  0
VERTEX
  8
0
 10
-41.92079208
 20
251.76237624
  0
VERTEX
  8
0
 10
-21.42079208
 20
251.76237624
  0
VERTEX
  8
0
 10
-21.42079208
 20
253.76237624
  0
VERTEX
  8
0
 10
-0.92079208
 20
253.76237624
  0
VERTEX
  8
0
 10
-0.92079208
 20
251.76237624
  0
VERTEX
  8
0
 10
19.57920792
 20
251.76237624
  0
VERTEX
  8
0
 10
19.57920792
 20
253.76237624
  0
VERTEX
  8
0
 10
40.07920792
 20
253.76237624
  0
VERTEX
  8
0
 10
40.07920792
 20
251.76237624
  0
VERTEX
  8
0
 10
60.57920792
 20
251.76237624
  0
VERTEX
  8
0
 10
60.57920792
 20
253.76237624
  0
VERTEX
  8
0
 10
81.07920792
 20
253.76237624
  0
VERTEX
  8
0
 10
81.07920792
 20
251.76237624
  0
VERTEX
  8
0
 10
101.57920792
 20
251.76237624
  0
VERTEX
  8
0
 10
101.57920792
 20
253.76237624
  0
VERTEX
  8
0
 10
122.07920792
 20
253.76237624
  0
VERTEX
  8
0
 10
122.07920792
 20
251.76237624
  0
VERTEX
  8
0
 10
142.57920792
 20
251.76237624
  0
VERTEX
  8
0
 10
142.57920792
 20
253.76237624
  0
VERTEX
  8
0
 10
163.07920792
 20
253.76237624
  0
VERTEX
  8
0
 10
163.07920792
 20
251.76237624
  0
VERTEX
  8
0
 10
183.57920792
 20
251.76237624
  0
VERTEX
  8
0
 10
183.57920792
 20
253.76237624
  0
VERTEX
  8
0
 10
204.07920792
 20
253.76237624
  0
VERTEX
  8
0
 10
204.07920792
 20
251.76237624
  0
VERTEX
  8
0
 10
223.32920792
 20
251.76237624
  0
VERTEX
  8
0
 10
223.32920792
 20
241.51237624
  0
VERTEX
  8
0
 10
223.32920792
 20
221.01237624
  0
VERTEX
  8
0
 10
225.32920792
 20
221.01237624
  0
VERTEX
  8
0
 10
225.32920792
 20
200.51237624
  0
VERTEX
  8
0
 10
223.32920792
 20
200.51237624
  0
VERTEX
  8
0
 10
223.32920792
 20
180.01237624
  0
VERTEX
  8
0
 10
225.32920792
 20
180.01237624
  0
VERTEX
  8
0
 10
225.32920792
 20
159.51237624
  0
VERTEX
  8
0
 10
223.32920792
 20
159.51237624
  0
VERTEX
  8
0
 10
223.32920792
 20
139.01237624
  0
VERTEX
  8
0
 10
225.32920792
 20
139.01237624
  0
VERTEX
  8
0
 10
225.32920792
 20
118.51237624
  0
VERTEX
  8
0
 10
223.32920792
 20
118.51237624
  0
VERTEX
  8
0
 10
223.32920792
 20
98.01237624
  0
VERTEX
  8
0
 10
225.32920792
 20
98.01237624
  0
VERTEX
  8
0
 10
225.32920792
 20
77.51237624
  0
VERTEX
  8
0
 10
223.32920792
 20
77.51237624
  0
VERTEX
  8
0
 10
223.32920792
 20
57.01237624
  0
VERTEX
  8
0
 10
225.32920792
 20
57.01237624
  0
VERTEX
  8
0
 10
225.32920792
 20
36.51237624
  0
VERTEX
  8
0
 10
223.32920792
 20
36.51237624
  0
VERTEX
  8
0
 10
223.32920792
 20
5.76237624
  0
VERTEX
  8
0
 10
204.07920792
 20
5.76237624
  0
VERTEX
  8
0
 10
204.07920792
 20
3.76237624
  0
VERTEX
  8
0
 10
183.57920792
 20
3.76237624
  0
VERTEX
  8
0
 10
183.57920792
 20
5.76237624
  0
VERTEX
  8
0
 10
163.07920792
 20
5.76237624
  0
VERTEX
  8
0
 10
163.07920792
 20
3.76237624
  0
VERTEX
  8
0
 10
142.57920792
 20
3.76237624
  0
VERTEX
  8
0
 10
142.57920792
 20
5.76237624
  0
VERTEX
  8
0
 10
122.07920792
 20
5.76237624
  0
VERTEX
  8
0
 10
122.07920792
 20
3.76237624
  0
VERTEX
  8
0
 10
101.57920792
 20
3.76237624
  0
VERTEX
  8
0
 10
101.57920792
 20
5.76237624
  0
VERTEX
  8
0
 10
81.07920792
 20
5.76237624
  0
VERTEX
  8
0
 10
81.07920792
 20
3.76237624
  0
VERTEX
  8
0
 10
60.57920792
 20
3.76237624
  0
VERTEX
  8
0
 10
60.57920792
 20
5.76237624
  0
VERTEX
  8
0
 10
40.07920792
 20
5.76237624
  0
VERTEX
  8
0
 10
40.07920792
 20
3.76237624
  0
VERTEX
  8
0
 10
19.57920792
 20
3.76237624
  0
VERTEX
  8
0
 10
19.57920792
 20
5.76237624
  0
VERTEX
  8
0
 10
-0.92079208
 20
5.76237624
  0
VERTEX
  8
0
 10
-0.92079208
 20
3.76237624
  0
VERTEX
  8
0
 10
-21.42079208
 20
3.76237624
  0
VERTEX
  8
0
 10
-21.42079208
 20
5.76237624
  0
VERTEX
  8
0
 10
-41.92079208
 20
5.76237624
  0
VERTEX
  8
0
 10
-41.92079208
 20
3.76237624
  0
VERTEX
  8
0
 10
-62.42079208
 20
3.76237624
  0
VERTEX
  8
0
 10
-62.42079208
 20
5.76237624
  0
VERTEX
  8
0
 10
-82.92079208
 20
5.76237624
  0
VERTEX
  8
0
 10
-82.92079208
 20
3.76237624
  0
VERTEX
  8
0
 10
-103.42079208
 20
3.76237624
  0
VERTEX
  8
0
 10
-103.42079208
 20
5.76237624
  0
VERTEX
  8
0
 10
-122.67079208
 20
5.76237624
  0
SEQEND
  0
CIRCLE
  8
Default_Layer
 62
256
 10
117.372525
 20
233.482673
 40
3.000000
  0
CIRCLE
  8
Default_Layer
 62
256
 10
193.102004
 20
233.482673
 40
3.000000
  0
CIRCLE
  8
Default_Layer
 62
256
 10
158.102004
 20
233.482673
 40
3.000000
  0
CIRCLE
  8
Default_Layer
 62
256
 10
32.372525
 20
233.482673
 40
3.000000
  0
CIRCLE
  8
Default_Layer
 62
256
 10
-85.572635
 20
231.482673
 40
5.000000
  0
CIRCLE
  8
Default_Layer
 62
256
 10
-85.572635
 20
206.482673
 40
4.000000
  0
CIRCLE
  8
Default_Layer
 62
256
 10
-85.572635
 20
181.482673
 40
2.500000
  0
CIRCLE
  8
Default_Layer
 62
256
 10
-65.572635
 20
231.482673
 40
5.000000
  0
CIRCLE
  8
Default_Layer
 62
256
 10
-65.572635
 20
206.482673
 40
4.000000
  0
CIRCLE
  8
Default_Layer
 62
256
 10
-65.572635
 20
181.482673
 40
2.500000
  0
CIRCLE
  8
Default_Layer
 62
256
 10
-35.572635
 20
231.482673
 40
10.000000
  0
CIRCLE
  8
Default_Layer
 62
256
 10
-35.572635
 20
206.482673
 40
4.000000
  0
CIRCLE
  8
Default_Layer
 62
256
 10
-35.572635
 20
181.482673
 40
2.500000
  0
POLYLINE
  8
Default_Layer
 62
256
 66
   1
 39
0.000000
 70
    1
  0
VERTEX
  8
0
 10
-41.82279208
 20
102.88137624
  0
VERTEX
  8
0
 10
-41.82279208
 20
152.88137624
  0
VERTEX
  8
0
 10
8.17720792
 20
152.88137624
  0
VERTEX
  8
0
 10
8.17720792
 20
102.88137624
  0
VERTEX
  8
0
 10
-41.82279208
 20
102.88137624
  0
SEQEND
  0
POLYLINE
  8
Default_Layer
 62
256
 66
   1
 39
0.000000
 70
    1
  0
VERTEX
  8
0
 10
-41.82279208
 20
47.88137624
  0
VERTEX
  8
0
 10
-41.82279208
 20
97.88137624
  0
VERTEX
  8
0
 10
8.17720792
 20
97.88137624
  0
VERTEX
  8
0
 10
8.17720792
 20
47.88137624
  0
VERTEX
  8
0
 10
-41.82279208
 20
47.88137624
  0
SEQEND
  0
POLYLINE
  8
Default_Layer
 62
256
 66
   1
 39
0.000000
 70
    1
  0
VERTEX
  8
0
 10
-96.82279208
 20
47.88137624
  0
VERTEX
  8
0
 10
-96.82279208
 20
97.88137624
  0
VERTEX
  8
0
 10
-46.82279208
 20
97.88137624
  0
VERTEX
  8
0
 10
-46.82279208
 20
47.88137624
  0
VERTEX
  8
0
 10
-96.82279208
 20
47.88137624
  0
SEQEND
  0
POLYLINE
  8
Default_Layer
 62
256
 66
   1
 39
0.000000
 70
    1
  0
VERTEX
  8
0
 10
-96.82279208
 20
102.88137624
  0
VERTEX
  8
0
 10
-96.82279208
 20
152.88137624
  0
VERTEX
  8
0
 10
-46.82279208
 20
152.88137624
  0
VERTEX
  8
0
 10
-46.82279208
 20
102.88137624
  0
VERTEX
  8
0
 10
-96.82279208
 20
102.88137624
  0
SEQEND
  0
ENDSEC
  0
EOF
